<svg width="1325" height="1883" viewBox="0 0 1325 1883" fill="none" xmlns="http://www.w3.org/2000/svg">
<path d="M602.192 524.867C602.561 524.314 601.897 522.949 600.79 521.732C599.389 520.256 598.688 517.969 598.282 514.243C597.987 511.218 597.249 508.23 596.696 507.492C596.142 506.755 595.589 504.541 595.515 502.402C595.405 500.299 594.962 496.131 594.409 493.069C593.117 485.064 591.384 472.521 590.978 467.689C590.683 465.365 590.166 460.68 589.687 457.065C589.133 453.56 588.1 445.26 587.289 438.62C586.477 432.091 585.26 425.23 584.596 423.385C583.858 421.651 582.862 415.823 582.272 410.474C581.719 405.125 580.87 398.485 580.428 395.718C579.948 392.952 579.321 388.34 578.952 385.574C578.657 382.807 577.845 379.487 577.218 378.196C575.632 374.95 574.267 366.502 573.529 356.062C572.607 343.705 568.07 324.707 561.171 304.86C558.22 296.376 555.085 286.158 553.794 281.141C553.314 279.222 550.842 274.058 548.334 269.594C545.826 265.057 542.616 258.97 541.251 255.945C539.85 252.92 537.931 248.936 536.935 247.092C536.013 245.247 535.275 243.108 535.275 242.407C535.275 241.227 534.353 239.825 530.037 234.402C528.93 232.926 526.791 229.606 525.426 226.914C520.63 218.06 520.077 217.138 516.646 212.896C514.544 210.387 513.142 207.731 513.142 206.256C513.142 204.411 511.666 202.382 507.682 198.509C504.731 195.668 501.522 192.053 500.599 190.504C499.677 189.028 498.202 187.184 497.353 186.631C496.542 186.004 494.771 183.68 493.48 181.54C492.189 179.327 489.164 175.933 486.729 173.867C484.331 171.838 478.06 165.936 472.785 160.661C467.436 155.496 461.608 150.147 459.763 148.782C457.845 147.381 454.599 144.725 452.57 142.696C450.467 140.777 447.885 138.638 446.852 138.011C445.819 137.457 441.761 134.506 437.814 131.481C427.375 123.292 421.398 119.013 420.55 119.013C419.443 119.013 409.299 111.635 409.299 110.897C409.188 109.422 403.581 104.515 401.294 103.962C399.634 103.483 398.896 102.782 398.97 101.564C399.081 99.9043 399.265 99.9043 401.552 101.011C402.954 101.749 405.868 102.302 408.303 102.191C410.627 102.191 413.098 102.671 413.762 103.224C414.5 103.778 417.082 104.515 419.48 104.884C421.878 105.179 426.415 106.803 429.514 108.389C432.65 110.049 436.154 111.709 437.445 112.078C438.736 112.447 441.429 113.922 443.458 115.324C445.487 116.615 449.176 118.755 451.648 119.935C454.156 121.116 459.579 124.177 463.637 126.76C467.805 129.342 475.994 133.842 481.897 136.904C487.799 139.855 494.808 143.987 497.575 146.016C500.267 148.045 505.137 151.106 508.457 152.766C511.777 154.426 515.945 157.193 517.679 158.853C519.413 160.587 522.475 163.169 524.504 164.682C526.422 166.157 529.41 169.219 531.033 171.432C532.767 173.646 535.718 176.597 537.673 178.072C539.591 179.474 542.653 182.868 544.424 185.45C546.158 188.143 550.031 192.644 553.093 195.484C556.044 198.325 562.499 205.997 567.479 212.637C576.702 224.995 579.026 228.574 578.251 229.422C577.698 229.975 582.788 240.489 583.969 241.116C584.448 241.485 586.367 244.362 588.137 247.571C591.457 253.474 600.126 263.803 601.676 263.803C602.155 263.803 602.709 263.249 602.856 262.696C603.336 260.962 605.881 251.15 607.172 246.096C607.725 243.587 608.648 241.669 609.09 241.669C609.57 241.669 609.718 241.3 609.386 240.858C609.09 240.378 609.275 239.751 609.865 239.382C610.345 239.087 610.787 238.202 610.787 237.538C610.787 236.8 611.82 234.033 613.001 231.377C614.181 228.684 615.952 223.372 616.874 219.573C617.796 215.81 619.087 212.084 619.714 211.457C620.342 210.83 620.895 209.723 621.006 209.133C621.374 202.677 630.707 179.142 635.392 172.797C636.499 171.211 638.417 167.264 639.635 164.018C640.815 160.771 644.061 154.611 646.939 150.369C649.779 146.053 653.394 140.224 654.944 137.457C656.604 134.691 659.37 130.522 661.03 128.235C662.764 125.911 665.826 121.78 667.855 119.013C671.617 113.664 684.344 101.011 690.542 96.3998C694.784 93.3749 697.735 90.7927 703.932 84.8535C710.683 78.4717 719.352 71.0201 724.111 67.4418C726.435 65.708 730.493 62.3511 733.038 60.064C740.342 53.5346 750.56 46.1199 753.88 45.0501C755.54 44.423 760.262 41.8039 764.32 39.2217C768.378 36.6394 777.526 31.6594 784.609 28.1549C791.692 24.7242 798.553 21.4042 799.844 20.7771C804.75 18.2686 814.415 14.7642 816.998 14.5059C818.473 14.3215 820.502 13.7682 821.535 13.2148C823.269 12.2926 827.142 11.481 833.524 10.5219C835.11 10.3375 837.139 9.78412 838.135 9.41523C842.008 7.75522 846.546 6.39032 849.202 5.98454C850.788 5.8001 854.108 5.24676 856.58 4.69342C859.162 4.14008 863.515 3.51297 866.281 3.21786C869.048 2.84897 873.586 2.18496 876.315 1.74229C879.082 1.26273 883.988 0.930734 887.087 0.930734C896.678 0.930734 896.014 -2.57374 895.387 46.4888C895.018 69.9134 894.354 102.487 893.911 118.976C893.432 135.465 893.1 165.567 893.1 185.93C892.989 206.219 892.731 223.188 892.362 223.557C891.329 224.479 891.329 225.29 890.333 256.831C888.23 318.989 888.23 319.247 886.46 323.305C885.538 325.629 883.767 327.621 882.218 328.469C880.816 329.207 878.787 330.203 877.791 330.793C873.622 333.007 871.04 333.745 865.249 334.224C861.818 334.593 856.838 335.626 854.182 336.548C851.415 337.47 847.652 338.466 845.771 338.872C843.853 339.241 841.787 340.053 841.16 340.717C840.533 341.344 835.627 342.93 830.278 344.332C813.493 348.5 808.698 349.791 807.038 350.603C806.115 351.082 804.529 351.414 803.607 351.414C800.766 351.414 778.817 358.718 772.915 361.559C770.075 363.034 766.755 364.399 765.537 364.805C763.139 365.617 751.593 370.892 739.604 376.905C725.217 383.988 706.957 397.083 688.218 413.794C668.039 431.796 660.293 440.096 649.004 455.663C645.5 460.459 639.672 467.763 636.093 471.821C632.478 475.878 628.347 480.858 626.871 482.887C625.395 484.916 622.887 488.052 621.264 489.822C618.313 492.958 611.23 507.087 608.98 514.28C606.951 520.662 604.184 525.826 602.819 525.826C602.008 525.826 601.713 525.347 602.008 524.793L602.192 524.867Z" fill="#DBC087"/>
<path d="M654.281 469.164C653.174 467.763 656.014 463.078 664.61 452.38C671.065 444.449 678.443 437.624 690.248 428.771C695.043 425.156 699.175 421.946 699.47 421.577C701.388 418.995 727.801 401.842 740.528 394.943C754.361 387.381 775.83 377.237 784.794 373.99C788.41 372.81 793.722 370.744 796.783 369.564C802.317 367.35 815.486 363.551 818.917 363.182C819.95 363.071 823.454 362.075 826.774 361.079C830.094 359.973 835.074 358.866 837.841 358.497C840.608 358.202 844.223 357.575 845.698 357.095C847.285 356.616 851.601 355.435 855.29 354.402C859.052 353.296 862.372 352.078 862.667 351.709C863.147 351.082 876.39 348.389 889.412 346.36C894.945 345.438 899.372 343.225 900.479 340.753C902.323 336.769 903.246 326.293 903.43 307.553C903.541 297.777 903.983 290.031 904.463 290.289C904.832 290.584 905.201 289.994 905.201 289.182C905.201 288.26 905.569 281.878 906.123 275.054C907.229 259.118 907.967 241.78 908.447 221.933C908.742 213.338 909.258 199.247 909.849 190.578C910.402 181.54 910.771 154.057 910.586 126.022C910.291 77.1436 910.291 77.1436 912.8 71.8684C914.829 67.4417 915.825 66.335 919.735 64.5644C923.498 62.8306 926.006 62.4617 937.073 62.1666C977.835 61.355 989.197 62.2772 990.562 66.4826C991.189 68.5853 988.828 86.329 986.689 95.0717C985.877 98.3917 984.955 102.56 984.586 104.294C984.106 106.028 983.11 110.196 982.262 113.516C978.831 127.239 978.204 130.116 976.729 138.896C975.917 143.987 974.146 153.209 972.966 159.296C971.786 165.456 970.753 171.395 970.753 172.391C970.753 173.498 970.125 174.715 969.351 175.158C967.433 176.191 965.109 184.27 964.26 192.865C963.633 199.8 960.756 216.031 958.247 226.545C957.62 229.569 955.923 236.874 954.558 242.702C953.267 248.53 951.718 254.986 951.128 257.015C950.574 259.044 949.468 264.688 948.545 269.484C947.734 274.279 945.225 286.342 943.086 296.228C940.983 306.078 938.548 317.55 937.847 321.608C937.11 325.666 935.007 335.626 933.236 343.741C931.503 351.857 929.179 362.444 928.146 367.277C925.194 380.999 925.563 380.372 920.214 382.143C917.632 383.065 912.726 384.246 909.443 384.836C906.123 385.389 901.954 386.422 900.331 387.049C898.671 387.861 890.924 388.783 882.145 389.447C873.365 390 863.811 391.181 859.532 392.287C854.847 393.468 848.17 394.206 840.977 394.39C829.283 394.759 824.008 395.866 820.872 398.706C819.839 399.739 818.364 400.44 817.626 400.551C811.244 400.846 805.452 401.657 802.759 402.653C801.026 403.391 794.349 405.42 788.004 407.264C761.149 415.196 751.373 419.143 719.279 435.19C691.981 448.838 690.69 449.502 682.132 455.589C678.443 458.282 674.643 460.385 673.647 460.385C672.725 460.385 671.434 461.196 670.881 462.229C670.327 463.262 670.143 464.074 670.401 464.074C670.77 464.074 669.848 465.107 668.372 466.287C666.897 467.468 664.056 468.869 662.101 469.127C660.072 469.496 657.674 469.939 656.863 470.16C656.051 470.271 654.834 469.865 654.281 469.127V469.164Z" fill="#DBC087"/>
<path d="M696.335 468.869C696.151 468.684 694.86 468.5 693.384 468.389C691.282 468.205 690.802 467.762 690.691 465.881C690.691 464.295 691.429 463.299 693.015 462.635C694.196 462.155 700.578 459.13 707.033 455.995C713.489 452.748 719.022 450.166 719.391 450.166C719.76 450.166 723.633 448.137 728.06 445.555C732.487 443.046 739.754 439.468 744.291 437.624C748.829 435.89 752.886 434.009 753.403 433.566C753.882 433.197 757.018 431.906 760.338 430.799C763.658 429.619 766.794 428.291 767.273 428.033C767.827 427.664 771.036 426.631 774.577 425.709C778.082 424.897 784.427 422.942 788.595 421.466C792.764 419.991 800.4 417.777 805.675 416.486C810.839 415.306 817.037 413.646 819.324 412.871C821.648 412.06 833.157 409.846 844.777 407.707C861.562 404.866 868.755 403.944 879.379 403.723C886.868 403.538 896.09 402.8 900.148 401.989C904.206 401.177 912.137 400.255 917.67 399.886C929.217 399.259 934.455 398.042 935.193 395.718C935.488 394.795 936.299 391.291 937.037 387.787C941.206 367.239 943.972 354.328 944.894 351.451C945.374 349.717 946.923 342.856 948.214 336.216C949.395 329.686 951.977 318.435 953.822 311.315C955.555 304.233 957.584 295.453 958.359 291.764C958.986 288.075 960.019 284.276 960.462 283.28C961.015 282.247 961.495 280.439 961.495 279.222C961.495 277.931 962.122 275.533 962.896 273.762C963.634 271.918 964.815 266.384 965.663 261.404C966.475 256.424 967.766 250.448 968.43 248.124C969.168 245.8 970.827 238.607 972.192 231.967C973.484 225.437 974.959 219.498 975.439 218.945C975.808 218.465 976.84 214.518 977.541 210.165C979.128 201.496 983.554 179.474 986.395 165.972C993.699 132.292 995.506 127.165 1001.04 124.546C1005.47 122.517 1040.14 122.443 1045.79 124.361C1047.82 125.099 1051.61 125.763 1054.09 125.947C1063.86 126.685 1069.1 127.866 1073.34 130.263C1078.03 133.03 1078.32 133.952 1076.29 138.932C1075.56 140.666 1074.89 142.806 1074.89 143.544C1074.89 144.281 1073.23 148.524 1071.13 152.95C1069.03 157.266 1066.15 164.57 1064.6 169.182C1063.12 173.719 1061.35 178.035 1060.62 178.883C1059.99 179.621 1059.03 181.576 1058.7 183.052C1058.33 184.638 1056.85 187.294 1055.45 189.065C1054.05 190.799 1052.68 193.307 1052.32 194.598C1051.95 195.889 1050.66 199.136 1049.48 201.792C1048.29 204.484 1047.26 207.03 1047.26 207.62C1047.26 208.173 1046.45 210.202 1045.42 212.047C1044.5 213.891 1041.91 219.72 1039.88 225.069C1037.78 230.417 1035.35 236.246 1034.65 237.98C1033.91 239.714 1032.54 243.513 1031.51 246.28C1030.59 249.046 1028.37 254.137 1026.6 257.642C1024.87 261.072 1023.65 263.802 1024.02 263.802C1024.39 263.802 1024.21 264.171 1023.65 264.54C1022.55 265.278 1018.67 273.578 1018.67 275.238C1018.67 275.791 1017.64 278.189 1016.35 280.587C1015.06 282.985 1014.02 285.567 1014.02 286.415C1014.02 287.153 1013.66 287.817 1013.1 287.817C1012 287.817 1009.12 293.35 1007.64 298.441C1007.02 300.47 1005.25 304.712 1003.77 307.958C1002.29 311.205 1001.08 314.23 1001.08 314.894C1001.08 316.554 991.559 338.982 990.563 339.683C989.457 340.421 986.321 348.721 986.321 351.045C986.321 352.078 985.509 354.181 984.477 355.656C983.444 357.242 982.632 359.087 982.632 359.825C982.632 360.636 981.821 362.96 980.788 364.915C979.755 366.944 978.279 371.076 977.468 374.027C976.066 379.376 969.352 395.423 967.766 397.193C967.286 397.673 966.954 398.779 966.954 399.591C966.954 400.513 964.851 405.678 962.269 411.211C959.687 416.671 956.736 423.569 955.74 426.705C954.633 429.729 953.231 433.086 952.604 434.082C951.866 435.115 951.313 436.591 951.313 437.513C951.313 438.435 950.944 439.173 950.502 439.173C949.948 439.173 949.026 440.28 948.399 441.682C946.813 444.817 943.234 447.51 940.283 447.584C936.041 447.768 921.839 446.293 921.839 445.666C921.839 445.297 917.597 444.559 912.432 443.932C907.194 443.305 901.919 442.53 900.627 442.346C896.459 441.608 873.514 440.427 869.272 440.686C866.948 440.87 857.283 441.423 847.692 442.087C837.252 442.714 827.292 443.821 822.791 444.928C818.734 445.961 812.02 447.03 807.925 447.51C803.867 447.99 797.891 448.69 794.534 449.244C791.214 449.797 784.021 450.277 778.377 450.277C769.597 450.277 767.495 450.646 762.699 452.675C756.243 455.441 753.366 456.29 743.332 458.208C735.77 459.683 721.088 463.926 715.85 466.324C711.165 468.352 704.968 469.644 700.615 469.459C698.401 469.348 696.557 469.09 696.372 468.906L696.335 468.869Z" fill="#DBC087"/>
<path d="M571.94 164.165C570.022 163.686 568.177 162.579 567.882 161.952C567.587 161.214 566.849 160.661 566.149 160.661C565.411 160.661 564.857 160.181 564.857 159.628C564.857 158.89 566.517 158.706 570.686 159.259C578.359 160.071 578.875 160.071 587.766 159.259C592.082 158.78 595.328 158.89 595.254 159.37C595.254 159.849 594.074 161.104 592.561 162.321C590.459 163.981 588.393 164.424 582.712 164.829C578.728 165.014 573.932 164.719 572.014 164.202L571.94 164.165Z" fill="#DBC087"/>
<path d="M370.734 1642.46L363.063 1615.6H326.6L318.431 1642.46H284.559L326.6 1506.19H370.734L413.273 1642.46H370.734ZM333.673 1585.85H355.79L344.732 1546.32L333.673 1585.85Z" fill="#DBC087"/>
<path d="M521.167 1609.01V1642.46H425.826V1506.19H467.569V1609.01H521.167Z" fill="#DBC087"/>
<path d="M683.654 1506.19V1642.46H644.9V1545.02L619.695 1642.46H593.195L567.094 1545.02V1642.46H535.812V1506.19H590.306L610.032 1578.57L628.861 1506.19H683.654Z" fill="#DBC087"/>
<path d="M782.382 1642.46L774.711 1615.6H738.249L730.079 1642.46H696.207L738.249 1506.19H782.382L824.922 1642.46H782.382ZM745.322 1585.85H767.439L756.38 1546.32L745.322 1585.85Z" fill="#DBC087"/>
<path d="M885.593 1538.84V1642.46H846.042V1538.84H817.849V1506.19H913.787V1538.84H885.593Z" fill="#DBC087"/>
<path d="M1045.99 1506.19L1003.45 1584.76V1642.46H962.902V1584.76L917.174 1506.19H962.902L986.712 1551.01L1009.53 1506.19H1045.99Z" fill="#DBC087"/>
<path d="M295.717 1882.46V1746.2H348.318C371.166 1746.2 388.268 1752.98 399.625 1766.56C410.982 1780.14 416.661 1795.84 416.661 1813.68C416.661 1834.04 410.55 1850.62 398.33 1863.39C386.176 1876.1 370.369 1882.46 350.909 1882.46H295.717ZM337.459 1851.11H348.318C355.226 1851.11 361.037 1847.75 365.753 1841.03C370.535 1834.31 372.926 1825.16 372.926 1813.58C372.926 1803.66 370.8 1795.11 366.55 1787.92C362.365 1780.74 356.288 1777.14 348.318 1777.14H337.459V1851.11Z" fill="#DBC087"/>
<path d="M504.828 1882.46L497.157 1855.61H460.695L452.526 1882.46H418.653L460.695 1746.2H504.828L547.368 1882.46H504.828ZM467.768 1825.86H489.885L478.826 1786.33L467.768 1825.86Z" fill="#DBC087"/>
<path d="M680.965 1882.46H634.639L614.814 1830.35H601.663V1882.46H559.921V1746.2H630.953C646.627 1746.2 658.782 1749.89 667.416 1757.28C676.116 1764.6 680.466 1774.28 680.466 1786.33C680.466 1794.18 678.872 1801.13 675.684 1807.19C672.496 1813.18 666.054 1818.47 656.357 1823.06L680.965 1882.46ZM601.663 1801.2H619.496C624.743 1801.2 628.961 1800.1 632.149 1797.91C635.337 1795.71 636.931 1792.48 636.931 1788.22C636.931 1779.5 631.584 1775.15 620.891 1775.15H601.663V1801.2Z" fill="#DBC087"/>
<path d="M809.48 1746.2L766.941 1824.76V1882.46H726.393V1824.76L680.666 1746.2H726.393L750.204 1791.02L773.018 1746.2H809.48Z" fill="#DBC087"/>
<path d="M933.612 1882.46H899.64L862.381 1822.26C857.599 1814.54 852.784 1805.16 847.935 1794.11C850.127 1802.9 851.223 1810.35 851.223 1816.47V1882.46H817.35V1746.2H856.802L888.482 1796.11C894.792 1806.03 899.574 1814.74 902.828 1822.26C900.703 1810.62 899.64 1798.7 899.64 1786.53V1746.2H933.612V1882.46Z" fill="#DBC087"/>
<path d="M1070.3 1746.2L1027.76 1824.76V1882.46H987.21V1824.76L941.483 1746.2H987.21L1011.02 1791.02L1033.83 1746.2H1070.3Z" fill="#DBC087"/>
<circle cx="579.672" cy="126.538" r="40.578" fill="#DBC087"/>
<path d="M1167.64 459.671C1146.51 452.648 1130.2 450.06 1099.07 449.321C1076.83 448.582 1049.41 449.321 1037.92 451.169C1026.8 453.017 1010.12 457.083 1000.85 460.04C991.96 463.367 982.324 465.954 979.729 465.954C977.135 465.954 958.974 472.607 938.961 480.369C918.947 488.501 881.514 505.873 855.57 519.179C829.627 532.855 796.271 552.445 781.446 562.794C766.621 573.513 750.313 585.711 745.125 590.516C740.307 594.951 737.342 600.126 738.824 601.604C740.677 603.452 741.789 602.713 741.789 600.126C741.789 597.538 744.754 595.321 748.831 595.321C752.908 595.321 787.005 586.45 824.067 575.361C861.13 564.273 903.381 553.184 917.465 550.597C931.919 548.379 956.751 547.27 973.058 548.379C992.701 549.858 1009.75 553.554 1023.09 559.468C1034.58 564.273 1051.26 575.731 1060.15 584.971C1072.01 596.43 1079.43 608.257 1084.24 623.412C1089.43 637.827 1091.66 654.09 1091.66 671.093C1091.29 686.247 1088.32 704.728 1084.24 715.447C1080.54 725.796 1073.5 740.211 1069.05 747.973C1064.23 755.366 1050.89 770.89 1039.03 782.348C1027.17 793.806 1006.78 810.809 993.442 820.049C980.47 829.289 945.261 848.879 915.611 863.664C886.332 878.449 849.641 894.712 834.074 899.887C818.879 904.692 801.46 910.606 795.159 912.823C789.229 915.041 765.138 922.803 741.419 929.826C718.069 937.218 678.783 946.828 654.322 952.003C629.861 956.808 592.428 963.461 570.932 966.788C549.807 970.114 507.926 974.919 478.276 977.876C448.997 980.833 388.585 983.421 344.111 983.421C299.636 983.421 251.455 981.573 236.63 979.724C221.805 977.507 189.561 972.332 165.1 968.266C140.639 964.2 103.206 956.069 81.7096 949.785C60.5841 943.502 36.8642 936.109 29.0811 933.152C17.9624 929.087 14.2562 929.087 11.2912 932.783C9.43809 935.37 7.58495 949.785 7.58495 964.94C7.58495 980.094 10.1793 1005.97 13.5149 1022.23C16.4799 1038.49 23.1511 1063.63 28.3399 1077.67C33.158 1092.09 43.5354 1117.59 51.3185 1134.96C58.731 1152.34 69.479 1172.3 74.6677 1179.32C79.8565 1186.34 92.8283 1204.08 103.206 1218.13C113.213 1232.54 138.415 1259.16 158.429 1277.64C178.442 1295.75 205.868 1317.93 218.84 1326.43C232.183 1334.56 258.867 1348.23 278.14 1356.37C297.783 1364.5 324.468 1373.74 337.439 1377.43C354.859 1381.87 375.614 1383.72 409.711 1383.35C439.361 1383.35 468.64 1380.76 485.689 1377.43C501.255 1374.11 532.017 1365.61 554.254 1358.21C576.862 1350.82 615.036 1336.41 639.497 1325.69C663.958 1314.6 708.433 1292.05 737.712 1275.42C767.362 1258.42 808.131 1234.02 828.515 1220.72C848.899 1207.41 888.927 1178.95 917.465 1157.51C946.003 1136.44 991.96 1099.11 1019.39 1074.35C1047.18 1049.95 1084.62 1014.1 1102.78 994.509C1121.31 974.919 1144.66 949.046 1155.03 936.849C1165.04 925.021 1183.57 902.474 1195.8 887.32C1208.03 872.165 1221.38 854.793 1225.45 848.51C1229.9 842.596 1241.39 824.115 1251.4 807.852C1261.03 791.588 1273.63 768.302 1279.19 756.105C1284.75 743.908 1293.28 720.621 1298.46 704.358C1303.65 688.095 1308.84 664.07 1310.32 650.764C1312.18 634.5 1311.07 619.346 1307.36 602.713C1304.39 589.407 1298.46 571.296 1294.76 562.055C1290.68 552.815 1276.97 533.964 1264 520.288C1250.65 506.243 1229.9 488.87 1217.67 481.848C1205.44 474.825 1183.2 464.845 1167.64 459.671Z" fill="#DBC087"/>
<path d="M450.479 454.866C436.396 453.017 417.123 451.539 407.858 451.909C398.963 451.909 373.761 454.126 352.264 456.714C331.139 458.931 300.007 464.476 283.699 468.911C267.392 473.346 247.378 479.63 239.224 482.957C231.071 486.283 208.833 497.002 189.19 506.612C169.918 516.222 143.233 531.746 129.891 540.987C116.919 550.227 95.052 569.078 81.7096 583.123C68.7378 597.169 51.6891 617.498 44.2767 628.586C36.8642 640.045 26.4867 658.156 21.298 669.245C16.1093 680.333 9.06746 701.401 6.10248 715.447C3.1375 729.862 0.543132 747.234 0.543132 754.257C0.172509 761.28 3.1375 776.434 6.4731 787.523C9.43809 798.611 17.5918 814.505 23.8924 822.636C30.193 830.398 42.0529 841.857 50.2066 847.401C58.3603 853.315 76.1502 862.186 89.122 867.36C102.464 872.165 126.555 878.818 142.862 881.775C159.17 885.102 187.708 889.168 205.868 891.385C225.511 893.973 267.762 894.712 307.79 893.603C345.593 892.494 401.557 888.429 431.948 884.363C462.71 879.927 501.996 874.013 519.045 870.687C536.464 867.36 569.079 860.707 591.316 855.532C613.924 850.727 640.609 844.074 650.616 841.117C660.993 838.16 677.671 833.725 687.678 831.507C698.056 828.92 722.146 821.158 741.419 814.135C761.062 807.112 785.152 798.611 795.159 794.915C805.536 791.219 824.809 783.457 837.781 777.173C851.123 771.259 871.137 761.649 882.255 756.475C893.745 750.93 910.423 742.059 919.688 736.515C929.324 730.971 946.003 719.882 956.751 711.751C967.869 703.249 982.323 690.682 988.995 684.029C996.901 675.405 999.619 669.861 997.148 667.396C994.678 664.932 970.34 665.302 924.136 668.505C885.961 671.093 809.984 672.941 755.502 672.941C701.021 672.941 640.238 671.093 620.225 668.875C600.211 666.657 570.561 662.961 554.254 660.004C537.947 657.417 510.52 651.133 493.101 645.959C476.052 640.784 454.927 633.022 446.773 628.586C438.62 623.781 427.501 615.65 421.571 610.475C415.641 605.3 407.858 594.582 404.152 587.189C400.075 579.427 396.739 566.121 396.739 557.62C396.739 544.683 399.333 539.139 410.823 525.832C418.606 516.592 432.69 506.243 443.067 501.438C453.444 497.002 470.122 491.458 480.129 489.24C490.507 487.022 504.961 484.065 512.744 482.957C522.01 481.478 526.087 479.26 524.604 476.303C523.863 473.716 512.374 468.541 499.772 465.215C487.171 461.519 464.934 457.083 450.479 454.866Z" fill="#DBC087"/>
<path d="M1319.22 815.244C1316.25 805.264 1311.44 796.393 1308.47 795.654C1304.77 795.285 1295.5 810.069 1280.3 840.008C1267.7 865.143 1248.8 902.844 1238.42 924.282C1227.68 945.719 1209.52 976.398 1198.03 992.661C1186.54 1008.92 1168.38 1031.47 1158 1042.56C1147.62 1053.65 1126.13 1075.83 1109.82 1091.35C1093.88 1106.5 1067.2 1130.53 1050.89 1144.2C1034.58 1157.88 1007.9 1177.84 991.589 1188.56C975.282 1198.91 953.786 1212.95 943.408 1219.24C933.401 1225.15 902.269 1242.89 874.102 1258.42C845.934 1273.94 822.214 1286.51 821.103 1286.51C820.361 1286.51 803.313 1295.75 783.299 1306.84C763.285 1317.56 741.789 1332.34 734.747 1338.99C726.594 1347.5 722.887 1354.15 723.629 1360.43C724.37 1365.98 729.559 1372.26 737.712 1377.06C749.572 1383.72 756.985 1384.46 808.131 1384.46C857.424 1384.09 871.507 1382.61 904.493 1374.48C925.989 1368.93 959.345 1358.58 978.617 1351.19C998.26 1343.8 1015.68 1336.41 1017.53 1334.93C1019.76 1333.08 1033.84 1325.32 1049.04 1317.56C1064.6 1309.79 1084.99 1297.6 1094.99 1290.57L1095.04 1290.54C1105.06 1283.14 1125.03 1268.38 1139.47 1257.68C1153.92 1246.96 1177.27 1225.52 1191.35 1209.63C1205.44 1194.1 1227.31 1166.38 1239.91 1147.9C1252.51 1129.79 1268.82 1103.92 1275.86 1090.61C1282.9 1077.3 1293.28 1054.02 1298.46 1038.86C1303.65 1023.71 1311.81 996.357 1316.63 977.876C1323.67 950.155 1325.15 935.74 1324.78 889.168C1324.41 852.576 1322.56 827.441 1319.22 815.244Z" fill="#DBC087"/>
</svg>
