<svg width="1681" height="1793" viewBox="0 0 1681 1793" fill="none" xmlns="http://www.w3.org/2000/svg">
<path d="M591.388 536.011C680.501 341.381 777.716 136.613 804.045 79.8462C842.525 4.83233 858.728 -13.4143 870.88 8.88713C878.981 25.1063 990.372 266.367 1346.83 1044.89L1468.34 1042.86C1581.76 1042.86 1591.89 1046.92 1624.29 1103.68C1644.54 1136.12 1660.75 1168.56 1660.75 1174.64C1660.75 1180.72 1606.06 1184.78 1539.23 1184.78C1472.39 1184.78 1417.71 1188.83 1417.71 1194.92C1417.71 1201 1444.04 1261.82 1476.44 1330.75C1508.85 1401.71 1567.58 1529.44 1681 1772.73L1604.04 1726.1C1561.51 1701.77 1506.82 1667.3 1482.52 1651.08C1456.19 1632.84 1324.55 1371.3 1154.42 1002.31C996.448 661.71 860.753 373.819 850.627 363.682C838.475 351.518 820.247 371.792 769.614 495.463L931.639 834.039C1020.75 1022.59 1093.66 1180.72 1093.66 1188.83C1093.66 1198.97 876.955 1320.62 611.641 1460.51C348.352 1602.42 101.265 1734.21 0 1793L68.8602 1645C105.316 1565.93 159.999 1450.37 190.378 1393.6C238.986 1294.26 249.112 1286.15 313.922 1286.15C352.402 1286.15 384.807 1290.2 384.807 1296.29C384.807 1302.37 372.655 1328.73 358.478 1357.11C346.327 1385.49 340.251 1411.85 348.352 1417.93C358.478 1424.01 455.693 1379.41 567.084 1320.62C678.476 1263.85 769.614 1209.11 769.614 1198.97C769.614 1190.86 595.439 1184.78 0 1184.78L56.7084 1053L864.804 1032.72L785.817 866.478C743.286 773.217 702.78 698.203 692.653 698.203C684.552 698.203 654.172 748.888 621.767 809.71C571.135 913.108 561.008 921.218 496.199 921.218C457.718 921.218 425.313 915.135 425.313 907.026C425.313 896.889 500.249 730.642 591.388 536.011Z" fill="#76E4B4"/>
</svg>
