<svg width="523" height="120" viewBox="0 0 523 120" fill="none" xmlns="http://www.w3.org/2000/svg">
<path d="M172.3 61.6996C175.9 61.6996 178.8 60.7996 181.5 58.9996C184.2 57.1996 186.3 54.7996 187.6 51.8996C189.1 48.7996 189.8 45.3996 189.8 41.4996C189.8 37.5996 189.1 34.0996 187.6 31.0996C186.1 28.0996 184 25.7996 181.4 23.9996C178.8 22.1996 175.6 21.2996 172 21.2996C168.3 21.2996 165.2 22.1996 162.8 23.9996L162.4 24.2996V9.59961H153.8V60.6996H161.4V57.8996L161.5 57.9996L162.4 58.6996L162.8 58.9996C165.3 60.7996 168.6 61.6996 172.3 61.6996ZM170.8 54.0996C168.6 54.0996 166.8 53.4996 165.3 52.4996C163.9 51.3996 162.8 49.7996 162.3 47.9996C161.6 46.0996 161.3 43.9996 161.3 41.4996C161.3 38.9996 161.6 36.6996 162.3 34.9996C162.8 33.2996 163.9 31.6996 165.3 30.4996C166.8 29.4996 168.4 28.9996 170.6 28.9996C173 28.9996 174.8 29.3996 176.2 30.4996C177.7 31.6996 178.9 33.2996 179.6 35.0996C180.2 36.9996 180.6 39.0996 180.6 41.4996C180.6 43.8996 180.3 45.9996 179.6 47.8996C179 49.6996 177.8 51.1996 176.3 52.3996C174.7 53.5996 172.8 54.1996 170.8 54.1996V54.0996ZM232.8 43.8996C233.1 39.3996 232.7 35.2996 231.3 31.9996C229.8 28.5996 227.9 26.0996 225.1 24.0996C222.1 22.0996 218.6 21.0996 215 21.0996C211.5 20.9996 208 21.9996 204.9 23.7996C202.1 25.5996 199.8 27.9996 198.2 30.8996C196.7 33.9996 195.8 37.6996 195.8 41.8996C195.8 45.7996 196.5 49.2996 198.3 52.2996C199.9 55.1996 202.3 57.4996 205.1 59.0996C208.1 60.8996 211.5 61.5996 215.3 61.5996C219 61.5996 222.4 60.6996 225.4 58.5996C228.5 56.7996 230.7 54.0996 232.2 50.6996L223.7 47.9996C223 49.6996 221.7 51.1996 220.1 52.1996C218.5 53.1996 216.6 53.6996 214.8 53.6996C211.5 53.6996 208.9 52.4996 207.4 50.3996C205.9 48.7996 205.2 46.6996 204.9 44.1996V43.5996H232.7V43.8996H232.8ZM224.2 37.4996H205.2V37.1996C205.6 35.2996 206.2 33.5996 207.3 32.2996L207.4 31.9996C209.2 29.8996 211.9 28.6996 215.3 28.6996C218.4 28.6996 220.6 29.6996 222.1 31.6996C223.1 32.8996 223.6 34.6996 224 36.8996V37.4996H224.2ZM253.4 77.5996L274.8 22.2996H266.2L255.8 49.7996L245.1 22.2996H236.2L251.6 60.2996L245.4 77.6996H253.4V77.5996ZM295.7 61.7996C299.2 61.8996 302.7 60.9996 305.8 59.2996C308.6 57.5996 311 55.0996 312.5 52.1996C314.1 49.1996 314.9 45.6996 314.9 41.6996C314.9 37.6996 314.2 34.2996 312.5 31.2996C311 28.2996 308.7 25.7996 305.8 23.9996C302.7 22.1996 299.2 21.3996 295.7 21.4996C292.2 21.3996 288.8 22.2996 285.7 23.9996C282.9 25.6996 280.5 28.1996 279 31.0996C277.3 34.3996 276.4 37.9996 276.5 41.5996C276.5 45.5996 277.4 48.9996 278.9 51.9996C280.5 55.0996 282.8 57.4996 285.6 59.2996C288.7 61.0996 292.2 61.8996 295.7 61.7996ZM295.7 53.7996C292.4 53.7996 289.9 52.7996 288.3 50.4996C286.5 47.8996 285.6 44.7996 285.8 41.5996C285.8 39.1996 286.1 37.0996 286.8 35.1996C287.4 33.4996 288.6 31.9996 290.1 30.8996C291.6 29.8996 293.5 29.3996 295.7 29.3996C299.1 29.3996 301.6 30.3996 303.3 32.6996C305.1 35.2996 306 38.3996 305.8 41.5996C305.8 45.1996 305.1 48.0996 303.4 50.4996C301.7 52.7996 299.2 53.7996 295.7 53.7996ZM331.7 60.7996V40.8996C331.7 38.6996 331.8 36.6996 332.4 35.2996C332.8 33.7996 333.6 32.5996 334.5 31.6996C335.3 30.7996 336.3 30.1996 337.5 29.7996L340.6 29.3996C342.7 29.3996 344.3 29.7996 345.5 30.6996C346.7 31.5996 347.6 32.5996 348.2 33.9996C348.8 35.4996 349.2 36.7996 349.4 38.2996L349.7 42.2996V60.6996H358.3V39.2996C358.2 36.4996 357.8 33.6996 357.1 30.9996C356.5 29.3996 355.6 27.6996 354.7 26.3996C353.5 24.8996 352 23.6996 350.2 22.6996C348.3 21.7996 346 21.1996 343.1 21.1996C338.3 20.8996 333.6 22.8996 330.5 26.4996V22.2996H323.1V60.5996H331.7V60.7996ZM382.6 61.7996C386.5 61.8996 390.4 60.5996 393.4 58.0996V60.7996H401.1V9.59961H392.3V24.2996L392 23.9996C389.5 22.2996 386.5 21.2996 383.4 21.2996H382.8C376.1 21.0996 369.9 24.9996 367.1 31.0996C365.6 34.3996 364.9 37.8996 365 41.4996C365 45.3996 365.7 48.7996 367.1 51.8996C368.6 54.8996 370.7 57.1996 373.3 58.9996C375.8 60.7996 378.9 61.6996 382.5 61.6996V61.7996H382.6ZM384 54.2996C382 54.2996 380.1 53.6996 378.5 52.4996C377 51.4996 376 49.9996 375.2 47.9996C374.5 46.0996 374.2 43.9996 374.2 41.5996C374.2 39.1996 374.5 37.0996 375.2 35.1996C375.8 33.3996 377 31.8996 378.5 30.6996C380 29.4996 381.9 28.8996 384.3 28.8996C386.4 28.8996 388.2 29.4996 389.6 30.4996C390.9 31.4996 392 32.9996 392.6 34.9996C393.2 36.7996 393.6 38.9996 393.6 41.4996C393.6 43.9996 393.2 46.0996 392.6 47.9996C392.1 49.7996 391.1 51.2996 389.6 52.4996C388.1 53.4996 386.2 53.9996 384 53.9996V54.2996ZM170.5 109.1C174.8 109.1 178.4 108.1 181.3 106C184.3 103.8 186.5 100.7 187.5 97.0996L178.7 94.9996C178.2 96.6996 177.1 98.2996 175.7 99.4996C174.4 100.5 172.7 101 170.4 101C167.1 101 164.8 99.9996 163 97.6996C161.3 95.0996 160.4 91.8996 160.6 88.7996C160.6 86.5996 160.9 84.2996 161.6 82.5996C162.2 80.8996 163.4 79.3996 164.9 78.2996C166.4 77.2996 168.2 76.7996 170.4 76.7996C172.3 76.7996 174.1 77.1996 175.6 78.3996C177.1 79.5996 178.3 81.0996 179 83.1996L187.5 80.9996C186.6 77.0996 184.5 74.1996 181.6 72.0996C178.6 69.8996 174.9 68.6996 170.6 68.6996C166.6 68.6996 163.2 69.5996 160.5 71.3996C157.7 73.0996 155.4 75.5996 154 78.4996C152.5 81.4996 151.6 84.9996 151.6 88.8996C151.6 92.8996 152.3 96.2996 153.8 99.2996C156.9 105.5 163.5 109.5 170.5 109.1ZM209.5 109.1C214.3 109.4 219 107.4 222.1 103.8V108.1H229.5V69.7996H221V89.3996C221 91.3996 220.7 93.2996 220.1 95.1996C219.7 96.6996 218.9 97.8996 218 98.7996C217.2 99.5996 216.1 100.2 215 100.6C214.1 101 212.9 101.2 211.9 101.2C209.8 101.2 208.2 100.8 207 99.6996C205.8 98.8996 204.9 97.6996 204.3 96.3996C203.7 95.0996 203.3 93.6996 203.1 92.1996L203 88.1996V69.7996H194.2V91.1996C194.3 93.9996 194.7 96.7996 195.4 99.4996C196 101 196.9 102.6 197.9 104.1C198.9 105.6 200.4 106.8 202.4 107.7C204.3 108.6 206.6 109.1 209.5 109.1ZM248.4 108V88.1996C248.4 86.6996 248.5 85.3996 249 84.1996C249.3 82.8996 249.9 81.7996 250.6 80.7996C251.3 79.7996 252.4 78.9996 253.6 78.3996C254.8 77.6996 256.1 77.1996 257.6 77.0996C259.1 77.0996 260.3 77.0996 261.5 77.3996V69.4996C258 68.8996 254.3 69.5996 251.3 71.3996C249.7 72.3996 248.4 73.7996 247.6 75.3996V69.4996H239.9V107.8H248.5V108H248.4ZM277 108V88.1996C277 86.6996 277.1 85.3996 277.6 84.1996C277.9 82.8996 278.5 81.7996 279.1 80.7996C280 79.7996 280.9 78.9996 282.1 78.3996C283.3 77.6996 284.6 77.1996 286.1 77.0996C287.6 77.0996 289.1 77.0996 290.1 77.3996V69.4996C286.6 68.8996 282.9 69.5996 279.9 71.3996C278.3 72.3996 276.9 73.6996 276 75.3996V69.4996H268.6V107.8H277.1L277 108ZM306.4 63.7996V56.0996H297.8V63.7996H306.4ZM306.4 108V69.6996H297.8V108H306.4ZM333.9 109.1C338.4 109.1 341.9 108.1 344.9 106C347.9 103.8 350.1 100.7 351.1 97.0996L342.2 94.9996C341.7 96.6996 340.6 98.2996 339.2 99.4996C338 100.5 336.2 101 333.9 101C330.8 101 328.3 99.9996 326.6 97.6996C324.9 95.0996 324 91.8996 324.2 88.7996C324.2 86.5996 324.5 84.2996 325.2 82.5996C325.8 80.8996 326.9 79.3996 328.3 78.2996C329.8 77.2996 331.6 76.7996 333.8 76.7996C335.9 76.7996 337.5 77.1996 339.1 78.3996C340.6 79.5996 341.8 81.0996 342.4 83.1996L351 80.9996C350 77.0996 348 74.1996 345.1 72.0996C342.1 69.8996 338.4 68.6996 334 68.6996C330.1 68.6996 326.7 69.5996 323.9 71.3996C321.1 73.0996 318.8 75.5996 317.4 78.4996C315.9 81.4996 315.2 84.9996 315.2 88.8996C315.2 92.8996 315.9 96.2996 317.4 99.2996C320.4 105.5 326.9 109.4 333.9 109.1ZM372.8 109.1C377.6 109.4 382.3 107.4 385.4 103.8V108.1H393V69.7996H384.4V89.3996C384.5 91.3996 384.2 93.2996 383.7 95.1996C383.1 96.6996 382.5 97.8996 381.6 98.7996C380.8 99.5996 379.7 100.2 378.6 100.6C377.6 101 376.5 101.2 375.5 101.2C373.4 101.2 371.8 100.8 370.6 99.6996C369.4 98.8996 368.5 97.6996 367.9 96.3996C367.2 95.0996 366.9 93.6996 366.7 92.1996L366.4 88.1996V69.7996H357.8V91.1996C357.9 93.9996 358.3 96.7996 359 99.4996C359.4 101 360.3 102.6 361.4 104.1C362.6 105.6 364.1 106.8 365.9 107.7C367.6 108.6 370 109.1 372.8 109.1ZM412.5 108V55.5996H404.2V107.9H412.7L412.5 108ZM437.7 109.1C442.5 109.4 447.2 107.4 450.3 103.8V108.1H458V69.7996H449.4V89.3996C449.4 91.3996 449.1 93.2996 448.5 95.1996C448.1 96.6996 447.3 97.8996 446.4 98.7996C445.6 99.5996 444.5 100.2 443.4 100.6C442.5 101 441.3 101.2 440.3 101.2C438.2 101.2 436.6 100.8 435.4 99.6996C434.2 98.8996 433.3 97.6996 432.7 96.3996C432.1 95.0996 431.7 93.6996 431.5 92.1996L431.4 88.1996V69.7996H422.6V91.1996C422.7 93.9996 423.1 96.7996 423.8 99.4996C424.4 101 425.3 102.6 426.3 104.1C427.3 105.6 428.8 106.8 430.8 107.7C432.6 108.7 435 109.2 437.8 109.2H437.7V109.1ZM475.8 69.6996H468V108H476.6V84.1996C476.6 81.9996 477.2 79.9996 478.5 78.5996C480 77.0996 481.6 76.1996 483.8 76.1996C486 76.1996 487.8 76.8996 489.1 78.5996C490.3 80.0996 491 82.1996 491 84.7996V108H499.5V84.1996C499.5 82.6996 499.9 81.1996 500.5 79.8996C501.1 78.6996 502 77.7996 503 77.1996C504.1 76.4996 505.4 76.1996 506.7 76.1996C508.9 76.1996 510.7 76.8996 512 78.3996C513.4 80.1996 514.1 82.3996 513.9 84.5996V108H522.5V82.2996C522.5 78.0996 521.3 74.8996 519.1 72.2996C516.9 69.6996 513.6 68.3996 509.3 68.3996C506.8 68.3996 504.4 68.9996 502.3 70.1996C500.3 71.2996 498.6 72.8996 497.4 74.7996L497.5 74.4996V74.3996C496.6 72.8996 495.4 71.5996 493.9 70.4996L493.5 70.1996C491.3 68.9996 488.9 68.2996 486.4 68.3996C483.7 68.3996 481.3 68.9996 479.3 70.1996C477.9 70.9996 476.6 71.9996 475.6 73.1996L475.3 73.5996V69.3996L475.8 69.6996Z" fill="black"/>
<path fill-rule="evenodd" clip-rule="evenodd" d="M59.5992 60.0996V89.7996C59.5992 106.2 46.2992 119.5 29.8992 119.5C13.4992 119.5 0.199219 106.2 0.199219 89.7996C0.199219 73.3996 13.4992 60.0996 29.8992 60.0996H59.5992Z" fill="black"/>
<path d="M89.2996 0.599609C105.7 0.599609 119 13.8996 119 30.2996C119 46.6996 105.7 59.9996 89.2996 59.9996H59.5996V30.2996C59.5996 13.9996 72.8996 0.599609 89.2996 0.599609ZM89.2996 7.19961C76.6996 7.19961 66.5996 17.2996 66.2996 29.7996V53.5996H89.2996C101.9 53.5996 112 43.4996 112.3 30.9996V30.3996C112.3 17.5996 101.9 7.19961 89.2996 7.19961Z" fill="black"/>
</svg>
