<svg width="521" height="109" viewBox="0 0 521 109" fill="none" xmlns="http://www.w3.org/2000/svg">
<mask id="mask0_456_220" style="mask-type:luminance" maskUnits="userSpaceOnUse" x="0" y="0" width="521" height="109">
<path d="M520.778 0H0V109H520.778V0Z" fill="white"/>
</mask>
<g mask="url(#mask0_456_220)">
<path d="M19.3079 31.1843C19.1674 31.062 19.0413 30.8976 18.9297 30.6914" stroke="#2CB8E4" stroke-width="2"/>
<path d="M18.3422 30.2835C18.1211 30.2732 18.0157 30.1345 18.0261 29.8672" stroke="#2CB8E4" stroke-width="2"/>
<path d="M56.4068 0H60.0553C61.105 0.187722 61.9689 0.685791 62.6468 1.49421C63.4219 2.41889 63.837 3.48225 63.893 4.68458C63.8951 4.73545 63.9169 4.78358 63.9539 4.81931C63.9905 4.85534 64.0399 4.87593 64.0913 4.87745C65.0708 4.90197 66.001 5.11937 66.9774 5.16206C69.6246 5.28256 72.4311 5.60926 75.3965 6.14185C75.6983 6.19513 76.0123 6.1582 76.339 6.03164C76.4401 5.99288 76.5146 5.92566 76.5622 5.82968C76.8907 5.17235 77.2389 4.51018 77.6067 3.84255C78.0688 3.00658 78.8251 2.38528 79.4852 1.72069C80.1395 1.06548 81.6552 0.413291 82.579 0.257058C83.2856 0.136855 83.9996 0.0511694 84.7211 0C84.7417 0.00211944 84.7614 0.00211944 84.7798 0C86.2762 0.122322 87.233 0.248882 87.6505 0.379682C88.1773 0.542879 88.9028 0.922565 89.8265 1.51873C91.2802 2.4525 92.1607 3.95276 92.8425 5.45303C93.5123 6.92877 93.6733 9.54961 92.9109 11.3042C92.61 11.9991 92.4428 12.7279 91.9872 13.3525C90.8402 14.9324 89.4638 16.0112 87.8579 16.5889C87.2959 16.7908 86.5623 16.9307 85.657 17.0082C84.3148 17.1184 83.0997 16.8553 81.8163 16.6961C81.6301 16.6728 81.4405 16.6985 81.2673 16.7712C81.0944 16.8438 80.9437 16.9604 80.8307 17.1094L78.6329 20.0088C78.5075 20.1735 78.4388 20.373 78.4357 20.5789C78.433 20.7848 78.4966 20.9861 78.6174 21.1539C79.4749 22.342 80.2654 23.4747 80.9888 24.5526C81.2286 24.9077 81.5447 25.7058 81.9374 26.9469C82.7185 29.4179 82.6441 32.1335 82.4209 34.7543C82.3631 35.4323 82.1832 36.125 81.8814 36.8335C81.4723 37.7918 81.181 38.7225 80.62 39.6288C79.7456 41.0433 78.7073 42.3283 77.5044 43.4837C77.3121 43.6672 77.1056 43.8071 76.8846 43.9031C76.5622 44.0469 76.3575 44.3778 76.032 44.5858C74.7364 45.4085 73.4911 45.9995 72.2966 46.3586C71.4328 46.622 70.41 46.8415 69.228 47.0168C65.6352 47.5528 61.7418 46.5269 58.8279 44.6409C58.4124 44.3715 58.1614 43.891 57.7088 43.7683C57.5889 43.7356 57.4875 43.6724 57.4048 43.5785C56.9979 43.1295 56.571 42.6844 56.1247 42.2436C55.6308 41.7579 55.2339 41.3007 54.9344 40.872C54.0355 39.59 53.3318 38.1878 52.8235 36.6652C52.1879 34.7513 52.3027 32.7705 52.2839 30.7895C52.2736 29.7016 52.3738 28.733 52.5846 27.8837C52.9958 26.2121 53.6325 24.7148 54.4942 23.392C55.9448 21.1651 57.9071 19.3863 60.3808 18.0555C60.9243 17.7637 61.5598 17.5054 62.2871 17.2807C63.0065 17.0603 63.6759 16.8859 64.296 16.7572C66.935 16.208 69.5771 16.3621 72.2224 17.2196C73.1274 17.5136 73.8992 17.7555 74.6619 18.3126C74.7394 18.3689 74.8291 18.4062 74.9238 18.4216C75.0189 18.437 75.1158 18.4304 75.2072 18.4016C75.2987 18.3729 75.3816 18.3232 75.4498 18.2566C75.5176 18.19 75.5684 18.1085 75.5981 18.0186C75.7562 17.5381 76.2585 17.2135 76.5558 16.8063C76.808 16.4611 77.0817 16.1132 77.3772 15.762C77.7369 15.3305 77.8641 14.7731 78.3476 14.4976C78.4612 14.4322 78.4663 14.3607 78.3631 14.2832L78.0933 14.0783C77.9964 14.0047 77.9262 13.9108 77.8826 13.7964C77.3588 12.3606 76.3638 11.8398 76.5682 10.0946C76.5718 10.0643 76.5691 10.0338 76.5603 10.0047C76.5519 9.97532 76.5373 9.94837 76.5179 9.92475C76.4986 9.90144 76.4747 9.88206 76.4477 9.86813C76.4205 9.8542 76.3911 9.84603 76.3605 9.84361C74.2371 9.6568 72.2751 9.29861 70.1081 9.17023C67.8537 9.03337 65.6237 8.7527 63.4186 8.32821C63.2408 8.2955 63.1264 8.36393 63.0746 8.53319L62.8545 9.26197C62.83 9.34251 62.7867 9.417 62.7273 9.47937C60.7372 11.5337 58.7131 11.7481 56.1062 11.154C55.5358 11.0235 55.0668 10.7855 54.6989 10.4407C54.0685 9.85087 53.5332 9.23018 53.0929 8.57921C52.7974 8.1423 52.5888 7.53099 52.4668 6.74528C51.9315 3.27303 53.2449 1.0246 56.4068 0Z" fill="#99C70E"/>
<path d="M19.3048 31.1844C19.1643 31.0621 19.0382 30.8977 18.9266 30.6915C18.8791 30.4426 18.6838 30.3067 18.3408 30.2842C18.1196 30.274 18.0142 30.1353 18.0246 29.8679C17.9047 29.6169 17.665 29.3617 17.3054 29.1025C17.2186 29.0392 17.1577 28.9575 17.1225 28.8576C16.6265 27.4796 15.9725 25.7314 16.2948 24.2892C16.4602 23.5544 16.6771 22.8329 16.9458 22.1247C17.665 20.2232 20.2813 18.7139 22.0947 18.383C23.158 18.1871 24.2987 18.4995 25.2814 18.9495C25.8765 19.2211 26.4314 19.5477 26.946 19.9292C27.1464 20.0782 27.3438 20.2181 27.5381 20.3489C27.6662 20.4385 27.7943 20.4397 27.9224 20.3519C29.9725 18.9516 31.8622 17.7626 33.592 16.7849C34.4292 16.3135 35.1328 15.7131 36.0442 15.3733C36.1659 15.3276 36.2683 15.2422 36.334 15.1311C36.3994 15.0203 36.4239 14.8907 36.4036 14.7642C36.2032 13.5373 36.198 12.1115 36.3882 10.4868C36.661 8.1627 38.4216 6.3533 40.542 5.40106C41.8645 4.80913 43.0499 4.54057 44.0975 4.59597C50.5361 4.92964 53.05 10.8695 50.9018 16.3286C50.7438 16.7268 50.4367 16.8891 50.2478 17.2533C50.1794 17.3838 50.0937 17.5116 49.9904 17.636C48.6803 19.2038 46.8843 20.1772 44.6028 20.5569C44.3446 20.5999 44.1729 20.7437 44.0884 20.9887C43.7699 21.9031 43.5322 22.8665 43.3754 23.879C43.2885 24.4394 43.3784 24.966 43.9086 25.2845C44.8136 25.8295 45.6186 26.5398 46.3232 27.4154C47.0093 28.2665 47.432 29.1422 47.5912 30.0423C47.9134 31.8672 47.835 33.5573 47.3554 35.1126C46.963 36.3843 46.1001 37.5255 44.7672 38.5359C44.1253 39.0227 43.3318 39.2216 42.6747 39.7515C42.6003 39.8127 42.5506 39.8893 42.5261 39.981C42.3998 40.4751 42.375 40.9015 42.4516 41.2609C42.6602 42.2346 42.774 43.2001 42.7925 44.1572C42.7934 44.1987 42.8095 44.2381 42.8373 44.2689C42.8652 44.2998 42.903 44.3198 42.9445 44.3256C43.9736 44.4748 45.0349 44.7013 46.1279 45.0053C47.1674 45.2954 48.1895 45.7332 49.1938 46.3191C51.3738 47.5925 53.0976 49.4849 54.3644 51.9955C55.0608 53.3795 55.4411 54.8777 55.5049 56.4903C55.5794 58.3805 55.4813 60.0104 55.2106 61.3798C54.606 64.4539 52.6192 67.4363 49.8448 69.1876C48.3909 70.1029 46.3913 71.1898 44.637 71.2788C42.7244 71.3736 40.5265 71.6431 38.6045 71.0981C35.6597 70.2633 33.216 68.5944 31.2733 66.092C30.1203 64.6102 29.3412 62.9334 28.9361 61.0616C28.7728 60.3083 28.7057 59.4654 28.7346 58.5325C28.7718 57.375 28.6385 56.1291 28.9113 54.987C29.3453 53.1561 30.1048 51.4772 31.1898 49.9503C31.8096 49.0746 32.6652 48.4561 33.4091 47.6967C33.9402 47.1559 34.4858 46.7057 35.0459 46.3466C36.1898 45.6148 37.4237 45.2197 38.741 44.889C38.9651 44.8336 39.1595 44.6965 39.2848 44.5048C39.4102 44.3132 39.4574 44.0818 39.4168 43.8572C39.2618 42.9979 39.144 42.158 39.0635 41.3375C39.0229 40.9057 39.1129 40.4279 39.0478 40.0025C39.0393 39.9504 39.0126 39.9032 38.9724 39.8684C38.9321 39.8339 38.8812 39.8142 38.8276 39.8127C38.3535 39.8036 37.8451 39.8217 37.4327 39.5523C37.0918 39.3279 36.7239 39.132 36.3294 38.9646C35.666 38.6797 35.0644 38.0245 34.5376 37.5225C33.6943 36.7201 32.9659 35.373 32.8108 34.188C32.6416 32.9124 32.6364 31.5783 32.7954 30.1865C32.9474 28.8606 33.9453 27.5317 34.7731 26.5734C35.8365 25.3426 37.8884 24.6323 39.5316 24.3995C39.6021 24.3892 39.6691 24.3607 39.7257 24.3174C39.782 24.2738 39.8262 24.2169 39.8538 24.1515C40.4087 22.8441 40.8457 21.1939 40.542 19.8345C40.5214 19.7385 40.4636 19.6743 40.3685 19.6416L40.046 19.5375C39.9282 19.4993 39.8226 19.4318 39.739 19.3416C39.4293 19.0046 39.0759 18.7312 38.679 18.521C38.5857 18.472 38.4816 18.4465 38.3759 18.4471C38.2705 18.4478 38.167 18.4741 38.0746 18.5241C37.1569 19.017 36.1992 19.4975 35.359 20.0855C34.2348 20.8673 33.057 21.5948 31.8253 22.2685C31.0151 22.7115 30.2763 23.1768 29.6088 23.6646C29.5631 23.6982 29.5256 23.7412 29.4988 23.7906C29.472 23.8396 29.4566 23.8941 29.4538 23.9495C29.3918 24.969 29.5716 26.0469 29.2306 27.0236C28.9671 27.7736 28.809 28.6096 28.3347 29.2648C26.8282 31.3376 23.7655 32.5042 21.3135 31.7388C20.4042 31.4548 19.7347 31.2701 19.3048 31.1844Z" fill="#55D4E0"/>
<path d="M91.7065 39.947C91.8706 39.5246 92.187 39.2612 92.3263 38.8113C92.498 38.2599 92.7811 37.7558 93.1759 37.2986C93.2873 37.1699 93.274 37.0567 93.1353 36.9589C92.0692 36.1953 91.2208 35.3872 90.5905 34.5339C90.4312 34.3196 90.2607 34.1194 90.0791 33.9338C89.2049 33.0367 88.5322 31.6312 88.0084 30.437C87.6487 29.6208 87.4482 28.793 87.4068 27.954C87.3099 25.9965 87.3223 24.142 87.444 22.3907C87.5185 21.2853 88.1137 20.1341 88.5167 19.0932C89.0902 17.6114 90.3921 16.2916 91.5824 15.1313C92.0744 14.6514 92.6033 14.2085 93.1695 13.8024C94.2317 13.0431 95.2753 12.5062 96.3005 12.192C97.4908 11.8286 98.833 11.5979 100.327 11.4998C101.422 11.4284 102.618 11.498 103.914 11.7081C107.764 12.3297 111.341 15.0517 113.151 18.236C113.979 19.6933 114.642 21.3589 114.707 23.1101C114.782 25.1842 114.739 27.2058 114.58 29.1757C114.556 29.4736 114.69 29.6859 114.983 29.8124C115.479 30.0238 116 30.0116 116.465 30.2687C116.748 30.4258 117.016 30.6117 117.268 30.8261C117.374 30.9157 117.51 30.9633 117.65 30.9593C117.79 30.9554 117.925 30.9003 118.027 30.8046C118.393 30.4616 118.805 30.0819 119.283 29.9105C119.59 29.8003 119.695 29.5432 119.996 29.4236C121.27 28.9216 122.876 28.9767 124.227 29.0258C126.143 29.093 127.832 30.7126 128.976 32.1916C129.309 32.6243 129.525 33.1345 129.624 33.7225C129.905 35.3941 129.906 36.9271 129.627 38.3214C129.522 38.85 129.285 39.3439 128.917 39.8032C127.904 41.0727 127.044 41.9199 126.335 42.3444C125.926 42.5893 125.208 42.8252 124.181 43.0517C123.414 43.2233 122.678 43.2415 121.973 43.1068C120.287 42.7843 119.018 42.2209 118.167 41.4167C116.608 39.947 115.873 38.1527 115.919 36.0648C115.932 35.4504 115.932 34.8349 115.919 34.2184C115.919 34.19 115.913 34.1621 115.901 34.1361C115.89 34.1097 115.873 34.0864 115.852 34.0667C115.831 34.0471 115.806 34.0316 115.779 34.0213C115.751 34.0113 115.722 34.0065 115.693 34.0071C114.754 34.0316 114.28 33.4376 113.486 33.0888C113.318 33.0149 113.13 33.0031 112.954 33.0552C112.779 33.1075 112.629 33.2205 112.531 33.3734C111.345 35.2309 109.623 36.7269 107.364 37.8621C104.366 39.3654 100.733 39.4601 97.3512 38.7807C97.0929 38.7274 96.8389 38.6835 96.5888 38.649C96.5343 38.6405 96.4786 38.6481 96.428 38.6702C96.3774 38.6926 96.3342 38.7286 96.3036 38.7743C96.1691 38.9684 96.0822 39.1837 96.0432 39.4205C96.0265 39.5267 95.9863 39.6236 95.9224 39.7114C95.4419 40.3573 94.8 41.2974 95.4449 42.0689C96.1579 42.9263 97.0009 43.8201 97.3451 44.8705C97.7109 45.985 97.8753 46.982 97.838 47.8619C97.8111 48.4702 97.716 49.1999 97.5528 50.051C97.4163 50.7592 97.1477 51.3993 96.7468 51.9709C96.1207 52.8629 95.5388 53.5241 95.0016 53.9547C93.8608 54.8694 92.3823 55.4226 90.5656 55.6142C89.3476 55.7399 88.2376 55.2866 87.0534 55.0816C85.4602 54.7998 83.7459 52.6382 83.0298 51.2666C82.2674 49.803 82.3261 47.9812 82.4348 46.3523C82.4863 45.5563 82.6901 44.849 83.0452 44.2307C83.7086 43.0753 84.6036 42.0343 85.73 41.1075C86.1866 40.7318 86.7188 40.485 87.3262 40.3666C88.2727 40.1807 89.1698 40.0012 90.017 39.8277C90.5896 39.7114 91.1091 39.7674 91.5763 39.996C91.5881 40.0018 91.6011 40.0051 91.6145 40.0057C91.6278 40.0063 91.6408 40.0042 91.6532 39.9994C91.6653 39.9948 91.6765 39.9879 91.6856 39.9788C91.6947 39.9697 91.702 39.9591 91.7065 39.947Z" fill="#FCCE00"/>
<path d="M179.573 27.5576H172.574C172.452 27.5576 172.354 27.6548 172.354 27.775V103.273C172.354 103.393 172.452 103.49 172.574 103.49H179.573C179.695 103.49 179.793 103.393 179.793 103.273V27.775C179.793 27.6548 179.695 27.5576 179.573 27.5576Z" fill="black"/>
<path d="M18.0257 29.8695C18.0154 30.1369 18.1208 30.2756 18.3419 30.2859C18.2262 30.4615 18.4215 30.5971 18.9278 30.6931C19.0394 30.8993 19.1654 31.0637 19.306 31.186C19.2585 31.3474 19.3132 31.483 19.4703 31.5932C19.6232 31.7013 19.7782 31.8097 19.9353 31.9178C20.0262 31.9811 20.0872 32.0647 20.1181 32.1688C20.4467 33.2497 21.0109 34.3855 21.0605 35.5064C21.0853 36.0247 21.0905 36.5524 21.076 37.0893C21.0732 37.184 21.0911 37.2782 21.1286 37.3651C21.1661 37.4517 21.2222 37.5289 21.293 37.5913C21.9688 38.1884 23.0971 38.9753 24.0116 38.2955C25.1275 37.472 26.6279 37.475 28.0166 37.5607C28.7771 37.6055 29.4229 37.8096 29.954 38.1729C31.7229 39.3774 32.6167 41.0021 32.6355 43.0473C32.6458 44.1516 32.3803 45.1153 31.8386 45.9377C31.2064 46.8962 30.3199 48.038 29.2101 48.3871C27.5423 48.914 25.8684 48.5924 24.1821 48.2372C24.0601 48.2106 23.9506 48.2351 23.8535 48.3105L22.2044 49.5967C22.1217 49.66 22.0669 49.7427 22.04 49.8447C21.9099 50.3346 21.977 50.8021 22.2415 51.2469C23.3079 53.0381 23.9589 55.8273 23.7574 57.8389C23.4805 60.5863 22.6797 62.8115 21.355 64.5137C20.9644 65.0157 20.9582 65.5201 21.3364 66.0264C21.82 66.6734 22.3159 67.3265 22.8243 67.9856C22.9164 68.1049 23.0417 68.1951 23.1848 68.2451C23.328 68.2951 23.4828 68.3029 23.6303 68.2675C24.6253 68.0286 25.6328 67.7286 26.6682 67.7958C29.0096 67.9451 30.916 68.8452 32.3875 70.4966C33.5944 71.856 34.1594 73.4713 34.0831 75.3431C34.077 75.5063 34.1249 75.6668 34.2193 75.8003C34.3138 75.9341 34.4501 76.0338 34.6069 76.0843L35.9585 76.5158C36.0947 76.5588 36.1983 76.5191 36.2685 76.3965C36.7923 75.4779 38.4631 74.1217 39.7929 74.1032C40.8593 74.0869 41.9093 74.089 42.9424 74.1093C43.6182 74.1217 44.0366 74.5931 44.604 74.8532C44.8913 74.984 45.1381 75.1566 45.3449 75.3707C46.7274 76.808 47.3196 78.5825 47.121 80.6953C46.9817 82.1956 46.0794 84.2775 44.5607 84.9757C44.0027 85.2361 43.5407 85.5819 42.9051 85.6706C40.6764 85.9891 38.6369 86.0381 37.0279 84.2745C36.594 83.8009 36.1756 83.2977 35.7726 82.7651C35.7208 82.6976 35.6899 82.6231 35.6793 82.5417C35.6052 82.0303 35.7911 81.2343 35.478 80.8146C35.418 80.7332 35.3396 80.6781 35.2424 80.6493C34.7383 80.5064 34.1987 80.286 33.6244 79.988C33.4176 79.8839 33.2287 79.8757 33.057 79.9635C32.9165 80.0371 32.8432 80.1655 32.8369 80.3492C32.8338 80.4295 32.8126 80.5079 32.7745 80.5784C32.7363 80.649 32.6824 80.7099 32.6167 80.7565C31.7614 81.369 31.1537 82.2752 30.2516 82.7896C29.1171 83.4418 27.4896 84.0419 26.1381 83.9193C23.6458 83.6898 21.4356 82.5629 20.022 80.5791C19.5819 79.9665 19.0425 79.4981 18.872 78.7267C18.4938 77.0426 18.4421 75.2923 18.717 73.4756C18.8658 72.4897 19.399 71.718 20.0406 71.0016C20.0696 70.9692 20.085 70.9274 20.0839 70.8847C20.0827 70.842 20.065 70.8018 20.0344 70.7721C19.3421 70.1087 18.7005 69.3248 18.1094 68.4204C17.9978 68.2533 17.9338 68.0665 17.9172 67.8603C17.9134 67.8139 17.8963 67.77 17.8678 67.7331C17.8393 67.6965 17.8008 67.6683 17.7567 67.6526C17.7127 67.6368 17.6649 67.6338 17.6192 67.6441C17.5735 67.6544 17.5317 67.6771 17.4987 67.7101C17.1826 68.0286 16.8209 68.2602 16.4138 68.4053C14.8081 68.9727 13.3336 69.2861 11.9903 69.3451C10.9632 69.3902 9.52796 69.1513 7.68456 68.6287C7.14313 68.4737 6.69054 68.2766 6.32685 68.0377C5.73164 67.6489 5.10547 67.4745 4.55681 67.0028C3.66612 66.2334 2.84051 65.4199 2.08001 64.5627C1.50344 63.9105 1.23065 63.1266 0.812165 62.3582C0.409183 61.6212 0.138461 60.6233 0 59.3637V54.9607C0.642706 51.0049 2.76715 48.1055 6.37332 46.2622C7.61946 45.6255 8.62072 45.31 10.1149 45.31C11.2866 45.3082 12.5131 45.31 13.7944 45.3163C15.239 45.3224 16.2216 45.8429 17.4368 46.4736C17.9575 46.743 18.1559 47.1012 18.7821 47.279C19.3928 47.4564 19.926 46.9819 20.2049 46.5072C20.2587 46.4154 20.3341 46.347 20.4312 46.3022L20.8311 46.1214C20.9427 46.0706 21.0285 45.9909 21.0884 45.8825C21.2248 45.6376 21.4201 45.4632 21.6743 45.359C21.7921 45.31 21.8417 45.2222 21.8231 45.0956C21.7363 44.52 21.6175 43.9638 21.4666 43.427C21.3581 43.0382 21.4387 42.6982 21.634 42.3555C21.6536 42.3213 21.6656 42.2831 21.6692 42.2441C21.6727 42.2047 21.6677 42.1653 21.6545 42.1281C21.6413 42.0912 21.6202 42.0572 21.5925 42.0288C21.565 42.0003 21.5315 41.9782 21.4945 41.9637L20.3351 41.5104C20.251 41.4786 20.1799 41.4193 20.1336 41.3421C19.9601 41.046 19.709 40.8643 19.3804 40.7971C19.3271 40.7868 19.2721 40.7956 19.225 40.8213C19.1779 40.847 19.1418 40.8882 19.1231 40.9379C19.0239 41.1931 18.871 41.4072 18.6643 41.5807C17.2115 42.8015 15.5148 43.3995 13.5743 43.3749C12.7312 43.3659 11.8012 43.0137 11.0076 42.7228C7.73107 41.5256 6.37023 38.0781 6.83521 34.8542C7.12245 32.8537 8.06585 31.2647 9.66539 30.0869C11.5191 28.7214 13.9122 28.758 16.0976 29.1898C16.575 29.2858 16.9997 29.5041 17.3717 29.845C17.4564 29.9225 17.5556 29.9725 17.6692 29.9949C17.8222 30.0236 17.941 29.9816 18.0257 29.8695Z" fill="#039CE8"/>
<path d="M237.075 50.7301C238.129 51.3547 239.13 51.979 240.15 52.7232C240.979 53.3294 241.804 53.8795 242.627 54.3734C242.719 54.4297 242.787 54.5178 242.817 54.6211C242.847 54.7243 242.837 54.8348 242.788 54.9308C242.594 55.3084 242.356 55.6656 242.075 56.0023C240.066 58.407 237.65 60.0205 234.828 60.8431C234.309 60.9942 233.401 61.1544 232.103 61.3236C229.982 61.5961 227.586 61.1983 225.593 60.5858C224.175 60.1492 222.929 59.4918 221.854 58.6141C218.888 56.1861 216.56 53.2682 216.185 49.3031C216.005 47.4068 216.03 45.6422 216.259 44.0093C216.577 41.7415 217.481 39.6626 218.968 37.7724C220.607 35.6884 222.646 34.133 225.084 33.1063C225.894 32.7662 226.709 32.6591 227.546 32.4695C229.094 32.1123 230.63 32.0244 232.155 32.2061C235.935 32.6512 239.063 34.1993 241.539 36.8507C241.667 36.9876 241.769 37.1408 241.846 37.31C241.893 37.4121 241.964 37.4959 242.059 37.561C242.357 37.7672 242.582 38.0306 242.735 38.351C242.804 38.4963 242.818 38.6613 242.773 38.8157C242.729 38.9705 242.63 39.1043 242.493 39.193C241.4 39.8994 240.222 40.7148 238.96 41.6395C238.443 42.017 237.92 42.357 237.391 42.6589C237.038 42.8612 236.864 43.1213 236.594 43.4092C236.559 43.4476 236.515 43.4782 236.467 43.4991C236.418 43.5203 236.366 43.5312 236.314 43.5315C236.261 43.5318 236.209 43.5215 236.161 43.5009C236.112 43.4803 236.069 43.4501 236.033 43.4122C234.555 41.869 233.082 40.6687 230.795 40.6721C229.768 40.6721 228.888 40.6506 227.955 41.1771C225.332 42.6589 223.259 45.4084 224.415 48.4919C224.759 49.4012 225.302 50.4482 226.055 51.0882C228.302 52.9957 230.94 53.7427 233.584 52.1477C234.459 51.619 235.224 51.0431 235.882 50.4206C236.247 50.0758 236.569 50.1085 236.849 50.5187C236.906 50.6053 236.983 50.6777 237.075 50.7301Z" fill="black"/>
<path d="M328.865 56.6292C328.326 57.9459 327.89 59.3614 327.563 60.8759C327.56 60.8932 327.55 60.9086 327.535 60.9198C327.52 60.9307 327.502 60.9371 327.484 60.9371L319.321 60.9189C319.027 60.9189 318.903 60.776 318.949 60.4902C318.994 60.1962 319.076 59.8849 319.188 59.5564C320.069 56.9937 320.835 54.4891 321.737 51.9204C322.458 49.8769 323.127 47.8174 323.748 45.7416C323.929 45.1291 324.138 44.5005 324.371 43.8556C324.604 43.2267 324.816 42.5909 325.004 41.9481C325.909 38.8779 326.924 35.8928 328.044 32.9922C328.108 32.8248 328.232 32.7412 328.416 32.7412L338.184 32.7627C338.254 32.7624 338.32 32.7833 338.378 32.8221C338.435 32.8605 338.481 32.9156 338.508 32.9801C338.929 34.0068 339.289 35.0805 339.589 36.2011C339.765 36.8439 340.098 37.4194 340.255 38.0656C340.627 39.5994 341.278 41.011 341.745 42.5143C342.665 45.4742 343.646 48.5075 344.685 51.614C344.909 52.2837 345.124 52.9765 345.33 53.6931C345.596 54.6178 345.974 55.472 346.238 56.3876C346.447 57.116 346.677 57.8457 346.937 58.5766C347.152 59.1919 347.189 59.9207 347.249 60.5789C347.252 60.6225 347.249 60.6661 347.234 60.7076C347.219 60.7488 347.198 60.7866 347.167 60.819C347.137 60.8511 347.101 60.8768 347.061 60.8947C347.022 60.9123 346.977 60.9216 346.934 60.9219L339.111 60.931C339.032 60.931 338.956 60.9035 338.896 60.8538C338.835 60.8039 338.796 60.7348 338.781 60.6585C338.517 59.2228 338.314 57.9154 337.542 56.5771C337.491 56.4896 337.412 56.4345 337.312 56.4118C337.04 56.3506 336.758 56.32 336.461 56.32C334.039 56.3161 331.65 56.3222 329.301 56.3385C329.207 56.3385 329.116 56.3661 329.037 56.4178C328.958 56.4696 328.898 56.5435 328.865 56.6292ZM333.149 41.1793C332.677 42.2451 332.631 43.3257 332.253 44.4157C331.738 45.8915 331.632 47.3951 330.851 48.7818C330.839 48.8036 330.833 48.8281 330.836 48.8529C330.836 48.8775 330.842 48.9017 330.854 48.9229C330.869 48.9441 330.887 48.9616 330.908 48.974C330.929 48.9862 330.954 48.9928 330.978 48.9931L335.459 49.0025C335.504 49.0022 335.547 48.9904 335.586 48.968C335.626 48.9456 335.659 48.9135 335.683 48.8747C335.704 48.8363 335.716 48.7924 335.716 48.7476C335.716 48.7028 335.707 48.6588 335.683 48.6195C335.244 47.8522 334.935 46.9887 334.76 46.0292C334.645 45.4028 334.46 44.7963 334.209 44.2107C333.815 43.29 333.564 42.2745 333.455 41.1642C333.452 41.1406 333.446 41.1182 333.43 41.0988C333.418 41.0797 333.397 41.0643 333.376 41.0543C333.355 41.0446 333.331 41.0404 333.306 41.0425C333.285 41.0446 333.261 41.0528 333.243 41.0661C333.2 41.0949 333.17 41.1324 333.149 41.1793Z" fill="black"/>
<path d="M268.062 56.5245C268.051 56.4685 268.02 56.4183 267.976 56.3819C267.931 56.3456 267.875 56.3259 267.817 56.3256L259.615 56.3317C259.506 56.3314 259.399 56.3613 259.307 56.4183C259.214 56.4752 259.14 56.5563 259.091 56.6532C258.866 57.1083 258.723 57.5667 258.663 58.0278C258.533 59.0261 258.317 59.8669 258.015 60.5509C257.965 60.6653 257.883 60.7631 257.777 60.8316C257.671 60.9003 257.547 60.9366 257.42 60.9366L249.853 60.9182C249.761 60.9182 249.673 60.8833 249.607 60.8207C249.54 60.7577 249.501 60.672 249.497 60.5815C249.463 59.9444 249.556 59.2465 249.81 58.637C250.92 55.998 251.642 53.2851 252.557 50.5571C253.108 48.916 253.598 47.1614 254.165 45.5234C254.779 43.7437 255.362 41.9525 255.914 40.15C256.242 39.0785 256.641 37.9016 257.11 36.6196C257.559 35.4034 257.932 34.1908 258.229 32.9824C258.246 32.917 258.283 32.8591 258.336 32.818C258.389 32.7768 258.454 32.755 258.521 32.7559L268.766 32.7589C268.888 32.7589 268.964 32.818 268.995 32.9363C269.116 33.3957 269.107 33.8704 269.274 34.3388C269.995 36.3535 270.616 38.1508 271.137 39.7307C272.507 43.8966 273.953 48.3577 275.474 53.1138C275.807 54.1568 276.153 55.1723 276.512 56.1603C277.004 57.5113 277.42 58.9668 277.762 60.5264C277.772 60.5739 277.772 60.6236 277.761 60.6711C277.749 60.7186 277.727 60.7631 277.697 60.8013C277.666 60.8394 277.627 60.8703 277.582 60.8918C277.537 60.913 277.489 60.9242 277.439 60.9242L269.358 60.9275C269.286 60.9278 269.217 60.9015 269.163 60.854C269.11 60.8064 269.076 60.7407 269.07 60.6702C269.014 60.1007 268.967 59.5435 268.772 59.0046C268.474 58.1923 268.238 57.3654 268.062 56.5245ZM262.287 45.4347C262.16 46.5401 261.661 47.5472 261.289 48.5854C261.272 48.6314 261.268 48.6805 261.275 48.7289C261.281 48.7771 261.3 48.8231 261.328 48.8631C261.357 48.903 261.395 48.9354 261.438 48.9578C261.482 48.9805 261.531 48.9923 261.58 48.9926L265.719 49.0078C265.76 49.0084 265.801 48.9984 265.837 48.9787C265.873 48.9587 265.904 48.93 265.925 48.8945C265.947 48.8594 265.959 48.8192 265.96 48.778C265.961 48.7365 265.952 48.6953 265.932 48.6587C265.7 48.2148 265.461 47.7494 265.396 47.2441C265.309 46.5338 265.133 45.8665 264.866 45.2418C264.311 43.9435 264.491 42.4493 263.747 41.24C263.544 40.9115 263.408 40.9369 263.338 41.3166C263.146 42.3718 262.908 43.2853 262.625 44.0568C262.449 44.5406 262.337 44.9999 262.287 45.4347Z" fill="black"/>
<path d="M295.415 53.5061V60.7013C295.415 60.7622 295.391 60.8206 295.347 60.8636C295.303 60.9069 295.244 60.9312 295.183 60.9312H287.51C287.407 60.9312 287.355 60.88 287.355 60.7779V32.992C287.355 32.933 287.379 32.8761 287.422 32.834C287.464 32.7922 287.522 32.7686 287.582 32.7686C292.19 32.7604 296.685 32.7534 301.066 32.7471C302.277 32.7453 303.49 33.1328 304.707 33.9107C305.419 34.3639 306.118 34.9313 306.808 35.6129C307.653 36.4501 308.346 37.4256 308.879 38.5401C309.945 40.7477 309.872 44.1464 309.191 46.412C308.667 48.1633 307.517 49.7811 305.746 51.265C305.673 51.3282 305.658 51.4036 305.7 51.4914C306.548 53.151 307.329 54.4859 308.047 55.4963C309.058 56.9212 310.039 58.3439 310.996 59.7645C311.002 59.7748 311.008 59.786 311.014 59.7981C311.404 60.5209 311.365 60.8872 310.893 60.8972C308.21 60.9505 305.449 60.9536 302.607 60.9066C302.495 60.9054 302.384 60.8782 302.285 60.8264C302.186 60.7746 302.1 60.7004 302.036 60.6096C300.594 58.548 299.254 56.365 298.016 54.0602C297.786 53.6357 297.546 53.3929 297.294 53.3317C296.868 53.2276 296.311 53.2103 295.623 53.2796C295.484 53.2939 295.415 53.3693 295.415 53.5061ZM300.942 41.4304C299.712 39.9393 297.281 40.0343 295.561 40.1291C295.521 40.1306 295.484 40.1473 295.457 40.1751C295.43 40.2033 295.415 40.2405 295.415 40.2793V45.1537C295.415 45.1967 295.432 45.2379 295.463 45.2685C295.494 45.2987 295.536 45.316 295.579 45.316C296.755 45.3096 297.944 45.3148 299.147 45.3311C299.604 45.3372 299.99 45.2127 300.306 44.9575C301.426 44.0513 301.974 42.6827 300.942 41.4304Z" fill="black"/>
<path d="M367.314 50.821C367.656 49.7464 367.838 48.6991 368.204 47.6031C368.78 45.8803 369.373 43.9452 369.991 41.7979C370.841 38.8301 371.635 36.3194 372.367 34.266C372.522 33.8352 372.7 33.4137 372.906 33.0013C372.946 32.9235 373.006 32.8575 373.079 32.8115C373.155 32.7654 373.239 32.7409 373.327 32.7412L381.057 32.7779C381.1 32.7782 381.142 32.7878 381.181 32.8066C381.218 32.8251 381.251 32.852 381.278 32.8853C381.305 32.9186 381.324 32.9571 381.333 32.9986C381.342 33.0398 381.342 33.0827 381.333 33.1239C380.83 35.1813 380.225 37.2084 379.516 39.2046C379.065 40.4742 378.644 41.7071 378.256 42.9033C376.864 47.2225 375.338 51.9479 373.681 57.0794C373.433 57.8551 373.136 58.6308 372.791 59.4062C372.601 59.841 372.625 60.3064 372.51 60.7597C372.482 60.8741 372.407 60.931 372.286 60.931L362.594 60.928C362.194 60.928 361.913 60.7454 361.758 60.38C361.298 59.3054 361.038 58.1358 360.665 57.0394C359.796 54.4779 358.966 51.9885 358.176 49.5717C358.067 49.235 357.955 48.889 357.846 48.5338C356.466 44.182 354.921 39.4393 353.208 34.3057C353.087 33.9484 353.023 33.5424 353.008 33.087C353.008 33.0455 353.017 33.0043 353.032 32.9659C353.047 32.9271 353.071 32.892 353.099 32.8623C353.129 32.8327 353.165 32.809 353.202 32.793C353.241 32.7769 353.283 32.7688 353.326 32.7688L360.968 32.7564C361.162 32.7558 361.352 32.819 361.507 32.9368C361.658 33.0543 361.77 33.2193 361.819 33.4055C362.058 34.3272 362.115 35.2364 362.506 36.103C362.727 36.5868 362.89 37.0837 362.999 37.5941C363.102 38.0716 363.242 38.576 363.42 39.1065C364.023 40.8865 364.571 42.636 365.064 44.3546C365.634 46.3508 366.348 48.5075 367.199 50.824C367.238 50.9342 367.278 50.9333 367.314 50.821Z" fill="black"/>
<path d="M396.169 56.5522C396.136 56.9564 396.175 57.3391 396.042 57.7463C395.809 58.4364 395.581 59.1373 395.36 59.8497C395.264 60.1558 395.288 60.5355 395.167 60.808C395.13 60.894 395.064 60.9367 394.97 60.9367L386.786 60.9152C386.737 60.9155 386.689 60.9037 386.643 60.8816C386.598 60.8595 386.562 60.8271 386.531 60.7874C386.504 60.7478 386.483 60.7017 386.477 60.6533C386.468 60.6045 386.474 60.5549 386.489 60.508C386.813 59.5118 387.125 58.5323 387.422 57.5689C387.6 56.983 387.8 56.4114 388.015 55.8543C388.315 55.0919 388.466 54.311 388.727 53.5332C389.859 50.1469 390.816 46.978 392.081 43.4355C392.548 42.1209 392.968 40.7971 393.341 39.4643C393.619 38.466 394.049 37.5659 394.313 36.5861C394.64 35.3707 395.282 34.3359 395.261 33.0224C395.261 32.987 395.267 32.9522 395.282 32.9195C395.294 32.8868 395.315 32.8571 395.339 32.832C395.363 32.8068 395.394 32.7871 395.427 32.7735C395.46 32.7599 395.497 32.7529 395.533 32.7529L405.685 32.759C405.909 32.759 406.058 32.8631 406.133 33.0715C406.388 33.7715 406.624 34.4542 406.836 35.1197C407.971 38.6365 409.137 42.2229 410.333 45.8789C410.645 46.8433 410.835 47.8322 411.244 48.7569C411.42 49.1632 411.58 49.5786 411.72 50.0031C412.664 52.8792 413.621 55.8316 414.584 58.8609C414.768 59.4386 414.847 60.0111 414.82 60.5785C414.817 60.6718 414.778 60.7596 414.708 60.8241C414.641 60.8886 414.55 60.9246 414.454 60.9246H406.681C406.615 60.9243 406.551 60.9031 406.503 60.8637C406.451 60.8241 406.415 60.7693 406.4 60.7072C406.248 60.1028 406.109 59.4558 405.982 58.7658C405.834 57.9698 405.507 57.238 405.104 56.5401C405.064 56.4768 405.013 56.4244 404.949 56.3878C404.886 56.3511 404.816 56.3317 404.744 56.3317L396.411 56.3287C396.26 56.3287 396.178 56.4032 396.169 56.5522ZM401.649 43.95C401.349 42.9702 401.147 42.0782 401.038 41.274C400.995 40.9594 400.892 40.9391 400.729 41.2125C400.556 41.5096 400.399 41.9198 400.35 42.2568C400.241 42.9998 400.072 43.6999 399.839 44.3572C399.303 45.885 399.191 47.4158 398.415 48.8304C398.406 48.8465 398.403 48.8646 398.403 48.8828C398.403 48.9013 398.409 48.9194 398.418 48.9352C398.428 48.9512 398.443 48.9646 398.458 48.9742C398.473 48.9836 398.494 48.9891 398.512 48.9897L402.597 49.0048C402.663 49.0051 402.73 48.99 402.791 48.9609C402.851 48.9316 402.903 48.8889 402.942 48.8362C402.981 48.7835 403.009 48.7223 403.021 48.6575C403.033 48.5927 403.03 48.5261 403.009 48.4629C402.591 47.0465 402.137 45.542 401.649 43.95Z" fill="black"/>
<path d="M440.596 46.378C440.741 45.9514 440.811 45.4951 440.808 45.0095C440.774 40.8475 440.777 36.8417 440.814 32.9919C440.814 32.9311 440.838 32.8726 440.883 32.8296C440.926 32.7863 440.986 32.7624 441.05 32.7624H448.704C448.746 32.7624 448.786 32.7785 448.816 32.8072C448.843 32.8357 448.861 32.8747 448.861 32.9153V60.7778C448.861 60.8799 448.81 60.9307 448.704 60.9307H440.88C440.808 60.931 440.735 60.9111 440.671 60.8732C440.611 60.8354 440.559 60.7812 440.526 60.7164C439.173 58.1506 437.743 55.6594 436.242 53.2426C435.657 52.3037 435.091 51.3493 434.543 50.3798C433.98 49.3898 433.432 48.4275 432.902 47.4925C432.596 46.9557 432.445 46.9954 432.445 47.6118L432.43 60.7778C432.43 60.8799 432.378 60.9307 432.275 60.9307H424.836C424.733 60.9307 424.682 60.8799 424.682 60.7778V33.1451C424.682 32.892 424.812 32.7654 425.069 32.7654L432.339 32.75C432.439 32.75 432.539 32.7766 432.627 32.8272C432.714 32.8778 432.787 32.9504 432.838 33.0379C433.986 35.0381 435.149 37.06 436.32 39.1032C437.686 41.4761 439.372 43.8674 440.456 46.3811C440.508 46.5016 440.553 46.5007 440.596 46.378Z" fill="black"/>
<path d="M483.332 58.2355C483.214 58.5601 482.975 58.7763 482.612 58.8847C482.491 58.9192 482.388 58.9846 482.309 59.0806C482.03 59.4052 481.834 59.7449 481.428 59.9347C480.628 60.3084 479.85 60.8013 478.997 60.9787C476.562 61.4841 473.646 61.432 471.533 60.2163C470.607 59.6837 469.943 58.955 469.168 58.2661C468.829 57.9682 468.542 57.6312 468.305 57.2558C466.925 55.0879 466.571 52.8437 466.795 50.3055C466.964 48.405 467.609 46.8314 468.735 45.5843C470.107 44.0686 472.042 42.5868 474.176 42.3234C476.147 42.0805 477.864 42.1632 479.333 42.5713C481.77 43.2468 483.581 44.791 484.758 47.2038C485.912 49.5613 486.097 52.1128 485.315 54.8584C484.922 56.236 484.304 57.2997 483.456 58.0487C483.399 58.0996 483.36 58.162 483.332 58.2355ZM480.202 52.0577C480.25 51.5732 480.196 51.0839 480.038 50.6177C479.884 50.1511 479.629 49.7169 479.296 49.3393C478.96 48.9621 478.548 48.6487 478.085 48.4177C477.622 48.1864 477.116 48.0419 476.596 47.9926C475.542 47.8924 474.494 48.1848 473.683 48.8058C472.871 49.4265 472.363 50.3249 472.266 51.3029C472.22 51.787 472.275 52.2763 472.432 52.7429C472.587 53.2091 472.841 53.6433 473.174 54.0209C473.51 54.3985 473.922 54.7115 474.385 54.9428C474.848 55.1739 475.354 55.3183 475.875 55.3679C476.929 55.4679 477.976 55.1754 478.788 54.5547C479.599 53.9337 480.108 53.0357 480.202 52.0577Z" fill="black"/>
<path d="M120.623 49.9763C120.648 50.2174 120.779 50.3043 121.017 50.2367C121.823 50.006 122.603 49.699 123.357 49.3151C123.425 49.2812 123.484 49.2309 123.528 49.1691C123.572 49.1071 123.601 49.0353 123.612 48.9599C123.797 47.5965 124.258 46.3136 124.994 45.1113C125.599 44.1224 126.56 43.6877 127.43 42.9834C127.691 42.773 128.005 42.6352 128.373 42.5701C129.956 42.2964 131.318 42.2822 132.459 42.5271C134.275 42.921 135.721 44.0153 136.795 45.8095C137.161 46.4196 137.359 47.0779 137.39 47.7842C137.465 49.5419 137.66 51.3328 136.65 52.9066C135.636 54.4896 133.838 56.0634 131.898 56.0879C130.462 56.1061 128.652 56.2993 127.415 55.5674C126.475 55.0122 125.733 54.3376 125.189 53.5434C124.737 52.8851 122.499 53.4301 121.848 53.7026C121.753 53.7414 121.689 53.8089 121.656 53.9049C121.573 54.1517 121.541 54.4078 121.56 54.6733C121.779 57.8362 120.276 61.1703 117.709 63.0933C115.665 64.6241 113.426 65.3999 110.992 65.4201C109.744 65.4304 108.308 65.1213 106.683 64.4924C105.019 63.8514 103.631 62.7726 102.517 61.256C102.24 60.8785 101.968 60.497 101.702 60.1109C101.427 59.7152 101.222 59.3028 101.088 58.8741C100.553 57.1719 100.277 55.7246 100.26 54.5325C100.242 53.0405 100.654 51.3564 101.497 49.4804C101.822 48.7619 102.292 48.0946 102.908 47.4781C103.906 46.4768 104.848 45.6257 106.097 44.9736C106.566 44.7286 107.034 44.5478 107.502 44.4316C109.074 44.0437 110.351 43.8569 111.333 43.8711C111.821 43.8793 112.563 43.9895 113.559 44.2021C115.831 44.6886 117.858 45.9779 119.349 47.671C119.752 48.1303 119.96 48.715 120.391 49.1283C120.498 49.2324 120.56 49.359 120.577 49.508L120.623 49.9763Z" fill="#FF8800"/>
<path d="M497.836 54.4221V60.7756C497.836 60.8776 497.785 60.9285 497.682 60.9285L492.411 60.9254C492.371 60.9254 492.332 60.9097 492.305 60.8815C492.274 60.8534 492.259 60.8152 492.259 60.7756L492.244 42.8669C492.244 42.7842 492.277 42.7046 492.335 42.6461C492.396 42.5877 492.477 42.5547 492.559 42.5547L505.267 42.5607C505.463 42.5607 505.569 42.6576 505.575 42.8517C505.639 44.1988 505.588 45.6031 505.427 47.0646C505.415 47.1702 505.364 47.2677 505.285 47.3389C505.206 47.41 505.1 47.4497 504.994 47.4506L498.124 47.4872C497.927 47.4872 497.827 47.5862 497.83 47.7843L497.833 48.6263C497.836 48.8467 497.945 48.9569 498.167 48.9569L504.531 48.9721C504.655 48.9721 504.719 49.0344 504.722 49.1589C504.74 50.8226 504.637 52.3931 504.41 53.871C504.398 53.9594 504.352 54.0406 504.286 54.099C504.216 54.1574 504.128 54.1895 504.04 54.1895L498.07 54.1926C497.912 54.1926 497.836 54.2692 497.836 54.4221Z" fill="black"/>
<path d="M78.6723 76.6511L78.7683 76.4857C78.8297 76.3807 78.9118 76.288 79.0102 76.2132C79.4604 75.8765 79.8213 75.4684 80.092 74.9885C80.1683 74.8477 80.1456 74.7242 80.0236 74.6182C79.9285 74.5365 79.8646 74.4344 79.8316 74.3121C79.5555 73.2678 78.9015 72.5636 78.7558 71.4736C78.5699 70.0632 78.5109 68.9672 78.579 68.1854C78.6877 66.9667 78.731 65.7235 79.128 64.5572C79.9897 62.0281 81.5995 60.1133 83.9576 58.8132C84.3482 58.5967 84.7293 58.3612 85.1012 58.1059C85.469 57.8549 85.8866 57.6935 86.3538 57.6221C87.2669 57.4834 88.1834 57.3732 89.1033 57.2914C90.1509 57.1997 91.4995 57.3293 93.1484 57.6802C94.0228 57.864 94.7325 58.3814 95.5261 58.7551C96.0687 59.0091 96.3911 59.4315 96.9149 59.7561C97.4006 60.0582 97.9544 60.6084 98.5763 61.4065C99.1137 62.0965 99.5103 62.6954 99.7668 63.2038C100.843 65.3471 101.257 67.5526 101.007 69.8204C100.883 70.9591 100.374 71.9574 100.077 73.0689C99.9754 73.4525 99.8237 73.8252 99.6212 74.1864C98.378 76.4155 96.4281 78.3169 94.0258 79.073C93.1393 79.3549 92.4447 79.8354 91.4683 79.8844C89.7552 79.9722 88.5525 79.9528 87.8601 79.8263C86.1533 79.512 84.5413 78.8659 83.0244 77.8882C82.8137 77.7513 82.6141 77.7668 82.4261 77.9339C81.5892 78.6781 80.3554 79.664 80.5816 80.8857C81.3546 85.0946 79.9606 88.1615 76.3999 90.0862C74.8966 90.9007 73.0025 90.8304 71.3626 90.6897C68.6876 90.4629 66.589 88.381 65.3891 86.0051C64.915 85.0649 65.1351 83.9719 65.0794 82.9555C65.0757 82.8968 65.0533 82.841 65.0155 82.7956C64.9776 82.7505 64.9262 82.7187 64.8683 82.7045C62.622 82.1634 60.2425 81.7756 57.7294 81.5409C56.7963 81.4552 56.0866 81.2745 55.3115 81.9206C54.5675 82.5389 53.2223 83.0257 52.4009 82.8359C51.2848 82.5819 49.8154 81.9052 49.1799 80.8887C48.3739 79.5904 47.9833 77.7931 48.7554 76.354C49.1212 75.6725 49.5747 75.053 50.1161 74.4956C50.3807 74.2243 50.7123 74.0517 51.1113 73.9781C51.9337 73.827 52.6933 73.7638 53.3897 73.7883C53.5078 73.7922 53.6253 73.7689 53.7322 73.7199C53.8394 73.6708 53.9332 73.5978 54.0065 73.5067C54.4001 73.0259 54.8621 72.6341 55.2557 72.1533C56.7872 70.2673 58.3526 68.4782 59.9521 66.7859C60.0245 66.7106 60.0327 66.6279 59.977 66.538C57.9496 63.2783 57.7252 59.8959 59.3042 56.3913C61.1611 52.2702 65.2622 50.482 69.6949 50.8831C71.0692 51.0055 72.3506 51.4139 73.5387 52.1079C77.212 54.2509 79.2333 58.6173 78.2847 62.769C78.1421 63.3833 77.9953 63.9989 77.8445 64.6153C77.7328 65.0704 77.5344 65.4725 77.2492 65.8216C76.8153 66.3512 76.5734 66.9973 76.1241 67.5178C72.8786 71.2746 67.2957 72.1442 63.0644 69.5754C62.9085 69.4813 62.7235 69.4455 62.543 69.4746C62.3625 69.504 62.199 69.596 62.0816 69.7347L56.9979 75.7418C56.9256 75.8275 56.8956 75.9265 56.908 76.0388L57.0785 77.5545C57.0836 77.5984 57.1045 77.6396 57.1375 77.6699C57.1705 77.7002 57.2132 77.7177 57.2583 77.7199C58.8019 77.8034 60.452 78.0505 62.2087 78.4608C63.1243 78.673 64.264 78.7466 65.628 78.6812C65.7355 78.6769 65.8148 78.6282 65.8666 78.534C66.3831 77.5869 67.0786 76.7797 67.9527 76.1124C68.1141 75.9898 68.2885 75.8929 68.4765 75.8214C68.7557 75.7173 68.8671 75.4784 69.1308 75.3406C69.4366 75.1796 69.763 75.0612 70.1103 74.9855C72.2761 74.5222 74.2033 74.5649 75.8916 75.1142C76.6418 75.3591 77.4818 75.8856 78.4119 76.6941C78.5173 76.784 78.6038 76.7694 78.6723 76.6511Z" fill="#FF4C1F"/>
<path d="M101.804 109H98.1799C97.2831 108.725 96.5349 108.243 95.9357 107.555C95.4189 106.963 95.1267 106.323 95.0582 105.635C94.9138 104.204 94.9726 103 95.2351 102.023C95.3816 101.463 95.7195 101.001 96.2488 100.636C96.3541 100.562 96.3944 100.463 96.3696 100.338C96.3511 100.249 96.3139 100.168 96.2578 100.097C96.1961 100.017 96.1143 99.9821 96.0132 99.9924C94.5438 100.16 93.0081 100.218 91.4067 100.167C90.3134 100.13 89.31 99.8659 88.3968 99.3738C85.4272 97.7697 83.6983 95.3672 83.2106 92.1665C82.8057 89.5169 83.3429 87.0381 84.8225 84.7294C85.1078 84.2843 85.6294 83.7139 86.3879 83.0178C86.9335 82.5197 87.5545 82.1207 88.2509 81.8206C89.5365 81.2635 90.859 80.8877 92.2188 80.694C93.1828 80.5562 94.5438 80.7796 95.4488 81.1287C96.6518 81.592 97.7769 82.1482 98.8248 82.7974C98.9187 82.8552 99.0252 82.89 99.1358 82.8991C99.2463 82.9082 99.3574 82.8912 99.46 82.8494C100.046 82.6166 101.329 81.8085 100.964 81.0337C100.009 79.009 99.8331 76.9014 100.436 74.7111C101.327 71.4656 103.272 69.2408 106.27 68.0363C107.982 67.3505 109.733 67.1762 111.444 67.4608C112.093 67.5692 112.819 67.7814 113.623 68.0978C114.299 68.3609 114.913 68.6885 115.465 69.0806C116.163 69.5745 116.803 70.1543 117.384 70.8198C117.44 70.8849 117.519 70.9276 117.605 70.94C117.691 70.9524 117.779 70.9336 117.852 70.887C119.067 70.1092 120.285 69.4888 121.506 69.0255C121.589 68.9937 121.661 68.938 121.712 68.8663C121.763 68.7942 121.79 68.7088 121.792 68.6213C121.807 67.363 122.229 65.1215 123.227 64.145C124.209 63.1804 124.96 62.4274 126.441 62.3965C127.613 62.3723 128.937 62.2466 129.985 62.8222C131.039 63.4008 132.145 64.3715 132.579 65.5351C133.154 67.0638 133.184 68.5989 132.669 70.14C132.244 71.4135 131.507 71.9004 130.633 72.7548C130.347 73.0364 130.027 73.2129 129.671 73.2844C127.932 73.6395 125.428 73.8233 124.095 72.5617C123.286 71.7932 122.722 72.571 122.036 72.8741C121.379 73.1681 120.701 73.51 120.003 73.8999C119.755 74.0407 119.526 74.0559 119.25 74.0958C119.126 74.114 119.085 74.1815 119.129 74.2978C120.459 77.8802 119.042 82.4482 116.023 84.8335C113.431 86.8758 110.598 87.0962 107.38 86.6339C106.274 86.4746 105.434 85.8194 104.442 85.3876C104.339 85.3437 104.25 85.2704 104.187 85.1763C104.022 84.9213 103.782 84.7315 103.468 84.6068C103.361 84.5641 103.267 84.5843 103.186 84.6682C102.781 85.0906 102.299 85.4621 101.742 85.7828C101.479 85.9317 101.417 86.1397 101.556 86.4074C102.52 88.2564 102.418 91.1531 102.07 93.1614C101.926 93.9923 101.612 94.8079 101.131 95.6079C100.724 96.2816 100.204 96.8971 99.5718 97.4542C99.1666 97.8094 99.0479 98.2075 99.2154 98.6484C99.269 98.7849 99.3692 98.8564 99.516 98.8628C102.13 98.9524 103.909 100.169 104.854 102.512C105.298 103.617 105.292 104.781 104.835 106.006C104.219 107.661 103.209 108.659 101.804 109Z" fill="#ED053F"/>
<path d="M287.453 95.4235C286.703 94.3847 286.171 93.411 285.857 92.5026C285.694 92.027 285.531 91.5362 285.37 91.0299C284.577 88.5378 284.605 85.7422 285.352 83.2897C285.645 82.3223 285.951 81.4609 286.269 80.7055C287.119 78.6938 288.734 77.1875 290.376 75.7884C291.923 74.4686 293.848 73.7737 295.773 73.2012C297.98 72.5429 300.798 72.601 303.071 73.391C304.688 73.9523 305.902 74.5064 306.713 75.0536C307.401 75.5189 308.136 76.0894 308.918 76.7652C310.901 78.4858 312.36 81.2078 312.893 83.6234C313.166 84.8705 313.256 86.4525 313.163 88.3691C313.035 90.98 312.336 93.1621 311.067 94.9155C309.796 96.6788 308.445 98.0477 307.019 99.0211C305.69 99.9307 303.504 100.907 301.771 101.109C299.279 101.399 297.216 101.343 295.581 100.941C292.314 100.137 289.712 98.4446 287.776 95.8644C287.668 95.7218 287.561 95.5746 287.453 95.4235ZM293.421 84.7318C293.129 85.5678 292.525 86.5506 292.68 87.4263C292.844 88.36 293.343 89.7901 294.096 90.5216C294.781 91.1922 295.336 91.8659 296.229 92.3128C297.915 93.1578 299.239 93.4609 301.173 92.6498C303.937 91.4862 306.556 88.2559 304.879 85.1146C303.607 82.7356 301.886 81.1403 299.003 81.1188C298.214 81.1127 297.335 81.3292 296.365 81.7679C295.432 82.1876 294.794 83.0202 294.072 83.7124C293.778 83.9897 293.561 84.3298 293.421 84.7318Z" fill="black"/>
<path d="M484.539 98.3989C484.385 98.5603 484.26 98.7429 484.161 98.947C484.133 98.9987 484.097 99.0438 484.055 99.0793C484.009 99.1147 483.955 99.1398 483.9 99.1522C483.464 99.2534 483.276 99.5534 482.922 99.786C481.578 100.676 479.949 101.118 478.035 101.112C476.258 101.106 474.475 101.201 472.8 100.539C467.995 98.6469 465.046 95.1077 463.956 89.9209C463.481 87.6767 463.526 85.2242 464.277 83.0532C464.565 82.2236 464.719 81.3846 465.122 80.5947C465.942 78.9782 467.411 76.8227 468.982 75.8244C469.252 75.6531 469.515 75.4723 469.77 75.2825C470.393 74.815 471.338 74.3005 472.61 73.7392C473.733 73.2411 474.741 72.9535 475.637 72.876C477.512 72.7125 479.195 72.7391 480.688 72.9556C481.796 73.1179 482.759 73.6599 483.812 74.0302C484.23 74.177 484.63 74.365 485.011 74.5936C486.395 75.4263 488.082 76.4981 488.908 77.8542C488.966 77.9484 488.975 78.0462 488.935 78.1482C488.823 78.4341 488.651 78.682 488.415 78.8925C486.843 80.3089 485.172 81.7083 483.401 83.0902C483.283 83.1828 483.134 83.2322 482.983 83.2295C482.831 83.2267 482.686 83.1719 482.571 83.0747C481.42 82.0971 480.134 81.4082 478.711 81.008C478.153 80.8508 477.46 80.8887 476.624 81.1212C474.239 81.7807 472.619 83.3494 471.768 85.8273C471.544 86.4786 471.471 87.0305 471.55 87.4838C471.965 89.8751 473.397 91.8008 475.783 92.7409C477.079 93.2511 478.308 93.1594 479.477 92.4654C479.492 92.4554 479.507 92.4409 479.513 92.4239C479.522 92.407 479.525 92.3882 479.525 92.3691C479.522 92.3503 479.516 92.3325 479.504 92.3176C479.492 92.3025 479.477 92.2913 479.458 92.2846C479.147 92.1784 478.838 92.146 478.532 92.1865C478.468 92.1947 478.405 92.1902 478.347 92.1732C478.287 92.156 478.229 92.1269 478.181 92.0875C478.135 92.0482 478.096 91.9991 478.066 91.944C478.038 91.8889 478.023 91.8287 478.02 91.7672C477.914 89.781 477.914 87.7745 478.017 85.7477C478.02 85.6574 478.06 85.5727 478.126 85.5106C478.193 85.4485 478.281 85.4137 478.371 85.414L490.794 85.4416C490.852 85.4416 490.909 85.4649 490.952 85.506C490.994 85.5475 491.015 85.6035 491.015 85.662V100.812C491.015 100.874 490.991 100.933 490.949 100.976C490.903 101.02 490.843 101.044 490.782 101.044L485.054 101.02C485.011 101.02 484.969 101.011 484.93 100.994C484.893 100.976 484.857 100.951 484.83 100.92C484.802 100.889 484.781 100.852 484.769 100.812C484.757 100.772 484.754 100.731 484.757 100.689C484.848 99.9543 484.845 99.2134 484.748 98.4664C484.727 98.299 484.657 98.2766 484.539 98.3989Z" fill="black"/>
<path d="M225.431 81.3618C225.44 81.3852 225.455 81.4052 225.475 81.4203C225.495 81.4351 225.518 81.4442 225.543 81.4463C225.568 81.4487 225.593 81.4439 225.616 81.4327C225.638 81.4218 225.656 81.4045 225.669 81.3834C226.503 80.0638 227.632 79.0474 228.574 77.9053C229.142 77.2214 229.733 76.561 230.347 75.9243C231.072 75.1691 231.732 74.3792 232.325 73.5544C232.523 73.2759 232.892 73.1687 233.218 73.1657C235.917 73.1411 238.693 73.1563 241.547 73.2114C241.63 73.2132 241.71 73.2465 241.769 73.3046C241.828 73.3631 241.862 73.4415 241.863 73.5238C241.879 74.2587 241.559 74.9536 241.063 75.5016C238.205 78.6553 235.479 81.9202 232.886 85.2964C232.816 85.3882 232.807 85.4851 232.861 85.5874C234.045 87.7817 235.354 89.8309 236.789 91.7353C238.064 93.4275 240.206 95.9382 243.215 99.2675C243.59 99.6869 243.732 100.082 243.72 100.621C243.718 100.724 243.675 100.822 243.601 100.895C243.527 100.968 243.428 101.01 243.323 101.013C240.252 101.076 237.258 101.081 234.34 101.028C233.341 101.009 232.523 99.5061 231.885 98.8418C231.478 98.4191 231.082 97.9529 230.697 97.4427C229.476 95.8168 228.264 94.1236 227.306 92.3354C227.285 92.2958 227.254 92.2622 227.216 92.2376C227.178 92.2131 227.134 92.1986 227.089 92.1955C227.043 92.1925 226.998 92.201 226.957 92.2201C226.916 92.2391 226.88 92.2682 226.854 92.3048C226.515 92.7681 226.121 93.2223 225.672 93.6673C225.509 93.8327 225.422 94.1451 225.412 94.6041C225.375 96.5331 225.356 98.5775 225.356 100.737C225.356 100.817 225.324 100.895 225.266 100.951C225.209 101.008 225.131 101.04 225.049 101.04H217.535C217.474 101.04 217.414 101.016 217.371 100.973C217.327 100.93 217.303 100.871 217.303 100.81V73.4839C217.303 73.4018 217.335 73.3234 217.394 73.2653C217.452 73.2074 217.531 73.1747 217.613 73.1747L225.093 73.1838C225.131 73.1838 225.17 73.1914 225.205 73.2062C225.241 73.2208 225.273 73.2423 225.3 73.2692C225.327 73.2965 225.348 73.3286 225.363 73.3637C225.378 73.3991 225.385 73.4366 225.384 73.4748C225.359 75.8855 225.355 78.4052 225.372 81.0342C225.372 81.1487 225.391 81.258 225.431 81.3618Z" fill="black"/>
<path d="M430.518 73.4792C430.518 73.4404 430.524 73.402 430.539 73.3659C430.554 73.3299 430.575 73.2969 430.602 73.2693C430.63 73.2418 430.663 73.22 430.699 73.2049C430.736 73.19 430.775 73.1821 430.814 73.1821L440.712 73.1485C442.559 73.1419 444.391 73.487 446.102 74.1637C447.809 74.8405 449.366 75.8357 450.677 77.0925C451.988 78.3497 453.029 79.8436 453.744 81.4895C454.455 83.1354 454.825 84.9006 454.831 86.6848V87.4072C454.846 91.0103 453.374 94.4708 450.746 97.0274C448.115 99.5844 444.542 101.028 440.812 101.042L430.914 101.075C430.835 101.075 430.76 101.045 430.705 100.99C430.648 100.936 430.617 100.862 430.614 100.784L430.518 73.4792ZM442.886 81.4428C441.72 80.6317 440.119 80.7664 438.777 80.8336C438.677 80.8397 438.629 80.8909 438.629 80.9868L438.626 93.0595C438.626 93.14 438.656 93.2176 438.714 93.2763C438.768 93.3347 438.844 93.3702 438.926 93.3747C439.792 93.428 440.7 93.3798 441.648 93.2309C442.429 93.1064 443.125 92.8115 443.731 92.3462C445.426 91.0418 446.662 89.5567 446.977 87.5971C447.225 86.0662 446.165 84.1678 445.151 83.1239C444.797 82.7545 444.442 82.3739 444.091 81.9818C444.021 81.9043 443.934 81.8552 443.828 81.8349C443.479 81.7716 443.168 81.6409 442.886 81.4428Z" fill="black"/>
<path d="M259.804 88.1108C259.585 87.7208 259.475 87.7496 259.472 88.1965L259.457 100.735C259.456 100.815 259.423 100.892 259.365 100.949C259.307 101.006 259.229 101.038 259.147 101.038H251.633C251.478 101.038 251.4 100.961 251.4 100.808V73.4049C251.4 73.344 251.425 73.2856 251.469 73.2426C251.512 73.1996 251.571 73.1754 251.633 73.1754L259.138 73.166C259.231 73.166 259.298 73.206 259.339 73.2856C259.488 73.5642 259.559 73.8276 259.724 74.1152C262.113 78.216 264.499 82.2932 266.884 86.3471C266.895 86.3641 266.909 86.3777 266.927 86.3868C266.945 86.3959 266.964 86.4001 266.984 86.3986C267.004 86.3974 267.023 86.3907 267.039 86.3795C267.056 86.3683 267.069 86.3529 267.077 86.335C267.165 86.1228 267.21 85.9042 267.21 85.6798C267.201 81.2687 267.201 77.1975 267.21 73.4661C267.211 73.3889 267.242 73.3147 267.298 73.2602C267.354 73.206 267.429 73.1754 267.508 73.1754H274.727C274.882 73.1754 274.96 73.252 274.96 73.4049V100.888C274.96 100.929 274.943 100.969 274.913 100.998C274.884 101.027 274.843 101.044 274.801 101.044L267.687 101.038C267.481 101.038 267.318 100.954 267.201 100.787C266.665 100.027 266.177 99.2282 265.738 98.3892C265.167 97.2971 264.712 96.4857 264.374 95.9552C263.183 94.0916 262.103 92.2749 261.134 90.5052C260.677 89.6683 260.234 88.8702 259.804 88.1108Z" fill="black"/>
<path d="M341.375 87.6577C340.833 88.6883 340.546 89.3711 340.512 89.706C340.416 90.6836 340.21 91.5889 339.895 92.4216C339.48 93.5085 339.332 94.6046 338.899 95.6795C338.511 96.6347 338.569 97.6696 338.175 98.6158C337.869 99.3506 337.651 100.081 337.527 100.808C337.518 100.874 337.485 100.934 337.433 100.977C337.382 101.02 337.318 101.044 337.249 101.044L329.282 101.038C329.204 101.037 329.128 101.013 329.064 100.967C329.001 100.921 328.952 100.857 328.928 100.783C328.25 98.6891 327.572 96.4948 326.9 94.2007C326.676 93.4392 326.433 92.6992 326.173 91.9807C325.813 90.9828 325.661 89.9815 325.343 88.9617C324.826 87.3022 324.305 85.5388 323.775 83.671C323.596 83.0446 323.43 82.4514 323.269 81.8922C322.667 79.747 321.88 77.1943 320.914 74.2346C320.826 73.9652 320.777 73.7232 320.768 73.5089C320.765 73.4671 320.771 73.4253 320.786 73.3859C320.802 73.3466 320.823 73.3105 320.853 73.2803C320.88 73.25 320.917 73.2258 320.956 73.2094C320.992 73.1928 321.035 73.1843 321.077 73.1843L328.895 73.1661C328.949 73.1661 329.001 73.1825 329.046 73.213C329.092 73.2436 329.125 73.2872 329.143 73.3375C329.391 73.9785 329.588 74.607 329.74 75.2235C329.885 75.8378 330.058 76.4706 330.254 77.1219C330.833 79.0385 331.217 80.3807 331.405 81.1482C331.641 82.1117 331.895 82.9913 332.171 83.7876C332.419 84.4936 332.595 85.1794 332.698 85.8449C332.822 86.6146 333.04 87.3676 333.355 88.1046C333.424 88.2638 333.464 88.2578 333.476 88.0861C333.543 87.1717 333.773 86.2849 334.163 85.4256C334.696 84.2466 334.866 82.9516 335.244 81.7084C335.447 81.0368 335.626 80.3398 335.777 79.6171C335.98 78.6618 336.389 77.7956 336.613 76.8219C336.882 75.6643 337.236 74.4817 337.672 73.2733C337.685 73.2409 337.706 73.213 337.733 73.1931C337.76 73.1734 337.794 73.1628 337.83 73.1631L344.685 73.1752C344.788 73.1752 344.885 73.2097 344.963 73.2727C345.042 73.3357 345.097 73.4235 345.118 73.5213C345.315 74.4641 345.484 75.3706 345.823 76.2829C346.035 76.8485 346.205 77.4211 346.332 78.0006C346.75 79.8969 347.295 81.7502 347.967 83.5608C348.194 84.1794 348.354 84.8203 348.439 85.4837C348.536 86.2143 348.784 86.9746 349.178 87.7645C349.266 87.9362 349.32 87.9268 349.344 87.737C349.484 86.7451 349.98 85.8449 350.168 84.8346C350.295 84.1527 350.477 83.4678 350.713 82.7802C351.125 81.5797 351.297 80.3489 351.758 79.1672C352.106 78.2731 352.142 77.3393 352.451 76.4422C352.781 75.4869 353.023 74.5398 353.178 73.6009C353.196 73.4883 353.253 73.3856 353.341 73.3112C353.429 73.2367 353.538 73.1952 353.653 73.1937C356.142 73.1528 358.67 73.1558 361.241 73.2028C361.274 73.2037 361.31 73.2112 361.344 73.2258C361.374 73.24 361.404 73.2606 361.428 73.2863C361.453 73.3121 361.471 73.3423 361.483 73.3753C361.495 73.4083 361.501 73.4432 361.501 73.4783C361.44 75.1808 361.062 76.6656 360.372 78.2334C359.954 79.1763 359.857 80.2357 359.533 81.2766C359.058 82.8302 358.591 84.3855 358.137 85.943C357.955 86.5695 357.756 87.1838 357.541 87.786C357.192 88.7628 357.105 89.7486 356.753 90.6979C356.32 91.8735 356.112 93.0801 355.709 94.2619C355.106 96.0419 354.58 97.8798 354.131 99.776C354.056 100.092 353.892 100.419 353.753 100.716C353.65 100.939 353.474 101.05 353.223 101.05L345.43 101.047C345.187 101.047 345.033 100.929 344.975 100.695C344.376 98.3596 343.731 95.9989 343.041 93.6127C342.632 92.2011 342.393 90.7866 341.811 89.4456C341.575 88.8915 341.539 88.282 341.518 87.6913C341.512 87.4993 341.463 87.4881 341.375 87.6577Z" fill="black"/>
<path d="M378.689 93.3827L389.986 93.3888C390.068 93.3888 390.143 93.4202 390.201 93.4766C390.258 93.5326 390.289 93.6089 390.292 93.6888C390.298 96.0892 390.171 98.4672 389.91 100.823C389.895 100.968 389.813 101.04 389.665 101.04H370.669C370.608 101.04 370.548 101.016 370.505 100.973C370.46 100.93 370.436 100.872 370.436 100.811V73.4075C370.436 73.3467 370.46 73.2883 370.505 73.2453C370.548 73.202 370.608 73.1777 370.669 73.1777H378.262C378.326 73.1777 378.383 73.202 378.429 73.2453C378.471 73.2883 378.495 73.3467 378.495 73.4075V93.1929C378.495 93.3194 378.559 93.3827 378.689 93.3827Z" fill="black"/>
<path d="M407.551 80.8353C407.399 80.8353 407.324 80.9119 407.324 81.0651V83.3523C407.324 83.3868 407.33 83.4207 407.345 83.4522C407.357 83.484 407.378 83.5124 407.402 83.5364C407.427 83.5603 407.457 83.5791 407.487 83.5918C407.52 83.6042 407.554 83.6102 407.59 83.6093C410.918 83.5361 414.266 83.5361 417.636 83.6093C417.676 83.6099 417.715 83.619 417.754 83.636C417.791 83.6526 417.824 83.6769 417.851 83.7071C417.878 83.7374 417.897 83.7728 417.912 83.8113C417.924 83.8497 417.927 83.8906 417.924 83.9309C417.745 85.723 417.609 87.5521 417.518 89.4175C417.506 89.7034 417.452 89.9934 417.358 90.2871C417.324 90.3885 417.261 90.4769 417.173 90.5399C417.088 90.6026 416.982 90.6365 416.876 90.6362L407.551 90.6332C407.399 90.6332 407.324 90.7098 407.324 90.8627V93.1562C407.324 93.2174 407.348 93.2758 407.39 93.3185C407.436 93.3615 407.493 93.3857 407.554 93.3857L418.72 93.3827C418.978 93.3827 419.108 93.5114 419.108 93.7684C419.108 96.1792 418.981 98.549 418.726 100.878C418.72 100.923 418.699 100.964 418.666 100.994C418.632 101.024 418.59 101.041 418.545 101.04H399.418C399.315 101.04 399.264 100.989 399.264 100.887V73.4075C399.264 73.3467 399.288 73.2883 399.33 73.2453C399.376 73.202 399.433 73.1777 399.494 73.1777H418.808C418.89 73.1777 418.965 73.2098 419.023 73.2668C419.08 73.3234 419.114 73.4006 419.114 73.4811C419.105 75.9836 418.981 78.3604 418.744 80.6118C418.738 80.6727 418.711 80.7287 418.666 80.7696C418.617 80.8102 418.56 80.8326 418.496 80.8323L407.551 80.8353Z" fill="black"/>
<path d="M520.776 73.1962V76.2367L520.452 80.5752C520.445 80.6451 520.412 80.7105 520.361 80.7584C520.309 80.8062 520.24 80.8326 520.167 80.8323L509.225 80.8353C509.073 80.8353 508.997 80.9119 508.997 81.0651V83.3493C508.997 83.3841 509.004 83.4183 509.019 83.4504C509.031 83.4825 509.052 83.5112 509.076 83.5355C509.1 83.5597 509.131 83.5788 509.164 83.5915C509.197 83.6042 509.231 83.6102 509.267 83.6093C512.691 83.5361 516.037 83.5361 519.307 83.6093C519.349 83.6099 519.389 83.6193 519.428 83.6363C519.464 83.6535 519.498 83.6784 519.525 83.7093C519.555 83.7401 519.577 83.7762 519.589 83.8155C519.601 83.8546 519.604 83.8961 519.601 83.9369C519.41 85.7803 519.271 87.6593 519.189 89.5738C519.177 89.8166 519.128 90.0494 519.044 90.272C518.947 90.5148 518.765 90.6362 518.505 90.6362L509.109 90.6332C509.079 90.6332 509.052 90.645 509.031 90.6665C509.01 90.6877 508.997 90.7164 508.997 90.7464V93.1438C508.997 93.1756 509.003 93.2071 509.016 93.2365C509.028 93.2658 509.046 93.2925 509.067 93.3149C509.091 93.3373 509.119 93.3552 509.146 93.3673C509.176 93.3794 509.209 93.3857 509.24 93.3857L520.776 93.4193V96.6742L520.439 100.792C520.433 100.86 520.403 100.923 520.352 100.969C520.303 101.015 520.237 101.041 520.167 101.04H501.013C500.992 101.04 500.974 101.032 500.959 101.018C500.944 101.003 500.938 100.984 500.938 100.964V73.4841C500.938 73.4027 500.968 73.3249 501.025 73.2677C501.083 73.2101 501.162 73.1777 501.243 73.1777L520.776 73.1962Z" fill="black"/>
</g>
</svg>
