<?xml version="1.0" encoding="UTF-8" standalone="no"?>
<!-- Created with Inkscape (http://www.inkscape.org/) -->

<svg
   version="1.1"
   id="svg2"
   width="314.22"
   height="344.98801"
   viewBox="0 0 314.22 344.98801"
   sodipodi:docname="chevron.ai"
   xmlns:inkscape="http://www.inkscape.org/namespaces/inkscape"
   xmlns:sodipodi="http://sodipodi.sourceforge.net/DTD/sodipodi-0.dtd"
   xmlns="http://www.w3.org/2000/svg"
   xmlns:svg="http://www.w3.org/2000/svg">
  <defs
     id="defs6">
    <clipPath
       clipPathUnits="userSpaceOnUse"
       id="clipPath16">
      <path
         d="M 0,258.741 H 235.665 V 0 H 0 Z"
         id="path14" />
    </clipPath>
    <linearGradient
       x1="0"
       y1="0"
       x2="1"
       y2="0"
       gradientUnits="userSpaceOnUse"
       gradientTransform="matrix(89.414116,-64.963142,64.963142,89.414116,8.7299805,202.27539)"
       spreadMethod="pad"
       id="linearGradient72">
      <stop
         style="stop-opacity:1;stop-color:#00a9eb"
         offset="0"
         id="stop58" />
      <stop
         style="stop-opacity:1;stop-color:#00a9eb"
         offset="0.00999451"
         id="stop60" />
      <stop
         style="stop-opacity:1;stop-color:#00a8ea"
         offset="0.300003"
         id="stop62" />
      <stop
         style="stop-opacity:1;stop-color:#00a8ea"
         offset="0.31166634"
         id="stop64" />
      <stop
         style="stop-opacity:1;stop-color:#0081c8"
         offset="0.600006"
         id="stop66" />
      <stop
         style="stop-opacity:1;stop-color:#0062b0"
         offset="0.99179592"
         id="stop68" />
      <stop
         style="stop-opacity:1;stop-color:#0062b0"
         offset="1"
         id="stop70" />
    </linearGradient>
    <linearGradient
       x1="0"
       y1="0"
       x2="1"
       y2="0"
       gradientUnits="userSpaceOnUse"
       gradientTransform="matrix(42.814804,131.7706,-131.7706,42.814804,101.02686,95.486328)"
       spreadMethod="pad"
       id="linearGradient102">
      <stop
         style="stop-opacity:1;stop-color:#0066b3"
         offset="0"
         id="stop88" />
      <stop
         style="stop-opacity:1;stop-color:#00aeef"
         offset="0.13221524"
         id="stop90" />
      <stop
         style="stop-opacity:1;stop-color:#00aeef"
         offset="0.300003"
         id="stop92" />
      <stop
         style="stop-opacity:1;stop-color:#00aeef"
         offset="0.5"
         id="stop94" />
      <stop
         style="stop-opacity:1;stop-color:#00aeef"
         offset="0.65351332"
         id="stop96" />
      <stop
         style="stop-opacity:1;stop-color:#0066b3"
         offset="0.949997"
         id="stop98" />
      <stop
         style="stop-opacity:1;stop-color:#0066b3"
         offset="1"
         id="stop100" />
    </linearGradient>
    <clipPath
       clipPathUnits="userSpaceOnUse"
       id="clipPath112">
      <path
         d="m 77.484,147.448 c -2.79,-0.974 -5.591,-1.948 -7.314,-2.538 v 0 c -1.82,-0.624 -2.325,-0.792 -2.438,-0.833 v 0 c 0.011,0.005 0.015,0.005 -0.005,0 v 0 h -0.005 c -0.015,-0.005 -0.033,-0.014 -0.007,-0.007 v 0 c -0.003,-0.002 -0.008,-0.003 -0.013,-0.003 v 0 c -0.062,-0.02 -0.057,-0.02 -0.046,-0.02 v 0 c -0.078,-0.024 -0.471,-0.16 -2.04,-0.699 v 0 c -2.852,-0.978 -1.461,-0.549 -4.865,-1.721 v 0 c -2.919,-0.992 -5.831,-1.994 -8.75,-2.978 v 0 c -2.309,-0.784 -4.908,-1.657 -5.983,-2.023 v 0 -0.001 c 6.72,-2.201 13.44,-4.393 20.165,-6.585 v 0 c 6.716,-2.192 13.437,-4.385 20.163,-6.583 v 0 c 6.716,-2.193 13.437,-4.39 20.163,-6.582 v 0 c 6.716,-2.195 13.44,-4.389 20.162,-6.581 v 0 c 6.725,-2.197 13.444,-4.389 20.159,-6.587 v 0 h 0.006 c 1.075,0.377 3.673,1.244 5.982,2.029 v 0 c 2.913,0.983 5.837,1.98 8.754,2.979 v 0 c 3.399,1.165 2.015,0.744 4.856,1.72 v 0 c 1.538,0.529 1.948,0.672 2.044,0.698 v 0 c 0,0.004 0.016,0.01 0.046,0.014 v 0 c 0.02,0.011 0.031,0.016 0.036,0.016 v 0 c 0.133,0.049 0.643,0.225 2.432,0.833 v 0 c 1.723,0.59 4.529,1.57 7.314,2.543 v 0 c 2.725,0.943 5.439,1.883 7.114,2.471 v 0 c -6.709,2.192 -13.43,4.385 -20.157,6.578 v 0 c -6.72,2.192 -13.441,4.385 -20.162,6.584 v 0 c -6.721,2.193 -13.441,4.391 -20.167,6.584 v 0 c -6.721,2.192 -13.441,4.385 -20.168,6.577 v 0 c -6.71,2.198 -13.436,4.39 -20.157,6.586 v 0 c -1.687,-0.578 -4.396,-1.518 -7.119,-2.471 m 91.007,-36.309 c 0.003,0.002 0.007,0.004 0.007,0.004 v 0 c 0,0 -0.003,-0.001 -0.007,-0.004 m -0.008,-0.002 c -0.001,0 -0.002,-0.001 -0.002,-0.001 v 0 c 0.004,0.001 0.007,0.002 0.01,0.003 v 0 c -0.003,-10e-4 -0.006,-0.002 -0.008,-0.002 m -0.003,-0.001 c 0,0 0,0 0.001,0 v 0 c -0.001,0 -0.001,0 -0.001,0 m -0.008,-0.003 c 0,0 0.004,0 0.008,0.003 v 0 c -0.003,-10e-4 -0.005,-0.002 -0.008,-0.003"
         id="path110" />
    </clipPath>
    <linearGradient
       x1="0"
       y1="0"
       x2="1"
       y2="0"
       gradientUnits="userSpaceOnUse"
       gradientTransform="matrix(89.42321,-64.969772,64.969772,89.42321,8.7143555,117.08398)"
       spreadMethod="pad"
       id="linearGradient294">
      <stop
         style="stop-opacity:1;stop-color:#ed1a3a"
         offset="0"
         id="stop276" />
      <stop
         style="stop-opacity:1;stop-color:#e11837"
         offset="0.22015182"
         id="stop278" />
      <stop
         style="stop-opacity:1;stop-color:#e11837"
         offset="0.25"
         id="stop280" />
      <stop
         style="stop-opacity:1;stop-color:#cf3141"
         offset="0.39120804"
         id="stop282" />
      <stop
         style="stop-opacity:1;stop-color:#cf3141"
         offset="0.399994"
         id="stop284" />
      <stop
         style="stop-opacity:1;stop-color:#b33848"
         offset="0.5660121"
         id="stop286" />
      <stop
         style="stop-opacity:1;stop-color:#b33848"
         offset="0.574997"
         id="stop288" />
      <stop
         style="stop-opacity:1;stop-color:#b33848"
         offset="0.58311377"
         id="stop290" />
      <stop
         style="stop-opacity:1;stop-color:#9b2e3c"
         offset="1"
         id="stop292" />
    </linearGradient>
    <linearGradient
       x1="0"
       y1="0"
       x2="1"
       y2="0"
       gradientUnits="userSpaceOnUse"
       gradientTransform="matrix(42.820141,131.78725,-131.78725,42.820141,100.97998,10.236328)"
       spreadMethod="pad"
       id="linearGradient322">
      <stop
         style="stop-opacity:1;stop-color:#9b2e3c"
         offset="0"
         id="stop310" />
      <stop
         style="stop-opacity:1;stop-color:#ed1a3a"
         offset="0.22746766"
         id="stop312" />
      <stop
         style="stop-opacity:1;stop-color:#ed1a3a"
         offset="0.449997"
         id="stop314" />
      <stop
         style="stop-opacity:1;stop-color:#9b2e3c"
         offset="0.91768885"
         id="stop316" />
      <stop
         style="stop-opacity:1;stop-color:#9b2e3c"
         offset="0.949997"
         id="stop318" />
      <stop
         style="stop-opacity:1;stop-color:#9b2e3c"
         offset="1"
         id="stop320" />
    </linearGradient>
    <clipPath
       clipPathUnits="userSpaceOnUse"
       id="clipPath332">
      <path
         d="M 79.707,62.449 C 76.799,61.431 73.84,60.404 72.05,59.786 v 0 c -3.408,-1.164 -2.498,-0.842 -2.8,-0.95 v 0 c -0.306,-0.114 0.598,0.215 -2.806,-0.961 v 0 c -3.409,-1.166 -1.36,-0.512 -3.016,-1.053 v 0 C 62.79,56.607 61.86,56.31 59.698,55.574 v 0 c -1.651,-0.556 -4.533,-1.573 -7.007,-2.422 v 0 c -2.616,-0.909 -5.605,-1.916 -6.679,-2.278 v 0 -0.001 c 6.72,-2.193 13.446,-4.391 20.166,-6.583 v 0 c 6.716,-2.192 13.437,-4.385 20.168,-6.577 v 0 c 6.716,-2.203 13.437,-4.391 20.163,-6.588 v 0 c 6.716,-2.198 13.436,-4.386 20.162,-6.583 v 0 c 6.717,-2.187 13.436,-4.389 20.149,-6.581 v 0 h 0.016 c 1.085,0.371 4.062,1.37 6.677,2.277 v 0 c 2.463,0.849 5.361,1.865 7.007,2.428 v 0 c 2.157,0.73 3.086,1.027 3.736,1.242 v 0 c 1.651,0.547 -0.404,-0.107 3.01,1.053 v 0 c 3.405,1.165 2.499,0.847 2.796,0.961 v 0 c 0.306,0.107 -0.597,-0.215 2.805,0.955 v 0 c 1.794,0.613 4.753,1.651 7.652,2.652 v 0 c 2.617,0.911 5.172,1.8 6.783,2.352 v 0 c -6.722,2.198 -13.443,4.391 -20.164,6.583 v 0 c -6.72,2.193 -13.441,4.385 -20.167,6.583 v 0 c -6.72,2.197 -13.442,4.394 -20.157,6.581 v 0 c -6.726,2.199 -13.442,4.386 -20.162,6.584 v 0 c -6.731,2.198 -13.442,4.39 -20.163,6.583 v 0 c -1.62,-0.552 -4.181,-1.441 -6.782,-2.346"
         id="path330" />
    </clipPath>
  </defs>
  <sodipodi:namedview
     id="namedview4"
     pagecolor="#ffffff"
     bordercolor="#000000"
     borderopacity="0.25"
     inkscape:showpageshadow="2"
     inkscape:pageopacity="0.0"
     inkscape:pagecheckerboard="0"
     inkscape:deskcolor="#d1d1d1" />
  <g
     id="g8"
     inkscape:groupmode="layer"
     inkscape:label="chevron"
     transform="matrix(1.3333333,0,0,-1.3333333,0,344.988)">
    <g
       id="g10">
      <g
         id="g12"
         clip-path="url(#clipPath16)">
        <g
           id="g18"
           transform="translate(38.5952,208.8115)">
          <path
             d="m 0,0 c -1.656,-0.833 -5.029,-1.833 -10.018,-1.833 -13.83,0 -21.772,9.515 -21.772,21.653 0,14.443 10.125,22.084 22.687,22.084 4.876,0 7.452,-0.93 9.103,-1.809 l -1.533,-8.643 c -1.85,0.818 -3.803,1.567 -7.186,1.567 -5.985,0 -12.348,-3.56 -12.348,-13.033 0,-8.489 5.07,-12.964 12.399,-12.964 2.888,0 4.86,0.549 7.135,1.597 z"
             style="fill:#0073bd;fill-opacity:1;fill-rule:nonzero;stroke:none"
             id="path20" />
        </g>
        <g
           id="g22"
           transform="translate(96.915,227.2666)">
          <path
             d="m 0,0 c 0,2.297 -1.125,6.314 -5.458,6.314 -3.813,0 -5.597,-3.276 -5.868,-6.314 z m -11.264,-6.657 c 0.352,-3.963 3.629,-6.061 8.693,-6.102 3.057,-0.028 6.604,0.851 8.97,2.254 l 1.411,-7.301 c -3.553,-1.774 -7.626,-2.482 -11.761,-2.482 -11.156,0 -17.136,6.722 -17.136,16.994 0,9.94 6.429,16.35 16.068,16.35 9.92,0 14.367,-7.311 14.367,-16.465 0,-0.958 -0.113,-2.537 -0.225,-3.248 h -20.387"
             style="fill:#0073bd;fill-opacity:1;fill-rule:nonzero;stroke:none"
             id="path24" />
        </g>
        <g
           id="g26"
           transform="translate(117.2817,208.2852)">
          <path
             d="M 0,0 -10.354,30.736 H -0.015 L 5.612,8.995 h 0.184 l 5.627,21.741 h 10.34 L 11.413,0 Z"
             style="fill:#0073bd;fill-opacity:1;fill-rule:nonzero;stroke:none"
             id="path28" />
        </g>
        <g
           id="g30"
           transform="translate(141.7017,228.915)">
          <path
             d="M 0,0 C 0,4.523 -0.144,7.464 -0.332,10.102 H 8.494 L 8.76,4.397 h 0.235 c 1.549,4.516 4.508,6.239 7.559,6.407 1.452,0.087 2.228,-0.018 3.133,-0.189 V 1.623 C 18.828,1.791 17.127,1.996 15.926,1.881 12.317,1.551 10.135,-1.065 9.526,-4.097 9.399,-4.71 9.338,-5.42 9.338,-6.228 V -20.63 H 0 Z"
             style="fill:#0073bd;fill-opacity:1;fill-rule:nonzero;stroke:none"
             id="path32" />
        </g>
        <g
           id="g34"
           transform="translate(184.6021,223.6533)">
          <path
             d="m 0,0 c 0,5.006 -1.722,9.355 -6.188,9.355 -4.478,0 -6.185,-4.349 -6.185,-9.355 0,-5.009 1.707,-9.353 6.185,-9.353 C -1.722,-9.353 0,-5.009 0,0 m 9.711,0 c 0,-10.061 -6.066,-16.674 -15.899,-16.674 -9.834,0 -15.911,6.613 -15.911,16.674 0,10.079 6.077,16.674 15.911,16.674 C 3.645,16.674 9.711,10.079 9.711,0"
             style="fill:#0073bd;fill-opacity:1;fill-rule:nonzero;stroke:none"
             id="path36" />
        </g>
        <g
           id="g38"
           transform="translate(198.4839,229.2217)">
          <path
             d="m 0,0 c 0,3.831 -0.144,7.111 -0.343,9.795 h 8.831 l 0.2,-4.291 h 0.194 c 1.217,1.994 4.457,5.275 9.501,5.275 6.184,0 10.212,-4.207 10.212,-13.26 v -18.454 h -9.364 v 17.051 c 0,3.946 -1.354,6.646 -4.742,6.646 -2.601,0 -4.212,-1.822 -4.814,-3.574 C 9.449,-1.452 9.362,-2.326 9.362,-3.21 V -20.935 H 0 Z"
             style="fill:#0073bd;fill-opacity:1;fill-rule:nonzero;stroke:none"
             id="path40" />
        </g>
        <g
           id="g42"
           transform="translate(61.5581,240.0029)">
          <path
             d="m 0,0 c -3.726,0 -7.329,-1.684 -9.159,-4.4 h -0.117 v 14.962 l -9.369,-3.246 v -39.037 h 9.369 v 18.246 c 0,2.627 1.712,5.458 4.993,5.458 3.512,0 4.871,-2.764 4.871,-6.776 v -16.928 h 9.378 v 18.218 C 9.966,-4.214 5.975,0 0,0"
             style="fill:#0073bd;fill-opacity:1;fill-rule:nonzero;stroke:none"
             id="path44" />
        </g>
      </g>
    </g>
    <g
       id="g46">
      <g
         id="g48">
        <g
           id="g54">
          <g
             id="g56">
            <path
               d="M 7.153,126.813 117.129,163.462 7.153,200.112 Z"
               style="fill:url(#linearGradient72);stroke:none"
               id="path74" />
          </g>
        </g>
      </g>
    </g>
    <g
       id="g76">
      <g
         id="g78">
        <g
           id="g84">
          <g
             id="g86">
            <path
               d="M 117.129,163.462 7.178,126.813 117.129,90.156 l 109.94,36.657 v 73.289 0 z"
               style="fill:url(#linearGradient102);stroke:none"
               id="path104" />
          </g>
        </g>
      </g>
    </g>
    <g
       id="g106">
      <g
         id="g108"
         clip-path="url(#clipPath112)">
        <g
           id="g114">
          <g
             id="g116"
             transform="scale(2.0361199,-2.0361199)">
            <g
               id="g118">
              <path
                 d="m 22.56597,-67.07121 c 1.648436,0.53955 3.299435,1.077149 4.950312,1.6167 0.263184,-0.09131 0.714844,-0.243653 1.241211,-0.422364 -1.650878,-0.539063 -3.300413,-1.077149 -4.95129,-1.616212 -0.527832,0.178711 -0.978026,0.331055 -1.240233,0.421876 z"
                 style="fill:#00a2e5;fill-opacity:1;fill-rule:nonzero;stroke:none"
                 id="path120" />
              <path
                 d="m 23.806203,-67.493086 c 1.650877,0.539063 3.300412,1.077149 4.95129,1.616212 0.527343,-0.177734 1.129393,-0.380371 1.696776,-0.571289 -1.649902,-0.539063 -3.300779,-1.078126 -4.95129,-1.617677 -0.567383,0.191406 -1.170409,0.395019 -1.696776,0.572754 z"
                 style="fill:#00a3e6;fill-opacity:1;fill-rule:nonzero;stroke:none"
                 id="path122" />
              <path
                 d="m 27.516282,-65.45451 c 1.649902,0.539185 3.300291,1.077272 4.95129,1.616334 0.26416,-0.09082 0.714844,-0.242676 1.242186,-0.421387 -1.650877,-0.539063 -3.301388,-1.078248 -4.952265,-1.617311 -0.526367,0.178711 -0.978027,0.331056 -1.241211,0.422364 z"
                 style="fill:#00a2e5;fill-opacity:1;fill-rule:nonzero;stroke:none"
                 id="path124" />
              <path
                 d="m 28.757493,-65.876874 c 1.650877,0.539063 3.301388,1.078248 4.952265,1.617311 0.526856,-0.178222 1.129394,-0.381348 1.696776,-0.572266 -1.650877,-0.539185 -3.301266,-1.078247 -4.952265,-1.616334 -0.567383,0.190918 -1.169433,0.393555 -1.696776,0.571289 z"
                 style="fill:#00a5e6;fill-opacity:1;fill-rule:nonzero;stroke:none"
                 id="path126" />
              <path
                 d="m 32.467572,-63.838176 c 3.302732,1.078126 6.603144,2.155275 9.903434,3.233401 0.264648,-0.08984 0.715819,-0.243164 1.242186,-0.420899 -3.30029,-1.078126 -6.601679,-2.155275 -9.903434,-3.233889 -0.527342,0.178711 -0.978026,0.330567 -1.242186,0.421387 z"
                 style="fill:#00a2e5;fill-opacity:1;fill-rule:nonzero;stroke:none"
                 id="path128" />
              <path
                 d="m 33.709758,-64.259563 c 3.301755,1.078614 6.603144,2.155763 9.903434,3.233889 0.527832,-0.17871 1.13098,-0.381347 1.696898,-0.57373 -3.300413,-1.07715 -6.601678,-2.155276 -9.903556,-3.232425 -0.567382,0.190918 -1.16992,0.394044 -1.696776,0.572266 z"
                 style="fill:#00a5e6;fill-opacity:1;fill-rule:nonzero;stroke:none"
                 id="path130" />
              <path
                 d="m 42.371006,-60.604775 c 3.301876,1.078126 6.603143,2.155276 9.904043,3.232548 0.527343,-0.180665 1.803222,-0.610841 2.938962,-0.993288 -3.301754,-1.078614 -6.602167,-2.155763 -9.903921,-3.233889 -1.134399,0.383301 -2.410277,0.813965 -2.939084,0.994629 z"
                 style="fill:#00a2e5;fill-opacity:1;fill-rule:nonzero;stroke:none"
                 id="path132" />
              <path
                 d="m 52.275049,-57.372227 c 3.301267,1.078614 6.60412,2.155763 9.905875,3.233889 0.527343,-0.182129 1.802855,-0.611329 2.93762,-0.993653 -3.302855,-1.078126 -6.60412,-2.156252 -9.904533,-3.233524 -1.13574,0.382447 -2.411619,0.812623 -2.938962,0.993288 z"
                 style="fill:#00a2e5;fill-opacity:1;fill-rule:nonzero;stroke:none"
                 id="path134" />
              <path
                 d="m 62.180924,-54.138338 c 1.650511,0.539062 3.3009,1.078126 4.951289,1.617188 0.263672,-0.09082 0.71582,-0.243652 1.24121,-0.421875 -1.650389,-0.539063 -3.300778,-1.078614 -4.951167,-1.6167 -0.527465,0.177734 -0.978637,0.330566 -1.241332,0.421387 z"
                 style="fill:#00a2e5;fill-opacity:1;fill-rule:nonzero;stroke:none"
                 id="path136" />
              <path
                 d="m 63.422256,-54.559725 c 1.650389,0.538086 3.300778,1.077637 4.951167,1.6167 0.526367,-0.177734 1.129027,-0.381348 1.696409,-0.573731 -1.650511,-0.538086 -3.3009,-1.077149 -4.951288,-1.615235 -0.567383,0.190917 -1.169922,0.394043 -1.696288,0.572266 z"
                 style="fill:#00a5e6;fill-opacity:1;fill-rule:nonzero;stroke:none"
                 id="path138" />
              <path
                 d="m 67.132213,-52.52115 c 1.65039,0.538087 3.300901,1.07715 4.952266,1.615358 0.262695,-0.08984 0.714843,-0.242187 1.24121,-0.420044 -1.649413,-0.539063 -3.300778,-1.078126 -4.952266,-1.617189 -0.52539,0.178223 -0.977538,0.331055 -1.24121,0.421875 z"
                 style="fill:#00a2e5;fill-opacity:1;fill-rule:nonzero;stroke:none"
                 id="path140" />
              <path
                 d="m 68.373423,-52.943025 c 1.651488,0.539063 3.302853,1.078126 4.952266,1.617189 0.526367,-0.178711 1.128906,-0.381348 1.696287,-0.573731 -1.649412,-0.539063 -3.299801,-1.078126 -4.952144,-1.617189 -0.567382,0.192383 -1.170042,0.395997 -1.696409,0.573731 z"
                 style="fill:#00a5e6;fill-opacity:1;fill-rule:nonzero;stroke:none"
                 id="path142" />
              <path
                 d="m 25.502979,-68.06584 c 0.419067,-0.14209 0.838012,-0.284181 1.256957,-0.426271 1.649412,0.539552 3.30029,1.078615 4.951167,1.617678 -0.387695,0.131348 -0.815917,0.276856 -1.256834,0.42627 -1.649902,-0.539063 -3.300779,-1.078126 -4.95129,-1.617677 z"
                 style="fill:#00a5e8;fill-opacity:1;fill-rule:nonzero;stroke:none"
                 id="path144" />
              <path
                 d="m 30.454269,-66.448163 c 0.440917,-0.149414 0.869139,-0.294922 1.256834,-0.42627 1.650999,0.539063 3.301389,1.078126 4.952266,1.616212 -0.35498,0.121094 -0.793944,0.269532 -1.256835,0.426392 -1.650877,-0.539185 -3.301266,-1.078247 -4.952265,-1.616334 z"
                 style="fill:#00a8e8;fill-opacity:1;fill-rule:nonzero;stroke:none"
                 id="path146" />
              <path
                 d="m 26.759936,-68.492111 c 1.013182,-0.344726 2.02783,-0.691406 3.041501,-1.039551 1.650389,0.539063 3.301388,1.078615 4.951289,1.616701 -0.970702,0.333985 -1.766111,0.606934 -3.041623,1.040528 -1.650877,-0.539063 -3.301755,-1.078126 -4.951167,-1.617678 z"
                 style="fill:#00a7e9;fill-opacity:1;fill-rule:nonzero;stroke:none"
                 id="path148" />
              <path
                 d="m 31.711103,-66.874433 c 1.650999,0.539063 3.301389,1.078126 4.952266,1.616212 0.769042,-0.260254 1.296874,-0.440918 1.749144,-0.595704 -1.650999,-0.539062 -3.358029,-1.058106 -5.066035,-1.578614 -0.479981,0.164062 -0.99707,0.341797 -1.635375,0.558106 z"
                 style="fill:#00abeb;fill-opacity:1;fill-rule:nonzero;stroke:none"
                 id="path150" />
              <path
                 d="m 33.346478,-67.432539 c 1.708006,0.520508 3.415036,1.039552 5.066035,1.578614 0.452636,-0.155762 0.827636,-0.285156 1.292479,-0.443847 -1.650023,-0.539064 -3.3009,-1.078126 -4.952266,-1.617189 -0.484863,0.166992 -0.926756,0.318359 -1.406248,0.482422 z"
                 style="fill:#00afed;fill-opacity:1;fill-rule:nonzero;stroke:none"
                 id="path152" />
              <path
                 d="m 35.406534,-64.831829 c 3.301878,1.077149 6.603143,2.155275 9.903556,3.232425 0.448242,-0.150391 0.879882,-0.297852 1.258299,-0.425294 -3.302853,-1.078125 -6.603143,-2.155275 -9.90502,-3.233523 -0.35498,0.121094 -0.793944,0.269532 -1.256835,0.426392 z"
                 style="fill:#00a9e9;fill-opacity:1;fill-rule:nonzero;stroke:none"
                 id="path154" />
              <path
                 d="m 45.31009,-61.599404 c 3.301754,1.078126 6.602167,2.155275 9.903921,3.233889 0.433593,-0.148437 0.858886,-0.290527 1.256835,-0.42627 -3.300778,-1.078614 -6.602167,-2.155763 -9.902457,-3.232913 -0.378417,0.127442 -0.810057,0.274903 -1.258299,0.425294 z"
                 style="fill:#00a9e9;fill-opacity:1;fill-rule:nonzero;stroke:none"
                 id="path156" />
              <path
                 d="m 55.214011,-58.365515 c 3.300413,1.077272 6.601678,2.155398 9.904533,3.233524 0.418944,-0.14209 0.837889,-0.284181 1.256834,-0.426271 -3.301755,-1.079102 -6.60412,-2.155275 -9.904532,-3.233523 -0.397949,0.135743 -0.823242,0.277833 -1.256835,0.42627 z"
                 style="fill:#00a9e9;fill-opacity:1;fill-rule:nonzero;stroke:none"
                 id="path158" />
              <path
                 d="m 36.663369,-65.258221 c 3.301877,1.078248 6.602167,2.155398 9.90502,3.233523 0.681152,-0.230957 1.201171,-0.408203 1.672362,-0.570312 -3.302243,-1.078126 -6.525506,-2.181643 -9.828238,-3.258915 -0.45227,0.154786 -0.980102,0.33545 -1.749144,0.595704 z"
                 style="fill:#00adeb;fill-opacity:1;fill-rule:nonzero;stroke:none"
                 id="path160" />
              <path
                 d="m 38.412513,-65.853925 c 3.302732,1.077272 6.525995,2.180789 9.828238,3.258915 0.470214,-0.161133 0.890136,-0.305176 1.367675,-0.469239 -3.300291,-1.078126 -6.602167,-2.155397 -9.903434,-3.233523 -0.464843,0.158691 -0.839843,0.288085 -1.292479,0.443847 z"
                 style="fill:#00b1ee;fill-opacity:1;fill-rule:nonzero;stroke:none"
                 id="path162" />
              <path
                 d="m 46.568389,-62.024698 c 3.30029,1.07715 6.601679,2.154299 9.902457,3.232913 0.593383,-0.203125 1.10852,-0.377441 1.596312,-0.544434 -3.299436,-1.078126 -6.525506,-2.181642 -9.826407,-3.258791 -0.471191,0.162109 -0.99121,0.339355 -1.672362,0.570312 z"
                 style="fill:#00adeb;fill-opacity:1;fill-rule:nonzero;stroke:none"
                 id="path164" />
              <path
                 d="m 48.240751,-62.59501 c 3.300901,1.077149 6.526971,2.180665 9.826407,3.258791 0.489257,-0.16748 0.952147,-0.326172 1.444823,-0.495606 -3.301388,-1.078126 -6.601679,-2.156251 -9.903555,-3.232424 -0.477539,0.164063 -0.897461,0.308106 -1.367675,0.469239 z"
                 style="fill:#00b1ee;fill-opacity:1;fill-rule:nonzero;stroke:none"
                 id="path166" />
              <path
                 d="m 56.470846,-58.791785 c 3.300412,1.078248 6.602777,2.154421 9.904532,3.233523 0.506835,-0.172363 1.014647,-0.344726 1.521483,-0.518066 -3.301755,-1.079591 -6.525507,-2.181765 -9.829703,-3.259891 -0.487792,0.166993 -1.002929,0.341309 -1.596312,0.544434 z"
                 style="fill:#00aceb;fill-opacity:1;fill-rule:nonzero;stroke:none"
                 id="path168" />
              <path
                 d="m 58.067158,-59.336219 c 3.304196,1.078126 6.527948,2.1803 9.829703,3.259891 0.506835,-0.173829 1.014647,-0.348145 1.521605,-0.521485 -3.30383,-1.078126 -6.602777,-2.155398 -9.906485,-3.234012 -0.492676,0.169434 -0.955566,0.328126 -1.444823,0.495606 z"
                 style="fill:#00b1ee;fill-opacity:1;fill-rule:nonzero;stroke:none"
                 id="path170" />
              <path
                 d="m 65.118544,-55.131991 c 1.650388,0.538086 3.300777,1.077149 4.951288,1.615235 0.716797,-0.242676 1.434569,-0.48584 2.151366,-0.730469 -1.650389,-0.538087 -3.301877,-1.077149 -4.952266,-1.615236 -0.716796,0.244629 -1.433592,0.487794 -2.150388,0.73047 z"
                 style="fill:#00a9e9;fill-opacity:1;fill-rule:nonzero;stroke:none"
                 id="path172" />
              <path
                 d="m 67.268932,-55.862461 c 1.650389,0.538087 3.301877,1.077149 4.952266,1.615236 0.716796,-0.244141 1.432616,-0.48877 2.148436,-0.734376 -1.652343,-0.538086 -3.301755,-1.077149 -4.951168,-1.616212 -0.715942,0.245606 -1.432738,0.491211 -2.149534,0.735352 z"
                 style="fill:#00afed;fill-opacity:1;fill-rule:nonzero;stroke:none"
                 id="path174" />
              <path
                 d="m 70.069832,-53.516756 c 1.652343,0.539063 3.302732,1.078126 4.952144,1.617189 0.716919,-0.242188 1.433715,-0.485841 2.150512,-0.729981 -1.65039,-0.539551 -3.301878,-1.078614 -4.95129,-1.617677 -0.716797,0.244629 -1.434569,0.487793 -2.151366,0.730469 z"
                 style="fill:#00a8e8;fill-opacity:1;fill-rule:nonzero;stroke:none"
                 id="path176" />
              <path
                 d="m 72.221198,-54.247225 c 1.649412,0.539063 3.3009,1.078126 4.95129,1.617677 0.716796,-0.244629 1.432615,-0.490235 2.149411,-0.734864 -1.651365,-0.539063 -3.301754,-1.078126 -4.952265,-1.617189 -0.71582,0.245606 -1.43164,0.490235 -2.148436,0.734376 z"
                 style="fill:#00adec;fill-opacity:1;fill-rule:nonzero;stroke:none"
                 id="path178" />
              <path
                 d="m 29.801437,-69.531662 c 1.672362,-0.572266 0.990233,-0.361328 2.38928,-0.842774 1.649901,0.538086 3.30029,1.077149 4.951167,1.616212 -1.398924,0.482422 -0.715819,0.270508 -2.389158,0.843263 -1.649901,-0.538086 -3.3009,-1.077638 -4.951289,-1.616701 z"
                 style="fill:#00abed;fill-opacity:1;fill-rule:nonzero;stroke:none"
                 id="path180" />
              <path
                 d="m 34.752726,-67.914961 c 1.673339,-0.572755 0.990234,-0.360841 2.389158,-0.843263 1.651,0.539063 3.301877,1.078126 4.952266,1.616213 -1.398924,0.482422 -0.716308,0.270507 -2.389158,0.844239 -1.650023,-0.539064 -3.3009,-1.078126 -4.952266,-1.617189 z"
                 style="fill:#00b1ef;fill-opacity:1;fill-rule:nonzero;stroke:none"
                 id="path182" />
              <path
                 d="m 32.190717,-70.374436 c 1.397948,-0.482911 0.896484,-0.306152 1.024901,-0.353516 1.650878,0.539551 3.301755,1.078614 4.952266,1.6167 -0.12854,0.04687 0.373047,-0.128905 -1.026,0.353028 -1.650877,-0.539063 -3.301266,-1.078126 -4.951167,-1.616212 z"
                 style="fill:#00adee;fill-opacity:1;fill-rule:nonzero;stroke:none"
                 id="path184" />
              <path
                 d="m 37.141884,-68.758224 c 1.399047,-0.481933 0.89746,-0.306153 1.026,-0.353028 1.650877,0.539064 3.301755,1.07715 4.951168,1.61719 -0.128418,0.04687 0.374022,-0.129395 -1.024902,0.352051 -1.650389,-0.538087 -3.301266,-1.07715 -4.952266,-1.616213 z"
                 style="fill:#00b2f0;fill-opacity:1;fill-rule:nonzero;stroke:none"
                 id="path186" />
              <path
                 d="m 33.215618,-70.727952 c 0.129395,-0.04687 -0.460937,0.15918 1.210937,-0.414551 1.651854,0.539063 3.302731,1.078126 4.953242,1.617189 -1.672484,0.572754 -1.08203,0.366699 -1.211913,0.414062 -1.650511,-0.538086 -3.301388,-1.077149 -4.952266,-1.6167 z"
                 style="fill:#00adee;fill-opacity:1;fill-rule:nonzero;stroke:none"
                 id="path188" />
              <path
                 d="m 38.167884,-69.111252 c 0.129883,-0.04736 -0.460571,0.158692 1.211913,-0.414062 1.649901,0.538086 3.300779,1.077149 4.951168,1.616212 -1.672362,0.573731 -1.082031,0.368164 -1.211913,0.41504 -1.649413,-0.54004 -3.300291,-1.078126 -4.951168,-1.61719 z"
                 style="fill:#00b2f0;fill-opacity:1;fill-rule:nonzero;stroke:none"
                 id="path190" />
              <path
                 d="m 39.704992,-66.297772 c 3.301267,1.078126 6.603143,2.155397 9.903434,3.233523 1.672972,-0.574707 0.990843,-0.362305 2.389768,-0.845216 -3.301877,-1.077271 -6.603144,-2.154421 -9.904044,-3.232546 -1.398924,0.482422 -0.716308,0.270507 -2.389158,0.844239 z"
                 style="fill:#00b3f0;fill-opacity:1;fill-rule:nonzero;stroke:none"
                 id="path192" />
              <path
                 d="m 49.608426,-63.064249 c 3.301876,1.076173 6.602167,2.154298 9.903555,3.232424 1.671873,-0.573242 0.990722,-0.361328 2.389646,-0.842774 -3.301266,-1.079591 -6.602167,-2.15674 -9.903433,-3.234866 -1.398925,0.482911 -0.716796,0.270509 -2.389768,0.845216 z"
                 style="fill:#00b3f0;fill-opacity:1;fill-rule:nonzero;stroke:none"
                 id="path194" />
              <path
                 d="m 59.511981,-59.831825 c 3.303708,1.078614 6.602655,2.155886 9.906485,3.234012 1.670897,-0.573731 0.990234,-0.361328 2.387694,-0.844239 -3.301878,-1.078248 -6.601679,-2.155398 -9.904533,-3.232547 -1.398924,0.481446 -0.717773,0.269532 -2.389646,0.842774 z"
                 style="fill:#00b3f0;fill-opacity:1;fill-rule:nonzero;stroke:none"
                 id="path196" />
              <path
                 d="m 42.09415,-67.142011 c 3.3009,1.078125 6.602167,2.155275 9.904044,3.232546 1.399901,-0.481445 0.895019,-0.305176 1.025878,-0.351075 -3.301877,-1.078247 -6.602167,-2.156373 -9.90502,-3.233522 -0.128418,0.04687 0.374022,-0.129395 -1.024902,0.352051 z"
                 style="fill:#00b3f0;fill-opacity:1;fill-rule:nonzero;stroke:none"
                 id="path198" />
              <path
                 d="m 51.998194,-63.909465 c 3.301266,1.078126 6.602167,2.155275 9.903433,3.234866 1.400512,-0.48291 0.896484,-0.306153 1.026366,-0.353028 -3.301755,-1.077637 -6.602655,-2.154787 -9.903921,-3.232913 -0.130859,0.0459 0.374023,-0.13037 -1.025878,0.351075 z"
                 style="fill:#00b3f0;fill-opacity:1;fill-rule:nonzero;stroke:none"
                 id="path200" />
              <path
                 d="m 61.901627,-60.674599 c 3.302854,1.077149 6.602655,2.154299 9.904533,3.232547 1.399412,-0.481446 0.895506,-0.305176 1.026366,-0.352051 -3.302732,-1.076295 -6.602656,-2.154421 -9.904533,-3.233524 -0.129882,0.04687 0.374146,-0.129882 -1.026366,0.353028 z"
                 style="fill:#00b3f0;fill-opacity:1;fill-rule:nonzero;stroke:none"
                 id="path202" />
              <path
                 d="m 43.119052,-67.494062 c 3.302853,1.077149 6.603143,2.155275 9.90502,3.233522 0.128418,-0.04785 -0.460937,0.157715 1.20996,-0.415527 -3.300779,-1.078737 -6.602167,-2.155886 -9.903067,-3.233035 -1.672362,0.573731 -1.082031,0.368164 -1.211913,0.41504 z"
                 style="fill:#00b3f0;fill-opacity:1;fill-rule:nonzero;stroke:none"
                 id="path204" />
              <path
                 d="m 53.024072,-64.26054 c 3.301266,1.078126 6.602166,2.155276 9.903921,3.232913 0.128052,-0.04639 -0.45996,0.158692 1.212036,-0.415039 -3.301878,-1.078126 -6.603632,-2.155275 -9.905997,-3.233401 -1.670897,0.573242 -1.081542,0.367676 -1.20996,0.415527 z"
                 style="fill:#00b3f0;fill-opacity:1;fill-rule:nonzero;stroke:none"
                 id="path206" />
              <path
                 d="m 62.927993,-61.027627 c 3.301877,1.079103 6.601801,2.157229 9.904533,3.233524 0.127929,-0.04687 -0.460938,0.158691 1.210935,-0.416138 -3.301754,-1.07715 -6.602655,-2.154299 -9.903432,-3.232425 -1.671996,0.573731 -1.083984,0.368653 -1.212036,0.415039 z"
                 style="fill:#00b3f0;fill-opacity:1;fill-rule:nonzero;stroke:none"
                 id="path208" />
              <path
                 d="m 69.418466,-56.597813 c 1.670897,-0.573731 0.990234,-0.361328 2.387694,-0.844239 1.651365,0.539063 3.301754,1.078126 4.952265,1.616212 -1.398558,0.482911 -0.716796,0.270509 -2.388791,0.844239 -1.652343,-0.538086 -3.301755,-1.077149 -4.951168,-1.616212 z"
                 style="fill:#00b3f0;fill-opacity:1;fill-rule:nonzero;stroke:none"
                 id="path210" />
              <path
                 d="m 74.369634,-54.981601 c 1.671995,-0.57373 0.990233,-0.361328 2.388791,-0.844239 1.651366,0.539063 3.300778,1.078126 4.95129,1.617189 -1.397582,0.482911 -0.716919,0.271973 -2.387816,0.844239 -1.651365,-0.539063 -3.301754,-1.078126 -4.952265,-1.617189 z"
                 style="fill:#00b1ef;fill-opacity:1;fill-rule:nonzero;stroke:none"
                 id="path212" />
              <path
                 d="m 71.80616,-57.442052 c 1.399412,-0.481446 0.895506,-0.305176 1.026366,-0.352051 1.650389,0.540039 3.3009,1.078126 4.951289,1.617188 -0.129882,0.04688 0.373046,-0.129394 -1.02539,0.351075 -1.650511,-0.538086 -3.3009,-1.077149 -4.952265,-1.616212 z"
                 style="fill:#00b3f0;fill-opacity:1;fill-rule:nonzero;stroke:none"
                 id="path214" />
              <path
                 d="m 76.758425,-55.82584 c 1.398436,-0.480469 0.895508,-0.304199 1.02539,-0.351075 1.650389,0.538087 3.301755,1.07715 4.952266,1.616213 -0.129883,0.04736 0.373046,-0.130371 -1.026366,0.352051 -1.650512,-0.539063 -3.299924,-1.078126 -4.95129,-1.617189 z"
                 style="fill:#00b2f0;fill-opacity:1;fill-rule:nonzero;stroke:none"
                 id="path216" />
              <path
                 d="m 72.832526,-57.794103 c 0.127929,-0.04687 -0.460938,0.158691 1.210935,-0.416138 1.650512,0.54065 3.301878,1.079713 4.95129,1.617799 -1.671873,0.574219 -1.081053,0.367676 -1.210936,0.415527 -1.650389,-0.539062 -3.3009,-1.077149 -4.951289,-1.617188 z"
                 style="fill:#00b3f0;fill-opacity:1;fill-rule:nonzero;stroke:none"
                 id="path218" />
              <path
                 d="m 77.783815,-56.176915 c 0.129883,-0.04785 -0.460937,0.158692 1.210936,-0.415527 1.650389,0.539063 3.301877,1.077149 4.952267,1.616212 -1.672851,0.574708 -1.082031,0.367677 -1.210937,0.415528 -1.650511,-0.539063 -3.301877,-1.078126 -4.952266,-1.616213 z"
                 style="fill:#00b2f0;fill-opacity:1;fill-rule:nonzero;stroke:none"
                 id="path220" />
              <path
                 d="m 34.426555,-71.142503 c 1.651854,0.539063 3.302731,1.078126 4.953242,1.617189 0.42334,-0.14502 0.978027,-0.337403 1.598632,-0.553712 -1.649413,-0.539063 -3.300412,-1.077149 -4.95129,-1.616212 -0.621582,0.215332 -1.177245,0.408692 -1.600584,0.552735 z"
                 style="fill:#00aeef;fill-opacity:1;fill-rule:nonzero;stroke:none"
                 id="path222" />
              <path
                 d="m 36.027139,-71.695238 c 1.650878,0.539063 3.301877,1.077149 4.95129,1.616212 0.620604,-0.216308 1.308104,-0.45459 1.99365,-0.693848 -1.650877,-0.538086 -3.301755,-1.077271 -4.952754,-1.616334 -0.684082,0.238281 -1.371581,0.477539 -1.992186,0.69397 z"
                 style="fill:#00aeef;fill-opacity:1;fill-rule:nonzero;stroke:none"
                 id="path224" />
              <path
                 d="m 39.379797,-69.525314 c 1.649901,0.538086 3.300779,1.077149 4.951168,1.616212 0.423461,-0.145019 0.979125,-0.337402 1.601195,-0.553711 -1.651976,-0.539064 -3.302854,-1.07715 -4.953731,-1.616213 -0.620605,0.216309 -1.175292,0.408692 -1.598632,0.553712 z"
                 style="fill:#00b2f0;fill-opacity:1;fill-rule:nonzero;stroke:none"
                 id="path226" />
              <path
                 d="m 40.978429,-70.079026 c 1.650877,0.539063 3.301755,1.077149 4.953731,1.616213 0.620116,-0.214844 1.306639,-0.454103 1.993162,-0.692383 -1.651855,-0.539064 -3.302732,-1.078126 -4.953243,-1.617678 -0.685546,0.239258 -1.373046,0.47754 -1.99365,0.693848 z"
                 style="fill:#00b1f0;fill-opacity:1;fill-rule:nonzero;stroke:none"
                 id="path228" />
              <path
                 d="m 44.330965,-67.909102 c 3.3009,1.077149 6.602288,2.154298 9.903067,3.233035 0.423827,-0.145508 0.979979,-0.337524 1.600584,-0.553833 -3.301754,-1.07715 -6.602166,-2.154299 -9.902456,-3.232913 -0.62207,0.216309 -1.177734,0.408692 -1.601195,0.553711 z"
                 style="fill:#00b3f0;fill-opacity:1;fill-rule:nonzero;stroke:none"
                 id="path230" />
              <path
                 d="m 45.93216,-68.462813 c 3.30029,1.078614 6.600702,2.155763 9.902456,3.232913 0.621582,-0.215333 1.306762,-0.453615 1.992308,-0.692872 -3.300412,-1.077149 -6.60119,-2.155275 -9.901602,-3.232424 -0.686523,0.23828 -1.373046,0.477539 -1.993162,0.692383 z"
                 style="fill:#00b2f0;fill-opacity:1;fill-rule:nonzero;stroke:none"
                 id="path232" />
              <path
                 d="m 54.234032,-64.676067 c 3.302365,1.078126 6.604119,2.155275 9.905997,3.233401 0.422851,-0.14502 0.978515,-0.337403 1.599608,-0.553712 -3.300901,-1.078125 -6.603632,-2.155275 -9.905021,-3.233522 -0.620605,0.216309 -1.176757,0.408325 -1.600584,0.553833 z"
                 style="fill:#00b3f0;fill-opacity:1;fill-rule:nonzero;stroke:none"
                 id="path234" />
              <path
                 d="m 55.834616,-65.2299 c 3.301389,1.078247 6.60412,2.155397 9.905021,3.233522 0.621093,-0.215332 1.307616,-0.454589 1.992185,-0.692871 -3.300778,-1.078126 -6.603631,-2.155275 -9.904898,-3.233523 -0.685546,0.239257 -1.370726,0.477539 -1.992308,0.692872 z"
                 style="fill:#00b2f0;fill-opacity:1;fill-rule:nonzero;stroke:none"
                 id="path236" />
              <path
                 d="m 64.140029,-61.442666 c 3.300777,1.078126 6.601678,2.155275 9.903432,3.232425 0.422852,-0.144043 0.978515,-0.336426 1.599731,-0.552735 -3.3009,-1.07715 -6.602777,-2.155276 -9.903555,-3.233402 -0.621093,0.216309 -1.176757,0.408692 -1.599608,0.553712 z"
                 style="fill:#00b3f0;fill-opacity:1;fill-rule:nonzero;stroke:none"
                 id="path238" />
              <path
                 d="m 65.739637,-61.996378 c 3.300778,1.078126 6.602655,2.156252 9.903555,3.233402 0.621093,-0.214844 1.307616,-0.454102 1.992185,-0.69336 -3.3009,-1.077149 -6.601678,-2.155764 -9.903555,-3.232913 -0.684569,0.238282 -1.371092,0.477539 -1.992185,0.692871 z"
                 style="fill:#00b2f0;fill-opacity:1;fill-rule:nonzero;stroke:none"
                 id="path240" />
              <path
                 d="m 74.043461,-58.210241 c 1.650512,0.54065 3.301878,1.079713 4.95129,1.617799 0.422851,-0.145508 0.978515,-0.337891 1.600584,-0.552735 -1.651365,-0.538086 -3.301754,-1.078248 -4.952143,-1.617799 -0.621216,0.216309 -1.176879,0.408692 -1.599731,0.552735 z"
                 style="fill:#00b3f0;fill-opacity:1;fill-rule:nonzero;stroke:none"
                 id="path242" />
              <path
                 d="m 75.643192,-58.762976 c 1.650389,0.539551 3.300778,1.079713 4.952143,1.617799 0.620117,-0.216309 1.306762,-0.455566 1.992309,-0.693848 -1.650512,-0.539185 -3.301877,-1.078248 -4.952267,-1.617311 -0.684569,0.239258 -1.371092,0.478516 -1.992185,0.69336 z"
                 style="fill:#00b2f0;fill-opacity:1;fill-rule:nonzero;stroke:none"
                 id="path244" />
              <path
                 d="m 78.994751,-56.592442 c 1.650389,0.539063 3.301877,1.077149 4.952267,1.616212 0.422851,-0.145508 0.978514,-0.337402 1.599607,-0.552734 -1.650389,-0.539064 -3.301755,-1.07715 -4.95129,-1.616213 -0.622069,0.214844 -1.177733,0.407227 -1.600584,0.552735 z"
                 style="fill:#00b2f0;fill-opacity:1;fill-rule:nonzero;stroke:none"
                 id="path246" />
              <path
                 d="m 80.595335,-57.145177 c 1.649535,0.539063 3.300901,1.077149 4.95129,1.616213 0.621093,-0.216309 1.307617,-0.454591 1.992186,-0.693849 -1.650389,-0.538086 -3.301755,-1.077149 -4.951167,-1.616212 -0.685547,0.238282 -1.372192,0.477539 -1.992309,0.693848 z"
                 style="fill:#00b1f0;fill-opacity:1;fill-rule:nonzero;stroke:none"
                 id="path248" />
              <path
                 d="m 38.019325,-72.389208 c 1.3385,-0.465821 2.671018,-0.929689 3.496212,-1.212892 1.650878,0.539063 3.302854,1.078126 4.952266,1.616212 -0.825194,0.284302 -2.158323,0.747194 -3.495724,1.213014 -1.650877,-0.538086 -3.301755,-1.077271 -4.952754,-1.616334 z"
                 style="fill:#00aeef;fill-opacity:1;fill-rule:nonzero;stroke:none"
                 id="path250" />
              <path
                 d="m 42.972079,-70.772874 c 1.337401,-0.46582 2.67053,-0.928712 3.495724,-1.213014 1.651855,0.539185 3.301755,1.078248 4.95129,1.616334 -0.825195,0.284181 -2.158323,0.748048 -3.493771,1.214358 -1.651855,-0.539064 -3.302732,-1.078126 -4.953243,-1.617678 z"
                 style="fill:#00b0f0;fill-opacity:1;fill-rule:nonzero;stroke:none"
                 id="path252" />
              <path
                 d="m 47.925322,-69.155196 c 3.301876,1.077149 6.603143,2.155275 9.903555,3.232424 1.337401,-0.463868 2.669431,-0.928712 3.495603,-1.212892 -3.301267,-1.078126 -6.601679,-2.155275 -9.905387,-3.23389 -0.825195,0.284181 -2.158323,0.748048 -3.493771,1.214358 z"
                 style="fill:#00b0f0;fill-opacity:1;fill-rule:nonzero;stroke:none"
                 id="path254" />
              <path
                 d="m 57.828877,-65.922772 c 3.301267,1.078248 6.603143,2.156374 9.902945,3.233523 1.33789,-0.464844 2.670041,-0.929689 3.497189,-1.212892 -3.301876,-1.078248 -6.602655,-2.155397 -9.904531,-3.233523 -0.826172,0.28418 -2.158202,0.749024 -3.495603,1.212892 z"
                 style="fill:#00b0f0;fill-opacity:1;fill-rule:nonzero;stroke:none"
                 id="path256" />
              <path
                 d="m 67.731822,-62.689249 c 3.301877,1.078614 6.602655,2.155764 9.903555,3.232913 1.33789,-0.465332 2.670897,-0.930177 3.497068,-1.21338 -3.301755,-1.077149 -6.602655,-2.155275 -9.903434,-3.232425 -0.827148,0.283203 -2.159299,0.748048 -3.497189,1.212892 z"
                 style="fill:#00b0f0;fill-opacity:1;fill-rule:nonzero;stroke:none"
                 id="path258" />
              <path
                 d="m 77.635377,-59.456336 c 1.33789,-0.465332 2.670897,-0.930177 3.497068,-1.21338 1.650511,0.539551 3.299923,1.078614 4.951289,1.617677 -0.826171,0.283204 -2.159178,0.747071 -3.49609,1.213014 -1.650512,-0.539185 -3.301877,-1.078248 -4.952267,-1.617311 z"
                 style="fill:#00b0f0;fill-opacity:1;fill-rule:nonzero;stroke:none"
                 id="path260" />
              <path
                 d="m 82.587644,-57.839025 c 1.336912,-0.465943 2.669919,-0.92981 3.49609,-1.213014 1.651366,0.538087 3.302854,1.077272 4.952266,1.615358 -0.826171,0.285157 -2.158201,0.748047 -3.497189,1.213868 -1.650389,-0.538086 -3.301755,-1.077149 -4.951167,-1.616212 z"
                 style="fill:#00b0f0;fill-opacity:1;fill-rule:nonzero;stroke:none"
                 id="path262" />
            </g>
          </g>
        </g>
      </g>
    </g>
    <g
       id="g264">
      <g
         id="g266">
        <g
           id="g272">
          <g
             id="g274">
            <path
               d="M 7.153,114.936 7.159,41.612 117.119,78.277 7.154,114.937 Z"
               style="fill:url(#linearGradient294);stroke:none"
               id="path296" />
          </g>
        </g>
      </g>
    </g>
    <g
       id="g298">
      <g
         id="g300">
        <g
           id="g306">
          <g
             id="g308">
            <path
               d="M 117.098,78.293 7.173,41.622 117.119,4.967 227.074,41.622 v 73.314 l -0.002,10e-4 z"
               style="fill:url(#linearGradient322);stroke:none"
               id="path324" />
          </g>
        </g>
      </g>
    </g>
    <g
       id="g326">
      <g
         id="g328"
         clip-path="url(#clipPath332)">
        <g
           id="g334">
          <g
             id="g336"
             transform="scale(2.0361199,-2.0361199)">
            <g
               id="g338">
              <path
                 d="m 22.565818,-24.957481 c 0.523926,-0.178711 1.991701,-0.672853 3.278445,-1.116213 1.650393,0.537111 3.300296,1.076174 4.950689,1.615236 -1.287599,0.443361 -2.753909,0.937501 -3.278812,1.117189 -1.65088,-0.539063 -3.300907,-1.077149 -4.950322,-1.616212 z"
                 style="fill:#ce293e;fill-opacity:1;fill-rule:nonzero;stroke:none"
                 id="path340" />
              <path
                 d="m 27.51614,-23.341269 c 0.524903,-0.179688 1.991213,-0.673828 3.278812,-1.117189 1.651002,0.539063 3.301883,1.078127 4.952275,1.617189 -1.287599,0.44336 -2.753909,0.937501 -3.280277,1.117189 -1.650514,-0.539063 -3.300418,-1.078126 -4.95081,-1.617189 z"
                 style="fill:#ce293e;fill-opacity:1;fill-rule:nonzero;stroke:none"
                 id="path342" />
              <path
                 d="m 32.46695,-21.72408 c 3.300297,1.077271 6.60218,2.15442 9.904429,3.232547 0.523927,-0.179688 1.991701,-0.673829 3.279422,-1.116212 -3.301883,-1.078126 -6.603156,-2.157351 -9.903574,-3.233524 -1.287599,0.44336 -2.753909,0.937501 -3.280277,1.117189 z"
                 style="fill:#ce293e;fill-opacity:1;fill-rule:nonzero;stroke:none"
                 id="path344" />
              <path
                 d="m 42.371379,-18.491533 c 3.299442,1.077149 6.600715,2.156252 9.902109,3.232546 0.525392,-0.181763 1.991702,-0.673951 3.2793,-1.117311 -3.300296,-1.077149 -6.600714,-2.154298 -9.901987,-3.231447 -1.287721,0.442383 -2.755495,0.936524 -3.279422,1.116212 z"
                 style="fill:#ce293e;fill-opacity:1;fill-rule:nonzero;stroke:none"
                 id="path346" />
              <path
                 d="m 52.273488,-15.258987 c 3.300785,1.078126 6.601203,2.155275 9.902476,3.234378 0.525391,-0.181641 1.991334,-0.673829 3.281375,-1.117188 -3.301883,-1.079103 -6.603156,-2.156252 -9.904551,-3.234501 -1.287598,0.44336 -2.753908,0.935548 -3.2793,1.117311 z"
                 style="fill:#ce293e;fill-opacity:1;fill-rule:nonzero;stroke:none"
                 id="path348" />
              <path
                 d="m 62.175964,-12.024609 c 0.525391,-0.181641 1.991334,-0.673829 3.281375,-1.117188 1.649416,0.538086 3.298832,1.076172 4.951299,1.615235 -1.289186,0.44336 -2.755008,0.936525 -3.281375,1.117189 -1.65137,-0.539063 -3.300785,-1.07715 -4.951299,-1.615236 z"
                 style="fill:#ce293e;fill-opacity:1;fill-rule:nonzero;stroke:none"
                 id="path350" />
              <path
                 d="m 67.127263,-10.409373 c 0.526367,-0.180664 1.992189,-0.673829 3.281375,-1.117189 1.650392,0.539064 3.299808,1.078126 4.951176,1.6162125 -1.28711,0.4443362 -2.753908,0.9385995 -3.281253,1.1173104 -1.651369,-0.5391849 -3.300907,-1.0772716 -4.951298,-1.6163339 z"
                 style="fill:#ce293e;fill-opacity:1;fill-rule:nonzero;stroke:none"
                 id="path352" />
              <path
                 d="m 25.844263,-26.073694 c 1.650393,0.537111 3.300296,1.076174 4.950689,1.615236 0.304199,-0.104492 0.620606,-0.213867 0.937013,-0.324219 -1.650393,-0.540039 -3.301273,-1.079102 -4.952154,-1.615236 -0.31543,0.1084 -0.631836,0.218751 -0.935548,0.324219 z"
                 style="fill:#d8253c;fill-opacity:1;fill-rule:nonzero;stroke:none"
                 id="path354" />
              <path
                 d="m 26.779811,-26.397913 c 1.650881,0.536134 3.301761,1.075197 4.952154,1.615236 0.31604,-0.109375 0.632446,-0.21875 0.936157,-0.325195 -1.650514,-0.541016 -3.300418,-1.079103 -4.95081,-1.616213 -0.304199,0.10547 -0.620606,0.215821 -0.937501,0.326172 z"
                 style="fill:#db263c;fill-opacity:1;fill-rule:nonzero;stroke:none"
                 id="path356" />
              <path
                 d="m 27.717312,-26.724085 c 0.607422,-0.211913 1.164552,-0.405273 1.568849,-0.542968 0.824708,0.26953 1.649904,0.538085 2.475589,0.808594 -0.405274,0.137695 -0.961427,0.330078 -1.569338,0.541016 -0.824708,-0.269532 -1.650392,-0.538087 -2.4751,-0.806642 z"
                 style="fill:#dc253c;fill-opacity:1;fill-rule:nonzero;stroke:none"
                 id="path358" />
              <path
                 d="m 30.192412,-25.917443 c 0.825196,0.268555 1.650881,0.54004 2.47571,0.809571 0.3042,-0.104492 0.595216,-0.206055 0.860841,-0.297852 -0.825684,-0.270508 -1.650515,-0.54004 -2.47571,-0.809571 -0.265626,0.0918 -0.556641,0.192383 -0.860841,0.297852 z"
                 style="fill:#dd3043;fill-opacity:1;fill-rule:nonzero;stroke:none"
                 id="path360" />
              <path
                 d="m 31.053253,-26.215295 c 0.825195,0.269531 1.650026,0.539063 2.47571,0.809571 0.266114,-0.09277 0.506348,-0.175781 0.708497,-0.244141 -0.824708,-0.269531 -1.650881,-0.540039 -2.47571,-0.808594 -0.202149,0.06738 -0.443849,0.151367 -0.708497,0.243164 z"
                 style="fill:#df3245;fill-opacity:1;fill-rule:nonzero;stroke:none"
                 id="path362" />
              <path
                 d="m 30.794952,-24.458458 c 1.651002,0.539063 3.301883,1.078127 4.952275,1.617189 0.302735,-0.105469 0.61963,-0.214843 0.936036,-0.324219 -1.65088,-0.539062 -3.301273,-1.078126 -4.951298,-1.617189 -0.316407,0.110352 -0.632814,0.219727 -0.937013,0.324219 z"
                 style="fill:#d93141;fill-opacity:1;fill-rule:nonzero;stroke:none"
                 id="path364" />
              <path
                 d="m 31.731965,-24.782677 c 1.650025,0.539063 3.300418,1.078127 4.951298,1.617189 0.31543,-0.110352 0.632325,-0.221679 0.936036,-0.326172 -1.65088,-0.539063 -3.300296,-1.076173 -4.951177,-1.616212 -0.303711,0.106445 -0.620117,0.21582 -0.936157,0.325195 z"
                 style="fill:#db3444;fill-opacity:1;fill-rule:nonzero;stroke:none"
                 id="path366" />
              <path
                 d="m 32.668122,-25.107872 c 0.825197,0.270508 1.650881,0.540039 2.475589,0.808594 0.303711,-0.106445 0.595215,-0.208008 0.86084,-0.299804 -0.825684,-0.270509 -1.65088,-0.53711 -2.475588,-0.806642 -0.265625,0.0918 -0.556641,0.19336 -0.860841,0.297852 z"
                 style="fill:#de3847;fill-opacity:1;fill-rule:nonzero;stroke:none"
                 id="path368" />
              <path
                 d="m 33.528963,-25.405724 c 0.824708,0.269532 1.649904,0.536133 2.475588,0.806642 0.265626,-0.0918 0.506349,-0.173829 0.708497,-0.242189 -0.824708,-0.269531 -1.649904,-0.539062 -2.475588,-0.808594 -0.202149,0.06836 -0.442383,0.151367 -0.708497,0.244141 z"
                 style="fill:#e13b4b;fill-opacity:1;fill-rule:nonzero;stroke:none"
                 id="path370" />
              <path
                 d="m 35.143711,-24.299278 c 0.824708,0.268555 1.65088,0.53711 2.475588,0.807618 0.303711,-0.105469 0.595215,-0.208008 0.86194,-0.298828 -0.825807,-0.269532 -1.65198,-0.539064 -2.476688,-0.808594 -0.265625,0.0918 -0.557129,0.193359 -0.86084,0.299804 z"
                 style="fill:#de3c4a;fill-opacity:1;fill-rule:nonzero;stroke:none"
                 id="path372" />
              <path
                 d="m 36.004551,-24.599082 c 0.824708,0.26953 1.650881,0.539062 2.476688,0.808594 0.264648,-0.09277 0.504883,-0.175781 0.708496,-0.244141 -0.826172,-0.269532 -1.651002,-0.538087 -2.476687,-0.806642 -0.202148,0.06836 -0.442871,0.150391 -0.708497,0.242189 z"
                 style="fill:#e1404f;fill-opacity:1;fill-rule:nonzero;stroke:none"
                 id="path374" />
              <path
                 d="m 35.747227,-22.841269 c 9.903574,3.232547 19.805561,6.466925 29.710112,9.699472 0.302735,-0.10547 0.619141,-0.214845 0.934571,-0.325196 -9.903086,-3.232547 -19.805073,-6.465948 -29.708647,-9.698495 -0.316406,0.109376 -0.633301,0.21875 -0.936036,0.324219 z"
                 style="fill:#d93543;fill-opacity:1;fill-rule:nonzero;stroke:none"
                 id="path376" />
              <path
                 d="m 36.683263,-23.165488 c 9.903574,3.232547 19.805561,6.465948 29.708647,9.698495 0.317383,-0.109375 0.63379,-0.219727 0.938478,-0.327149 -9.904429,-3.232547 -19.807515,-6.464971 -29.711089,-9.697518 -0.303711,0.104493 -0.620606,0.21582 -0.936036,0.326172 z"
                 style="fill:#dc3947;fill-opacity:1;fill-rule:nonzero;stroke:none"
                 id="path378" />
              <path
                 d="m 37.619299,-23.49166 c 9.903574,3.232547 19.80666,6.464971 29.711089,9.697518 0.303711,-0.105468 0.594727,-0.207031 0.859376,-0.298829 -9.902964,-3.233522 -19.80605,-6.465947 -29.708525,-9.697517 -0.266725,0.09082 -0.558229,0.193359 -0.86194,0.298828 z"
                 style="fill:#df3d4b;fill-opacity:1;fill-rule:nonzero;stroke:none"
                 id="path380" />
              <path
                 d="m 38.481239,-23.790488 c 9.902475,3.23157 19.805561,6.463995 29.708525,9.697517 0.266601,-0.09277 0.506836,-0.173828 0.708985,-0.243164 -9.903452,-3.231569 -19.807026,-6.465948 -29.709014,-9.698494 -0.203613,0.06836 -0.443848,0.151368 -0.708496,0.244141 z"
                 style="fill:#e24151;fill-opacity:1;fill-rule:nonzero;stroke:none"
                 id="path382" />
              <path
                 d="m 65.457339,-13.141797 c 1.649416,0.538086 3.298832,1.076172 4.951299,1.615235 0.302734,-0.105468 0.619141,-0.214844 0.935547,-0.324219 -1.650514,-0.539063 -3.300906,-1.078125 -4.952275,-1.616212 -0.31543,0.110351 -0.631836,0.219726 -0.934571,0.325196 z"
                 style="fill:#d93543;fill-opacity:1;fill-rule:nonzero;stroke:none"
                 id="path384" />
              <path
                 d="m 66.39191,-13.466993 c 1.651369,0.538087 3.301761,1.077149 4.952275,1.616212 0.31543,-0.110351 0.632814,-0.22168 0.937502,-0.326172 -1.653323,-0.539063 -3.30286,-1.078125 -4.951299,-1.617189 -0.304688,0.107422 -0.621095,0.217774 -0.938478,0.327149 z"
                 style="fill:#dc3947;fill-opacity:1;fill-rule:nonzero;stroke:none"
                 id="path386" />
              <path
                 d="m 67.330388,-13.794142 c 0.824219,0.269532 1.648439,0.539064 2.473635,0.808594 0.303833,-0.106445 0.595826,-0.20703 0.862428,-0.298828 -0.826295,-0.270508 -1.650515,-0.539063 -2.476687,-0.808595 -0.264649,0.0918 -0.555665,0.193361 -0.859376,0.298829 z"
                 style="fill:#df3d4b;fill-opacity:1;fill-rule:nonzero;stroke:none"
                 id="path388" />
              <path
                 d="m 68.189764,-14.092971 c 0.826172,0.269532 1.650392,0.538087 2.476687,0.808595 0.264648,-0.0918 0.505859,-0.173828 0.708008,-0.242187 -0.825196,-0.269532 -1.651491,-0.539063 -2.47571,-0.809572 -0.202149,0.06934 -0.442384,0.150391 -0.708985,0.243164 z"
                 style="fill:#e14150;fill-opacity:1;fill-rule:nonzero;stroke:none"
                 id="path390" />
              <path
                 d="m 69.804023,-12.985548 c 0.824341,0.269532 1.651491,0.539064 2.477664,0.808595 0.303711,-0.105468 0.594727,-0.207031 0.860352,-0.298828 -0.825196,-0.269532 -1.651369,-0.54004 -2.475588,-0.808595 -0.266602,0.0918 -0.558595,0.192383 -0.862428,0.298828 z"
                 style="fill:#de3c4a;fill-opacity:1;fill-rule:nonzero;stroke:none"
                 id="path392" />
              <path
                 d="m 70.666451,-13.284376 c 0.824219,0.268555 1.650392,0.539063 2.475588,0.808595 0.264649,-0.0918 0.504883,-0.174805 0.708009,-0.242188 -0.825197,-0.269532 -1.650393,-0.539063 -2.475589,-0.808594 -0.202149,0.06836 -0.44336,0.15039 -0.708008,0.242187 z"
                 style="fill:#e1404f;fill-opacity:1;fill-rule:nonzero;stroke:none"
                 id="path394" />
              <path
                 d="m 70.408638,-11.526562 c 1.650392,0.539064 3.299808,1.078126 4.951176,1.6162125 0.302735,-0.1035155 0.619142,-0.2148445 0.93567,-0.3232425 -1.650514,-0.539063 -3.300906,-1.078126 -4.951299,-1.617189 -0.316406,0.109375 -0.632813,0.218751 -0.935547,0.324219 z"
                 style="fill:#d93142;fill-opacity:1;fill-rule:nonzero;stroke:none"
                 id="path396" />
              <path
                 d="m 71.344185,-11.850781 c 1.650393,0.539063 3.300785,1.078126 4.951299,1.617189 0.316407,-0.110351 0.631837,-0.220704 0.937501,-0.326172 -1.651491,-0.539063 -3.300907,-1.078126 -4.951298,-1.617189 -0.304688,0.104492 -0.622072,0.215821 -0.937502,0.326172 z"
                 style="fill:#db3444;fill-opacity:1;fill-rule:nonzero;stroke:none"
                 id="path398" />
              <path
                 d="m 72.281687,-12.176953 c 0.824219,0.268555 1.650391,0.539063 2.475588,0.807618 0.303711,-0.104492 0.594727,-0.206055 0.860352,-0.297852 -0.825196,-0.269532 -1.650392,-0.539063 -2.475588,-0.808594 -0.265625,0.0918 -0.556641,0.19336 -0.860352,0.298828 z"
                 style="fill:#de3747;fill-opacity:1;fill-rule:nonzero;stroke:none"
                 id="path400" />
              <path
                 d="m 73.142039,-12.475781 c 0.825196,0.269531 1.650392,0.539062 2.475588,0.808594 0.264649,-0.09277 0.504884,-0.173828 0.708131,-0.243164 -0.825319,-0.268555 -1.650515,-0.539063 -2.47571,-0.807618 -0.203126,0.06738 -0.44336,0.150391 -0.708009,0.242188 z"
                 style="fill:#e03b4b;fill-opacity:1;fill-rule:nonzero;stroke:none"
                 id="path402" />
              <path
                 d="m 74.757275,-11.369335 c 0.607422,-0.209961 1.163087,-0.40332 1.568483,-0.541016 0.825196,0.269532 1.650392,0.538087 2.474612,0.806641 -0.403321,0.137695 -0.959962,0.333008 -1.567385,0.543946 -0.825196,-0.269532 -1.651491,-0.539063 -2.47571,-0.809571 z"
                 style="fill:#dc3043;fill-opacity:1;fill-rule:nonzero;stroke:none"
                 id="path404" />
              <path
                 d="m 29.286161,-27.267053 c 1.061036,-0.359376 1.516115,-0.507814 1.83301,-0.611329 0.824707,0.268555 1.649538,0.539063 2.474734,0.808594 -0.315919,0.103516 -0.770997,0.251954 -1.832155,0.611329 -0.825685,-0.270509 -1.650881,-0.539064 -2.475589,-0.808594 z"
                 style="fill:#dd233b;fill-opacity:1;fill-rule:nonzero;stroke:none"
                 id="path406" />
              <path
                 d="m 31.76175,-26.458459 c 1.061158,-0.359375 1.516236,-0.507813 1.832155,-0.611329 0.825684,0.269531 1.650392,0.539063 2.475099,0.808594 -0.315429,0.103517 -0.770508,0.251954 -1.831544,0.611329 -0.824708,-0.269531 -1.650881,-0.540039 -2.47571,-0.808594 z"
                 style="fill:#e03346;fill-opacity:1;fill-rule:nonzero;stroke:none"
                 id="path408" />
              <path
                 d="m 34.23746,-25.649865 c 1.061036,-0.359375 1.516115,-0.507812 1.831544,-0.611329 0.826174,0.269532 1.650881,0.539064 2.475711,0.808595 -0.314575,0.103516 -0.770631,0.251953 -1.831667,0.611328 -0.824708,-0.269531 -1.649904,-0.539062 -2.475588,-0.808594 z"
                 style="fill:#e13d4d;fill-opacity:1;fill-rule:nonzero;stroke:none"
                 id="path410" />
              <path
                 d="m 36.713048,-24.841271 c 1.061036,-0.359375 1.517092,-0.507812 1.831667,-0.611328 0.826173,0.268555 1.650881,0.537109 2.476565,0.806641 -0.314454,0.105469 -0.771973,0.251953 -1.831545,0.611329 -0.826172,-0.269532 -1.651002,-0.538087 -2.476687,-0.806642 z"
                 style="fill:#e24251;fill-opacity:1;fill-rule:nonzero;stroke:none"
                 id="path412" />
              <path
                 d="m 31.119171,-27.878382 c 0.811036,-0.267701 -0.192872,0.05469 1.480104,-0.517701 0.825196,0.269531 1.649904,0.538209 2.475588,0.806764 -1.672853,0.571289 -0.669922,0.251953 -1.480958,0.519531 -0.825196,-0.269531 -1.650027,-0.540039 -2.474734,-0.808594 z"
                 style="fill:#df223b;fill-opacity:1;fill-rule:nonzero;stroke:none"
                 id="path414" />
              <path
                 d="m 33.593905,-27.069788 c 0.811036,-0.267578 -0.191895,0.05176 1.480958,-0.519531 0.824708,0.268554 1.649904,0.539062 2.475589,0.808594 -1.672854,0.572266 -0.670412,0.251953 -1.481448,0.519531 -0.824707,-0.269531 -1.649415,-0.539063 -2.475099,-0.808594 z"
                 style="fill:#e33546;fill-opacity:1;fill-rule:nonzero;stroke:none"
                 id="path416" />
              <path
                 d="m 36.069004,-26.261194 c 0.811036,-0.267578 -0.191406,0.05273 1.481448,-0.519531 0.82483,0.269531 1.650026,0.539063 2.47571,0.808594 -1.671876,0.572266 -0.669434,0.251954 -1.481447,0.519532 -0.82483,-0.269531 -1.649537,-0.539063 -2.475711,-0.808595 z"
                 style="fill:#e6404f;fill-opacity:1;fill-rule:nonzero;stroke:none"
                 id="path418" />
              <path
                 d="m 38.544715,-25.452599 c 0.812013,-0.267578 -0.190429,0.05273 1.481447,-0.519532 0.824708,0.269532 1.649415,0.538086 2.474612,0.808595 -1.671877,0.571289 -0.668458,0.25 -1.479494,0.517578 -0.825684,-0.269532 -1.650392,-0.538086 -2.476565,-0.806641 z"
                 style="fill:#e84854;fill-opacity:1;fill-rule:nonzero;stroke:none"
                 id="path420" />
              <path
                 d="m 39.189735,-24.034629 c 3.300297,1.076172 6.601691,2.155275 9.901988,3.233523 0.917969,-0.311524 1.347169,-0.452149 1.652833,-0.554688 -3.239749,-1.097779 -6.481085,-2.193483 -9.723276,-3.290164 -0.314454,0.105469 -0.771973,0.251953 -1.831545,0.611329 z"
                 style="fill:#e34353;fill-opacity:1;fill-rule:nonzero;stroke:none"
                 id="path422" />
              <path
                 d="m 49.091723,-20.801106 c 3.301883,1.07715 6.603156,2.153322 9.903574,3.231449 0.773926,-0.261719 1.175294,-0.394532 1.475099,-0.498048 -3.241337,-1.095704 -6.484504,-2.191408 -9.72584,-3.288089 -0.305664,0.102539 -0.734864,0.243164 -1.652833,0.554688 z"
                 style="fill:#e34353;fill-opacity:1;fill-rule:nonzero;stroke:none"
                 id="path424" />
              <path
                 d="m 58.995297,-17.569657 c 3.299808,1.078125 6.602667,2.156251 9.903452,3.233522 0.632813,-0.213866 1.005005,-0.339844 1.296021,-0.439453 -3.241335,-1.096802 -6.48255,-2.193484 -9.724374,-3.292117 -0.299805,0.103516 -0.701173,0.236329 -1.475099,0.498048 z"
                 style="fill:#e34353;fill-opacity:1;fill-rule:nonzero;stroke:none"
                 id="path426" />
              <path
                 d="m 41.02128,-24.645958 c 3.242191,1.096681 6.483527,2.192385 9.723276,3.290164 0.725709,-0.241211 0.144043,-0.05762 1.659303,-0.575318 -3.300418,-1.077149 -6.600714,-2.154298 -9.903085,-3.232424 -1.671877,0.571289 -0.668458,0.25 -1.479494,0.517578 z"
                 style="fill:#e94b56;fill-opacity:1;fill-rule:nonzero;stroke:none"
                 id="path428" />
              <path
                 d="m 50.744556,-21.355794 c 3.241336,1.096681 6.484503,2.192385 9.72584,3.288089 0.638184,-0.210937 0.479492,-0.165039 1.836427,-0.629883 -3.300784,-1.077149 -6.601691,-2.155276 -9.902964,-3.233524 -1.51526,0.517701 -0.933594,0.334107 -1.659303,0.575318 z"
                 style="fill:#e94b56;fill-opacity:1;fill-rule:nonzero;stroke:none"
                 id="path430" />
              <path
                 d="m 60.470396,-18.067705 c 3.241824,1.098633 6.483039,2.195315 9.724374,3.292117 0.553711,-0.188477 0.814454,-0.277344 2.016604,-0.688599 -3.303837,-1.078126 -6.601691,-2.156252 -9.904551,-3.233401 -1.356935,0.464844 -1.198243,0.418946 -1.836427,0.629883 z"
                 style="fill:#e84955;fill-opacity:1;fill-rule:nonzero;stroke:none"
                 id="path432" />
              <path
                 d="m 68.898749,-14.336135 c 0.632813,-0.213866 1.005005,-0.339844 1.296021,-0.439453 0.870119,0.25586 1.73926,0.510743 2.608401,0.765626 -0.292969,0.100586 -0.729493,0.246093 -1.428712,0.483399 -0.825196,-0.269532 -1.651491,-0.539063 -2.47571,-0.809572 z"
                 style="fill:#e34353;fill-opacity:1;fill-rule:nonzero;stroke:none"
                 id="path434" />
              <path
                 d="m 71.374459,-13.526563 c 0.699219,-0.237306 1.135743,-0.382813 1.428712,-0.483399 0.871095,0.255859 1.741213,0.510742 2.611331,0.766602 -0.303711,0.101563 -0.717774,0.238282 -1.564454,0.525391 -0.825197,-0.269532 -1.650393,-0.539063 -2.475589,-0.808594 z"
                 style="fill:#e24251;fill-opacity:1;fill-rule:nonzero;stroke:none"
                 id="path436" />
              <path
                 d="m 73.850048,-12.717969 c 0.84668,-0.287109 1.260743,-0.423828 1.564454,-0.525391 0.87024,0.253906 1.739381,0.509766 2.610476,0.764649 -0.3125,0.103516 -0.706055,0.230469 -1.69922,0.56836 -0.825319,-0.268555 -1.650515,-0.539063 -2.47571,-0.807618 z"
                 style="fill:#e13d4d;fill-opacity:1;fill-rule:nonzero;stroke:none"
                 id="path438" />
              <path
                 d="m 76.325758,-11.910351 c 0.993165,-0.337891 1.38672,-0.464844 1.69922,-0.56836 0.870118,0.253907 1.740236,0.509766 2.609378,0.764649 -0.315431,0.105469 -0.772462,0.251953 -1.833986,0.610352 -0.82422,-0.268554 -1.649416,-0.537109 -2.474612,-0.806641 z"
                 style="fill:#e03346;fill-opacity:1;fill-rule:nonzero;stroke:none"
                 id="path440" />
              <path
                 d="m 70.19477,-14.775588 c 0.553711,-0.188477 0.814454,-0.277344 2.016604,-0.688599 0.825196,0.269653 1.650393,0.537231 2.475588,0.806763 -1.276369,0.438477 -1.288087,0.447266 -1.883791,0.647462 -0.869141,-0.254883 -1.738282,-0.509766 -2.608401,-0.765626 z"
                 style="fill:#e84955;fill-opacity:1;fill-rule:nonzero;stroke:none"
                 id="path442" />
              <path
                 d="m 72.803171,-14.009962 c 0.595704,-0.200196 0.607422,-0.208985 1.883791,-0.647462 0.825196,0.269532 1.649538,0.539063 2.475711,0.808595 -1.437624,0.492187 -1.06653,0.376953 -1.748171,0.605469 -0.870118,-0.25586 -1.740236,-0.510743 -2.611331,-0.766602 z"
                 style="fill:#e74754;fill-opacity:1;fill-rule:nonzero;stroke:none"
                 id="path444" />
              <path
                 d="m 75.414502,-13.24336 c 0.681641,-0.228516 0.310547,-0.113282 1.748171,-0.605469 0.825196,0.268555 1.649416,0.539062 2.475588,0.807617 -1.600587,0.547853 -0.842774,0.307618 -1.613283,0.562501 -0.871095,-0.254883 -1.740236,-0.510743 -2.610476,-0.764649 z"
                 style="fill:#e5404f;fill-opacity:1;fill-rule:nonzero;stroke:none"
                 id="path446" />
              <path
                 d="m 78.024978,-12.478711 c 0.770509,-0.254883 0.0127,-0.01465 1.613283,-0.562501 0.825196,0.270508 1.649416,0.54004 2.475589,0.809572 -1.67383,0.572266 -0.66797,0.25 -1.479494,0.517578 -0.869142,-0.254883 -1.73926,-0.510742 -2.609378,-0.764649 z"
                 style="fill:#e33547;fill-opacity:1;fill-rule:nonzero;stroke:none"
                 id="path448" />
              <path
                 d="m 32.599275,-28.396083 c 1.671876,-0.57422 1.226075,-0.416016 1.376466,-0.47168 0.823731,0.270508 1.649904,0.54004 2.474612,0.809571 -0.149415,0.05273 0.296387,-0.104492 -1.37549,0.468873 -0.825684,-0.268555 -1.650392,-0.537233 -2.475588,-0.806764 z"
                 style="fill:#e0223b;fill-opacity:1;fill-rule:nonzero;stroke:none"
                 id="path450" />
              <path
                 d="m 35.074863,-27.589319 c 1.671877,-0.573365 1.226075,-0.416138 1.37549,-0.468873 0.824708,0.269654 1.65088,0.539185 2.47571,0.808716 -0.149414,0.05274 0.297364,-0.103515 -1.375611,0.468751 -0.825685,-0.269532 -1.650881,-0.54004 -2.475589,-0.808594 z"
                 style="fill:#e63747;fill-opacity:1;fill-rule:nonzero;stroke:none"
                 id="path452" />
              <path
                 d="m 37.550452,-26.780725 c 1.672975,-0.572266 1.226197,-0.416016 1.375611,-0.468751 0.825685,0.268555 1.650393,0.539063 2.475588,0.808595 -0.149414,0.05273 0.297364,-0.103515 -1.375489,0.46875 -0.825684,-0.269531 -1.65088,-0.539063 -2.47571,-0.808594 z"
                 style="fill:#eb4551;fill-opacity:1;fill-rule:nonzero;stroke:none"
                 id="path454" />
              <path
                 d="m 40.026162,-25.972131 c 1.672853,-0.572265 1.226075,-0.416016 1.375489,-0.46875 0.825685,0.269532 1.650393,0.539063 2.476565,0.808594 -0.149414,0.05274 0.295411,-0.104492 -1.377442,0.468751 -0.825197,-0.270509 -1.649904,-0.539063 -2.474612,-0.808595 z"
                 style="fill:#f04d57;fill-opacity:1;fill-rule:nonzero;stroke:none"
                 id="path456" />
              <path
                 d="m 33.975741,-28.867763 c 0.148438,-0.05176 -0.296387,0.104492 1.375489,-0.467774 0.824708,0.269532 1.650881,0.538087 2.475589,0.806642 -1.671877,0.572266 -1.227052,0.416015 -1.376466,0.470703 -0.824708,-0.269531 -1.650881,-0.539063 -2.474612,-0.809571 z"
                 style="fill:#e1213b;fill-opacity:1;fill-rule:nonzero;stroke:none"
                 id="path458" />
              <path
                 d="m 36.450353,-28.058192 c 0.149414,-0.05469 -0.295411,0.101563 1.376466,-0.470703 0.824829,0.269531 1.651003,0.539062 2.475711,0.808716 -1.671877,0.572266 -1.227053,0.416016 -1.376467,0.470703 -0.82483,-0.269531 -1.651002,-0.539062 -2.47571,-0.808716 z"
                 style="fill:#e73848;fill-opacity:1;fill-rule:nonzero;stroke:none"
                 id="path460" />
              <path
                 d="m 38.926063,-27.249476 c 0.149414,-0.05469 -0.29541,0.101563 1.376467,-0.470703 0.825684,0.269531 1.650392,0.538086 2.475587,0.808594 -1.671876,0.57129 -1.22754,0.416017 -1.376466,0.470704 -0.825195,-0.269532 -1.649903,-0.54004 -2.475588,-0.808595 z"
                 style="fill:#eb4450;fill-opacity:1;fill-rule:nonzero;stroke:none"
                 id="path462" />
              <path
                 d="m 41.401651,-26.440881 c 0.148926,-0.05469 -0.29541,0.100586 1.376466,-0.470704 0.825685,0.269532 1.650393,0.539063 2.475711,0.808595 -1.671999,0.572266 -1.226197,0.416016 -1.375612,0.470703 -0.826172,-0.269531 -1.65088,-0.539062 -2.476565,-0.808594 z"
                 style="fill:#f04d57;fill-opacity:1;fill-rule:nonzero;stroke:none"
                 id="path464" />
              <path
                 d="m 42.500774,-25.163536 c 3.302371,1.078126 6.602667,2.155275 9.903085,3.232424 1.672854,-0.574219 1.228517,-0.417969 1.377444,-0.46875 -3.300419,-1.078126 -6.601692,-2.154299 -9.903087,-3.232425 -0.149414,0.05274 0.295411,-0.104492 -1.377442,0.468751 z"
                 style="fill:#f04f59;fill-opacity:1;fill-rule:nonzero;stroke:none"
                 id="path466" />
              <path
                 d="m 52.403859,-21.931112 c 3.301273,1.078248 6.60218,2.156375 9.902964,3.233524 1.671999,-0.572266 1.226564,-0.416017 1.378053,-0.469728 -3.300418,-1.078125 -6.600836,-2.154298 -9.903573,-3.232546 -0.148927,0.05078 0.29541,-0.105469 -1.377444,0.46875 z"
                 style="fill:#f04f59;fill-opacity:1;fill-rule:nonzero;stroke:none"
                 id="path468" />
              <path
                 d="m 62.306823,-18.697588 c 3.30286,1.077149 6.600714,2.155275 9.904551,3.233401 1.671876,-0.574219 1.226564,-0.416992 1.376955,-0.470704 -3.302738,-1.079102 -6.601692,-2.156251 -9.903453,-3.232425 -0.151489,0.05371 0.293946,-0.102538 -1.378053,0.469728 z"
                 style="fill:#f04f59;fill-opacity:1;fill-rule:nonzero;stroke:none"
                 id="path470" />
              <path
                 d="m 43.878216,-25.632287 c 3.301395,1.078126 6.602668,2.154299 9.903087,3.232425 0.149413,-0.05274 -0.293947,0.102539 1.376465,-0.47168 -3.302249,-1.075197 -6.602667,-2.153322 -9.90394,-3.231448 -1.671999,0.572266 -1.226197,0.416016 -1.375612,0.470703 z"
                 style="fill:#f04f59;fill-opacity:1;fill-rule:nonzero;stroke:none"
                 id="path472" />
              <path
                 d="m 53.781303,-22.399862 c 3.302737,1.078248 6.603155,2.154421 9.903573,3.232546 0.147462,-0.05176 -0.296997,0.10254 1.375002,-0.46875 -3.29993,-1.078126 -6.601691,-2.156374 -9.90211,-3.235476 -1.670412,0.574219 -1.227052,0.418945 -1.376465,0.47168 z"
                 style="fill:#f04f59;fill-opacity:1;fill-rule:nonzero;stroke:none"
                 id="path474" />
              <path
                 d="m 63.684876,-19.167316 c 3.301761,1.076174 6.600715,2.153323 9.903453,3.232425 0.148437,-0.05273 -0.296876,0.10254 1.375001,-0.46875 -3.300785,-1.078126 -6.601691,-2.156252 -9.903452,-3.232425 -1.671999,0.57129 -1.22754,0.416993 -1.375002,0.46875 z"
                 style="fill:#f04f59;fill-opacity:1;fill-rule:nonzero;stroke:none"
                 id="path476" />
              <path
                 d="m 72.211374,-15.464187 c 1.671876,-0.574219 1.226564,-0.416992 1.376955,-0.470704 0.824219,0.269532 1.650391,0.539063 2.475588,0.80774 -0.150391,0.05566 0.295044,-0.102539 -1.376955,0.469727 -0.825195,-0.269532 -1.650392,-0.53711 -2.475588,-0.806763 z"
                 style="fill:#f04f59;fill-opacity:1;fill-rule:nonzero;stroke:none"
                 id="path478" />
              <path
                 d="m 74.686962,-14.657424 c 1.671999,-0.572266 1.226564,-0.414062 1.376955,-0.469727 0.824341,0.270508 1.649538,0.539063 2.474734,0.809571 -0.149415,0.05274 0.295898,-0.104492 -1.375978,0.468751 -0.826173,-0.269532 -1.650515,-0.539063 -2.475711,-0.808595 z"
                 style="fill:#ee4c57;fill-opacity:1;fill-rule:nonzero;stroke:none"
                 id="path480" />
              <path
                 d="m 77.162673,-13.848829 c 1.671876,-0.573243 1.226563,-0.416016 1.375978,-0.468751 0.825196,0.269532 1.649415,0.539064 2.473635,0.808594 -0.147461,0.05274 0.297852,-0.103515 -1.374025,0.467774 -0.826172,-0.268555 -1.650392,-0.539062 -2.475588,-0.807617 z"
                 style="fill:#ea4551;fill-opacity:1;fill-rule:nonzero;stroke:none"
                 id="path482" />
              <path
                 d="m 79.638261,-13.041212 c 1.671877,-0.571289 1.226564,-0.415039 1.374025,-0.467774 0.826172,0.268555 1.651491,0.539064 2.47571,0.807619 -0.147461,0.05371 0.297852,-0.102539 -1.374146,0.469727 -0.826173,-0.269532 -1.650393,-0.539064 -2.475589,-0.809572 z"
                 style="fill:#e53748;fill-opacity:1;fill-rule:nonzero;stroke:none"
                 id="path484" />
              <path
                 d="m 73.588329,-15.934891 c 0.148437,-0.05273 -0.296876,0.10254 1.375001,-0.46875 0.825196,0.269532 1.649538,0.538086 2.47571,0.806641 -1.671999,0.571412 -1.226563,0.418091 -1.375123,0.469849 -0.825197,-0.268677 -1.651369,-0.538208 -2.475588,-0.80774 z"
                 style="fill:#f04f59;fill-opacity:1;fill-rule:nonzero;stroke:none"
                 id="path486" />
              <path
                 d="m 76.063917,-15.127151 c 0.14856,-0.05176 -0.296876,0.101563 1.375123,-0.469849 0.825196,0.268555 1.649415,0.539185 2.475589,0.80774 -1.671877,0.573243 -1.22754,0.416016 -1.375978,0.47168 -0.825196,-0.270508 -1.650393,-0.539063 -2.474734,-0.809571 z"
                 style="fill:#f04d57;fill-opacity:1;fill-rule:nonzero;stroke:none"
                 id="path488" />
              <path
                 d="m 78.538651,-14.31758 c 0.148438,-0.05566 -0.295899,0.101563 1.375978,-0.47168 0.825196,0.270508 1.649415,0.54004 2.475588,0.809571 -1.671877,0.572266 -1.227541,0.416016 -1.377931,0.470703 -0.82422,-0.26953 -1.648439,-0.539062 -2.473635,-0.808594 z"
                 style="fill:#eb4551;fill-opacity:1;fill-rule:nonzero;stroke:none"
                 id="path490" />
              <path
                 d="m 81.012286,-13.508986 c 0.15039,-0.05469 -0.293946,0.101563 1.377931,-0.470703 0.825318,0.269532 1.650515,0.538086 2.47571,0.808594 -1.671876,0.57129 -1.22754,0.416017 -1.377931,0.469728 -0.824219,-0.268555 -1.649538,-0.539064 -2.47571,-0.807619 z"
                 style="fill:#e63747;fill-opacity:1;fill-rule:nonzero;stroke:none"
                 id="path492" />
              <path
                 d="m 35.35123,-29.335537 c 0.440431,-0.151368 1.023927,-0.353516 1.675295,-0.580079 0.825685,0.268555 1.650514,0.539064 2.47571,0.808595 -0.651368,0.226562 -1.234986,0.427735 -1.675416,0.578126 -0.824708,-0.268555 -1.650881,-0.53711 -2.475589,-0.806642 z"
                 style="fill:#e3203b;fill-opacity:1;fill-rule:nonzero;stroke:none"
                 id="path494" />
              <path
                 d="m 37.826819,-28.528895 c 0.824829,0.269531 1.651003,0.539062 2.475711,0.808716 0.220215,-0.07519 0.476562,-0.163086 0.757813,-0.259888 -0.824708,-0.270508 -1.649416,-0.539063 -2.475101,-0.808594 -0.28186,0.09668 -0.538208,0.18457 -0.758423,0.259766 z"
                 style="fill:#e83747;fill-opacity:1;fill-rule:nonzero;stroke:none"
                 id="path496" />
              <path
                 d="m 38.585242,-28.788661 c 0.825685,0.269531 1.650393,0.538086 2.475101,0.808594 0.282715,-0.09766 0.590821,-0.205079 0.916993,-0.31836 -0.824708,-0.269531 -1.649416,-0.539063 -2.475101,-0.808594 -0.326172,0.113281 -0.634277,0.220703 -0.916993,0.31836 z"
                 style="fill:#e83646;fill-opacity:1;fill-rule:nonzero;stroke:none"
                 id="path498" />
              <path
                 d="m 37.026525,-29.915616 c 1.650514,0.539064 3.300418,1.078126 4.950811,1.617189 0.652344,-0.226562 1.371583,-0.476563 2.083986,-0.72461 -1.651857,-0.539062 -3.301273,-1.078126 -4.952153,-1.617189 -0.711427,0.248047 -1.431764,0.498048 -2.082644,0.72461 z"
                 style="fill:#e5203b;fill-opacity:1;fill-rule:nonzero;stroke:none"
                 id="path500" />
              <path
                 d="m 40.30253,-27.720179 c 0.825684,0.269531 1.650392,0.538086 2.475587,0.808594 0.220215,-0.0752 0.476564,-0.163085 0.757814,-0.259766 -0.824708,-0.269531 -1.649416,-0.539063 -2.475588,-0.808716 -0.281251,0.0968 -0.537598,0.184693 -0.757813,0.259888 z"
                 style="fill:#ec4451;fill-opacity:1;fill-rule:nonzero;stroke:none"
                 id="path502" />
              <path
                 d="m 41.060343,-27.980067 c 0.826172,0.269653 1.65088,0.539185 2.475588,0.808716 0.282715,-0.09863 0.592286,-0.205078 0.916993,-0.318359 -0.824708,-0.270508 -1.649416,-0.539185 -2.475588,-0.808717 -0.326172,0.113281 -0.634278,0.220704 -0.916993,0.31836 z"
                 style="fill:#ec424f;fill-opacity:1;fill-rule:nonzero;stroke:none"
                 id="path504" />
              <path
                 d="m 42.778117,-26.911585 c 0.825685,0.269532 1.650393,0.539063 2.475711,0.808595 0.220215,-0.0752 0.476075,-0.164063 0.757813,-0.262696 -0.824708,-0.268555 -1.649537,-0.536133 -2.47571,-0.805665 -0.28125,0.09668 -0.537599,0.184571 -0.757814,0.259766 z"
                 style="fill:#f04d57;fill-opacity:1;fill-rule:nonzero;stroke:none"
                 id="path506" />
              <path
                 d="m 43.535931,-27.171351 c 0.826173,0.269532 1.651002,0.53711 2.47571,0.805665 0.282715,-0.09668 0.591798,-0.203125 0.916994,-0.316406 -0.824708,-0.268555 -1.649416,-0.538087 -2.475711,-0.807618 -0.324707,0.113281 -0.634278,0.219727 -0.916993,0.318359 z"
                 style="fill:#f04b55;fill-opacity:1;fill-rule:nonzero;stroke:none"
                 id="path508" />
              <path
                 d="m 41.977336,-28.298427 c 0.652344,-0.226562 1.371583,-0.476563 2.083986,-0.72461 0.82483,0.268555 1.649538,0.539063 2.475711,0.808595 -0.712892,0.248047 -1.431642,0.498169 -2.084109,0.724732 -0.824708,-0.270508 -1.649416,-0.539185 -2.475588,-0.808717 z"
                 style="fill:#ec3f4a;fill-opacity:1;fill-rule:nonzero;stroke:none"
                 id="path510" />
              <path
                 d="m 44.452924,-27.48971 c 0.652467,-0.226563 1.371217,-0.476685 2.084109,-0.724732 0.824708,0.268555 1.649415,0.537232 2.475588,0.805787 -0.712891,0.249023 -1.431642,0.5 -2.083986,0.726563 -0.824708,-0.268555 -1.649416,-0.538087 -2.475711,-0.807618 z"
                 style="fill:#ef4650;fill-opacity:1;fill-rule:nonzero;stroke:none"
                 id="path512" />
              <path
                 d="m 45.253828,-26.10299 c 3.301273,1.078126 6.601691,2.156251 9.90394,3.231448 0.220215,-0.0752 0.476564,-0.163087 0.759279,-0.260743 -3.30225,-1.076172 -6.604133,-2.154298 -9.905406,-3.233401 -0.281738,0.09863 -0.537598,0.1875 -0.757813,0.262696 z"
                 style="fill:#f04f59;fill-opacity:1;fill-rule:nonzero;stroke:none"
                 id="path514" />
              <path
                 d="m 46.011641,-26.365686 c 3.301273,1.079103 6.603156,2.157229 9.905406,3.233401 0.282715,-0.09668 0.590821,-0.204101 0.916993,-0.317383 -3.30225,-1.076173 -6.604133,-2.154298 -9.905405,-3.232424 -0.325196,0.113281 -0.634279,0.219726 -0.916994,0.316406 z"
                 style="fill:#f04d56;fill-opacity:1;fill-rule:nonzero;stroke:none"
                 id="path516" />
              <path
                 d="m 46.928635,-26.682092 c 3.301272,1.078126 6.603155,2.156251 9.905405,3.232424 0.650025,-0.226563 1.369264,-0.477539 2.081666,-0.72461 -3.300418,-1.077149 -6.60169,-2.155275 -9.903085,-3.234377 -0.712891,0.249023 -1.431642,0.5 -2.083986,0.726563 z"
                 style="fill:#ef4851;fill-opacity:1;fill-rule:nonzero;stroke:none"
                 id="path518" />
              <path
                 d="m 55.157768,-22.871542 c 3.300419,1.079102 6.60218,2.15735 9.90211,3.235476 0.221679,-0.07617 0.477539,-0.164062 0.759766,-0.261718 -3.300907,-1.078127 -6.602179,-2.156375 -9.902597,-3.234501 -0.282715,0.09766 -0.539064,0.185547 -0.759279,0.260743 z"
                 style="fill:#f04f59;fill-opacity:1;fill-rule:nonzero;stroke:none"
                 id="path520" />
              <path
                 d="m 55.917047,-23.132285 c 3.300418,1.078126 6.60169,2.156374 9.902597,3.234501 0.282227,-0.09766 0.590821,-0.205079 0.916993,-0.317384 -3.300907,-1.078126 -6.603155,-2.155397 -9.902597,-3.2345 -0.326172,0.113282 -0.634278,0.220703 -0.916993,0.317383 z"
                 style="fill:#f04d56;fill-opacity:1;fill-rule:nonzero;stroke:none"
                 id="path522" />
              <path
                 d="m 56.83404,-23.449668 c 3.299442,1.079103 6.60169,2.156374 9.902597,3.2345 0.651368,-0.225586 1.371095,-0.476563 2.082034,-0.724609 -3.300785,-1.078249 -6.601692,-2.157352 -9.902965,-3.234501 -0.712402,0.247071 -1.431641,0.498047 -2.081666,0.72461 z"
                 style="fill:#ef4851;fill-opacity:1;fill-rule:nonzero;stroke:none"
                 id="path524" />
              <path
                 d="m 65.059878,-19.636066 c 3.301761,1.076173 6.602667,2.154299 9.903452,3.232425 0.220703,-0.07617 0.476563,-0.164063 0.75879,-0.261719 -3.300785,-1.078126 -6.601692,-2.157228 -9.902476,-3.232424 -0.282227,0.09766 -0.538087,0.185547 -0.759766,0.261718 z"
                 style="fill:#f04f59;fill-opacity:1;fill-rule:nonzero;stroke:none"
                 id="path526" />
              <path
                 d="m 65.819644,-19.897784 c 3.300784,1.075196 6.601691,2.154298 9.902476,3.232424 0.282227,-0.09766 0.590942,-0.205078 0.915161,-0.318359 -3.299929,-1.07715 -6.599738,-2.155276 -9.900644,-3.231449 -0.326172,0.112305 -0.634766,0.219727 -0.916993,0.317384 z"
                 style="fill:#f04d56;fill-opacity:1;fill-rule:nonzero;stroke:none"
                 id="path528" />
              <path
                 d="m 66.736637,-20.215168 c 3.300906,1.076173 6.600715,2.154299 9.900644,3.231449 0.652345,-0.226564 1.371096,-0.476564 2.083987,-0.724611 -3.301883,-1.078126 -6.601691,-2.154298 -9.902597,-3.231447 -0.710939,0.248046 -1.430666,0.499023 -2.082034,0.724609 z"
                 style="fill:#ef4851;fill-opacity:1;fill-rule:nonzero;stroke:none"
                 id="path530" />
              <path
                 d="m 74.96333,-16.403641 c 0.825196,0.269532 1.649538,0.538086 2.47571,0.806641 0.219727,-0.0752 0.475586,-0.163086 0.756837,-0.260742 -0.823243,-0.268555 -1.649416,-0.539063 -2.473757,-0.807618 -0.282227,0.09766 -0.538087,0.185547 -0.75879,0.261719 z"
                 style="fill:#f04f59;fill-opacity:1;fill-rule:nonzero;stroke:none"
                 id="path532" />
              <path
                 d="m 75.72212,-16.66536 c 0.824341,0.268555 1.650514,0.539063 2.473757,0.807618 0.283203,-0.09668 0.590821,-0.204102 0.916993,-0.317383 -0.824219,-0.269532 -1.649416,-0.539064 -2.475589,-0.808594 -0.324219,0.113281 -0.632934,0.220702 -0.915161,0.318359 z"
                 style="fill:#f04d56;fill-opacity:1;fill-rule:nonzero;stroke:none"
                 id="path534" />
              <path
                 d="m 77.43904,-15.597 c 0.825196,0.268555 1.649415,0.539185 2.475589,0.80774 0.220703,-0.0752 0.476562,-0.163086 0.757813,-0.258789 -0.825196,-0.269654 -1.649416,-0.539185 -2.476565,-0.809693 -0.281251,0.09766 -0.53711,0.185546 -0.756837,0.260742 z"
                 style="fill:#f04d57;fill-opacity:1;fill-rule:nonzero;stroke:none"
                 id="path536" />
              <path
                 d="m 78.195877,-15.857742 c 0.827149,0.270508 1.651369,0.540039 2.476565,0.809693 0.283203,-0.09766 0.590821,-0.206055 0.916993,-0.319458 -0.825196,-0.268555 -1.650393,-0.539063 -2.476565,-0.807618 -0.326172,0.113281 -0.63379,0.220703 -0.916993,0.317383 z"
                 style="fill:#f04b55;fill-opacity:1;fill-rule:nonzero;stroke:none"
                 id="path538" />
              <path
                 d="m 76.637281,-16.983719 c 0.652345,-0.226564 1.371096,-0.476564 2.083987,-0.724611 0.825196,0.268555 1.649416,0.539063 2.475588,0.807618 -0.712891,0.249024 -1.431642,0.499024 -2.083986,0.725587 -0.824219,-0.269532 -1.649416,-0.539064 -2.475589,-0.808594 z"
                 style="fill:#ef4851;fill-opacity:1;fill-rule:nonzero;stroke:none"
                 id="path540" />
              <path
                 d="m 79.11287,-16.175125 c 0.652344,-0.226563 1.371095,-0.476563 2.083986,-0.725587 0.825196,0.270508 1.649538,0.54004 2.475711,0.809571 -0.712892,0.247071 -1.431764,0.498047 -2.083132,0.723634 -0.825196,-0.268555 -1.650393,-0.539063 -2.476565,-0.807618 z"
                 style="fill:#ef4650;fill-opacity:1;fill-rule:nonzero;stroke:none"
                 id="path542" />
              <path
                 d="m 79.914629,-14.78926 c 0.825196,0.270508 1.649415,0.54004 2.475588,0.809571 0.218872,-0.07519 0.475709,-0.163086 0.757935,-0.259765 -0.824341,-0.270509 -1.650514,-0.539064 -2.47571,-0.808595 -0.281251,0.0957 -0.53711,0.183593 -0.757813,0.258789 z"
                 style="fill:#ec4451;fill-opacity:1;fill-rule:nonzero;stroke:none"
                 id="path544" />
              <path
                 d="m 80.672442,-15.048049 c 0.825196,0.269531 1.651369,0.538086 2.47571,0.808595 0.282227,-0.09766 0.590821,-0.205079 0.916993,-0.31836 -0.825196,-0.269532 -1.650514,-0.539063 -2.47571,-0.809693 -0.326172,0.113403 -0.63379,0.221802 -0.916993,0.319458 z"
                 style="fill:#ec434f;fill-opacity:1;fill-rule:nonzero;stroke:none"
                 id="path546" />
              <path
                 d="m 82.390217,-13.979689 c 0.440552,-0.150391 1.022584,-0.351563 1.674928,-0.578125 0.825196,0.269531 1.649416,0.538086 2.475589,0.807617 -0.652345,0.226563 -1.234377,0.428712 -1.674807,0.579102 -0.825195,-0.270508 -1.650392,-0.539062 -2.47571,-0.808594 z"
                 style="fill:#e83847;fill-opacity:1;fill-rule:nonzero;stroke:none"
                 id="path548" />
              <path
                 d="m 81.589435,-15.367507 c 1.650514,0.540161 3.300906,1.079224 4.951299,1.61731 0.651367,-0.226562 1.371095,-0.477539 2.083009,-0.725586 -1.650392,-0.539063 -3.300784,-1.076295 -4.951176,-1.615358 -0.712892,0.247071 -1.431764,0.498047 -2.083132,0.723634 z"
                 style="fill:#ec3f4a;fill-opacity:1;fill-rule:nonzero;stroke:none"
                 id="path550" />
              <path
                 d="m 39.109169,-30.640226 c 1.65088,0.539063 3.300296,1.078127 4.952153,1.617189 0.639771,-0.222656 1.274049,-0.44336 1.847781,-0.642579 -1.651003,-0.539063 -3.300419,-1.078125 -4.9513,-1.617188 -0.57373,0.199219 -1.208009,0.419922 -1.848634,0.642578 z"
                 style="fill:#e71f3a;fill-opacity:1;fill-rule:nonzero;stroke:none"
                 id="path552" />
              <path
                 d="m 40.957803,-31.282804 c 1.650881,0.539063 3.300297,1.078125 4.9513,1.617188 0.57373,-0.200195 1.086426,-0.377929 1.483399,-0.513672 -1.651857,-0.539063 -3.301394,-1.077149 -4.952275,-1.616212 -0.395997,0.136719 -0.908693,0.313477 -1.482424,0.512696 z"
                 style="fill:#e81d3a;fill-opacity:1;fill-rule:nonzero;stroke:none"
                 id="path554" />
              <path
                 d="m 44.061322,-29.023037 c 1.649538,0.539063 3.300419,1.07715 4.951299,1.614382 0.640626,-0.22168 1.274415,-0.442383 1.848634,-0.641725 -1.65088,-0.540039 -3.301761,-1.076172 -4.952152,-1.615236 -0.573732,0.199219 -1.20801,0.419923 -1.847781,0.642579 z"
                 style="fill:#ed3442;fill-opacity:1;fill-rule:nonzero;stroke:none"
                 id="path556" />
              <path
                 d="m 45.909103,-29.665616 c 1.650391,0.539064 3.301272,1.075197 4.952152,1.615236 0.573853,-0.200195 1.086549,-0.376953 1.482546,-0.511719 -1.651003,-0.539062 -3.301883,-1.078126 -4.951299,-1.617189 -0.396973,0.135743 -0.909669,0.313477 -1.483399,0.513672 z"
                 style="fill:#ec2a3e;fill-opacity:1;fill-rule:nonzero;stroke:none"
                 id="path558" />
              <path
                 d="m 49.012621,-27.408655 c 3.301395,1.079102 6.602667,2.157228 9.903085,3.234377 0.640627,-0.22168 1.275881,-0.444336 1.848635,-0.644531 -3.301273,-1.076173 -6.601691,-2.153323 -9.903086,-3.231571 -0.574219,0.199342 -1.208008,0.420045 -1.848634,0.641725 z"
                 style="fill:#ef3b45;fill-opacity:1;fill-rule:nonzero;stroke:none"
                 id="path560" />
              <path
                 d="m 50.861255,-28.05038 c 3.301395,1.078248 6.601813,2.155398 9.903086,3.231571 0.573732,-0.198243 1.085451,-0.376954 1.481936,-0.510743 -3.300785,-1.078126 -6.601204,-2.155275 -9.902476,-3.232547 -0.395997,0.134766 -0.908693,0.311524 -1.482546,0.511719 z"
                 style="fill:#ee2e3e;fill-opacity:1;fill-rule:nonzero;stroke:none"
                 id="path562" />
              <path
                 d="m 58.915706,-24.174278 c 3.301273,1.076173 6.60218,2.154299 9.902965,3.231571 0.640625,-0.222657 1.275514,-0.444337 1.84778,-0.642579 -3.299931,-1.076295 -6.600715,-2.154421 -9.90211,-3.233523 -0.572754,0.200195 -1.208008,0.422851 -1.848635,0.644531 z"
                 style="fill:#ef3b45;fill-opacity:1;fill-rule:nonzero;stroke:none"
                 id="path564" />
              <path
                 d="m 60.764341,-24.818809 c 3.301395,1.079102 6.602179,2.157228 9.90211,3.233523 0.574219,-0.199341 1.085938,-0.377076 1.482423,-0.511841 -3.300907,-1.076173 -6.601691,-2.155276 -9.902597,-3.232425 -0.396485,0.133789 -0.908204,0.3125 -1.481936,0.510743 z"
                 style="fill:#ee2e3e;fill-opacity:1;fill-rule:nonzero;stroke:none"
                 id="path566" />
              <path
                 d="m 68.818671,-20.942707 c 3.300906,1.077149 6.600714,2.156251 9.902597,3.234377 0.641602,-0.222656 1.276368,-0.443359 1.849611,-0.642578 -3.300785,-1.078127 -6.602667,-2.157229 -9.904428,-3.234378 -0.572266,0.198242 -1.207155,0.419922 -1.84778,0.642579 z"
                 style="fill:#ef3b45;fill-opacity:1;fill-rule:nonzero;stroke:none"
                 id="path568" />
              <path
                 d="m 70.666451,-21.585286 c 3.301761,1.077149 6.603643,2.156251 9.904428,3.234378 0.573243,-0.199219 1.084962,-0.376954 1.48047,-0.511719 -3.30176,-1.079103 -6.601691,-2.156252 -9.902475,-3.2345 -0.396485,0.134765 -0.908204,0.3125 -1.482423,0.511841 z"
                 style="fill:#ee2e3e;fill-opacity:1;fill-rule:nonzero;stroke:none"
                 id="path570" />
              <path
                 d="m 78.721268,-17.70833 c 1.649416,0.539063 3.300784,1.078126 4.951299,1.617189 0.641602,-0.222657 1.275392,-0.444336 1.849611,-0.642578 -1.650392,-0.541993 -3.300907,-1.08008 -4.951299,-1.617189 -0.573243,0.199219 -1.208009,0.419922 -1.849611,0.642578 z"
                 style="fill:#ef3b45;fill-opacity:1;fill-rule:nonzero;stroke:none"
                 id="path572" />
              <path
                 d="m 80.570879,-18.350908 c 1.650392,0.537109 3.300907,1.075196 4.951299,1.617189 0.574219,-0.200196 1.084962,-0.378907 1.481447,-0.513673 -1.651369,-0.539063 -3.302738,-1.077149 -4.952276,-1.615235 -0.395508,0.134765 -0.907227,0.3125 -1.48047,0.511719 z"
                 style="fill:#ee2e3e;fill-opacity:1;fill-rule:nonzero;stroke:none"
                 id="path574" />
              <path
                 d="m 83.672567,-16.091141 c 1.650392,0.539063 3.300784,1.076295 4.951176,1.615358 0.641724,-0.223633 1.275515,-0.44336 1.849734,-0.642579 -1.650393,-0.539185 -3.301884,-1.077272 -4.951299,-1.615357 -0.574219,0.198242 -1.208009,0.419921 -1.849611,0.642578 z"
                 style="fill:#ed3442;fill-opacity:1;fill-rule:nonzero;stroke:none"
                 id="path576" />
              <path
                 d="m 85.522178,-16.733719 c 1.649415,0.538085 3.300906,1.076172 4.951299,1.615357 0.574219,-0.199341 1.084962,-0.376098 1.482423,-0.512817 -1.650393,-0.539064 -3.301883,-1.07715 -4.952275,-1.616213 -0.396485,0.134766 -0.907228,0.313477 -1.481447,0.513673 z"
                 style="fill:#ec2a3e;fill-opacity:1;fill-rule:nonzero;stroke:none"
                 id="path578" />
            </g>
          </g>
        </g>
      </g>
    </g>
  </g>
</svg>
