<svg width="3103" height="1623" viewBox="0 0 3103 1623" fill="none" xmlns="http://www.w3.org/2000/svg">
<path d="M646.442 776.105C588.032 776.105 540.666 731.377 540.666 676.22C540.666 621.033 588.032 576.291 646.442 576.291C704.884 576.291 752.234 621.033 752.234 676.22C752.234 731.377 704.884 776.105 646.442 776.105Z" fill="white"/>
<path d="M890.176 795.991C954.179 670.194 1003.97 538.358 1034.35 427.265C1022.88 425.759 1011.01 424.541 998.727 423.5C969.825 527.53 922.471 654.032 858.977 778.852C847.231 801.901 835.13 824.501 822.783 846.637C839.986 840.807 856.773 834.688 873.374 828.425C879.016 817.678 884.658 806.882 890.176 795.991Z" fill="#3353AC"/>
<path d="M425.533 549.502C432.439 534.693 439.485 520.138 446.645 505.76C431.297 511.132 416.387 516.599 401.828 522.258C400.194 525.653 398.573 528.986 397.009 532.43C332.081 671.291 285.502 806.884 258.584 926.536C269.154 927.541 280.048 928.339 291.309 928.896C316.902 817.214 360.929 687.742 425.533 549.502Z" fill="#3353AC"/>
<path d="M367.569 717.336C362.443 730.579 357.362 743.773 352.613 756.722C402.277 804.872 464.28 849.898 535.554 887.47C608.537 925.989 683.712 951.969 754.306 964.166C761.489 952.443 768.718 940.475 775.75 928.344C704.31 918.256 626.73 892.228 551.358 852.482C479.373 814.519 416.567 767.284 367.569 717.336Z" fill="#3353AC"/>
<path d="M1006.76 653.279C948.417 574.399 856.275 501.021 747.309 446.601C641.374 393.856 530.738 364.732 435.689 364.732C330.589 364.732 255.998 399.737 225.675 463.359C188.132 542.034 227.484 645.753 319.363 740.808C324.466 727.78 329.6 714.799 335.089 701.676C262.971 622.243 230.5 539.204 258.781 479.882C282.284 430.631 346.779 402.394 435.689 402.394C525.234 402.394 630.195 430.125 731.135 480.483C834.998 532.31 922.439 601.768 977.363 675.983C1029.55 746.61 1045.57 812.256 1022.41 860.732C998.902 909.982 934.454 938.237 845.467 938.237C836.916 938.237 828.056 937.747 819.242 937.257C811.897 949.447 804.567 961.448 797.068 973.274C813.567 974.792 829.787 975.93 845.467 975.93C950.582 975.93 1025.16 940.877 1055.47 877.302C1085.06 815.356 1067.77 735.827 1006.76 653.279Z" fill="#3353AC"/>
<path d="M793.534 886.949C642.73 1131.25 461.917 1303.99 348.068 1303.99C333.175 1303.99 319.63 1300.82 307.956 1294.65C245.877 1261.79 229.683 1136.04 269.731 958.746C257.154 958.143 244.957 957.239 233.109 956.161C191.982 1142.13 208.858 1283.32 290.985 1326.81C307.988 1335.76 327.195 1340.31 348.068 1340.31C483.535 1340.31 681.859 1150.79 846.256 870.155C828.984 876.007 811.394 881.589 793.534 886.949Z" fill="#3353AC"/>
<path d="M678.365 867.663C647.991 873.708 617.73 879.008 587.699 883.634C611.865 891.957 636.047 899.268 659.983 905.398C669.084 903.725 678.071 902.081 687.139 900.281C815.254 874.819 934.741 839.024 1034.34 797C1032.24 786.484 1028.56 775.558 1023.46 764.353C925.46 806.349 806.398 842.173 678.365 867.663Z" fill="#3353AC"/>
<path d="M258.584 549.119C259.975 561.685 262.726 574.729 266.972 588.053C353.669 538.418 465.635 492.46 597.847 458.705C614.116 454.582 630.295 450.791 646.459 447.18C623.552 437.929 600.689 429.98 578.14 423.5C456.006 455.688 346.731 499.534 258.584 549.119Z" fill="#3353AC"/>
<path d="M524.105 912.664C460.828 921.499 399.371 926.219 342.15 926.219C169.673 926.219 53.2607 884.951 38.3277 818.369C25.6138 761.846 88.7972 684.824 210.218 613.252C205.796 600.794 202.36 588.415 200.11 576.291C62.615 655.728 -15.2867 747.449 2.51271 826.918C22.1614 914.158 145.91 964.166 342.15 964.166C418.572 964.166 502.037 956.11 587.69 940.855C566.423 932.448 545.202 923.041 524.105 912.664Z" fill="#3353AC"/>
<path d="M1290.23 514.888C1269.98 426.95 1141.85 376.476 938.743 376.476C848.37 376.476 748.396 387.1 646.459 407.001C668.853 414.933 691.262 423.842 713.592 433.84C792.13 421.294 868.515 414.693 938.743 414.693C1117.24 414.693 1237.76 456.386 1253.2 523.508C1265.1 574.96 1214.15 641.747 1113.44 706.755C1096.31 717.843 1077.92 728.644 1058.64 739.171C1063.79 751.718 1067.78 764.04 1070.57 776.105C1092.98 764.104 1114.23 751.654 1134.02 738.899C1250.66 663.524 1306.18 583.982 1290.23 514.888Z" fill="#3353AC"/>
<path fill-rule="evenodd" clip-rule="evenodd" d="M752.234 676.222C752.234 731.394 704.884 776.105 646.442 776.105C588.032 776.105 540.666 731.394 540.666 676.222C540.666 621.035 588.032 576.291 646.442 576.291C704.884 576.291 752.234 621.035 752.234 676.222Z" fill="#3353AC"/>
<path d="M474.053 467.634C484.318 446.173 494.79 425.316 505.431 404.989C495.008 402.871 484.718 401.148 474.623 399.983C461.13 426.436 447.867 453.841 434.908 482.26C447.697 477.193 460.766 472.338 474.053 467.634Z" fill="#3353AC"/>
<path d="M533.997 370.676C674.215 171.095 830.239 35.9025 932.471 35.9025C947.433 35.9025 961.009 38.9459 972.753 45.0169C1039.07 79.2225 1053.28 216.48 1002.71 407.879C1015.31 408.919 1027.55 410.207 1039.31 411.729C1091.16 212.349 1077.58 58.7896 989.865 13.56C972.72 4.80286 953.424 0.345516 932.471 0.345516C812.919 0.345516 644.721 143.503 493.668 364.357C506.957 366.049 520.405 368.099 533.997 370.676Z" fill="#3353AC"/>
<path d="M1345.29 1622.39V1212.64L1152.3 1456.17L958.468 1212.64V1622.39H869.781V1046.45H921.525L1152.3 1338.52L1383.07 1046.45H1433.96V1622.39H1345.29Z" fill="#3353AC"/>
<path d="M1826.27 1289.98V1373.91H1581.82V1538.45H1857.11V1622.39H1492.74V1046.45H1857.11V1130.36H1581.82V1289.98H1826.27Z" fill="#3353AC"/>
<path d="M3103 1135.3V1046.45H2938.45V1135.3H2975.78V1533.52H2938.45V1622.39H2975.78H3065.67H3103V1533.52H3065.67V1135.3H3103Z" fill="#3353AC"/>
<path d="M2109.86 1046.45H1915.88V1622.39H2008.58V1130.36H2115.88C2206.02 1130.36 2286.7 1171.51 2286.7 1262.83C2286.7 1338.49 2227.95 1391.67 2168.34 1391.2C2167.44 1391.22 2098.28 1399.17 2051.54 1344.21V1435.51C2093.81 1477.32 2165.58 1475 2166.06 1474.94C2280.89 1474.64 2374.28 1373.61 2374.28 1262.83C2374.28 1133.67 2270.41 1046.45 2109.86 1046.45Z" fill="#3353AC"/>
<path d="M2651.13 1175.74C2616.6 1175.74 2580.33 1185.31 2550.57 1206.78V1297.67C2572.52 1275.83 2602.28 1264.57 2637.82 1264.57C2709.64 1264.57 2755.75 1305.31 2755.75 1403.4V1622.39H2844.42V1398.76C2844.42 1261.82 2775.26 1175.74 2651.13 1175.74Z" fill="#3353AC"/>
<path d="M2421.28 1622.39H2527.07V1034.7H2421.28V1622.39Z" fill="#3353AC"/>
</svg>
