<svg width="923" height="208" viewBox="0 0 923 208" fill="none" xmlns="http://www.w3.org/2000/svg">
<path d="M518.758 165.201C518.572 163.148 518.363 163.812 518.129 167.193C511.521 188.051 493.94 202.597 472.632 206.492C458.032 209.158 444.194 206.97 431.119 199.929C415.476 191.506 405.132 176.071 401.93 158.483C401.282 154.921 400.963 150.087 400.973 143.982C401.056 101.29 401.063 57.8943 400.995 13.7956C400.995 13.5261 401.09 13.2958 401.28 13.1047L413.604 0.713013C413.794 0.521919 414.026 0.426372 414.299 0.426372C428.076 0.441071 441.589 0.441071 454.84 0.426372C457.325 0.421472 459.206 1.64888 460.483 4.10861C460.605 4.3487 460.797 4.46385 461.06 4.45405C461.674 4.43935 462.054 4.14291 462.201 3.56473C462.69 1.64644 465.951 0.419022 467.318 0.426372C480.802 0.455771 494.364 0.445971 508.005 0.396973C508.278 0.396973 508.511 0.49252 508.706 0.683614L521.236 13.2885C521.338 13.3914 521.389 13.5188 521.389 13.6707C521.443 58.96 521.44 104.095 521.382 149.076C521.377 150.305 521.292 151.572 521.126 152.875C521.009 153.797 520.882 154.987 520.746 156.447C520.556 158.525 519.893 161.443 518.758 165.201ZM507.858 13.509L414.942 13.3473C414.829 13.3463 414.717 13.3678 414.612 13.4106C414.508 13.4534 414.413 13.5166 414.333 13.5965C414.252 13.6765 414.189 13.7716 414.145 13.8764C414.102 13.9812 414.079 14.0937 414.079 14.2072L413.853 146.312C413.842 152.627 415.054 158.883 417.419 164.722C419.784 170.56 423.256 175.868 427.637 180.341C432.018 184.814 437.222 188.365 442.952 190.791C448.682 193.218 454.825 194.472 461.031 194.483H461.148C473.682 194.504 485.71 189.458 494.588 180.454C503.466 171.451 508.466 159.228 508.487 146.474L508.714 14.3689C508.714 14.1408 508.624 13.9221 508.463 13.7608C508.303 13.5996 508.085 13.509 507.858 13.509Z" fill="#4E5991"/>
<path d="M507.418 13.557C507.644 13.557 507.861 13.648 508.022 13.81C508.182 13.972 508.272 14.1918 508.272 14.4209L508.045 147.133C508.024 159.945 503.031 172.225 494.165 181.269C485.299 190.314 473.287 195.384 460.77 195.362H460.653C454.456 195.352 448.321 194.092 442.599 191.654C436.877 189.216 431.68 185.649 427.305 181.155C422.93 176.662 419.462 171.33 417.1 165.465C414.738 159.599 413.528 153.315 413.539 146.97L413.765 14.2584C413.765 14.1444 413.787 14.0314 413.831 13.9261C413.874 13.8208 413.938 13.7253 414.018 13.645C414.098 13.5646 414.193 13.5012 414.297 13.4582C414.402 13.4152 414.514 13.3936 414.627 13.3946L507.418 13.557ZM440.805 19.8035L440.79 24.8391C440.785 25.1393 440.646 25.3535 440.374 25.4814L439.877 25.7103C439.619 25.8285 439.491 26.0327 439.491 26.3232C439.495 26.7563 439.707 26.9778 440.126 26.9877C441.323 27.0074 442.559 27.0049 443.834 26.9803C444.009 26.9754 444.17 26.9262 444.316 26.8326C444.525 26.6948 444.591 26.4782 444.513 26.1829C444.493 26.1017 444.455 26.026 444.404 25.961C444.352 25.896 444.287 25.8433 444.214 25.8063L443.549 25.4741C443.301 25.351 443.18 25.1492 443.184 24.8686L443.221 17.6032C443.22 17.5338 443.205 17.4653 443.175 17.4029C443.145 17.3406 443.101 17.286 443.048 17.2433C442.994 17.2006 442.932 17.1709 442.866 17.1565C442.8 17.1421 442.732 17.1434 442.666 17.1602L440.075 17.7804C439.413 17.9428 439.289 18.2948 439.702 18.8362C439.853 19.0331 440.033 19.1439 440.242 19.1685C440.622 19.2079 440.809 19.4195 440.805 19.8035ZM454.543 23.414C455.156 23.3205 455.271 23.5199 454.886 24.0121C454.19 24.9129 453.161 25.543 451.798 25.9023C451.704 25.9267 451.621 25.9851 451.566 26.0667C451.511 26.1482 451.487 26.2473 451.499 26.3453L451.528 26.5521C451.542 26.6529 451.575 26.75 451.626 26.8374C451.678 26.9249 451.746 27.0009 451.827 27.0609C451.908 27.121 452.001 27.1637 452.099 27.1867C452.197 27.2096 452.298 27.2123 452.397 27.1944C456.086 26.5151 457.943 24.4428 457.967 20.9775C457.974 18.8805 456.741 17.0199 454.514 17.1454C450.287 17.3891 450.017 24.0859 454.543 23.414ZM466.851 19.7149C466.569 20.5517 465.997 21.0735 465.136 21.2802C465.017 21.3042 464.905 21.3631 464.814 21.45C464.503 21.7503 464.43 22.0186 464.595 22.2548C464.732 22.4566 464.919 22.5576 465.158 22.5576C465.386 22.5625 465.615 22.5477 465.844 22.5133C466.817 22.3853 467.287 22.816 467.253 23.8054C467.199 25.5922 466.326 25.9614 464.632 24.9129C464.189 24.6422 463.783 24.6865 463.413 25.0458C463.174 25.2772 463.077 25.5823 463.121 25.9614C463.135 26.0984 463.184 26.2295 463.265 26.3411C463.346 26.4527 463.455 26.5408 463.581 26.5964C465.591 27.4922 467.326 27.0468 468.786 25.2599C469.959 23.8177 469.81 22.5009 468.34 21.3097C468.136 21.1522 468.1 20.9602 468.231 20.7338L468.567 20.1357C468.694 19.9139 468.774 19.6674 468.8 19.4123C468.827 19.1573 468.8 18.8994 468.722 18.6555C468.643 18.4116 468.515 18.1872 468.345 17.997C468.174 17.8068 467.967 17.655 467.735 17.5515C465.948 16.7492 464.527 17.2414 463.471 19.0282C463.431 19.095 463.405 19.17 463.397 19.2479C463.388 19.3258 463.396 19.4049 463.42 19.4798C463.444 19.5547 463.484 19.6237 463.537 19.6821C463.59 19.7405 463.655 19.7869 463.727 19.8183L463.968 19.9216C464.063 19.9652 464.171 19.9727 464.271 19.9429C464.372 19.9131 464.458 19.848 464.515 19.7592C465.08 18.8978 465.749 18.6344 466.523 18.9691C466.863 19.1119 466.973 19.3605 466.851 19.7149ZM478.553 24.5806C478.689 24.8366 478.67 25.0753 478.495 25.2969C478.295 25.5577 478.025 25.7202 477.684 25.7842C477.456 25.8285 477.298 25.9564 477.21 26.1681C477.172 26.2598 477.157 26.3598 477.167 26.4587C477.178 26.5577 477.212 26.6524 477.268 26.7342C477.324 26.8159 477.4 26.882 477.488 26.9263C477.576 26.9707 477.674 26.9918 477.772 26.9877C478.843 26.9582 479.935 26.9434 481.05 26.9434C482.072 26.9434 482.257 26.5545 481.605 25.7768C481.502 25.6586 481.356 25.5971 481.167 25.5922C480.952 25.5873 480.799 25.4839 480.707 25.2821C480.658 25.1836 480.639 25.0753 480.648 24.9572C480.678 24.6766 480.831 24.5093 481.108 24.4551C481.288 24.4256 481.466 24.3813 481.641 24.3222C481.909 24.2385 482.079 24.0663 482.152 23.8054C482.211 23.5986 482.167 23.419 482.021 23.2664C481.7 22.9193 481.349 23.0301 481.006 22.816C480.904 22.7569 480.82 22.6684 480.766 22.561C480.711 22.4536 480.688 22.3319 480.699 22.2105C480.831 20.7092 480.862 19.3162 480.794 18.0314C480.765 17.3669 480.388 17.1036 479.663 17.2414C479.4 17.2955 479.188 17.4309 479.028 17.6475L474.91 23.2738C474.832 23.3802 474.784 23.5072 474.775 23.6399C474.765 23.7725 474.794 23.9054 474.856 24.023C474.919 24.1406 475.014 24.2381 475.129 24.3042C475.245 24.3702 475.377 24.4021 475.509 24.3961L478.013 24.2705C478.256 24.2607 478.436 24.3641 478.553 24.5806ZM484.839 84.1954C484.79 84.168 484.749 84.1287 484.72 84.081C484.691 84.0334 484.674 83.979 484.671 83.923C484.668 83.867 484.679 83.8111 484.703 83.7607C484.728 83.7102 484.764 83.6667 484.809 83.6343C493.759 77.3804 497.154 65.0351 494.226 54.7129C490.175 40.3741 477.239 31.1889 462.734 30.3841C457.994 30.1183 453.037 30.9699 447.864 32.9388C440.447 35.7643 434.782 40.8048 430.869 48.0603C425.876 57.3046 424.849 66.9893 427.789 77.1146C431.183 88.8102 440.002 98.4088 448.44 106.723C455.205 113.393 461.982 120.099 468.771 126.843C473.684 131.723 477.896 137.542 479.115 144.379C480.539 152.309 477.816 160.276 471.837 165.451C466.165 170.369 458.004 172.163 450.901 170.096C441.264 167.297 434.505 157.462 436.738 147.207C437.605 143.229 440.242 140.286 444.652 138.376C445.973 137.807 449.791 136.87 451.178 137.867C451.237 137.911 451.285 137.969 451.317 138.036C451.35 138.103 451.365 138.177 451.362 138.251C451.359 138.325 451.338 138.396 451.301 138.459C451.264 138.523 451.211 138.575 451.149 138.612C440.688 144.844 446.126 161.317 458.573 158.976C460.607 158.592 462.418 157.618 464.004 156.052C469.968 150.175 466.523 141.817 461.602 136.848C456.906 132.097 452.12 127.32 447.243 122.516C440.315 115.679 433.621 108.303 428.621 100.159C428.565 100.069 428.487 99.9974 428.393 99.9508C428.3 99.9042 428.195 99.8848 428.091 99.8947C427.988 99.9047 427.889 99.9436 427.806 100.007C427.722 100.071 427.658 100.156 427.621 100.255C423.788 110.171 427.372 122.878 436.483 128.371C436.553 128.414 436.612 128.474 436.654 128.545C436.697 128.617 436.721 128.697 436.725 128.78C436.729 128.863 436.714 128.946 436.679 129.022C436.645 129.097 436.592 129.163 436.527 129.213C435.016 130.357 433.453 131.65 432.278 133.141C420.518 147.967 427.256 168.737 442.425 177.376C452.996 183.396 463.968 183.955 475.341 179.052C485.62 174.614 491.92 165.23 494.628 154.162C498.606 137.859 488.934 121.874 477.845 110.791C469.674 102.625 461.094 94.0623 452.105 85.1036C443.841 76.8636 438.6 64.9539 444.622 53.6792C449.9 43.8148 461.099 39.488 471.64 42.8992C478.144 44.9962 483.101 50.4231 484.729 57.1938C486.109 62.9013 485.109 68.9041 480.174 72.5073C477.225 74.6633 474.163 75.5296 470.99 75.1063C470.728 75.0718 470.484 74.9808 470.26 74.8331C470.201 74.7931 470.153 74.7383 470.121 74.6737C470.089 74.6092 470.074 74.5371 470.078 74.4645C470.081 74.3919 470.104 74.3211 470.142 74.2589C470.18 74.1968 470.234 74.1453 470.297 74.1095C476.4 70.7795 477.75 62.4952 473.377 57.2086C470.625 53.886 465.8 52.7046 461.712 54.041C454.872 56.2782 452.726 63.9645 455.886 70.0929C457.084 72.4162 458.361 74.2547 459.719 75.6084C466.094 81.9484 472.112 87.9931 477.772 93.7424C482.532 98.5762 486.437 103.065 489.489 107.21C490.793 108.987 491.939 110.754 492.927 112.511C492.983 112.613 493.067 112.696 493.169 112.751C493.271 112.806 493.387 112.829 493.502 112.819C493.616 112.809 493.726 112.765 493.817 112.694C493.908 112.622 493.977 112.526 494.015 112.415C496.954 103.791 495.616 95.8492 490 88.5887C488.686 86.8855 486.965 85.4211 484.839 84.1954Z" fill="white"/>
<path d="M440.346 19.0794C440.137 19.0541 439.958 18.9405 439.807 18.7385C439.395 18.183 439.519 17.822 440.178 17.6553L442.76 17.0191C442.825 17.0018 442.893 17.0006 442.959 17.0153C443.025 17.0301 443.087 17.0605 443.14 17.1043C443.194 17.1481 443.237 17.2041 443.267 17.2681C443.297 17.3321 443.312 17.4023 443.313 17.4735L443.276 24.927C443.272 25.2149 443.393 25.4219 443.64 25.5482L444.302 25.889C444.375 25.9269 444.44 25.9811 444.491 26.0478C444.543 26.1144 444.58 26.192 444.6 26.2753C444.678 26.5783 444.612 26.8005 444.404 26.9419C444.258 27.0379 444.098 27.0884 443.924 27.0934C442.653 27.1187 441.422 27.1212 440.229 27.101C439.812 27.0909 439.601 26.8636 439.596 26.4193C439.596 26.1213 439.725 25.9118 439.982 25.7906L440.476 25.5557C440.748 25.4244 440.886 25.2048 440.891 24.8967L440.906 19.7308C440.91 19.3369 440.724 19.1198 440.346 19.0794Z" fill="#4E5991"/>
<path d="M454.689 23.3063C449.819 23.9811 450.11 17.2558 454.657 17.0112C457.053 16.8851 458.38 18.7536 458.372 20.8595C458.346 24.3395 456.349 26.4206 452.38 27.1027C452.273 27.1206 452.164 27.118 452.058 27.095C451.953 27.0719 451.854 27.029 451.766 26.9687C451.679 26.9084 451.605 26.832 451.55 26.7442C451.495 26.6564 451.459 26.5589 451.445 26.4576L451.413 26.25C451.401 26.1516 451.426 26.0521 451.486 25.9702C451.545 25.8883 451.634 25.8296 451.736 25.8051C453.202 25.4443 454.309 24.8115 455.058 23.9069C455.472 23.4126 455.348 23.2124 454.689 23.3063ZM455.215 21.8372C455.517 21.7664 455.757 21.5164 455.885 21.1425C456.012 20.7686 456.016 20.3012 455.895 19.8432C455.774 19.3853 455.538 18.9743 455.24 18.7006C454.941 18.4269 454.605 18.313 454.303 18.3839C454.002 18.4548 453.761 18.7047 453.634 19.0786C453.507 19.4526 453.503 19.9199 453.624 20.3779C453.745 20.8358 453.98 21.2468 454.279 21.5205C454.577 21.7942 454.914 21.9081 455.215 21.8372Z" fill="#4E5991"/>
<path d="M466.872 18.8398C466.092 18.4968 465.417 18.7666 464.848 19.6493C464.791 19.7402 464.704 19.807 464.602 19.8375C464.501 19.8681 464.393 19.8603 464.296 19.8157L464.054 19.7098C463.981 19.6777 463.916 19.6301 463.862 19.5703C463.809 19.5105 463.769 19.4398 463.744 19.363C463.72 19.2862 463.712 19.2052 463.721 19.1254C463.73 19.0455 463.755 18.9688 463.796 18.9003C464.861 17.0695 466.293 16.5652 468.094 17.3873C468.328 17.4933 468.537 17.6488 468.709 17.8437C468.88 18.0386 469.01 18.2685 469.089 18.5184C469.168 18.7683 469.195 19.0325 469.168 19.2939C469.141 19.5552 469.061 19.8078 468.933 20.0351L468.594 20.6479C468.462 20.8799 468.499 21.0766 468.705 21.238C470.186 22.4585 470.336 23.8076 469.154 25.2853C467.682 27.1161 465.933 27.5726 463.906 26.6546C463.779 26.5977 463.67 26.5075 463.588 26.3931C463.507 26.2788 463.456 26.1445 463.443 26.004C463.399 25.6157 463.497 25.303 463.737 25.066C464.11 24.6978 464.52 24.6524 464.966 24.9298C466.674 26.004 467.554 25.6258 467.608 23.795C467.642 22.7813 467.169 22.34 466.188 22.4711C465.957 22.5064 465.727 22.5215 465.496 22.5165C465.256 22.5165 465.067 22.4131 464.929 22.2063C464.762 21.9642 464.836 21.6893 465.15 21.3817C465.242 21.2926 465.354 21.2323 465.474 21.2077C466.342 20.9959 466.919 20.4613 467.203 19.6039C467.326 19.2407 467.216 18.986 466.872 18.8398Z" fill="#4E5991"/>
<path d="M478.172 24.306L475.726 24.4357C475.597 24.4419 475.468 24.409 475.355 24.3407C475.242 24.2725 475.15 24.1717 475.089 24.0502C475.027 23.9286 475 23.7913 475.009 23.6542C475.018 23.5171 475.064 23.3859 475.141 23.2759L479.163 17.4615C479.32 17.2377 479.526 17.0978 479.783 17.0418C480.491 16.8994 480.86 17.1715 480.888 17.8583C480.955 19.186 480.924 20.6256 480.795 22.1771C480.785 22.3025 480.807 22.4283 480.86 22.5393C480.913 22.6502 480.995 22.7417 481.095 22.8028C481.43 23.024 481.772 22.9096 482.086 23.2682C482.229 23.4259 482.271 23.6116 482.214 23.8252C482.143 24.0948 481.977 24.2729 481.715 24.3594C481.544 24.4204 481.371 24.4662 481.195 24.4967C480.924 24.5527 480.774 24.7256 480.746 25.0156C480.736 25.1377 480.755 25.2496 480.803 25.3513C480.893 25.5599 481.043 25.6667 481.252 25.6718C481.437 25.6769 481.58 25.7405 481.68 25.8626C482.317 26.6663 482.136 27.0682 481.138 27.0682C480.049 27.0682 478.982 27.0834 477.936 27.1139C477.84 27.1181 477.745 27.0963 477.659 27.0505C477.573 27.0047 477.499 26.9364 477.444 26.852C477.39 26.7675 477.356 26.6695 477.346 26.5673C477.336 26.465 477.35 26.3617 477.387 26.267C477.473 26.0482 477.627 25.916 477.851 25.8702C478.184 25.8041 478.447 25.6362 478.642 25.3666C478.813 25.1377 478.832 24.8909 478.699 24.6264C478.585 24.4026 478.409 24.2958 478.172 24.306ZM478.87 21.7956C479.027 21.5717 479.091 21.3123 479.063 21.0173C479.03 20.6917 478.887 20.6205 478.635 20.8036C478.012 21.236 477.563 21.8261 477.288 22.5739C477.267 22.6324 477.258 22.6953 477.263 22.7578C477.269 22.8203 477.287 22.8807 477.317 22.9344C477.347 22.9882 477.389 23.0338 477.438 23.0678C477.487 23.1019 477.543 23.1234 477.601 23.1309C478.393 23.2377 478.87 22.6273 478.87 21.7956Z" fill="#4E5991"/>
<path d="M484.932 84.453C487.062 85.673 488.785 87.1307 490.101 88.8261C495.724 96.0534 497.064 103.959 494.121 112.544C494.083 112.653 494.014 112.75 493.923 112.821C493.832 112.892 493.722 112.936 493.607 112.946C493.492 112.956 493.377 112.932 493.274 112.878C493.172 112.824 493.088 112.741 493.032 112.639C492.042 110.89 490.895 109.131 489.589 107.362C486.533 103.237 482.622 98.7679 477.856 93.9562C472.189 88.2332 466.163 82.2162 459.779 75.9052C458.419 74.5577 457.14 72.7276 455.941 70.4149C452.776 64.3146 454.925 56.6635 461.775 54.4365C465.868 53.1062 470.7 54.2821 473.456 57.5895C477.834 62.852 476.482 71.0984 470.371 74.4132C470.308 74.4488 470.254 74.5 470.216 74.5619C470.177 74.6237 470.155 74.6942 470.152 74.7665C470.148 74.8388 470.163 74.9105 470.195 74.9748C470.227 75.039 470.275 75.0937 470.334 75.1334C470.559 75.2804 470.802 75.3711 471.065 75.4054C474.243 75.8268 477.308 74.9644 480.261 72.8183C485.203 69.2316 486.204 63.2562 484.823 57.5748C483.193 50.8351 478.229 45.433 471.716 43.3457C461.161 39.9501 449.947 44.257 444.662 54.0763C438.631 65.2994 443.88 77.1546 452.155 85.357C461.156 94.2747 469.747 102.798 477.929 110.927C489.033 121.959 498.719 137.871 494.735 154.099C492.023 165.117 485.715 174.458 475.422 178.876C464.033 183.756 453.046 183.2 442.462 177.207C427.272 168.608 420.525 147.933 432.301 133.175C433.478 131.69 435.042 130.404 436.555 129.265C436.621 129.215 436.673 129.149 436.708 129.074C436.743 128.999 436.758 128.917 436.754 128.834C436.75 128.751 436.725 128.671 436.683 128.6C436.641 128.529 436.582 128.47 436.511 128.427C427.389 122.958 423.8 110.309 427.637 100.439C427.675 100.341 427.739 100.256 427.822 100.192C427.906 100.129 428.005 100.09 428.109 100.08C428.213 100.071 428.317 100.09 428.411 100.136C428.504 100.183 428.583 100.254 428.639 100.343C433.646 108.45 440.349 115.792 447.286 122.598C452.169 127.381 456.962 132.136 461.665 136.864C466.592 141.811 470.042 150.131 464.07 155.981C462.481 157.539 460.668 158.509 458.631 158.891C446.168 161.221 440.722 144.824 451.197 138.621C451.26 138.584 451.312 138.532 451.349 138.469C451.387 138.406 451.408 138.334 451.411 138.261C451.414 138.187 451.398 138.114 451.366 138.047C451.334 137.98 451.286 137.922 451.226 137.878C449.837 136.886 446.014 137.82 444.691 138.386C440.276 140.287 437.635 143.217 436.767 147.176C434.53 157.385 441.299 167.175 450.949 169.96C458.061 172.018 466.234 170.232 471.913 165.337C477.9 160.185 480.627 152.255 479.201 144.361C477.981 137.555 473.763 131.763 468.843 126.905C462.045 120.192 455.259 113.516 448.485 106.877C440.035 98.6013 431.204 89.0466 427.805 77.4045C424.862 67.3255 425.89 57.6851 430.89 48.4832C434.808 41.2608 440.481 36.2433 447.908 33.4308C453.088 31.4709 458.051 30.6232 462.798 30.8878C477.323 31.6889 490.276 40.832 494.333 55.1053C497.264 65.3803 493.865 77.6691 484.903 83.8944C484.858 83.9266 484.821 83.9699 484.797 84.0202C484.773 84.0704 484.762 84.126 484.765 84.1818C484.768 84.2375 484.784 84.2917 484.814 84.3391C484.843 84.3865 484.884 84.4257 484.932 84.453Z" fill="#4E5991"/>
<path d="M136.185 55.1792C136.121 68.6832 136.146 83.542 136.258 99.7556C136.277 102.142 137.225 103.683 139.101 104.379C140.534 104.913 142.291 105.189 144.372 105.209C144.733 105.214 144.928 105.398 144.957 105.76L145.059 107.054C145.083 107.397 144.925 107.568 144.584 107.568L120.944 107.576C120.719 107.576 120.607 107.465 120.607 107.245L120.622 105.775C120.622 105.432 120.793 105.256 121.134 105.246C122.752 105.202 124.37 104.957 125.987 104.511C128.115 103.93 128.882 102.159 128.955 100.028C128.989 98.9789 129.016 97.9622 129.036 96.9774C129.24 84.9139 129.279 70.9983 129.153 55.2306C129.148 54.9758 129.019 54.846 128.765 54.8411C125.334 54.8019 122.065 54.8533 118.955 54.9954C115.885 55.1375 113.853 56.5683 112.859 59.2877C112.172 61.1594 111.638 62.943 111.258 64.6383C111.222 64.7979 111.132 64.9401 111.003 65.0407C110.874 65.1412 110.713 65.1939 110.549 65.1896L109.153 65.1455C108.875 65.1357 108.746 64.9911 108.765 64.7118L109.789 50.0564C109.795 49.9806 109.828 49.9096 109.882 49.8559C109.935 49.8021 110.006 49.769 110.081 49.7624L110.71 49.7256C111.036 49.706 111.307 49.8261 111.521 50.0858C112.535 51.3303 113.49 51.9526 114.387 51.9526C126.331 51.9624 138.273 51.9722 150.213 51.982C151.562 51.982 152.666 51.4626 153.524 50.4239C154.016 49.831 154.635 49.6031 155.381 49.7403C155.663 49.7893 155.807 49.9559 155.812 50.2401C155.968 55.1204 156.263 59.8708 156.696 64.4913C156.707 64.5921 156.678 64.6931 156.615 64.7737C156.553 64.8544 156.462 64.9085 156.36 64.925L154.628 65.2043C154.447 65.2288 154.335 65.1528 154.292 64.9764C153.275 60.4269 152.142 55.1498 146.382 54.9881C142.791 54.8852 139.518 54.8215 136.565 54.797C136.312 54.797 136.185 54.9244 136.185 55.1792Z" fill="black"/>
<path d="M96.9803 84.343C97.5457 81.3296 97.6919 78.0222 97.4189 74.4208C96.6733 64.7558 90.4964 57.2958 80.9131 55.8773C73.5594 54.7895 66.169 58.9201 61.0959 64.234C61.0277 64.3026 60.9619 64.3001 60.8986 64.2267C60.4356 63.6975 60.0311 63.1658 59.6851 62.6318C59.6364 62.5485 59.6413 62.4701 59.6997 62.3966C63.1988 58.0847 67.2192 54.8018 71.7611 52.5479C85.6061 45.6905 101.227 53.8194 104.466 69.0628C105.947 76.05 105.752 82.8657 103.881 89.5099C100.453 101.659 86.4468 112.493 73.4059 108.656C65.0798 106.201 58.1062 97.6828 59.0565 88.672C59.2563 86.7807 60.3869 85.7958 62.4483 85.7174C72.9112 85.3156 84.2562 84.9996 96.4833 84.7693C96.7659 84.7644 96.9316 84.6223 96.9803 84.343ZM88.2158 103.07C92.8795 99.6673 95.0213 94.7576 95.8254 89.1351C95.8644 88.8705 95.7499 88.7357 95.4818 88.7308C86.7197 88.5887 78.2816 88.5789 70.1676 88.7014C69.5854 88.7098 69.0245 88.9221 68.5814 89.3018C68.1384 89.6815 67.841 90.2048 67.7407 90.7814C67.6383 91.3939 67.6529 92.1754 67.7845 93.126C68.6617 99.3806 73.6544 105.51 80.226 105.694C83.0623 105.768 85.7255 104.893 88.2158 103.07Z" fill="black"/>
<path d="M661.001 54.7376C657.456 54.8478 652.624 54.2819 649.466 55.6637C647.046 56.722 646.001 61.0511 645.446 63.4985C645.358 63.9052 645.107 64.1061 644.693 64.1012L643.662 64.0865C643.331 64.0865 643.177 63.9175 643.201 63.5794L644.122 50.7393C644.142 50.4845 644.274 50.3253 644.517 50.2616C645 50.1366 645.497 50.313 645.811 50.7026C646.561 51.658 647.463 52.1358 648.516 52.1358C658.871 52.1358 669.554 52.1382 680.562 52.1431C682.01 52.1431 682.865 51.5698 683.823 50.5703C684.295 50.0803 684.792 50.0068 685.314 50.3498C685.403 50.4085 685.477 50.4886 685.527 50.5825C685.576 50.6764 685.601 50.781 685.599 50.8863C685.55 55.0561 685.782 59.1548 686.293 63.1825C686.352 63.6578 686.142 63.9224 685.665 63.9763L684.597 64.0939C684.247 64.1331 684.042 63.9787 683.983 63.6308C683.369 59.9265 681.937 55.4432 678.04 55.0389C675.141 54.7352 671.827 54.6641 668.099 54.8258C668.044 54.8277 667.992 54.851 667.954 54.8908C667.916 54.9305 667.894 54.9837 667.894 55.0389C667.885 68.5527 667.897 82.0469 667.931 95.5215C667.938 99.5639 672.068 100.093 675.321 100.078C675.395 100.077 675.468 100.091 675.536 100.119C675.604 100.147 675.666 100.189 675.719 100.242C675.771 100.294 675.813 100.357 675.841 100.426C675.869 100.495 675.884 100.569 675.884 100.644V101.71C675.884 102.097 675.692 102.291 675.307 102.291H654.356C653.966 102.291 653.779 102.095 653.793 101.703L653.83 100.541C653.84 100.262 653.983 100.12 654.261 100.115C657.733 100.02 661.476 99.6006 661.483 95.0291C661.498 81.5349 661.501 68.2612 661.491 55.208C661.491 54.8846 661.328 54.7278 661.001 54.7376Z" fill="black"/>
<path d="M2.64786 74.8177C5.0309 61.5954 15.1844 53.2755 28.1156 51.2323C35.4986 50.0636 42.3846 51.0118 49.4752 52.908C49.633 52.9494 49.7746 53.0368 49.8815 53.1587C49.9884 53.2806 50.0557 53.4315 50.0746 53.5915L51.6682 65.5717C51.6926 65.7285 51.6292 65.8289 51.4781 65.873L49.3509 66.4904C49.2437 66.5198 49.1779 66.4806 49.1536 66.3728C47.331 58.3027 42.4114 54.0815 34.3949 53.7091C24.9602 53.2681 18.1035 57.1341 13.8247 65.3071C9.05866 74.3987 9.80428 87.6871 15.5279 96.2864C20.5937 103.908 29.8993 107.789 38.6712 105.069C44.329 103.313 48.0279 98.1753 50.6375 92.7732C50.7106 92.6164 50.8276 92.5698 50.9884 92.6335L52.7939 93.3759C53.0035 93.4592 53.0766 93.6086 53.0132 93.8242C51.829 97.8127 50.4011 101.784 48.7296 105.738C48.6254 105.984 48.466 106.203 48.2641 106.375C48.0622 106.547 47.8236 106.669 47.5673 106.73C39.8773 108.627 32.275 109.692 24.6507 108.068C14.4558 105.893 7.58206 100.192 4.02944 90.9651C2.08013 85.9085 1.6196 80.526 2.64786 74.8177Z" fill="black"/>
<path d="M243.413 87.231L225.854 87.2384C225.606 87.2384 225.44 87.356 225.357 87.5912C223.949 91.4964 222.543 95.6441 221.139 100.034C220.62 101.651 220.35 103.672 222.367 104.393C223.693 104.863 225.118 105.147 226.644 105.245C226.882 105.26 227.004 105.39 227.009 105.635L227.038 107.2C227.043 107.445 226.921 107.57 226.673 107.575L209.027 107.583C208.96 107.583 208.894 107.569 208.832 107.543C208.77 107.516 208.714 107.478 208.667 107.429C208.621 107.381 208.584 107.323 208.559 107.26C208.534 107.197 208.521 107.129 208.522 107.061L208.544 105.782C208.546 105.614 208.611 105.453 208.726 105.331C208.842 105.21 208.999 105.137 209.166 105.128C213.932 104.856 215.913 102.129 217.499 98.0793C223.435 82.8996 229.46 67.5434 235.576 52.0109C235.92 51.1436 236.973 51.0334 237.777 50.8129C238.176 50.7002 238.444 50.8398 238.581 51.2318C245.593 71.0958 251.181 86.7117 255.342 98.0793C256.965 102.526 258.69 104.922 263.727 105.253C264.078 105.277 264.256 105.466 264.261 105.819L264.282 107.031C264.283 107.102 264.271 107.173 264.244 107.239C264.218 107.305 264.18 107.365 264.131 107.416C264.082 107.466 264.024 107.506 263.959 107.534C263.895 107.561 263.826 107.575 263.756 107.575L243.8 107.568C243.498 107.568 243.352 107.416 243.361 107.112L243.398 105.628C243.408 105.373 243.539 105.231 243.793 105.201C245.993 104.959 249.882 104.599 248.683 101.218C247.465 97.7927 245.874 93.2505 243.91 87.5912C243.827 87.3511 243.661 87.231 243.413 87.231ZM226.951 83.0637C226.925 83.1347 226.916 83.211 226.926 83.286C226.936 83.361 226.963 83.4325 227.006 83.4945C227.049 83.5566 227.107 83.6073 227.173 83.6423C227.24 83.6773 227.314 83.6957 227.389 83.6958L241.892 83.6884C241.967 83.6891 242.041 83.6716 242.108 83.6375C242.175 83.6033 242.233 83.5536 242.276 83.4923C242.32 83.4311 242.348 83.3602 242.359 83.2856C242.37 83.211 242.363 83.1349 242.338 83.0637L235.328 62.6387C235.297 62.5459 235.238 62.4651 235.159 62.4076C235.08 62.3502 234.986 62.3188 234.888 62.318C234.791 62.3172 234.696 62.347 234.616 62.4031C234.536 62.4593 234.476 62.5391 234.443 62.6313L226.951 83.0637Z" fill="black"/>
<path d="M590.181 89.3186C589.757 98.3221 582.132 103.239 573.638 103.342C571.394 103.371 562.198 102.467 561.679 99.601C561.046 96.078 560.476 92.6162 559.969 89.2157C559.925 88.8972 560.059 88.6915 560.371 88.5984L561.562 88.2603C561.629 88.2402 561.699 88.2339 561.768 88.2416C561.837 88.2494 561.904 88.271 561.965 88.3053C562.026 88.3396 562.079 88.3858 562.122 88.4412C562.164 88.4966 562.195 88.5601 562.213 88.6278C563.85 94.8971 568.295 101.086 575.349 100.645C579.871 100.356 582.654 98.1139 583.697 93.9196C585.129 88.1574 581.526 84.0488 576.833 81.5132C574.255 80.1167 571.752 78.6982 569.325 77.2577C562.417 73.1638 558.982 65.792 563.039 58.2585C564.676 55.2157 567.361 53.1136 571.094 51.9524C575.666 50.5314 580.739 50.796 586.314 52.7462C586.552 52.8295 586.686 52.996 586.716 53.2459L587.951 63.0285C587.98 63.2441 587.893 63.3788 587.688 63.4327L586.299 63.8149C585.968 63.908 585.763 63.788 585.685 63.4548C584.252 57.3202 581.301 54.0569 576.833 53.6649C572.53 53.2876 569.545 54.9241 567.878 58.5745C566.76 61.022 567.008 64.7483 568.47 67.0488C569.606 68.8324 571.394 70.4003 573.836 71.7527C580.963 75.6995 590.648 79.4038 590.181 89.3186Z" fill="black"/>
<path d="M609.587 84.4753C608.159 88.4196 606.821 92.4449 605.574 96.5509C604.675 99.5129 608.885 99.9906 610.654 100.071C611.005 100.086 611.183 100.27 611.188 100.623L611.202 101.791C611.203 101.857 611.191 101.921 611.167 101.982C611.142 102.043 611.106 102.098 611.059 102.144C611.013 102.191 610.958 102.228 610.897 102.253C610.836 102.278 610.771 102.291 610.705 102.291H595.223C594.765 102.291 594.546 102.061 594.565 101.6L594.609 100.711C594.628 100.255 594.865 100.018 595.318 99.998C598.534 99.8461 600.803 98.1091 602.123 94.787C607.786 80.5088 613.366 66.3115 618.863 52.195C618.956 51.9598 619.117 51.7957 619.346 51.7026L620.83 51.1073C620.895 51.0807 620.964 51.0679 621.035 51.0695C621.105 51.0711 621.174 51.0872 621.238 51.1167C621.302 51.1462 621.36 51.1886 621.408 51.2413C621.456 51.294 621.493 51.3559 621.517 51.4233C626.405 65.3634 631.585 79.8229 637.058 94.8017C638.349 98.3296 640.703 100.086 644.119 100.071C644.47 100.067 644.648 100.241 644.653 100.593L644.667 101.769C644.668 101.837 644.656 101.905 644.63 101.968C644.605 102.032 644.568 102.089 644.52 102.138C644.472 102.186 644.416 102.225 644.353 102.251C644.291 102.278 644.223 102.291 644.156 102.291H626.297C626.229 102.291 626.161 102.277 626.098 102.251C626.035 102.224 625.978 102.185 625.93 102.135C625.883 102.086 625.845 102.027 625.82 101.963C625.796 101.899 625.784 101.831 625.786 101.762L625.822 100.52C625.826 100.401 625.873 100.287 625.956 100.201C626.038 100.116 626.15 100.064 626.268 100.057C628.132 99.9392 631.692 99.4982 630.698 96.6391C629.163 92.2244 627.696 88.0889 626.297 84.2327C626.268 84.1509 626.214 84.0803 626.145 84.0304C626.076 83.9804 625.994 83.9536 625.91 83.9534L610.318 83.9608C609.957 83.9608 609.714 84.1323 609.587 84.4753ZM611.049 80.2638C611.032 80.308 611.027 80.3556 611.033 80.4024C611.038 80.4492 611.055 80.494 611.082 80.5329C611.108 80.5719 611.144 80.6038 611.185 80.626C611.226 80.6483 611.272 80.6602 611.319 80.6607L624.74 80.7783C624.787 80.7785 624.833 80.7675 624.875 80.7462C624.916 80.7248 624.952 80.6938 624.979 80.6556C625.006 80.6175 625.024 80.5734 625.031 80.527C625.038 80.4805 625.033 80.4332 625.018 80.3888L618.476 61.397C618.457 61.3379 618.421 61.2862 618.371 61.2492C618.322 61.2122 618.262 61.1919 618.201 61.191C618.139 61.1902 618.079 61.209 618.028 61.2446C617.978 61.2803 617.94 61.331 617.92 61.3896L611.049 80.2638Z" fill="black"/>
<path d="M747.969 84.4019C746.736 88.1454 745.489 91.9795 744.226 95.9043C743.042 99.5939 746.763 99.9099 749.197 100.123C749.446 100.148 749.572 100.285 749.577 100.535L749.599 101.755C749.604 102.112 749.431 102.291 749.08 102.291L733.349 102.299C733.111 102.299 732.994 102.179 732.998 101.938V100.52C732.998 100.255 733.13 100.108 733.393 100.079C735.63 99.8364 737.728 99.2999 739.08 97.3302C739.948 96.066 740.688 94.6475 741.302 93.0746C746.458 79.8793 751.77 66.3435 757.238 52.4671C757.655 51.4161 758.32 51.519 759.183 51.1442C759.259 51.1099 759.342 51.0919 759.425 51.0913C759.509 51.0907 759.592 51.1075 759.669 51.1406C759.745 51.1738 759.815 51.2225 759.872 51.2838C759.929 51.3452 759.973 51.4177 760.001 51.497C764.977 65.6869 769.979 79.6662 775.009 93.4348C776.346 97.117 777.925 100.042 782.472 100.028C782.706 100.028 782.857 100.14 782.925 100.366C783.067 100.821 783.113 101.297 783.064 101.791C783.035 102.125 782.855 102.291 782.523 102.291H764.789C764.721 102.291 764.653 102.278 764.59 102.251C764.527 102.224 764.47 102.185 764.422 102.135C764.374 102.086 764.337 102.028 764.312 101.963C764.287 101.899 764.276 101.831 764.278 101.762L764.292 100.667C764.302 100.304 764.487 100.106 764.848 100.072C766.617 99.9173 770.038 99.4469 769.161 96.8157C767.806 92.739 766.368 88.6305 764.848 84.4901C764.79 84.3326 764.685 84.1968 764.548 84.1009C764.41 84.005 764.247 83.9536 764.08 83.9536L748.569 83.9609C748.262 83.9609 748.062 84.1079 747.969 84.4019ZM749.519 80.2125C749.5 80.263 749.494 80.3172 749.5 80.3707C749.507 80.4241 749.526 80.4753 749.556 80.5199C749.586 80.5644 749.626 80.6011 749.673 80.627C749.72 80.6528 749.772 80.6669 749.826 80.6682L763.13 80.7858C763.184 80.7864 763.237 80.774 763.285 80.7496C763.333 80.7252 763.375 80.6895 763.406 80.6455C763.438 80.6016 763.458 80.5507 763.466 80.497C763.474 80.4434 763.469 80.3887 763.452 80.3375L756.96 61.5221C756.937 61.4577 756.894 61.402 756.839 61.3624C756.783 61.3228 756.717 61.3011 756.649 61.3003C756.58 61.2995 756.514 61.3196 756.457 61.3579C756.4 61.3962 756.357 61.4509 756.332 61.5147L749.519 80.2125Z" fill="black"/>
<path d="M176.758 75.0743C176.758 75.1232 176.768 75.1716 176.787 75.2164C176.807 75.2613 176.836 75.3015 176.873 75.3347C176.909 75.3679 176.952 75.3932 176.999 75.4091C177.046 75.425 177.096 75.4311 177.145 75.4271C180.357 75.1821 183.556 75.0939 186.743 75.1625C197.818 75.3903 206.495 80.8071 204.755 93.2356C203.212 104.246 191.772 107.428 182.445 107.516C175.301 107.58 168.751 107.602 162.796 107.582C162.435 107.582 162.257 107.401 162.262 107.038L162.277 105.84C162.282 105.453 162.477 105.265 162.862 105.275C165.216 105.333 168.169 104.966 169.287 102.496C169.58 101.85 169.726 100.257 169.726 97.7189C169.731 85.6555 169.731 73.5896 169.726 61.5213C169.718 58.6181 169.872 54.9653 165.932 54.539C164.952 54.4312 164.017 54.3063 163.125 54.1642C162.92 54.1299 162.818 54.0074 162.818 53.7967L162.811 52.3341C162.811 52.0842 162.935 51.9592 163.183 51.9592H198.468C198.736 51.9592 198.883 52.094 198.907 52.3635L199.806 63.7556C199.816 63.8928 199.755 63.9761 199.623 64.0055L197.642 64.4906C197.457 64.5347 197.347 64.4612 197.313 64.2701C196.465 59.4119 195.069 55.1637 189.207 54.9506C185.644 54.8183 182.094 54.7987 178.556 54.8918C177.367 54.9212 176.77 55.5337 176.765 56.7292L176.758 75.0743ZM181.677 104.584C188.607 105.245 194.748 102.54 196.414 95.3303C196.843 93.4781 196.955 91.3981 196.751 89.0903C196.317 84.2835 193.914 81.0104 189.543 79.271C189.182 79.1289 188.812 79.0211 188.432 78.9476C187.482 78.7786 186.721 78.389 185.749 78.3302C182.937 78.1636 180.033 78.1269 177.036 78.22C176.959 78.2238 176.886 78.2564 176.833 78.3111C176.78 78.3659 176.751 78.4385 176.751 78.514C176.721 84.1733 176.716 89.9355 176.736 95.8006C176.758 100.291 176.67 104.106 181.677 104.584Z" fill="black"/>
<path d="M285.513 80.7483C285.606 86.6673 285.625 92.5667 285.572 98.4466C285.533 102.435 287.438 104.508 291.288 104.664C294.933 104.816 298.284 104.789 301.339 104.584C307.114 104.194 309.738 98.9463 311.339 94.169C311.451 93.8309 311.678 93.6986 312.019 93.7721L313.474 94.0661C313.81 94.1347 313.942 94.338 313.869 94.6761L311.157 107.09C311.083 107.423 310.876 107.59 310.535 107.59L270.206 107.56C269.968 107.56 269.851 107.44 269.855 107.2L269.885 105.62C269.89 105.39 270.007 105.267 270.236 105.252C271.717 105.179 273.25 104.973 274.834 104.635C278.642 103.819 278.357 100.218 278.357 97.1236C278.357 85.1141 278.376 73.1682 278.415 61.2861C278.42 59.287 278.238 57.8684 277.867 57.0306C276.646 54.2597 273.898 54.7962 271.369 54.2671C271.267 54.2466 271.176 54.1915 271.111 54.1111C271.046 54.0306 271.01 53.9299 271.01 53.8261V52.3341C271.01 52.0842 271.132 51.9592 271.376 51.9592H308.605C308.691 51.9592 308.773 51.9926 308.836 52.0527C308.898 52.1127 308.936 52.195 308.942 52.2826L309.621 63.9173C309.631 64.0986 309.548 64.2064 309.373 64.2407L307.589 64.6229C307.546 64.6325 307.501 64.6332 307.458 64.625C307.414 64.6168 307.373 64.5998 307.336 64.5751C307.299 64.5504 307.267 64.5185 307.243 64.4812C307.219 64.444 307.202 64.4022 307.195 64.3583C306.824 62.2612 306.115 60.2032 305.067 58.1845C303.649 55.4357 300.718 54.9138 297.955 54.8844C294.188 54.8501 290.572 54.8428 287.107 54.8624C286.098 54.8673 285.594 55.3769 285.594 56.3911L285.579 76.7059C285.577 76.8073 285.616 76.9052 285.687 76.9783C285.759 77.0513 285.857 77.0935 285.959 77.0955C289.151 77.1641 292.377 77.1592 295.638 77.0808C297.845 77.0293 299.914 77.1028 301.303 75.3903C302.102 74.4005 302.558 73.0188 302.67 71.245C302.679 71.1021 302.743 70.9682 302.847 70.8711C302.952 70.7739 303.09 70.721 303.233 70.7232L304.804 70.7526C304.933 70.7545 305.056 70.8073 305.146 70.8994C305.236 70.9916 305.287 71.1157 305.287 71.245L305.294 86.5473C305.294 86.8952 305.123 87.0691 304.782 87.0691L303.313 87.0765C302.977 87.0765 302.782 86.9099 302.728 86.5767C302.143 82.9753 301.244 80.4323 297.143 80.4396C293.216 80.4445 289.439 80.4445 285.813 80.4396C285.773 80.4396 285.733 80.4476 285.697 80.4632C285.66 80.4788 285.626 80.5017 285.598 80.5305C285.571 80.5592 285.549 80.5933 285.534 80.6307C285.519 80.6681 285.512 80.7081 285.513 80.7483Z" fill="black"/>
<path d="M348.667 77.9706C354.866 78.757 361.254 82.0203 362.373 88.5984C364.654 101.968 351.123 107.377 340.45 107.473C333.633 107.531 326.552 107.568 319.208 107.583C318.993 107.583 318.886 107.475 318.886 107.259L318.893 105.635C318.893 105.405 319.008 105.285 319.237 105.275C323.703 105.047 326.861 104.775 326.847 99.2261C326.822 87.2117 326.817 74.4035 326.832 60.8015C326.837 59.9342 326.793 59.0621 326.7 58.185C326.291 54.297 322.731 54.7085 319.975 54.2529C319.732 54.2137 319.612 54.0716 319.617 53.8266V52.3419C319.617 52.2425 319.657 52.1472 319.728 52.0769C319.8 52.0066 319.896 51.9671 319.997 51.9671C327.468 51.9475 335.236 51.9524 343.301 51.9818C346.225 51.9965 348.957 52.4718 351.496 53.4076C355.716 54.9609 358.175 58.0355 358.871 62.6316C359.953 69.7315 355.45 75.0968 348.85 76.8461C348.684 76.8902 348.552 76.9784 348.455 77.1107C348.372 77.2283 348.321 77.3606 348.301 77.5076C348.289 77.6176 348.32 77.7282 348.389 77.8149C348.457 77.9017 348.557 77.9577 348.667 77.9706ZM350.29 60.5369C348.031 55.0981 341.408 53.709 336.152 55.0319C334.617 55.419 333.864 56.4994 333.893 58.2732C333.996 64.2486 333.871 70.246 333.879 76.2066C333.879 76.4761 334.01 76.6207 334.274 76.6403C339.961 76.9931 347.534 76.7064 350.151 71.1426C351.759 67.7226 351.805 64.1873 350.29 60.5369ZM353.915 88.4734C352.512 82.4466 346.671 79.8521 341.101 79.5287C338.845 79.3965 336.583 79.345 334.317 79.3744C334.207 79.3763 334.103 79.421 334.025 79.4992C333.947 79.5774 333.903 79.6828 333.901 79.7933C333.842 86.5012 333.859 92.8906 333.952 98.9616C334.069 106.289 342.285 105.363 347 103.651C353.301 101.365 355.326 94.4708 353.915 88.4734Z" fill="black"/>
<path d="M718.04 75.6992C725.138 76.4415 730.767 80.8881 730.233 88.576C729.531 98.7407 718.274 101.982 709.97 102.18C703.747 102.327 697.57 102.357 691.439 102.269C691.108 102.264 690.945 102.097 690.95 101.769L690.964 100.659C690.964 100.272 691.159 100.081 691.549 100.086C694.502 100.137 698.04 99.5271 698.055 95.8596C698.113 84.8055 698.118 72.3085 698.069 58.3684C698.062 55.0242 695.058 54.326 692.214 54.4142C692.134 54.4172 692.054 54.4038 691.979 54.3747C691.904 54.3457 691.836 54.3017 691.779 54.2453C691.721 54.1889 691.676 54.1214 691.645 54.0468C691.614 53.9723 691.599 53.8922 691.6 53.8115L691.607 52.6723C691.612 52.3636 691.768 52.2044 692.075 52.1946C701.573 51.9888 709.427 52.0598 715.635 52.4077C717.185 52.491 718.891 52.9222 720.752 53.7013C725.591 55.7225 727.799 60.7277 726.863 65.7255C725.986 70.3706 722.302 73.406 717.901 74.5526C717.531 74.6506 717.399 74.8858 717.507 75.2582C717.541 75.3755 717.61 75.48 717.705 75.5585C717.8 75.637 717.917 75.6859 718.04 75.6992ZM704.758 74.4497C710.299 74.7951 718.435 74.4056 719.846 67.3425C721.154 60.8085 718.186 55.3403 711.103 54.6126C708.998 54.3995 704.517 54.3554 704.502 57.4129C704.468 62.9742 704.458 68.5503 704.473 74.141C704.473 74.337 704.568 74.4399 704.758 74.4497ZM707.821 99.3948C711.702 100.358 716.849 99.3507 719.86 96.3373C722.543 93.662 723.267 89.6049 722.667 85.9521C721.264 77.3529 711.827 76.3606 704.875 76.831C704.607 76.8506 704.473 76.9952 704.473 77.2647C704.434 83.0759 704.451 88.8112 704.524 94.4705C704.558 97.2095 705.657 98.8509 707.821 99.3948Z" fill="black"/>
<path d="M793.378 55.62C793.176 55.8055 793.044 56.054 793.001 56.3249C792.959 56.5959 793.009 56.8734 793.144 57.112L803.889 76.2141C803.927 76.2837 803.983 76.3415 804.051 76.3818C804.119 76.422 804.197 76.4432 804.277 76.4432C804.356 76.4432 804.435 76.422 804.504 76.3818C804.573 76.3415 804.631 76.2837 804.671 76.2141C807.956 70.4029 811.055 64.5059 813.97 58.5232C815.848 54.6572 811.937 54.5911 809.562 54.3485C809.396 54.3335 809.243 54.2548 809.134 54.1287C809.025 54.0027 808.969 53.8392 808.977 53.6723L809.028 52.6801C809.043 52.3175 809.23 52.1362 809.591 52.1362H825.256C825.351 52.1362 825.445 52.1549 825.532 52.1912C825.619 52.2275 825.699 52.2807 825.765 52.3477C825.832 52.4146 825.885 52.4941 825.92 52.5814C825.956 52.6688 825.973 52.7623 825.972 52.8565L825.965 53.6723C825.963 53.8816 825.879 54.0816 825.731 54.2289C825.584 54.3761 825.384 54.4588 825.176 54.4588C822.12 54.4735 819.701 55.8675 817.917 58.6408C813.965 64.8097 810.171 71.3583 806.535 78.2867C806.053 79.2055 805.746 80.6313 805.739 81.6676C805.7 85.8227 805.709 90.0856 805.768 94.4562C805.797 96.573 806.185 98.8441 808.582 99.4835C810.147 99.9049 811.628 100.101 813.027 100.071C813.085 100.071 813.143 100.081 813.198 100.103C813.252 100.125 813.302 100.158 813.344 100.2C813.386 100.241 813.42 100.291 813.443 100.346C813.466 100.401 813.479 100.46 813.48 100.52L813.494 101.703C813.499 102.095 813.307 102.291 812.917 102.291H792.34C791.959 102.291 791.772 102.098 791.777 101.71L791.806 100.52C791.808 100.408 791.853 100.301 791.933 100.223C792.012 100.145 792.119 100.101 792.23 100.101C795.19 100.13 799.174 99.7407 799.255 95.7792C799.347 91.2322 799.359 86.5944 799.291 81.8661C799.262 79.9551 798.027 78.3308 797.106 76.6698C793.923 70.9027 790.575 65.0449 787.062 59.0965C785.351 56.2007 783.56 54.5396 780.3 54.3926C779.803 54.373 779.552 54.1133 779.547 53.6135V52.908C779.547 52.3935 779.803 52.1362 780.315 52.1362H797.157C797.664 52.1362 797.912 52.391 797.902 52.9006L797.888 53.7679C797.885 53.9245 797.823 54.0743 797.715 54.1884C797.607 54.3024 797.46 54.3726 797.303 54.3853C795.427 54.5274 794.118 54.9389 793.378 55.62Z" fill="black"/>
<path d="M843.361 78.1838C843.287 86.5087 843.317 92.1827 843.448 95.2059C843.565 97.8763 845.134 99.3169 848.156 99.5276C851.782 99.7775 855.142 99.7383 858.236 99.41C862.871 98.9249 865.312 93.9565 866.54 89.8994C866.56 89.8357 866.601 89.8087 866.665 89.8185L868.616 90.0905C868.787 90.115 868.855 90.2105 868.821 90.3771L866.277 101.953C866.257 102.049 866.205 102.135 866.129 102.197C866.053 102.258 865.958 102.292 865.861 102.291H829.801C829.725 102.291 829.65 102.276 829.581 102.247C829.511 102.218 829.448 102.175 829.395 102.121C829.342 102.067 829.3 102.003 829.272 101.932C829.244 101.862 829.23 101.786 829.231 101.71L829.252 100.645C829.254 100.507 829.308 100.375 829.403 100.275C829.498 100.175 829.627 100.116 829.764 100.108C834.179 99.8657 836.913 99.3953 836.913 94.0814C836.913 82.993 836.913 72.0296 836.913 61.1912C836.913 60.0446 836.828 58.9054 836.657 57.7735C836.19 54.6499 833.404 54.5323 830.926 54.3853C830.468 54.3608 830.239 54.1158 830.239 53.6503V52.8712C830.239 52.3812 830.481 52.1362 830.963 52.1362H863.814C863.958 52.136 864.097 52.1916 864.202 52.2915C864.307 52.3913 864.369 52.5278 864.377 52.6728L864.947 62.9845C864.957 63.156 864.879 63.2638 864.713 63.3079C864.021 63.4941 863.439 63.5627 862.966 63.5137C862.844 63.499 862.771 63.4328 862.747 63.3152C862.313 61.0123 861.609 59.0426 860.634 57.406C859.762 55.9508 858.27 55.1447 856.16 54.9879C852.656 54.7381 848.828 54.6842 844.676 54.8262C843.794 54.8556 843.351 55.3162 843.346 56.208L843.324 74.4061C843.324 74.5101 843.365 74.6099 843.437 74.6841C843.509 74.7584 843.608 74.801 843.711 74.8029C847.118 74.8617 850.6 74.847 854.157 74.7588C857.22 74.6853 858.412 72.5833 858.711 69.6507C858.75 69.2833 858.953 69.0922 859.318 69.0775L860.385 69.0407C860.462 69.0388 860.539 69.0523 860.611 69.0806C860.683 69.1089 860.748 69.1514 860.803 69.2055C860.858 69.2596 860.902 69.3243 860.932 69.3957C860.962 69.4671 860.977 69.5438 860.977 69.6213V83.3287C860.977 83.7109 860.787 83.902 860.407 83.902C859.764 83.902 859.44 83.902 859.435 83.902C859.035 83.902 858.811 83.7084 858.763 83.3213C858.551 81.697 857.973 78.9703 856.255 78.4117C852.527 77.2063 847.9 77.7796 843.894 77.662C843.543 77.6522 843.365 77.8261 843.361 78.1838Z" fill="black"/>
<path d="M897.266 90.9869C897.763 92.3099 898.273 92.3173 898.794 91.009C903.126 80.1999 906.801 70.4198 909.817 61.6687C910.275 60.331 910.648 59.062 910.936 57.8615C911.645 54.8775 907.632 54.5247 905.68 54.4145C905.285 54.39 905.09 54.1793 905.095 53.7824V52.5476C905.095 52.4385 905.139 52.3338 905.217 52.2566C905.295 52.1794 905.401 52.136 905.512 52.136C910.487 52.1409 915.78 52.136 921.389 52.1213C922.105 52.1213 922.393 52.4717 922.251 53.1724C922.242 53.2214 922.242 53.2728 922.251 53.3267C922.359 54.0862 922.022 54.4684 921.243 54.4733C918.138 54.4978 915.85 56.2446 914.379 59.7137C908.136 74.4034 902.463 88.6595 897.361 102.482C897.234 102.835 896.983 103.014 896.608 103.019L895.519 103.026C895.105 103.031 894.827 102.837 894.686 102.445C889.31 87.6281 883.804 73.1662 878.165 59.0595C876.937 55.9775 874.822 54.461 871.82 54.51C871.226 54.5198 870.948 54.2234 870.987 53.6207L871.045 52.8196C871.075 52.3639 871.316 52.136 871.769 52.136L889.218 52.1287C889.365 52.1286 889.507 52.1859 889.614 52.2887C889.72 52.3915 889.782 52.5317 889.788 52.6799L889.825 53.628C889.829 53.7309 889.812 53.8336 889.776 53.9301C889.739 54.0266 889.684 54.115 889.614 54.1901C889.543 54.2653 889.458 54.3258 889.364 54.3681C889.27 54.4104 889.168 54.4336 889.064 54.4365C887.291 54.4757 885.958 54.8187 885.066 55.4655C884.462 55.9016 884.484 56.9795 885.132 58.6994C889.123 69.3125 893.168 80.075 897.266 90.9869Z" fill="black"/>
<path d="M860.109 122.407C857.55 122.392 855.15 122.449 852.908 122.576C848.983 122.797 848.084 126.494 847.375 129.654C847.287 130.036 847.048 130.23 846.658 130.235L845.993 130.242C845.662 130.247 845.508 130.083 845.533 129.75L846.227 119.754C846.325 118.392 846.831 118.215 847.748 119.225C848.544 120.099 849.326 120.327 850.46 120.327C859.134 120.312 867.843 120.312 876.585 120.327C877.433 120.327 878.172 119.938 878.764 119.335C880.036 118.032 880.674 118.291 880.679 120.114C880.689 123.152 880.857 126.227 881.183 129.338C881.227 129.73 881.056 129.965 880.672 130.044L879.962 130.19C879.704 130.244 879.538 130.146 879.465 129.897C878.318 126.192 877.96 122.606 873.091 122.488C870.796 122.434 868.559 122.412 866.381 122.422C866.287 122.424 866.198 122.463 866.132 122.53C866.066 122.597 866.03 122.688 866.03 122.782C866.035 133.88 866.047 145.003 866.066 156.15C866.074 159.612 869.063 159.898 871.914 160.009C872.392 160.028 872.626 160.278 872.616 160.758L872.609 161.104C872.605 161.29 872.528 161.468 872.394 161.598C872.26 161.729 872.08 161.802 871.892 161.802L854.867 161.809C854.517 161.809 854.336 161.63 854.327 161.273L854.305 160.567C854.302 160.492 854.314 160.417 854.34 160.347C854.367 160.276 854.407 160.212 854.459 160.158C854.511 160.104 854.574 160.06 854.642 160.031C854.711 160.002 854.785 159.986 854.86 159.986C856 159.991 857.075 159.857 858.084 159.582C860.927 158.803 860.613 156.29 860.606 153.989C860.586 143.219 860.603 132.881 860.657 122.973C860.657 122.601 860.474 122.412 860.109 122.407Z" fill="black"/>
<path d="M810.829 121.805C802.013 119.563 797.729 129.985 804.586 134.998C806.53 136.418 808.848 137.795 811.538 139.128C814.14 140.414 817.364 142.494 818.76 144.993C821.138 149.261 820.975 153.343 818.27 157.238C813.775 163.706 804.257 163.882 797.561 160.729C797.098 160.509 796.825 160.148 796.742 159.649L795.332 151.196C795.259 150.77 795.432 150.508 795.851 150.41L796.589 150.226C796.724 150.195 796.865 150.217 796.983 150.289C797.101 150.36 797.185 150.475 797.218 150.608C798.68 156.297 803.036 161.618 809.44 160.354C812.839 159.678 815.076 156.9 815.237 153.401C815.778 141.554 795.178 144.052 796.574 129.522C796.847 126.631 798.083 124.264 800.281 122.422C804.82 118.615 811.333 118.791 816.874 120.658C817.058 120.719 817.22 120.832 817.343 120.983C817.466 121.133 817.544 121.317 817.568 121.511L818.497 129.382C818.502 129.456 818.475 129.512 818.416 129.551C817.997 129.806 817.495 129.929 816.911 129.919C816.847 129.919 816.808 129.889 816.794 129.831C815.478 125.156 813.49 122.481 810.829 121.805Z" fill="black"/>
<path d="M593.415 126.082C593.24 122.966 590.411 122.128 587.808 122.165C587.623 122.169 587.443 122.106 587.301 121.987C587.158 121.868 587.064 121.701 587.034 121.518L586.997 121.297C586.89 120.641 587.17 120.312 587.838 120.312L601.639 120.32C602.034 120.32 602.224 120.516 602.209 120.908L602.187 121.54C602.172 121.932 601.97 122.13 601.58 122.135C598.861 122.157 596.515 123.341 596.441 126.428C596.315 131.827 596.249 137.408 596.244 143.17C596.239 145.008 596.035 147.056 595.63 149.315C594.314 156.642 590.148 161.633 582.348 162.581C579.341 162.944 576.446 162.65 573.664 161.699C566.412 159.222 564.417 152.086 564.351 145.199C564.297 139.437 564.319 133.371 564.417 127.001C564.475 123.216 562.962 122.253 559.424 122.128C559.246 122.122 559.078 122.047 558.955 121.917C558.832 121.788 558.764 121.616 558.766 121.437V120.908C558.766 120.516 558.961 120.32 559.351 120.32L574.746 120.312C575.116 120.312 575.299 120.501 575.294 120.878L575.287 121.408C575.285 121.52 575.26 121.63 575.214 121.732C575.168 121.834 575.101 121.925 575.018 122C574.935 122.075 574.837 122.131 574.731 122.166C574.625 122.201 574.513 122.213 574.402 122.201C571.617 121.937 569.687 123.091 569.658 126.119C569.599 132.038 569.599 138.033 569.658 144.104C569.731 152.394 573.569 160.295 583.232 159.222C591.061 158.355 593.459 150.785 593.649 143.839C593.82 137.754 593.742 131.834 593.415 126.082Z" fill="black"/>
<path d="M614.128 130.213C614.211 136.646 614.228 142.994 614.18 149.256C614.165 151.483 614.494 153.563 614.574 155.76C614.691 159.112 617.418 159.987 620.21 159.994C620.595 159.999 620.775 160.192 620.751 160.575L620.707 161.317C620.7 161.448 620.643 161.572 620.547 161.662C620.452 161.752 620.326 161.802 620.196 161.802L606.307 161.809C605.902 161.809 605.693 161.606 605.678 161.199L605.656 160.604C605.641 160.202 605.836 160.001 606.241 160.001C608.39 160.009 610.707 159.222 611.131 156.856C611.46 155.026 611.665 153.07 611.672 151.189C611.682 143.981 611.694 136.274 611.709 128.067C611.716 124.583 608.814 122.194 605.488 122.165C604.981 122.16 604.723 121.903 604.713 121.393L604.706 121.062C604.691 120.562 604.932 120.313 605.43 120.313H613.734C613.997 120.313 614.214 120.415 614.384 120.621L639.962 151.578C640.634 152.397 640.965 152.274 640.956 151.211C640.902 145.223 640.888 139.165 640.912 133.035C640.919 130.727 640.663 128.463 640.422 126.111C640.093 122.848 637.805 122.201 634.954 122.15C634.486 122.14 634.228 121.898 634.179 121.422L634.143 121.084C634.133 120.987 634.143 120.888 634.173 120.794C634.203 120.701 634.253 120.615 634.319 120.542C634.384 120.469 634.464 120.411 634.554 120.372C634.643 120.332 634.74 120.312 634.837 120.313H648.536C648.627 120.312 648.717 120.331 648.8 120.367C648.884 120.404 648.959 120.457 649.02 120.524C649.082 120.591 649.13 120.67 649.159 120.756C649.189 120.843 649.201 120.934 649.194 121.025L649.157 121.481C649.128 121.844 648.933 122.042 648.573 122.076C646.138 122.326 643.763 123.017 643.777 125.987C643.777 126.898 643.47 127.721 643.456 128.632C643.305 139.829 643.28 150.868 643.383 161.751C643.383 161.986 643.278 162.157 643.068 162.265C642.308 162.669 641.489 162.339 640.963 161.684C632.308 151.003 623.717 140.382 615.188 129.823C614.467 128.926 614.114 129.056 614.128 130.213Z" fill="black"/>
<path d="M658.794 125.465C658.772 122.782 656.294 122.076 654.057 122.194C653.511 122.223 653.182 121.969 653.07 121.43L652.997 121.092C652.89 120.577 653.097 120.32 653.618 120.32L669.408 120.312C669.778 120.312 669.956 120.501 669.941 120.878L669.905 121.547C669.885 121.9 669.7 122.086 669.349 122.106C666.805 122.238 664.298 122.495 664.254 125.546C664.103 135.693 664.098 146.024 664.239 156.54C664.283 159.553 667.01 160.045 669.364 159.979C669.754 159.969 669.941 160.163 669.927 160.56L669.905 161.31C669.89 161.638 669.717 161.802 669.386 161.802L653.64 161.809C653.275 161.809 653.084 161.626 653.07 161.258L653.048 160.611C653.028 160.214 653.216 160.014 653.611 160.009C656.001 159.957 658.742 159.604 658.779 156.518C658.891 146.497 658.896 136.146 658.794 125.465Z" fill="black"/>
<path d="M695.539 152.982C695.802 153.663 696.07 153.666 696.343 152.99C699.823 144.356 703.161 135.443 706.358 126.251C706.563 125.663 706.682 125.065 706.716 124.458C706.826 122.613 703.785 122.223 702.469 122.165C702.03 122.145 701.78 121.917 701.716 121.481L701.65 121.055C701.577 120.56 701.792 120.312 702.294 120.312L715.488 120.32C715.878 120.32 716.066 120.516 716.051 120.908L716.029 121.569C716.023 121.734 715.953 121.891 715.833 122.005C715.712 122.119 715.552 122.181 715.386 122.179C711.19 122.128 709.874 125.479 708.471 128.801C703.851 139.816 699.494 150.831 695.4 161.846C695.318 162.067 695.171 162.233 694.962 162.346C694.484 162.596 693.997 162.596 693.5 162.346C693.412 162.304 693.333 162.245 693.268 162.172C693.203 162.099 693.152 162.013 693.12 161.92C687.93 147.671 683.337 135.625 679.34 125.781C678.361 123.37 676.658 122.177 674.231 122.201C673.7 122.206 673.432 121.942 673.427 121.408V121.047C673.427 120.854 673.504 120.669 673.641 120.533C673.778 120.397 673.964 120.32 674.158 120.32H688.595C688.965 120.32 689.146 120.506 689.136 120.878L689.128 121.591C689.125 121.74 689.064 121.881 688.959 121.985C688.854 122.089 688.713 122.148 688.566 122.15C687.111 122.165 684.004 122.451 684.859 124.752C688.51 134.62 692.069 144.03 695.539 152.982Z" fill="black"/>
<path d="M730.449 141.884C730.439 146.328 730.449 150.611 730.478 154.732C730.507 158.237 732.284 159.626 735.551 159.693C737.622 159.737 739.652 159.72 741.64 159.641C746.158 159.472 748.314 156.194 749.623 152.13C749.769 151.679 750.076 151.48 750.544 151.534L751.202 151.615C751.275 151.624 751.345 151.648 751.409 151.685C751.472 151.723 751.527 151.773 751.57 151.834C751.612 151.894 751.642 151.963 751.657 152.035C751.671 152.108 751.671 152.182 751.655 152.255L749.681 161.155C749.64 161.341 749.536 161.507 749.387 161.626C749.238 161.745 749.053 161.809 748.862 161.809L719.44 161.802C719.079 161.802 718.897 161.621 718.892 161.258L718.885 160.604C718.885 160.271 719.048 160.082 719.374 160.038C722.393 159.663 725.31 159.737 725.222 155.533C725.212 155.087 725.21 154.643 725.215 154.202C725.322 144.295 725.315 134.777 725.193 125.648C725.156 122.826 722.803 122.047 720.463 122.187C720.276 122.199 720.091 122.137 719.948 122.015C719.806 121.893 719.718 121.719 719.703 121.533L719.652 120.9C719.618 120.513 719.793 120.32 720.178 120.32L747.583 120.312C747.812 120.312 747.937 120.428 747.956 120.658L748.526 128.838C748.538 129.028 748.48 129.216 748.362 129.365C748.245 129.514 748.077 129.614 747.89 129.647L747.291 129.757C747.156 129.781 747.016 129.75 746.902 129.672C746.788 129.594 746.707 129.475 746.677 129.338C745.982 126.2 744.893 122.804 741.165 122.591C738.251 122.429 735.11 122.388 731.743 122.466C731.399 122.474 731.072 122.616 730.831 122.864C730.591 123.111 730.456 123.443 730.456 123.789L730.449 138.702C730.449 139.005 730.602 139.16 730.909 139.165C733.794 139.17 736.596 139.13 739.316 139.047C741.762 138.969 743.085 137.602 743.285 134.946C743.299 134.769 743.375 134.603 743.498 134.476C743.621 134.35 743.783 134.272 743.958 134.255L744.345 134.211C744.949 134.147 745.251 134.422 745.251 135.034V145.853C745.251 146.348 745.008 146.595 744.52 146.595H744.096C743.648 146.59 743.397 146.365 743.344 145.919C743.044 143.428 742.101 141.568 739.235 141.531C736.394 141.492 733.602 141.473 730.858 141.473C730.585 141.473 730.449 141.61 730.449 141.884Z" fill="black"/>
<path d="M766.323 144.067C766.552 148.776 766.623 152.772 766.535 156.054C766.44 159.502 769.064 159.92 771.696 160.001C772.051 160.011 772.22 160.195 772.2 160.553L772.156 161.265C772.137 161.623 771.947 161.802 771.586 161.802L756.199 161.809C755.726 161.809 755.482 161.574 755.468 161.104L755.453 160.707C755.443 160.295 755.641 160.067 756.045 160.023C756.781 159.945 757.517 159.859 758.253 159.766C761.579 159.325 761.257 156.584 761.272 153.673C761.316 144.653 761.316 135.923 761.272 127.486C761.25 123.51 760.738 122.223 756.476 122.135C756.043 122.125 755.801 121.905 755.753 121.474L755.716 121.062C755.663 120.567 755.882 120.32 756.374 120.32C762.68 120.305 768.545 120.312 773.969 120.342C775.109 120.349 776.44 120.665 777.587 120.864C783.392 121.885 786.418 126.523 785.804 132.263C785.329 136.725 782.039 140.12 777.946 141.561C777.919 141.571 777.894 141.587 777.874 141.607C777.853 141.628 777.838 141.653 777.828 141.68C777.818 141.707 777.814 141.736 777.817 141.765C777.82 141.794 777.829 141.822 777.843 141.847C780.587 146.772 783.569 151.331 786.791 155.525C788.808 158.152 790.813 159.842 792.807 160.597C793.075 160.7 793.216 160.896 793.231 161.185C793.236 161.361 793.214 161.532 793.165 161.699C793.072 161.978 792.882 162.13 792.595 162.155C787.926 162.596 784.261 161.155 781.601 157.833C779.851 155.653 777.307 151.706 773.969 145.993C772.471 143.42 769.371 143.413 766.666 143.67C766.428 143.695 766.313 143.827 766.323 144.067ZM779.51 128.133C778.004 123.172 772.207 121.452 767.748 122.76C767.527 122.825 767.326 122.946 767.165 123.111C767.003 123.276 766.887 123.479 766.827 123.701C766.569 124.637 766.447 125.666 766.462 126.788C766.53 131.761 766.518 136.531 766.425 141.098C766.423 141.224 766.47 141.346 766.556 141.438C766.642 141.53 766.76 141.584 766.886 141.59C768.791 141.678 770.653 141.612 772.471 141.392C779.086 140.598 781.206 133.696 779.51 128.133Z" fill="black"/>
<path d="M840.566 122.209C835.442 121.753 835.456 124.715 835.449 128.588C835.434 136.977 835.432 145.245 835.442 153.394C835.442 157.833 835.588 160.163 840.559 159.957C840.644 159.953 840.73 159.967 840.81 159.998C840.89 160.029 840.963 160.076 841.025 160.136C841.086 160.197 841.135 160.27 841.168 160.35C841.201 160.43 841.218 160.517 841.217 160.604L841.209 161.265C841.204 161.628 841.022 161.809 840.661 161.809L824.901 161.802C824.55 161.802 824.374 161.628 824.374 161.28L824.367 160.508C824.367 160.399 824.406 160.294 824.476 160.212C824.545 160.13 824.642 160.076 824.747 160.06C826.67 159.766 828.731 160.038 829.74 158.017C830.027 157.444 830.174 156.4 830.178 154.886C830.232 145.165 830.232 135.767 830.178 126.692C830.157 123.113 828.49 122.032 825.113 122.157C824.621 122.177 824.37 121.939 824.36 121.444L824.353 120.878C824.348 120.506 824.533 120.32 824.908 120.32L840.442 120.312C841.026 120.312 841.285 120.606 841.217 121.194C841.207 121.278 841.212 121.364 841.231 121.452C841.251 121.548 841.248 121.649 841.223 121.744C841.198 121.839 841.151 121.927 841.086 122.001C841.022 122.075 840.941 122.132 840.85 122.168C840.76 122.204 840.663 122.218 840.566 122.209Z" fill="black"/>
<path d="M895.054 123.01C894.831 123.15 894.672 123.372 894.608 123.63C894.544 123.887 894.58 124.16 894.71 124.391L903.409 139.892C903.75 140.505 904.094 140.505 904.44 139.892C907.227 135.022 909.861 129.948 912.342 124.671C912.42 124.503 912.464 124.322 912.473 124.137C912.481 123.953 912.453 123.768 912.391 123.595C912.328 123.421 912.232 123.262 912.108 123.126C911.985 122.991 911.835 122.881 911.669 122.804C910.758 122.378 909.734 122.164 908.599 122.164C908.117 122.169 907.87 121.929 907.861 121.444L907.853 120.878C907.844 120.491 908.034 120.298 908.424 120.298C912.673 120.332 916.959 120.334 921.282 120.305C921.876 120.3 922.093 120.587 921.932 121.165C921.923 121.209 921.918 121.253 921.918 121.297C921.942 121.87 921.64 122.172 921.011 122.201C916.698 122.414 915.141 125.553 913.197 128.831C910.546 133.309 908.177 137.486 906.092 141.362C905.543 142.369 905.149 143.567 905.134 144.736C905.095 148.783 905.115 152.578 905.193 156.12C905.266 159.619 908.38 160.082 911.121 159.964C911.183 159.961 911.244 159.971 911.302 159.993C911.359 160.015 911.412 160.049 911.456 160.093C911.5 160.136 911.534 160.188 911.557 160.246C911.58 160.304 911.591 160.365 911.589 160.427L911.567 161.449C911.562 161.684 911.44 161.802 911.201 161.802H894.155C893.804 161.802 893.626 161.625 893.621 161.273L893.599 160.604C893.589 160.226 893.774 160.031 894.155 160.016C897.005 159.898 899.812 159.59 899.842 156.267C899.876 152.617 899.895 149.035 899.9 145.522C899.905 144.508 899.649 143.535 899.133 142.604C895.346 135.735 891.942 129.816 888.921 124.847C887.897 123.171 886.306 122.28 884.147 122.172C883.689 122.147 883.448 121.907 883.424 121.452L883.402 120.974C883.377 120.538 883.584 120.32 884.023 120.32L898.08 120.312C898.16 120.312 898.239 120.328 898.312 120.361C898.385 120.393 898.451 120.44 898.505 120.5C898.559 120.559 898.601 120.629 898.627 120.706C898.653 120.782 898.664 120.863 898.658 120.944L898.599 121.576C898.565 121.973 898.348 122.174 897.948 122.179C896.852 122.199 895.887 122.476 895.054 123.01Z" fill="black"/>
<path d="M275.808 132.293C276.013 140.588 276.017 148.634 275.823 156.43C275.735 159.847 277.292 160.354 280.333 160.457C280.497 160.461 280.653 160.53 280.768 160.65C280.883 160.769 280.947 160.93 280.947 161.097V161.383C280.942 161.692 280.784 161.849 280.472 161.854H267.548C267.143 161.854 266.941 161.653 266.941 161.251V161.038C266.941 160.665 267.126 160.477 267.497 160.472C269.733 160.428 271.853 159.957 271.861 157.142C271.88 148.729 271.885 140.387 271.875 132.116C271.875 131.862 271.749 131.734 271.495 131.734C269.599 131.705 267.643 131.764 265.625 131.911C262.921 132.102 262.146 134.924 261.685 137.151C261.597 137.577 261.337 137.783 260.903 137.768L260.647 137.761C260.335 137.756 260.192 137.597 260.216 137.283L260.823 129.669C260.891 128.782 261.249 128.645 261.897 129.257C262.482 129.801 263.016 130.25 263.864 130.25C270.408 130.24 277.065 130.24 283.834 130.25C284.66 130.25 285.128 129.809 285.72 129.301C286.534 128.601 286.97 128.789 287.029 129.867L287.423 137.004C287.428 137.095 287.415 137.187 287.384 137.272C287.353 137.358 287.305 137.437 287.242 137.503C287.18 137.57 287.105 137.623 287.022 137.66C286.939 137.697 286.849 137.716 286.758 137.717H286.554C286.464 137.719 286.377 137.691 286.306 137.636C286.236 137.581 286.186 137.503 286.166 137.416C285.706 135.541 285.055 132.704 283.037 132.131C281.056 131.58 278.498 131.734 276.327 131.756C275.971 131.761 275.798 131.94 275.808 132.293Z" fill="black"/>
<path d="M328.808 131.697C326.747 131.8 324.364 131.624 322.419 132.094C320.277 132.616 319.707 135.262 319.21 137.158C319.103 137.575 318.832 137.78 318.399 137.775H318.143C318.095 137.775 318.049 137.764 318.006 137.745C317.962 137.725 317.924 137.697 317.891 137.662C317.859 137.627 317.835 137.586 317.819 137.541C317.803 137.496 317.796 137.448 317.799 137.401L318.289 129.963C318.372 128.713 318.845 128.539 319.707 129.441C320.19 129.941 320.687 130.249 321.396 130.249C328.092 130.24 334.615 130.24 340.964 130.249C341.805 130.249 342.434 130.117 343.055 129.522C344 128.62 344.515 128.821 344.597 130.124L345.029 137.048C345.053 137.406 344.887 137.599 344.532 137.628L344.232 137.658C343.857 137.692 343.64 137.521 343.581 137.143C343.245 134.909 342.178 132.006 339.546 131.866C337.568 131.768 335.684 131.719 333.896 131.719C333.53 131.719 333.347 131.905 333.347 132.278C333.333 140.882 333.338 149.146 333.362 157.069C333.377 159.979 335.467 160.413 337.887 160.45C338.277 160.459 338.481 160.66 338.501 161.052L338.508 161.236C338.523 161.648 338.328 161.853 337.923 161.853L324.999 161.861C324.556 161.861 324.361 161.638 324.415 161.192L324.444 160.913C324.468 160.712 324.58 160.594 324.78 160.56C327.119 160.141 329.371 160.398 329.407 157.142C329.5 149.297 329.51 141.014 329.437 132.293C329.437 131.871 329.227 131.673 328.808 131.697Z" fill="black"/>
<path d="M197.889 133.682C204.029 128.655 211.653 128.883 218.927 130.632C219.229 130.705 219.402 130.897 219.446 131.205L220.294 137.416C220.32 137.613 220.272 137.814 220.158 137.977C220.044 138.141 219.874 138.255 219.68 138.298L219.431 138.349C219.1 138.418 218.898 138.283 218.824 137.945C218.05 134.329 215.425 131.72 211.712 131.242C191.5 128.67 192.699 163.434 211.785 160.67C215.433 160.141 218.174 156.9 219.621 153.651C219.753 153.348 219.97 153.262 220.272 153.394L220.63 153.541C221.049 153.722 221.181 154.029 221.025 154.46L218.868 160.457C218.787 160.684 218.652 160.886 218.473 161.048C218.295 161.209 218.079 161.325 217.845 161.383C211.295 163 203.364 163.507 197.801 158.804C190.433 152.571 190.104 140.047 197.889 133.682Z" fill="black"/>
<path d="M10.1524 131.91C10.0268 131.935 9.90846 131.988 9.80651 132.066C9.70457 132.143 9.62175 132.243 9.56449 132.357C9.50724 132.472 9.47707 132.598 9.47634 132.725C9.47561 132.853 9.50433 132.979 9.56028 133.093L17.4184 149.344C17.4489 149.407 17.4969 149.461 17.5567 149.498C17.6165 149.535 17.6856 149.553 17.7557 149.552C17.8259 149.55 17.8941 149.528 17.9522 149.489C18.0104 149.449 18.056 149.394 18.0836 149.329C20.1792 144.655 22.1163 139.826 23.895 134.843C24.3848 133.461 24.1655 131.888 22.5135 131.793C22.0018 131.763 21.5047 131.692 21.0222 131.579C20.8789 131.546 20.748 131.472 20.6455 131.365C20.543 131.258 20.4733 131.123 20.4447 130.977C20.4009 130.727 20.4642 130.514 20.6348 130.337C20.7518 130.22 20.8931 130.163 21.0588 130.168C24.3824 130.286 27.5476 130.286 30.5544 130.168C30.6149 130.166 30.6751 130.176 30.7318 130.198C30.7884 130.219 30.8402 130.252 30.8844 130.293C30.9285 130.335 30.964 130.385 30.9889 130.44C31.0138 130.496 31.0276 130.556 31.0295 130.617L31.0441 130.918C31.0588 131.315 30.8687 131.53 30.474 131.565C28.5198 131.712 27.0675 132.883 26.1173 135.078C22.5159 143.442 19.2679 150.819 16.3731 157.208C14.955 160.339 12.3234 163.411 8.73425 163.235C6.62899 163.139 4.00473 161.067 6.37315 159.046C7.52081 158.061 8.06905 159.288 8.96086 159.67C12.2942 161.103 14.2386 158.244 15.0646 155.562C15.4959 154.18 14.7796 153.063 14.1655 151.777C11.0076 145.191 8.05687 139.196 5.31321 133.792C4.6212 132.425 3.35171 131.719 1.50474 131.675C1.35162 131.674 1.20451 131.614 1.09226 131.508C0.980015 131.402 0.910737 131.257 0.898015 131.102L0.876085 130.83C0.870003 130.754 0.879487 130.677 0.903935 130.605C0.928383 130.533 0.967264 130.467 1.01811 130.411C1.06896 130.355 1.13067 130.31 1.19934 130.28C1.26801 130.25 1.34213 130.234 1.41702 130.234L11.9287 130.22C12.2308 130.22 12.3843 130.369 12.3892 130.668V130.918C12.3934 131.078 12.3404 131.234 12.2398 131.358C12.1392 131.482 11.9977 131.566 11.841 131.594L10.1524 131.91Z" fill="black"/>
<path d="M58.1408 146.037L42.5341 146.029C42.4669 146.029 42.4004 146.043 42.3383 146.069C42.2762 146.094 42.2198 146.132 42.1723 146.18C42.1248 146.228 42.0871 146.285 42.0614 146.347C42.0357 146.409 42.0224 146.476 42.0224 146.544C42.0419 150.072 42.0468 153.766 42.037 157.627C42.037 159.898 43.8718 160.567 45.7651 160.428C45.9137 160.418 46.0606 160.462 46.1779 160.553C46.2951 160.644 46.3746 160.775 46.4011 160.92L46.4522 161.221C46.5302 161.643 46.3572 161.853 45.9332 161.853H33.9523C33.8998 161.853 33.8479 161.843 33.7995 161.823C33.7511 161.802 33.7073 161.772 33.6705 161.735C33.6338 161.697 33.6049 161.652 33.5855 161.603C33.5661 161.554 33.5566 161.502 33.5575 161.449V161.14C33.5624 160.739 33.7622 160.518 34.1569 160.479C36.4303 160.266 38.0239 159.987 38.0093 157.23C37.9752 149.91 37.9727 142.357 38.002 134.571C38.0166 132.182 36.211 131.425 34.0912 131.602C34.0197 131.609 33.9476 131.601 33.8793 131.578C33.8109 131.556 33.7477 131.52 33.6937 131.471C33.6396 131.423 33.5957 131.364 33.5647 131.298C33.5338 131.232 33.5164 131.16 33.5137 131.087L33.5064 130.852C33.4917 130.436 33.6915 130.227 34.1058 130.227L45.8236 130.22C45.9086 130.217 45.9917 130.246 46.0576 130.302C46.1235 130.357 46.1676 130.435 46.1818 130.521L46.2183 130.727C46.2914 131.188 46.0989 131.447 45.6408 131.506C43.9303 131.727 42.037 131.793 42.059 134.13C42.0785 137.339 42.0395 140.478 41.942 143.545C41.9399 143.629 41.9549 143.712 41.986 143.789C42.0172 143.867 42.0638 143.937 42.1229 143.995C42.182 144.053 42.2524 144.098 42.3295 144.126C42.4065 144.155 42.4887 144.168 42.5707 144.163C47.444 143.927 52.6364 143.927 58.1481 144.163C58.4649 144.172 58.6257 144.018 58.6306 143.699C58.6842 140.495 58.6696 137.246 58.5867 133.954C58.5355 131.918 56.613 131.55 55.0049 131.536C54.8682 131.536 54.7368 131.483 54.6375 131.389C54.5382 131.295 54.4787 131.166 54.4712 131.028L54.4566 130.771C54.4322 130.418 54.5955 130.242 54.9464 130.242L66.7373 130.213C66.8517 130.213 66.9614 130.259 67.0422 130.342C67.1231 130.425 67.1686 130.537 67.1686 130.654V130.911C67.1687 131.004 67.1501 131.095 67.1139 131.18C67.0778 131.265 67.0248 131.342 66.9583 131.405C66.8918 131.469 66.8132 131.518 66.7274 131.549C66.6416 131.58 66.5504 131.593 66.4595 131.587C64.8294 131.499 62.7314 132.072 62.7241 134.005C62.6998 141.6 62.6876 149.332 62.6876 157.201C62.6876 159.597 63.9717 160.655 66.5399 160.376C66.6128 160.369 66.6864 160.378 66.7551 160.403C66.8239 160.429 66.8859 160.47 66.9367 160.523C66.9874 160.576 67.0254 160.64 67.0479 160.71C67.0703 160.78 67.0766 160.854 67.0662 160.927C67.0565 161.016 67.0565 161.104 67.0662 161.192C67.1345 161.628 66.9493 161.846 66.5107 161.846L54.2958 161.853C53.9936 161.858 53.8645 161.709 53.9084 161.405L53.9595 161.133C53.9919 160.924 54.1003 160.735 54.2637 160.602C54.4272 160.469 54.634 160.401 54.844 160.413C56.7373 160.53 58.6525 159.869 58.6452 157.605C58.6354 153.965 58.6452 150.287 58.6744 146.573C58.6744 146.216 58.4966 146.037 58.1408 146.037Z" fill="black"/>
<path d="M95.5812 135.894C95.7517 133.944 95.3326 133.807 94.3239 135.483C89.5968 143.357 84.8137 151.287 79.9745 159.274C79.5724 159.943 79.3824 160.589 79.5067 161.376C79.5161 161.435 79.5127 161.495 79.4965 161.552C79.4803 161.609 79.4518 161.662 79.4129 161.707C79.374 161.753 79.3257 161.789 79.2712 161.815C79.2167 161.84 79.1574 161.853 79.0973 161.854L71.4073 161.861C71.1441 161.861 70.9687 161.739 70.8809 161.494C70.8322 161.347 70.8273 161.192 70.8663 161.03C70.9394 160.732 71.127 160.55 71.4292 160.487C72.1967 160.325 72.9204 160.465 73.6368 160.06C74.6066 159.512 75.0939 158.514 75.0988 157.069C75.1183 149.381 75.1158 141.892 75.0915 134.601C75.0768 131.845 73.5198 131.734 71.3342 131.484C71.0369 131.45 70.8907 131.281 70.8956 130.977L70.9029 130.683C70.9077 130.375 71.0637 130.22 71.3707 130.22H82.7815C83.0398 130.22 83.1689 130.353 83.1689 130.617L83.1762 130.992C83.1762 131.359 82.9935 131.543 82.628 131.543C80.954 131.551 79.0096 132.05 79.0023 134.123C78.9876 140.463 78.9682 147.328 78.9438 154.717C78.9438 155.099 78.8682 155.481 78.7172 155.864C78.6884 155.938 78.6787 156.018 78.6889 156.096C78.6992 156.175 78.729 156.249 78.7757 156.312C78.9316 156.513 79.1144 156.589 79.3239 156.54C79.5091 156.496 79.648 156.393 79.7406 156.231C84.4433 148.435 89.2898 140.424 94.28 132.197C94.5432 131.756 94.7771 131.168 94.8575 130.632C94.9013 130.362 95.0597 130.228 95.3326 130.228L102.964 130.22C103.09 130.22 103.211 130.271 103.3 130.36C103.389 130.45 103.439 130.571 103.439 130.698L103.432 130.977C103.432 131.051 103.417 131.124 103.389 131.192C103.36 131.259 103.319 131.321 103.266 131.372C103.214 131.424 103.152 131.464 103.083 131.491C103.015 131.518 102.942 131.53 102.869 131.528C101.188 131.506 99.3312 132.175 99.3019 134.145C99.2045 140.926 99.1971 148.842 99.28 157.892C99.3019 159.847 101.129 160.56 102.906 160.42C102.973 160.415 103.041 160.424 103.105 160.447C103.169 160.47 103.227 160.507 103.276 160.554C103.325 160.601 103.364 160.658 103.389 160.721C103.415 160.784 103.427 160.852 103.425 160.92C103.425 161.004 103.432 161.087 103.447 161.17C103.525 161.626 103.335 161.854 102.876 161.854H91.5315C91.1514 161.854 90.9857 161.663 91.0344 161.28L91.071 160.957C91.1148 160.604 91.3122 160.435 91.6631 160.45C93.4394 160.531 95.3107 159.847 95.2815 157.73C95.1864 150.447 94.9745 143.031 95.5812 135.894Z" fill="black"/>
<path d="M125.751 145.353C128.66 146.088 130.897 147.507 131.76 150.432C132.951 154.46 130.627 158.37 126.979 160.097C125.025 161.028 122.929 161.567 120.693 161.714C118.271 161.875 113.885 161.912 107.535 161.824C107.198 161.819 107.047 161.65 107.081 161.317L107.118 161.03C107.137 160.854 107.222 160.692 107.357 160.578C107.492 160.464 107.666 160.408 107.842 160.42C112.155 160.722 111.716 157.885 111.738 154.474C111.782 147.761 111.77 141.051 111.701 134.343C111.679 131.815 110.035 131.661 108.046 131.514C107.914 131.506 107.789 131.448 107.698 131.351C107.607 131.254 107.556 131.125 107.557 130.992V130.617C107.557 130.318 107.708 130.171 108.01 130.176C112.006 130.254 116.031 130.274 120.086 130.235C124.728 130.183 129.413 131.131 129.998 136.725C130.32 139.826 128.456 142.612 125.634 143.788C124.099 144.43 124.138 144.951 125.751 145.353ZM115.685 131.852L115.598 144.038C115.598 144.086 115.617 144.133 115.651 144.168C115.685 144.202 115.732 144.221 115.78 144.221L119.618 144.251C120.411 144.257 121.197 144.11 121.932 143.819C122.667 143.528 123.336 143.099 123.901 142.556C124.466 142.013 124.915 141.366 125.224 140.653C125.533 139.94 125.694 139.174 125.7 138.4V137.636C125.711 136.073 125.086 134.569 123.962 133.455C122.838 132.342 121.307 131.709 119.706 131.697L115.868 131.668C115.82 131.668 115.773 131.687 115.739 131.722C115.704 131.756 115.685 131.803 115.685 131.852ZM118.514 160.214C122.769 160.67 127.001 158.561 127.33 153.908C127.842 146.544 121.65 145.331 115.985 145.721C115.697 145.74 115.559 145.895 115.568 146.184C115.656 149.334 115.661 152.688 115.583 156.246C115.539 158.259 116.233 159.972 118.514 160.214Z" fill="black"/>
<path d="M144.204 146.853C144.16 150.219 144.177 153.58 144.255 156.937C144.294 158.598 144.995 159.578 146.36 159.877C148.709 160.396 151.175 160.455 153.758 160.053C156.66 159.597 158.005 157.076 158.882 154.563C159.038 154.117 159.347 153.918 159.81 153.967L160.073 153.997C160.132 154.003 160.189 154.021 160.24 154.05C160.291 154.08 160.335 154.12 160.369 154.168C160.404 154.216 160.428 154.27 160.44 154.328C160.452 154.386 160.452 154.446 160.439 154.504L158.918 161.347C158.845 161.685 158.636 161.854 158.29 161.854H135.804C135.449 161.854 135.285 161.675 135.315 161.317L135.344 160.972C135.368 160.638 135.546 160.469 135.878 160.465C137.807 160.42 140.242 160.068 140.234 157.51C140.225 149.979 140.225 142.205 140.234 134.189C140.234 131.749 138.151 131.756 136.418 131.492C136.121 131.448 135.975 131.274 135.98 130.97V130.676C135.985 130.377 136.138 130.228 136.44 130.228L157.303 130.242C157.527 130.242 157.644 130.355 157.654 130.58L158.005 136.49C158.034 136.97 157.812 137.244 157.339 137.313L157.098 137.349C156.981 137.365 156.863 137.336 156.768 137.267C156.673 137.199 156.608 137.097 156.587 136.982C156.012 133.866 154.818 132.202 153.005 131.991C150.709 131.722 148.083 131.658 145.125 131.8C144.506 131.83 144.196 132.153 144.196 132.771V144.03C144.196 144.339 144.347 144.498 144.649 144.508C146.779 144.572 148.911 144.56 151.046 144.471C152.854 144.398 153.853 143.386 154.043 141.436C154.061 141.242 154.15 141.063 154.292 140.932C154.434 140.802 154.619 140.73 154.81 140.73H155.154C155.251 140.73 155.344 140.768 155.412 140.836C155.481 140.903 155.519 140.995 155.519 141.091L155.527 149.741C155.527 150.133 155.332 150.312 154.942 150.278L154.671 150.248C154.499 150.234 154.337 150.157 154.217 150.031C154.097 149.905 154.027 149.739 154.021 149.565C153.948 147.458 152.934 146.402 150.98 146.397C148.884 146.392 146.789 146.385 144.693 146.375C144.372 146.375 144.208 146.534 144.204 146.853Z" fill="black"/>
<path d="M171.783 148.514C171.788 151.718 171.795 154.727 171.805 157.539C171.819 159.972 174.034 160.582 176.03 160.435C176.464 160.406 176.688 160.609 176.702 161.045L176.71 161.28C176.724 161.662 176.542 161.853 176.162 161.853H163.91C163.53 161.853 163.367 161.665 163.42 161.288L163.464 161.001C163.483 160.869 163.545 160.746 163.64 160.653C163.735 160.56 163.859 160.501 163.991 160.486C166.213 160.222 167.843 159.972 167.879 157.164C167.977 149.819 167.977 142.332 167.879 134.703C167.855 132.469 166.744 131.425 164.546 131.572C164.098 131.602 163.839 131.394 163.771 130.948C163.752 130.825 163.752 130.703 163.771 130.58C163.825 130.296 163.993 130.156 164.276 130.161C168.476 130.264 172.563 130.281 176.534 130.213C193.735 129.911 188.311 153.651 172.324 148.124C171.963 148.002 171.783 148.131 171.783 148.514ZM171.79 133.52L171.732 145.294C171.73 145.798 171.926 146.282 172.279 146.64C172.631 146.998 173.11 147.202 173.61 147.205L175.569 147.22C176.487 147.226 177.396 147.045 178.246 146.687C179.095 146.329 179.868 145.801 180.521 145.134C181.173 144.468 181.692 143.674 182.048 142.8C182.404 141.926 182.589 140.988 182.594 140.039V138.893C182.604 136.98 181.879 135.141 180.578 133.781C179.278 132.421 177.508 131.65 175.657 131.639L173.698 131.624C173.449 131.622 173.202 131.669 172.971 131.764C172.74 131.858 172.53 131.997 172.352 132.174C172.175 132.35 172.034 132.559 171.938 132.79C171.841 133.022 171.791 133.27 171.79 133.52Z" fill="black"/>
<path d="M248.814 135.174C248.989 134.875 249.077 134.713 249.077 134.689C249.043 133.851 248.767 133.763 248.251 134.424C248.163 134.542 248.051 134.777 247.915 135.13C243.075 143.18 238.224 151.226 233.361 159.266C232.988 159.891 232.732 160.575 232.885 161.302C232.9 161.369 232.899 161.438 232.883 161.504C232.867 161.571 232.837 161.632 232.794 161.685C232.751 161.738 232.697 161.781 232.636 161.81C232.574 161.839 232.507 161.854 232.439 161.853H224.728C224.382 161.853 224.211 161.682 224.216 161.339C224.216 161.187 224.245 161.043 224.304 160.905C224.44 160.577 224.684 160.413 225.035 160.413C227.267 160.428 228.385 159.499 228.39 157.627C228.395 149.317 228.387 141.477 228.368 134.108C228.361 131.844 226.475 131.521 224.742 131.536C224.674 131.536 224.606 131.522 224.544 131.495C224.482 131.468 224.425 131.428 224.379 131.378C224.333 131.328 224.298 131.27 224.276 131.206C224.254 131.142 224.246 131.074 224.252 131.006L224.274 130.735C224.299 130.387 224.484 130.213 224.83 130.213L236.241 130.235C236.334 130.235 236.423 130.273 236.489 130.34C236.555 130.408 236.592 130.499 236.592 130.595V130.815C236.593 130.913 236.574 131.01 236.537 131.101C236.501 131.191 236.446 131.273 236.377 131.342C236.309 131.412 236.227 131.466 236.137 131.503C236.047 131.54 235.95 131.559 235.853 131.558C234.223 131.536 232.432 132.109 232.41 134.049C232.337 140.297 232.323 146.573 232.366 152.879C232.371 153.511 232.337 154.163 232.264 154.834C232.02 157.132 232.493 157.292 233.682 155.312C238.019 148.09 242.581 140.566 247.366 132.741C247.781 132.06 248.083 131.34 248.273 130.58C248.331 130.36 248.473 130.249 248.697 130.249L256.467 130.198C256.721 130.198 256.847 130.323 256.847 130.573L256.855 130.83C256.857 130.925 256.84 131.019 256.805 131.106C256.77 131.194 256.718 131.274 256.652 131.341C256.586 131.408 256.507 131.461 256.42 131.497C256.333 131.533 256.24 131.551 256.146 131.55C254.676 131.543 252.798 132.087 252.746 133.843C252.61 138.415 252.588 146.412 252.681 157.833C252.703 160.222 254.632 160.244 256.379 160.508C256.73 160.557 256.903 160.761 256.899 161.118V161.332C256.894 161.68 256.718 161.853 256.372 161.853H244.866C244.491 161.853 244.355 161.672 244.457 161.31C244.486 161.202 244.508 161.094 244.523 160.986C244.545 160.816 244.63 160.661 244.76 160.552C244.89 160.443 245.056 160.388 245.225 160.398C247.593 160.531 248.765 159.423 248.741 157.076C248.658 149.766 248.682 142.465 248.814 135.174Z" fill="black"/>
<path d="M299.342 144.538C301.141 144.503 303.085 144.503 305.176 144.538C307.422 144.577 308.631 143.555 308.801 141.473C308.836 141.027 309.077 140.789 309.525 140.76L309.759 140.745C310.129 140.721 310.315 140.895 310.315 141.267V149.638C310.315 150.001 310.137 150.212 309.781 150.27C309.63 150.3 309.481 150.288 309.335 150.234C309.018 150.116 308.843 149.891 308.809 149.557C308.614 147.5 307.707 146.453 306.089 146.419C303.935 146.37 301.677 146.365 299.313 146.404C299.235 146.406 299.161 146.439 299.106 146.495C299.051 146.552 299.021 146.627 299.021 146.706C299.035 150.229 299.05 153.644 299.065 156.951C299.074 158.745 299.947 159.774 301.682 160.038C304.147 160.416 306.618 160.367 309.094 159.891C311.513 159.428 313.019 156.606 313.677 154.401C313.794 154.009 314.055 153.852 314.459 153.931L314.803 154.004C315.159 154.078 315.295 154.293 315.212 154.651L313.67 161.464C313.645 161.575 313.583 161.673 313.494 161.744C313.405 161.815 313.294 161.853 313.18 161.854H290.541C290.433 161.854 290.329 161.812 290.252 161.738C290.174 161.664 290.128 161.563 290.125 161.457L290.117 161.141C290.113 161.049 290.128 160.958 290.16 160.873C290.192 160.787 290.241 160.709 290.304 160.643C290.366 160.578 290.442 160.525 290.526 160.489C290.609 160.453 290.699 160.435 290.79 160.435C292.99 160.442 295.066 159.891 295.088 157.172C295.137 149.636 295.137 142.129 295.088 134.652C295.073 131.815 293.348 131.815 291.199 131.477C291.072 131.457 290.956 131.39 290.875 131.288C290.794 131.186 290.753 131.057 290.761 130.926L290.782 130.654C290.802 130.365 290.955 130.22 291.243 130.22L312.135 130.242C312.211 130.244 312.283 130.274 312.337 130.325C312.391 130.377 312.423 130.447 312.427 130.522L312.829 136.681C312.854 137.063 312.678 137.269 312.303 137.298L311.996 137.32C311.63 137.35 311.416 137.183 311.353 136.82C311.031 135.012 310.008 132.234 307.888 131.999C305.266 131.7 302.52 131.646 299.649 131.837C299.489 131.848 299.338 131.92 299.228 132.037C299.118 132.155 299.057 132.309 299.057 132.469L299.028 144.236C299.028 144.276 299.036 144.316 299.052 144.353C299.068 144.39 299.091 144.424 299.121 144.452C299.15 144.48 299.185 144.502 299.223 144.517C299.261 144.531 299.301 144.539 299.342 144.538Z" fill="black"/>
<path d="M348.727 160.45C350.387 160.553 352.528 159.913 352.536 157.98C352.575 150.866 352.577 143.004 352.543 134.395C352.536 131.646 350.672 131.8 348.654 131.484C348.386 131.445 348.216 131.293 348.143 131.028C348.065 130.759 348.121 130.529 348.311 130.338C348.432 130.22 348.579 130.164 348.749 130.169C352.765 130.301 356.693 130.293 360.533 130.146C360.598 130.144 360.663 130.154 360.724 130.176C360.785 130.199 360.841 130.233 360.888 130.278C360.936 130.322 360.974 130.376 361.001 130.435C361.028 130.495 361.043 130.559 361.045 130.624L361.059 130.94C361.064 131.074 361.018 131.205 360.932 131.307C360.845 131.409 360.724 131.475 360.591 131.492L358.508 131.763C358.056 131.822 357.636 132.032 357.317 132.36C356.997 132.688 356.796 133.114 356.746 133.571C356.659 134.39 356.612 135.242 356.607 136.129C356.554 143.058 356.549 149.812 356.593 156.393C356.598 157.245 356.695 158.1 356.885 158.958C356.944 159.217 357.078 159.426 357.287 159.582C358.208 160.273 359.215 160.545 360.306 160.398C360.759 160.334 361.008 160.53 361.052 160.986L361.081 161.28C361.125 161.662 360.954 161.853 360.569 161.853H348.705C348.335 161.853 348.152 161.667 348.157 161.295V160.979C348.158 160.906 348.174 160.835 348.203 160.769C348.232 160.703 348.275 160.643 348.328 160.593C348.382 160.544 348.444 160.506 348.513 160.481C348.582 160.456 348.654 160.446 348.727 160.45Z" fill="black"/>
<path d="M248.817 135.174L247.918 135.13C248.055 134.777 248.167 134.542 248.254 134.424C248.771 133.763 249.046 133.851 249.08 134.689C249.08 134.713 248.993 134.875 248.817 135.174Z" fill="#4E5991"/>
</svg>
