<svg width="506" height="147" viewBox="0 0 506 147" fill="none" xmlns="http://www.w3.org/2000/svg">
<mask id="mask0_456_253" style="mask-type:luminance" maskUnits="userSpaceOnUse" x="0" y="0" width="506" height="147">
<path d="M505.312 0H0V147H505.312V0Z" fill="white"/>
</mask>
<g mask="url(#mask0_456_253)">
<path d="M73.1847 38.2035C70.2814 46.8085 65.9693 55.1042 60.1812 62.7491C57.575 66.1769 54.773 69.377 51.7932 72.3142C44.4401 79.5714 35.9844 85.3069 26.9072 89.4673C21.168 92.1093 15.1625 94.1076 9.02525 95.4624C6.20163 96.0847 3.42396 94.3458 2.65221 91.5902C1.35677 86.9784 0.517699 82.1849 0.177761 77.2497C0.0552611 75.6104 0 73.9533 0 72.2857C0 70.6179 0.0552611 68.9895 0.177761 67.3646C9.84914 65.6435 19.1008 61.5223 26.9072 55.1327C30.4168 52.2772 33.6385 48.9562 36.4713 45.2083C44.7891 34.2032 48.5285 21.189 48.0078 8.42723C47.9129 6.0093 49.4104 3.79049 51.7502 3.07931C57.3607 1.36542 63.2683 0.312911 69.3627 0C68.9187 3.57357 68.6889 7.17559 68.6889 10.7776C68.6889 20.0084 70.1589 29.2642 73.1785 38.2035H73.1847Z" fill="url(#paint0_linear_456_253)"/>
<path d="M73.166 106.459C76.0693 97.8543 80.3814 89.5586 86.1695 81.9137C88.7757 78.4862 91.5777 75.2859 94.5575 72.3486C101.911 65.0914 110.366 59.3559 119.444 55.1955C125.183 52.5535 131.188 50.5552 137.325 49.2004C140.149 48.5784 142.927 50.317 143.698 53.0729C144.994 57.6847 145.833 62.4779 146.173 67.4134C146.295 69.0524 146.351 70.7096 146.351 72.3771C146.351 74.0449 146.295 75.6733 146.173 77.2985C136.502 79.0193 127.25 83.1406 119.444 89.5305C115.937 92.3856 112.712 95.7066 109.879 99.4545C101.562 110.46 97.8222 123.474 98.3429 136.236C98.4378 138.654 96.9403 140.872 94.6005 141.583C88.987 143.298 83.0794 144.35 76.982 144.663C77.4291 141.089 77.6586 137.487 77.6586 133.885C77.6586 124.655 76.1856 115.399 73.166 106.459Z" fill="url(#paint1_linear_456_253)"/>
<path d="M76.9826 144.571C75.7116 144.638 74.4591 144.663 73.1759 144.663C71.8928 144.663 70.6126 144.635 69.3325 144.571C63.2473 144.247 57.3611 143.202 51.7568 141.502C49.417 140.791 47.9133 138.576 48.0083 136.154C48.5166 123.41 44.7928 110.421 36.5026 99.4301C33.6545 95.6537 30.4203 92.3327 26.8984 89.4665C35.9726 85.3064 44.4312 79.5673 51.7812 72.3135C54.7917 75.247 57.6092 78.4614 60.2246 81.9178C65.9821 89.5342 70.2728 97.7907 73.1576 106.357C77.341 118.788 78.5659 131.862 76.9734 144.574L76.9826 144.571Z" fill="url(#paint2_linear_456_253)"/>
<path d="M26.9064 55.1343C19.1001 61.5243 9.8452 65.6452 0.173828 67.3663C0.504578 62.4308 1.34368 57.634 2.63912 53.0221C3.41087 50.2665 6.18543 48.5276 9.00599 49.1466C15.1555 50.4941 21.152 52.4994 26.9064 55.1343Z" fill="url(#paint3_linear_456_253)"/>
<path d="M69.3606 0.0924504C70.6315 0.0248905 71.881 0 73.1642 0C74.4505 0 75.7305 0.0284463 77.0107 0.0924504C83.0958 0.416028 88.979 1.46143 94.5864 3.16111C96.9231 3.87226 98.4299 6.08751 98.3319 8.509C97.8235 21.253 101.551 34.2424 109.841 45.2331C112.689 49.0095 115.923 52.3305 119.445 55.1967C110.367 59.3568 101.912 65.0959 94.5619 72.3497C91.5515 69.4162 88.7339 66.2018 86.1185 62.7454C80.358 55.129 76.0705 46.8725 73.1825 38.3067C69.0022 25.8755 67.7742 12.8009 69.3667 0.0888949L69.3606 0.0924504Z" fill="url(#paint4_linear_456_253)"/>
<path d="M119.446 89.5298C127.256 83.1402 136.508 79.019 146.176 77.2979C145.848 82.2334 145.009 87.0302 143.714 91.642C142.942 94.3976 140.167 96.1365 137.344 95.5179C131.197 94.1701 125.201 92.1648 119.446 89.5298Z" fill="url(#paint5_linear_456_253)"/>
<path d="M340.079 126.934C340.119 126.497 340.217 126.038 340.383 125.569C340.542 125.096 340.796 124.673 341.145 124.299C341.559 123.848 342.021 123.517 342.533 123.311C343.047 123.105 343.531 122.977 343.984 122.934C344.441 122.892 344.989 122.87 345.641 122.87H347.849V125.636H345.803C345.004 125.636 344.404 125.828 344.012 126.216C343.617 126.604 343.418 127.159 343.418 127.891V129.146H347.849V131.848H343.418V146.52H340.028V131.848H337.121V129.146H340.028V128.535C340.028 127.912 340.046 127.382 340.082 126.941L340.079 126.934Z" fill="black"/>
<path d="M352.867 145.832C351.569 145.053 350.57 143.973 349.866 142.582C349.165 141.192 348.812 139.602 348.812 137.81C348.812 136.018 349.171 134.415 349.884 133.031C350.598 131.648 351.605 130.574 352.901 129.806C354.199 129.038 355.697 128.654 357.394 128.654C359.09 128.654 360.624 129.042 361.929 129.813C363.231 130.585 364.235 131.666 364.94 133.056C365.641 134.447 365.993 136.029 365.993 137.81C365.993 139.592 365.638 141.206 364.927 142.596C364.217 143.987 363.218 145.064 361.92 145.839C360.621 146.611 359.112 146.999 357.394 146.999C355.676 146.999 354.166 146.611 352.867 145.832ZM353.697 142.22C354.548 143.293 355.783 143.83 357.397 143.83C359.011 143.83 360.26 143.286 361.111 142.198C361.966 141.11 362.392 139.649 362.392 137.814C362.392 135.979 361.966 134.496 361.111 133.43C360.26 132.363 359.017 131.829 357.397 131.829C355.777 131.829 354.515 132.366 353.676 133.44C352.836 134.514 352.417 135.972 352.417 137.818C352.417 139.663 352.843 141.153 353.697 142.227V142.22Z" fill="black"/>
<path d="M371.867 145.606C370.831 144.689 370.136 143.619 369.781 142.399C369.426 141.18 369.248 139.974 369.248 138.794V129.14H372.687V137.684C372.687 139.391 373.006 140.834 373.643 142.019C374.283 143.203 375.441 143.796 377.116 143.796C378.445 143.796 379.517 143.345 380.334 142.445C381.152 141.546 381.562 140.123 381.562 138.182V129.14H384.986V146.517H381.967V144.44C381.308 145.255 380.491 145.884 379.517 146.321C378.546 146.762 377.431 146.982 376.175 146.982C374.335 146.982 372.899 146.524 371.867 145.606Z" fill="black"/>
<path d="M400.867 133.64C400.23 132.456 399.073 131.862 397.398 131.862C396.069 131.862 394.994 132.314 394.176 133.213C393.358 134.113 392.951 135.535 392.951 137.477V146.519H389.512V129.142H392.547V131.218C393.205 130.404 394.023 129.775 394.994 129.338C395.968 128.9 397.082 128.68 398.338 128.68C400.175 128.68 401.612 129.138 402.644 130.056C403.676 130.973 404.374 132.044 404.726 133.267C405.082 134.49 405.262 135.692 405.262 136.869V146.523H401.823V137.978C401.823 136.271 401.505 134.828 400.865 133.643L400.867 133.64Z" fill="black"/>
<path d="M412.044 145.799C410.844 144.999 409.919 143.904 409.27 142.51C408.62 141.117 408.299 139.552 408.299 137.813C408.299 136.074 408.623 134.495 409.282 133.109C409.934 131.722 410.865 130.63 412.072 129.844C413.275 129.059 414.684 128.66 416.298 128.66C418.203 128.66 419.792 129.219 421.069 130.335V123.352H424.475V146.518H421.458V144.942C420.809 145.607 420.047 146.116 419.171 146.471C418.295 146.827 417.318 147.001 416.234 147.001C414.644 147.001 413.251 146.603 412.05 145.803L412.044 145.799ZM412.436 140.963C412.795 141.884 413.334 142.617 414.05 143.15C414.767 143.687 415.652 143.954 416.705 143.954C418.304 143.954 419.498 143.406 420.282 142.304C421.07 141.205 421.458 139.705 421.458 137.806C421.458 135.907 421.073 134.442 420.298 133.343C419.523 132.245 418.365 131.694 416.816 131.694C415.722 131.694 414.807 131.96 414.072 132.49C413.337 133.02 412.791 133.749 412.433 134.67C412.075 135.591 411.897 136.636 411.897 137.806C411.897 138.976 412.078 140.035 412.433 140.96L412.436 140.963Z" fill="black"/>
<path d="M430.75 146.301C429.865 145.836 429.191 145.206 428.732 144.42C428.273 143.631 428.043 142.756 428.043 141.789C428.043 139.226 429.421 137.511 432.183 136.64C433.013 136.395 433.957 136.182 435.01 136.004C436.067 135.826 437.527 135.609 439.402 135.353L439.935 135.289C439.883 134.066 439.546 133.173 438.927 132.612C438.312 132.05 437.329 131.765 435.975 131.765C434.995 131.765 434.125 131.989 433.381 132.441C432.634 132.893 432.122 133.579 431.837 134.5L428.674 133.536C429.109 132.004 429.942 130.805 431.182 129.948C432.419 129.091 434.03 128.661 436.009 128.661C437.619 128.661 439.001 128.935 440.146 129.482C441.294 130.03 442.13 130.862 442.66 131.975C442.908 132.502 443.074 133.06 443.156 133.657C443.239 134.254 443.279 134.973 443.279 135.822V146.522H440.275V143.997C439.552 145.018 438.673 145.772 437.641 146.266C436.609 146.76 435.381 147.006 433.966 147.006C432.71 147.006 431.638 146.774 430.75 146.305V146.301ZM432.205 143.542C432.738 144.015 433.528 144.25 434.563 144.25C435.482 144.25 436.29 144.086 436.998 143.759C437.702 143.432 438.266 143.005 438.694 142.479C439.12 141.953 439.405 141.394 439.549 140.804C439.763 140.182 439.883 139.275 439.907 138.084L439.485 138.148C437.904 138.372 436.722 138.557 435.941 138.696C435.154 138.834 434.45 138.994 433.822 139.179C433.066 139.435 432.471 139.769 432.046 140.175C431.62 140.584 431.402 141.11 431.402 141.75C431.402 142.468 431.672 143.066 432.208 143.535L432.205 143.542Z" fill="black"/>
<path d="M454.751 146.806C453.538 146.806 452.478 146.614 451.578 146.226C450.674 145.839 450.001 145.234 449.56 144.409C449.29 143.904 449.116 143.389 449.033 142.855C448.95 142.325 448.91 141.678 448.91 140.917V131.843H445.551V129.141H448.91V124.315H452.319V129.141H457.525V131.843H452.319V140.434C452.319 140.981 452.34 141.422 452.383 141.76C452.426 142.098 452.521 142.389 452.674 142.638C452.935 143.069 453.296 143.374 453.768 143.563C454.236 143.751 454.815 143.844 455.495 143.844C456.08 143.844 456.754 143.787 457.525 143.666V146.514C456.521 146.706 455.596 146.802 454.751 146.802V146.806Z" fill="black"/>
<path d="M461.533 123.026H464.927V126.294H461.533V123.026ZM461.533 129.139H464.927V146.516H461.533V129.139Z" fill="black"/>
<path d="M472.878 145.832C471.579 145.053 470.578 143.973 469.877 142.582C469.172 141.192 468.82 139.602 468.82 137.81C468.82 136.018 469.179 134.415 469.892 133.031C470.606 131.648 471.616 130.574 472.909 129.806C474.207 129.038 475.708 128.654 477.401 128.654C479.098 128.654 480.635 129.042 481.94 129.813C483.242 130.585 484.246 131.666 484.947 133.056C485.652 134.447 486.001 136.029 486.001 137.81C486.001 139.592 485.649 141.206 484.938 142.596C484.228 143.987 483.226 145.064 481.928 145.839C480.629 146.611 479.12 146.999 477.401 146.999C475.686 146.999 474.176 146.611 472.878 145.832ZM473.705 142.22C474.559 143.293 475.793 143.83 477.407 143.83C479.021 143.83 480.268 143.286 481.122 142.198C481.974 141.11 482.402 139.649 482.402 137.814C482.402 135.979 481.974 134.496 481.122 133.43C480.268 132.363 479.027 131.829 477.407 131.829C475.784 131.829 474.523 132.366 473.683 133.44C472.844 134.514 472.425 135.972 472.425 137.818C472.425 139.663 472.854 141.153 473.705 142.227V142.22Z" fill="black"/>
<path d="M500.914 133.64C500.277 132.456 499.12 131.862 497.445 131.862C496.112 131.862 495.041 132.314 494.223 133.213C493.405 134.113 492.998 135.535 492.998 137.477V146.519H489.559V129.142H492.59V131.218C493.252 130.404 494.07 129.775 495.04 129.338C496.014 128.9 497.129 128.68 498.385 128.68C500.222 128.68 501.658 129.138 502.69 130.056C503.723 130.973 504.418 132.044 504.773 133.267C505.128 134.49 505.309 135.692 505.309 136.869V146.523H501.87V137.978C501.87 136.271 501.551 134.828 500.911 133.643L500.914 133.64Z" fill="black"/>
<path d="M180.904 90.9579V44.9355H196.278V90.9579C196.278 93.8241 197.215 95.7939 199.086 96.8679C200.957 97.9416 204.195 98.4785 208.794 98.4785C213.394 98.4785 216.497 97.9416 218.303 96.8679C220.113 95.7902 221.017 93.8241 221.017 90.9579V44.9355H236.391V90.9579C236.391 103.204 227.127 109.327 208.602 109.327C190.073 109.327 180.904 103.204 180.904 90.9579Z" fill="black"/>
<path d="M248.016 107.567V95.9393C259.182 97.6316 266.805 98.4781 270.878 98.4781C279.416 98.4781 283.688 96.2982 283.688 91.9317V87.8286C283.688 85.7448 283.082 84.1481 281.866 83.0422C280.65 81.9366 278.467 81.3817 275.312 81.3817H267.825C253.765 81.3817 246.736 75.8453 246.736 64.7692V60.0789C246.736 54.5426 249.067 50.4713 253.731 47.8648C258.398 45.262 265.788 43.957 275.904 43.957C281.159 43.957 287.829 44.3803 295.908 45.2264V56.5623C285.985 55.389 279.159 54.8023 275.41 54.8023C270.22 54.8023 266.737 55.2289 264.964 56.0753C263.056 56.9892 262.107 58.4185 262.107 60.3742V64.8687C262.107 68.1934 264.931 69.8505 270.581 69.8505H278.265C285.56 69.8505 290.845 71.1873 294.128 73.8577C297.415 76.5283 299.056 80.5995 299.056 86.0682V90.2712C299.056 97.8273 296.33 102.94 290.876 105.611C288.248 106.98 285.339 107.94 282.157 108.495C278.969 109.046 275.141 109.323 270.676 109.323C264.566 109.323 257.011 108.737 248.013 107.563L248.016 107.567Z" fill="black"/>
<path d="M324.482 55.7805H304.771V44.9355H359.462V55.7805H339.855V108.35H324.482V55.7805Z" fill="black"/>
<path d="M368.335 44.9355H417.115V55.7805H383.706V70.3414H413.862V81.1867H383.706V97.5043H418.098V108.35H368.332V44.9355H368.335Z" fill="black"/>
<path d="M428.442 44.9355H450.318L466.087 90.2752L481.656 44.9355H502.252V108.35H488.357V61.4485H488.063L471.899 108.35H459.582L442.928 61.4485H442.533V108.35H428.439L428.442 44.9355Z" fill="black"/>
</g>
<defs>
<linearGradient id="paint0_linear_456_253" x1="115.631" y1="-26.0569" x2="-3.84633" y2="94.4431" gradientUnits="userSpaceOnUse">
<stop stop-color="#189CD9"/>
<stop offset="0.43" stop-color="#0F8EE1"/>
<stop offset="1" stop-color="#0075F2"/>
</linearGradient>
<linearGradient id="paint1_linear_456_253" x1="172.403" y1="30.2304" x2="52.9261" y2="150.727" gradientUnits="userSpaceOnUse">
<stop stop-color="#189CD9"/>
<stop offset="0.43" stop-color="#0F8EE1"/>
<stop offset="1" stop-color="#0075F2"/>
</linearGradient>
<linearGradient id="paint2_linear_456_253" x1="1.33572" y1="57.3189" x2="91.6856" y2="148.439" gradientUnits="userSpaceOnUse">
<stop stop-color="#52BDEA"/>
<stop offset="0.31" stop-color="#44B5E5"/>
<stop offset="0.88" stop-color="#20A0DB"/>
<stop offset="1" stop-color="#189CD9"/>
</linearGradient>
<linearGradient id="paint3_linear_456_253" x1="5.45969" y1="53.2356" x2="95.8096" y2="144.355" gradientUnits="userSpaceOnUse">
<stop stop-color="#52BDEA"/>
<stop offset="0.31" stop-color="#44B5E5"/>
<stop offset="0.88" stop-color="#20A0DB"/>
<stop offset="1" stop-color="#189CD9"/>
</linearGradient>
<linearGradient id="paint4_linear_456_253" x1="58.0355" y1="1.1023" x2="148.385" y2="92.2223" gradientUnits="userSpaceOnUse">
<stop stop-color="#52BDEA"/>
<stop offset="0.31" stop-color="#44B5E5"/>
<stop offset="0.88" stop-color="#20A0DB"/>
<stop offset="1" stop-color="#189CD9"/>
</linearGradient>
<linearGradient id="paint5_linear_456_253" x1="53.9181" y1="5.18648" x2="144.265" y2="96.3065" gradientUnits="userSpaceOnUse">
<stop stop-color="#52BDEA"/>
<stop offset="0.31" stop-color="#44B5E5"/>
<stop offset="0.88" stop-color="#20A0DB"/>
<stop offset="1" stop-color="#189CD9"/>
</linearGradient>
</defs>
</svg>
