<svg width="2113" height="1623" viewBox="0 0 2113 1623" fill="none" xmlns="http://www.w3.org/2000/svg">
<g clip-path="url(#clip0_795_1816)">
<path fill-rule="evenodd" clip-rule="evenodd" d="M1068.48 1.31313C1062.96 2.75044 1051.03 8.28726 1048.93 10.3799C1048.76 10.5507 1047.51 11.2768 1046.14 11.9936C1041.74 14.2999 1037.49 16.7385 1035.8 17.9223C1034.89 18.5565 1033.84 19.0758 1033.47 19.0758C1033.1 19.0758 1032.79 19.287 1032.79 19.5454C1032.79 19.8038 1031.88 20.4094 1030.77 20.8908C1029.66 21.3728 1026.27 23.2579 1023.23 25.0797C1020.19 26.9021 1017.46 28.3929 1017.17 28.3929C1016.88 28.3929 1016.65 28.604 1016.65 28.8624C1016.65 29.1208 1015.74 29.732 1014.63 30.2209C1012.39 31.2079 1005.34 35.2285 1004.85 35.7962C1004.68 35.9956 1003.7 36.5776 1002.68 37.0888C1001.65 37.6 1000.67 38.159 1000.5 38.3311C1000.33 38.5031 999.354 39.0603 998.33 39.569C995.619 40.9162 989.068 44.6896 988.706 45.1133C988.535 45.3126 987.557 45.8946 986.532 46.4058C985.508 46.917 984.53 47.4761 984.359 47.6469C984.188 47.8183 982.233 48.9022 980.013 50.055C977.793 51.2085 975.536 52.5358 974.996 53.0054C974.457 53.475 973.712 53.8595 973.341 53.8595C972.969 53.8595 972.572 54.0694 972.458 54.3253C972.344 54.5813 971.134 55.3775 969.768 56.0943C965.372 58.4006 961.118 60.8392 959.427 62.0231C958.52 62.6573 957.496 63.1766 957.15 63.1766C956.804 63.1766 956.429 63.3865 956.314 63.6424C956.201 63.8983 954.99 64.6946 953.624 65.4114C949.228 67.7177 944.975 70.1563 943.283 71.3402C942.377 71.9743 941.329 72.4936 940.955 72.4936C940.58 72.4936 940.274 72.7048 940.274 72.9632C940.274 73.2216 939.366 73.8328 938.256 74.3216C936.015 75.3086 928.963 79.3292 928.477 79.897C928.306 80.0963 927.328 80.6783 926.304 81.1895C925.279 81.7007 924.301 82.2598 924.13 82.4318C923.96 82.6039 922.982 83.161 921.957 83.6697C919.246 85.017 912.696 88.7904 912.333 89.214C912.162 89.4134 911.184 89.9954 910.16 90.5066C909.135 91.0178 908.157 91.5768 907.987 91.7489C907.816 91.9209 906.838 92.4781 905.813 92.9868C903.103 94.334 896.552 98.1075 896.189 98.5311C896.019 98.7305 895.041 99.3125 894.016 99.8237C892.992 100.335 892.014 100.894 891.843 101.066C891.672 101.238 890.694 101.789 889.67 102.291C888.645 102.792 886.335 104.119 884.535 105.24C882.735 106.361 881.012 107.277 880.706 107.277C880.399 107.277 880.056 107.487 879.942 107.743C879.828 107.999 878.617 108.795 877.251 109.512C872.855 111.818 868.602 114.257 866.911 115.441C866.004 116.075 864.98 116.594 864.634 116.594C864.288 116.594 863.912 116.804 863.798 117.06C863.684 117.316 862.474 118.112 861.108 118.829C856.711 121.136 852.458 123.574 850.767 124.758C849.86 125.392 848.812 125.911 848.438 125.911C848.064 125.911 847.758 126.123 847.758 126.381C847.758 126.639 846.85 127.251 845.74 127.739C843.499 128.726 836.447 132.747 835.961 133.315C835.79 133.514 834.812 134.096 833.787 134.607C832.763 135.119 831.785 135.678 831.614 135.85C831.443 136.022 830.465 136.579 829.441 137.088C826.73 138.435 820.179 142.208 819.817 142.632C819.646 142.831 818.668 143.413 817.644 143.924C816.619 144.436 815.641 144.995 815.47 145.167C815.3 145.339 814.322 145.896 813.297 146.405C810.592 147.749 804.036 151.525 803.673 151.948C803.502 152.147 802.245 152.896 800.879 153.613C796.483 155.919 792.229 158.358 790.538 159.542C789.632 160.176 788.607 160.695 788.261 160.695C787.915 160.695 787.54 160.904 787.425 161.161C787.312 161.418 786.101 162.213 784.735 162.93C780.339 165.236 776.086 167.675 774.394 168.859C773.488 169.493 772.44 170.012 772.066 170.012C771.691 170.012 771.385 170.223 771.385 170.482C771.385 170.74 770.477 171.351 769.367 171.84C767.127 172.827 760.074 176.848 759.588 177.416C759.417 177.615 758.439 178.197 757.415 178.708C756.39 179.219 755.412 179.778 755.242 179.95C755.071 180.122 754.093 180.68 753.068 181.188C750.357 182.536 743.807 186.309 743.444 186.733C743.273 186.932 742.295 187.514 741.271 188.025C740.246 188.536 739.269 189.095 739.098 189.267C738.927 189.44 737.949 189.997 736.925 190.505C734.22 191.85 727.664 195.626 727.3 196.049C727.13 196.248 725.983 196.97 724.752 197.653C720.131 200.218 717.312 202.411 712.749 206.99C710.166 209.583 708.047 211.897 708.041 212.132C708.035 212.368 707.338 213.217 706.491 214.02C705.645 214.824 705.095 215.713 705.27 215.996C705.445 216.28 705.335 216.668 705.025 216.86C704.099 217.433 699.476 227.311 698.289 231.254C697.243 234.731 697.179 245.282 697.055 434.927C696.925 633.945 696.93 634.96 698.184 640.213C701.333 653.417 709.331 664.777 720.916 672.499C724.405 674.826 740.967 684.575 759.452 695.184C760.047 695.525 763.7 697.622 767.57 699.842C771.44 702.063 775.488 704.395 776.566 705.026C778.931 706.408 818.122 729.086 819.671 729.968C822.259 731.44 835.006 738.763 836.795 739.804C840.258 741.82 878.767 764.108 879.899 764.751C882.706 766.347 895.278 773.573 897.024 774.593C899.617 776.109 954.643 807.904 957.213 809.372C958.312 810 971.855 817.826 987.306 826.764C1002.76 835.702 1015.89 843.294 1016.5 843.636C1021.17 846.282 1031.42 852.187 1032.17 852.668C1039.42 857.288 1060.28 868.565 1064.2 869.982C1074.33 873.648 1086.42 873.992 1097.07 870.917C1102.09 869.469 1106.41 867.479 1113.82 863.214C1115.19 862.427 1117.56 861.087 1119.1 860.236C1120.63 859.384 1122.17 858.475 1122.51 858.216C1123.17 857.714 1125.96 856.119 1131.52 853.068C1133.39 852.035 1136 850.524 1137.3 849.709C1139.71 848.199 1142.06 846.843 1147.04 844.086C1148.58 843.234 1150.11 842.326 1150.45 842.066C1150.8 841.806 1152.12 841.005 1153.4 840.286C1154.68 839.566 1156.78 838.378 1158.06 837.647C1159.34 836.916 1161.65 835.62 1163.18 834.769C1164.72 833.917 1166.26 833.009 1166.6 832.749C1167.26 832.247 1170.05 830.653 1175.6 827.601C1177.48 826.569 1180.08 825.057 1181.38 824.242C1183.8 822.732 1186.15 821.376 1191.12 818.619C1192.66 817.768 1194.2 816.859 1194.54 816.599C1194.88 816.34 1196.21 815.539 1197.49 814.819C1198.77 814.099 1200.86 812.912 1202.15 812.181C1203.43 811.449 1205.73 810.154 1207.27 809.302C1208.8 808.451 1210.34 807.542 1210.68 807.282C1211.34 806.78 1214.13 805.186 1219.69 802.134C1221.56 801.102 1224.17 799.591 1225.47 798.776C1227.88 797.265 1230.23 795.909 1235.21 793.153C1236.75 792.301 1238.28 791.392 1238.62 791.133C1239.28 790.631 1242.07 789.036 1247.63 785.985C1249.51 784.952 1252.11 783.441 1253.41 782.626C1256.03 780.986 1258.65 779.482 1263.77 776.668C1265.65 775.635 1268.25 774.124 1269.55 773.309C1271.97 771.799 1274.32 770.443 1279.29 767.686C1280.83 766.834 1282.37 765.926 1282.71 765.666C1283.37 765.164 1286.16 763.57 1291.71 760.518C1293.59 759.486 1296.19 757.975 1297.5 757.16C1300.12 755.52 1302.73 754.015 1307.86 751.201C1309.73 750.169 1312.34 748.658 1313.64 747.843C1316.05 746.332 1318.4 744.976 1323.38 742.219C1324.92 741.368 1326.45 740.459 1326.79 740.2C1327.45 739.698 1330.24 738.103 1335.8 735.052C1337.68 734.019 1340.28 732.508 1341.58 731.693C1344.2 730.053 1346.82 728.548 1351.94 725.735C1353.82 724.702 1356.42 723.191 1357.72 722.376C1360.14 720.865 1362.49 719.509 1367.46 716.753C1369 715.901 1370.54 714.993 1370.88 714.733C1371.57 714.207 1374.74 712.404 1379.88 709.602C1381.76 708.579 1383.74 707.363 1384.28 706.898C1384.82 706.434 1385.49 706.054 1385.77 706.054C1386.72 706.054 1393.19 700.873 1396.99 697.076C1402.77 691.289 1406.47 685.238 1409.73 676.239C1411.04 672.627 1411.2 671.154 1411.19 662.264C1411.19 653.832 1410.97 651.581 1409.79 647.418C1409.02 644.72 1408.06 641.924 1407.66 641.207C1407.26 640.49 1407 639.693 1407.07 639.437C1407.14 639.181 1406.92 638.971 1406.58 638.971C1406.24 638.971 1405.96 638.525 1405.96 637.98C1405.96 637.435 1405.41 636.215 1404.74 635.27C1404.06 634.325 1403.65 633.418 1403.81 633.255C1403.97 633.092 1403.55 632.451 1402.86 631.832C1402.17 631.211 1401.61 630.437 1401.61 630.112C1401.61 629.108 1395.53 621.806 1392.12 618.719C1384.85 612.14 1375.14 607.119 1366.34 605.398C1360.64 604.283 1348.48 604.954 1342.94 606.69C1338.39 608.113 1330.81 611.361 1330.23 612.128C1330.05 612.374 1329.06 612.985 1328.04 613.487C1327.01 613.988 1324.7 615.315 1322.9 616.436C1321.1 617.557 1319.38 618.473 1319.07 618.473C1318.77 618.473 1318.42 618.683 1318.31 618.939C1318.19 619.195 1316.98 619.991 1315.62 620.708C1311.22 623.015 1306.97 625.453 1305.28 626.637C1304.37 627.271 1303.32 627.79 1302.95 627.79C1302.57 627.79 1302.27 628.002 1302.27 628.26C1302.27 628.518 1301.36 629.13 1300.25 629.618C1298.01 630.605 1290.96 634.626 1290.47 635.194C1290.3 635.393 1289.32 635.975 1288.3 636.486C1287.27 636.998 1286.29 637.557 1286.12 637.729C1285.95 637.901 1284.98 638.458 1283.95 638.967C1281.25 640.311 1274.69 644.087 1274.33 644.51C1274.16 644.709 1272.9 645.458 1271.53 646.175C1267.14 648.481 1262.88 650.92 1261.19 652.104C1260.29 652.738 1259.26 653.257 1258.91 653.257C1258.57 653.257 1258.19 653.466 1258.08 653.723C1257.97 653.979 1256.75 654.775 1255.39 655.492C1250.99 657.798 1246.74 660.237 1245.05 661.421C1244.14 662.055 1243.09 662.574 1242.72 662.574C1242.35 662.574 1242.04 662.785 1242.04 663.044C1242.04 663.302 1241.13 663.913 1240.02 664.402C1237.78 665.389 1230.73 669.41 1230.24 669.977C1230.07 670.177 1229.09 670.759 1228.07 671.27C1227.04 671.781 1226.07 672.34 1225.9 672.511C1225.72 672.683 1223.77 673.766 1221.55 674.919C1219.33 676.073 1217.07 677.4 1216.53 677.87C1215.99 678.339 1215.25 678.724 1214.88 678.724C1214.51 678.724 1214.11 678.934 1213.99 679.19C1213.88 679.445 1212.67 680.242 1211.3 680.959C1206.91 683.265 1202.65 685.703 1200.96 686.887C1200.06 687.521 1199.01 688.041 1198.63 688.041C1198.26 688.041 1197.95 688.252 1197.95 688.51C1197.95 688.769 1197.05 689.38 1195.94 689.869C1193.7 690.856 1186.64 694.876 1186.16 695.444C1185.99 695.643 1185.01 696.225 1183.98 696.737C1182.96 697.248 1181.98 697.807 1181.81 697.979C1181.64 698.151 1180.66 698.708 1179.64 699.217C1176.93 700.564 1170.38 704.337 1170.01 704.761C1169.84 704.96 1168.86 705.543 1167.84 706.054C1166.82 706.565 1165.84 707.124 1165.67 707.296C1165.5 707.468 1164.52 708.019 1163.49 708.521C1162.47 709.022 1160.16 710.349 1158.36 711.47C1156.56 712.591 1154.84 713.507 1154.53 713.507C1154.22 713.507 1153.88 713.717 1153.77 713.973C1153.65 714.229 1152.44 715.025 1151.07 715.742C1146.68 718.049 1142.43 720.487 1140.73 721.671C1139.83 722.305 1138.78 722.824 1138.41 722.824C1138.03 722.824 1137.73 723.036 1137.73 723.294C1137.73 723.552 1136.82 724.164 1135.71 724.652C1133.47 725.639 1126.41 729.66 1125.93 730.228C1125.76 730.427 1124.78 731.009 1123.75 731.52C1122.73 732.032 1121.75 732.591 1121.58 732.761C1121.41 732.933 1119.45 734.017 1117.23 735.17C1115.02 736.323 1112.76 737.65 1112.22 738.12C1111.68 738.59 1110.93 738.974 1110.56 738.974C1110.19 738.974 1109.79 739.204 1109.68 739.486C1109.4 740.186 1099.39 744.417 1095.36 745.538C1090.64 746.853 1078.41 747.384 1073.65 746.48C1064.04 744.66 1059.17 742.457 1040.03 731.306C1037.22 729.667 998.231 707.109 996.923 706.364C994.3 704.872 981.58 697.564 979.799 696.527C976.37 694.53 921.698 662.911 920.555 662.264C918.53 661.116 905.407 653.58 903.427 652.427C897.02 648.696 844.791 618.53 842.619 617.306C835.792 613.459 828.647 609.112 827.003 607.805C824.477 605.798 818.518 599.765 817.023 597.7C816.34 596.757 815.238 595.273 814.576 594.402C813.533 593.033 810.094 586.441 809.473 584.621C809.356 584.28 808.492 581.345 807.554 578.099L805.846 572.199V436.48V300.762L807.239 295.295C809.867 284.983 814.893 276.191 822.078 269.343C825.328 266.246 831.74 261.319 832.521 261.319C832.686 261.319 834.994 260.026 837.65 258.444C843.244 255.115 845.743 253.669 849.621 251.521C851.157 250.669 852.694 249.761 853.036 249.501C853.377 249.241 854.705 248.44 855.985 247.721C857.265 247.001 859.361 245.813 860.642 245.082C861.923 244.351 864.228 243.055 865.764 242.204C867.301 241.352 868.838 240.444 869.179 240.184C869.84 239.682 872.627 238.088 878.183 235.036C880.061 234.004 882.664 232.492 883.967 231.677C886.589 230.038 889.205 228.533 894.327 225.719C896.205 224.687 898.808 223.175 900.11 222.36C902.525 220.85 904.874 219.494 909.849 216.737C911.386 215.886 912.923 214.977 913.264 214.717C913.925 214.215 916.712 212.621 922.268 209.569C924.146 208.537 926.749 207.026 928.052 206.211C930.674 204.571 933.29 203.066 938.411 200.252C940.29 199.22 942.893 197.709 944.195 196.894C946.61 195.383 948.959 194.027 953.934 191.271C955.471 190.419 957.008 189.51 957.349 189.251C957.691 188.991 959.018 188.19 960.299 187.47C961.58 186.751 963.675 185.563 964.956 184.832C966.237 184.1 968.541 182.805 970.078 181.954C971.615 181.102 973.152 180.193 973.493 179.934C974.154 179.432 976.941 177.837 982.496 174.786C984.375 173.753 986.978 172.242 988.28 171.427C991 169.726 993.792 168.125 998.64 165.486C1000.52 164.463 1002.47 163.316 1002.99 162.937C1003.5 162.558 1004.58 161.872 1005.4 161.413C1006.22 160.954 1007.89 160.006 1009.13 159.307C1010.36 158.607 1012.63 157.338 1014.16 156.487C1015.7 155.635 1017.24 154.727 1017.58 154.467C1018.24 153.965 1021.03 152.371 1026.58 149.319C1028.46 148.287 1031.06 146.775 1032.37 145.96C1035.01 144.303 1037.69 142.768 1042.73 140.006C1044.6 138.977 1047.61 137.201 1049.41 136.06C1051.21 134.92 1052.84 133.986 1053.04 133.986C1053.24 133.986 1054.14 133.458 1055.05 132.812C1059.22 129.841 1070.54 126.352 1078.44 125.605C1086.19 124.872 1097.98 127.126 1105.11 130.702C1107.64 131.967 1115.18 136.204 1121.47 139.887C1122.05 140.229 1125.69 142.325 1129.56 144.546C1133.43 146.766 1137.48 149.099 1138.56 149.73C1140.39 150.803 1162.08 163.352 1166.47 165.879C1167.57 166.509 1177.48 172.239 1188.51 178.612C1199.53 184.985 1209.45 190.715 1210.55 191.345C1211.65 191.976 1221.57 197.706 1232.59 204.078C1243.62 210.451 1253.54 216.181 1254.63 216.812C1260.68 220.285 1296.51 241.004 1297.3 241.485C1303.89 245.507 1335.05 263.123 1337.48 264.195C1354.26 271.628 1376.83 268.449 1391.73 256.554C1401.8 248.52 1410.61 235.355 1413.76 223.625C1415.15 218.429 1415.43 207.93 1414.31 202.622C1413.19 197.291 1411.49 192.373 1410.77 192.373C1410.47 192.373 1410.41 192.094 1410.62 191.752C1410.83 191.41 1410.7 191.131 1410.34 191.131C1409.98 191.131 1409.76 190.917 1409.84 190.654C1410.01 190.125 1406.35 184.201 1404.41 181.874C1399.31 175.749 1392.46 170.508 1380.66 163.679C1375.75 160.842 1370.85 158.006 1369.76 157.375C1368.67 156.745 1358.76 151.015 1347.75 144.642C1336.73 138.269 1327.23 132.775 1326.63 132.433C1323.57 130.692 1311.21 123.589 1309.51 122.591C1307.43 121.38 1268.87 99.0814 1265.46 97.1248C1264.36 96.4944 1254.45 90.7644 1243.43 84.3915C1232.42 78.0186 1222.92 72.5247 1222.31 72.183C1219.19 70.4029 1206.89 63.3331 1205.19 62.3405C1203.09 61.1131 1180.04 47.7543 1178.22 46.7164C1171.91 43.1045 1162.67 37.7888 1161.11 36.8745C1160.03 36.244 1150.21 30.5625 1139.28 24.2493C1128.35 17.936 1118.99 12.5141 1118.48 12.201C1114.35 9.67737 1106.13 5.2381 1103.16 3.92564C1096.7 1.06903 1092.64 0.288256 1083.08 0.0640256C1075.21 -0.120452 1073.38 0.0354534 1068.48 1.31313ZM1043.97 203.856C1039.78 204.833 1036.52 206.021 1036.52 206.569C1036.52 206.793 1035.61 207.372 1034.5 207.853C1033.39 208.335 1029.99 210.22 1026.95 212.042C1023.91 213.864 1021.19 215.355 1020.9 215.355C1020.61 215.355 1020.37 215.566 1020.37 215.825C1020.37 216.083 1019.46 216.694 1018.35 217.183C1016.11 218.17 1009.06 222.191 1008.57 222.759C1008.4 222.958 1007.43 223.54 1006.4 224.051C1005.38 224.562 1004.4 225.121 1004.23 225.292C1004.06 225.464 1002.1 226.547 999.882 227.7C997.662 228.854 995.405 230.181 994.866 230.651C994.327 231.12 993.582 231.505 993.21 231.505C992.838 231.505 992.442 231.714 992.327 231.971C992.214 232.227 991.003 233.023 989.637 233.74C985.241 236.046 980.988 238.485 979.296 239.668C978.39 240.303 977.342 240.822 976.968 240.822C976.593 240.822 976.287 241.033 976.287 241.291C976.287 241.55 975.38 242.161 974.269 242.65C972.028 243.637 964.976 247.657 964.49 248.225C964.319 248.425 963.341 249.007 962.317 249.518C961.292 250.029 960.314 250.588 960.143 250.76C959.973 250.932 958.995 251.489 957.97 251.998C955.259 253.345 948.709 257.119 948.346 257.542C948.175 257.742 947.197 258.324 946.173 258.835C945.148 259.346 944.17 259.905 944 260.077C943.829 260.249 942.851 260.8 941.827 261.302C940.802 261.803 938.492 263.131 936.692 264.251C934.892 265.372 933.169 266.288 932.863 266.288C932.556 266.288 932.213 266.498 932.099 266.754C931.985 267.011 930.774 267.807 929.408 268.523C925.012 270.83 920.759 273.268 919.067 274.452C918.161 275.086 917.136 275.606 916.791 275.606C916.445 275.606 916.069 275.815 915.955 276.071C915.841 276.328 914.211 277.332 912.333 278.303C908.451 280.308 904.051 283.143 903.744 283.836C903.63 284.092 903.28 284.301 902.966 284.301C902.187 284.301 898.177 288.802 895.753 292.396C892.674 296.963 891.231 302.012 891.194 308.346C891.119 321.21 897.284 331.046 909.105 336.927C913.287 339.008 914.159 339.203 920.357 339.458C926.005 339.691 927.762 339.523 931.386 338.401C933.757 337.667 936.238 336.688 936.899 336.225C938.177 335.332 940.933 333.74 946.483 330.691C948.362 329.659 950.965 328.148 952.267 327.333C954.682 325.822 957.031 324.466 962.006 321.709C963.543 320.858 965.08 319.949 965.421 319.69C965.763 319.43 967.09 318.629 968.371 317.909C969.652 317.189 971.747 316.002 973.027 315.271C974.308 314.539 976.613 313.244 978.15 312.392C979.687 311.541 981.224 310.632 981.565 310.372C982.226 309.871 985.013 308.276 990.568 305.224C992.447 304.192 995.049 302.681 996.352 301.866C998.974 300.226 1001.59 298.721 1006.71 295.907C1008.59 294.875 1011.19 293.364 1012.5 292.549C1014.91 291.038 1017.26 289.682 1022.24 286.926C1023.77 286.074 1025.31 285.165 1025.65 284.906C1025.99 284.646 1027.32 283.845 1028.6 283.126C1029.88 282.406 1031.98 281.218 1033.26 280.487C1034.54 279.755 1036.84 278.46 1038.38 277.609C1039.92 276.757 1041.45 275.848 1041.79 275.589C1042.45 275.087 1045.24 273.492 1050.8 270.441C1052.68 269.408 1055.28 267.897 1056.58 267.082C1058.84 265.669 1062.09 263.775 1064.77 262.308C1068.01 260.534 1072.01 257.355 1074.35 254.702C1077.48 251.143 1081.02 244.097 1081.8 239.89C1082.49 236.125 1082.17 228.707 1081.2 226.194C1080.81 225.187 1080.39 223.861 1080.27 223.249C1079.71 220.508 1076.91 216.157 1073.42 212.633C1065.41 204.546 1054.7 201.353 1043.97 203.856ZM913.739 534.919C908.57 536.371 904.696 538.637 900.986 542.378C893.807 549.618 891.105 555.771 891.076 564.944C891.048 573.97 893.801 580.773 899.873 586.688C903.178 589.907 907.955 592.884 931.445 606.361C936.753 609.407 946.778 615.181 947.62 615.678C948.198 616.02 951.838 618.116 955.708 620.337C959.577 622.557 963.626 624.89 964.703 625.52C965.781 626.15 979.315 633.976 994.779 642.912C1010.24 651.847 1023.79 659.678 1024.89 660.314C1034.1 665.639 1040.5 668.87 1043.6 669.75C1048.4 671.116 1056.53 670.728 1061.62 668.889C1075.21 663.979 1083.85 649.701 1081.86 635.42C1081.51 632.862 1081.02 630.448 1080.77 630.056C1080.53 629.664 1080.24 628.784 1080.14 628.101C1080.03 627.418 1079.67 626.765 1079.34 626.651C1079 626.536 1078.89 626.187 1079.08 625.874C1079.27 625.562 1079.14 625.306 1078.77 625.306C1078.41 625.306 1078.18 625.097 1078.26 624.84C1078.51 624.062 1074.69 618.927 1072.05 616.499C1070.69 615.243 1066.03 612.169 1061.7 609.667C1050.73 603.338 1052.82 604.546 1021.75 586.586C1006.29 577.648 992.738 569.82 991.638 569.189C986.666 566.342 949.799 545.024 948.967 544.516C944.983 542.082 935.347 536.804 932.958 535.748C929.087 534.038 918.499 533.581 913.739 534.919Z" fill="white"/>
<path d="M460.801 1320.6L424.201 1327.2V948H534.001V1398H391.201L117.001 1018.8L153.601 1012.2V1398H43.8008V948H190.801L460.801 1320.6ZM1115.33 1212C1110.93 1250.8 1097.53 1285 1075.13 1314.6C1052.73 1343.8 1023.13 1366.6 986.335 1383C949.535 1399.4 907.535 1407.6 860.335 1407.6C808.735 1407.6 763.335 1397.8 724.135 1378.2C685.335 1358.6 655.135 1331.2 633.535 1296C611.935 1260.8 601.135 1219.8 601.135 1173C601.135 1126.2 611.935 1085.2 633.535 1050C655.135 1014.8 685.335 987.4 724.135 967.8C763.335 948.2 808.735 938.4 860.335 938.4C907.535 938.4 949.535 946.6 986.335 963C1023.13 979.4 1052.73 1002.2 1075.13 1031.4C1097.53 1060.6 1110.93 1094.8 1115.33 1134H1001.33C997.335 1113.6 989.135 1096.2 976.735 1081.8C964.735 1067.4 948.735 1056.4 928.735 1048.8C909.135 1040.8 886.335 1036.8 860.335 1036.8C830.335 1036.8 804.535 1042.4 782.935 1053.6C761.335 1064.4 744.735 1080 733.135 1100.4C721.535 1120.8 715.735 1145 715.735 1173C715.735 1201 721.535 1225.2 733.135 1245.6C744.735 1266 761.335 1281.8 782.935 1293C804.535 1303.8 830.335 1309.2 860.335 1309.2C886.335 1309.2 909.135 1305.4 928.735 1297.8C948.735 1290.2 964.735 1279.2 976.735 1264.8C989.135 1250.4 997.335 1232.8 1001.33 1212H1115.33ZM1169.79 936H1280.79V1398H1169.79V936ZM1409.19 1046.4C1441.59 1046.4 1469.19 1053 1491.99 1066.2C1515.19 1079.4 1532.79 1098 1544.79 1122C1557.19 1145.6 1563.39 1174 1563.39 1207.2V1398H1451.79V1224C1451.79 1195.6 1444.79 1174.2 1430.79 1159.8C1417.19 1145 1397.19 1137.6 1370.79 1137.6C1352.39 1137.6 1336.39 1141.6 1322.79 1149.6C1309.59 1157.2 1299.19 1168.2 1291.59 1182.6C1284.39 1196.6 1280.79 1213.4 1280.79 1233L1245.39 1214.4C1250.19 1178 1260.19 1147.4 1275.39 1122.6C1290.59 1097.8 1309.59 1079 1332.39 1066.2C1355.59 1053 1381.19 1046.4 1409.19 1046.4ZM1929.28 1177.2L1938.88 1155C1974.08 1155.8 2002.88 1161.2 2025.28 1171.2C2048.08 1181.2 2064.88 1195 2075.68 1212.6C2086.88 1229.8 2092.48 1249.8 2092.48 1272.6C2092.48 1296.6 2086.88 1318.2 2075.68 1337.4C2064.48 1356.2 2047.68 1371 2025.28 1381.8C2003.28 1392.6 1975.68 1398 1942.48 1398H1618.48L1653.28 1167L1618.48 948H1931.08C1972.68 948 2004.88 957.8 2027.68 977.4C2050.88 996.6 2062.48 1023.2 2062.48 1057.2C2062.48 1076 2058.08 1094 2049.28 1111.2C2040.48 1128.4 2026.48 1143 2007.28 1155C1988.08 1166.6 1962.08 1174 1929.28 1177.2ZM1730.08 1370.4L1686.88 1317H1915.48C1935.08 1317 1950.28 1312.4 1961.08 1303.2C1972.28 1293.6 1977.88 1280.2 1977.88 1263C1977.88 1245.8 1971.68 1232.2 1959.28 1222.2C1947.28 1211.8 1929.28 1206.6 1905.28 1206.6H1718.08V1127.4H1890.88C1907.28 1127.4 1920.88 1122.8 1931.68 1113.6C1942.48 1104 1947.88 1091 1947.88 1074.6C1947.88 1061.4 1943.28 1050.6 1934.08 1042.2C1924.88 1033.4 1911.48 1029 1893.88 1029H1687.48L1730.08 975.6L1761.88 1167L1730.08 1370.4Z" fill="white"/>
<path d="M1330.19 1466C1343.07 1466 1354.41 1467.95 1364.2 1471.84C1374.13 1475.73 1382.18 1481.03 1388.35 1487.74C1394.53 1494.31 1398.28 1501.82 1399.62 1510.28H1364.2C1362.19 1505.72 1358.63 1501.96 1353.54 1499.01C1348.44 1495.92 1340.99 1494.38 1331.2 1494.38C1320.73 1494.38 1312.08 1496.32 1305.23 1500.21C1298.52 1504.11 1293.56 1509.67 1290.34 1516.92C1287.12 1524.03 1285.51 1532.82 1285.51 1543.28C1285.51 1554.42 1287.25 1563.88 1290.74 1571.66C1294.37 1579.31 1299.67 1585.08 1306.64 1588.97C1313.62 1592.86 1322.14 1594.81 1332.2 1594.81C1339.31 1594.81 1345.28 1593.87 1350.11 1591.99C1355.08 1589.98 1358.77 1587.23 1361.18 1583.74C1363.73 1580.25 1365.01 1576.36 1365.01 1572.06C1365.01 1567.77 1363.8 1564.01 1361.39 1560.79C1359.1 1557.57 1355.68 1555.09 1351.12 1553.35C1346.56 1551.47 1340.72 1550.53 1333.61 1550.53C1324.22 1550.53 1315.36 1552.68 1307.04 1556.97C1298.73 1561.13 1291.35 1567.03 1284.91 1574.68L1271.42 1565.42C1275.72 1557.1 1281.22 1549.72 1287.93 1543.28C1294.63 1536.71 1302.55 1531.54 1311.67 1527.79C1320.8 1523.9 1331.13 1521.95 1342.67 1521.95C1355.01 1521.95 1365.68 1524.03 1374.67 1528.19C1383.79 1532.21 1390.77 1537.92 1395.6 1545.3C1400.56 1552.68 1403.05 1561.2 1403.05 1570.86C1403.05 1581.05 1400.23 1590.11 1394.59 1598.03C1388.96 1605.94 1380.84 1612.18 1370.24 1616.74C1359.64 1621.17 1346.83 1623.39 1331.8 1623.39C1313.55 1623.39 1298.32 1620.03 1286.11 1613.32C1274.04 1606.61 1264.91 1597.36 1258.74 1585.55C1252.7 1573.61 1249.69 1559.99 1249.69 1544.69C1249.69 1529.4 1252.7 1515.85 1258.74 1504.04C1264.78 1492.23 1273.77 1482.97 1285.71 1476.26C1297.79 1469.42 1312.61 1466 1330.19 1466Z" fill="white"/>
<path d="M1082.14 1522.96C1082.95 1511.28 1086.77 1501.22 1093.61 1492.77C1100.46 1484.18 1109.51 1477.61 1120.78 1473.04C1132.19 1468.35 1145.07 1466 1159.43 1466C1173.11 1466 1185.05 1468.08 1195.25 1472.24C1205.45 1476.4 1213.43 1482.23 1219.2 1489.75C1224.97 1497.26 1227.86 1505.92 1227.86 1515.71C1227.86 1523.36 1225.84 1530.47 1221.82 1537.04C1217.79 1543.49 1211.42 1549.93 1202.7 1556.37C1193.98 1562.81 1182.5 1569.65 1168.28 1576.89L1124.61 1599.84L1122.6 1589.98H1232.08V1620.17H1084.76V1593.6L1149.56 1556.37C1159.9 1550.46 1167.95 1545.43 1173.72 1541.27C1179.62 1536.98 1183.78 1533.02 1186.19 1529.4C1188.61 1525.77 1189.82 1521.88 1189.82 1517.72C1189.82 1513.43 1188.61 1509.61 1186.19 1506.25C1183.91 1502.9 1180.42 1500.28 1175.73 1498.4C1171.03 1496.52 1165.13 1495.59 1158.02 1495.59C1149.56 1495.59 1142.59 1496.86 1137.09 1499.41C1131.59 1501.82 1127.49 1505.11 1124.81 1509.27C1122.13 1513.43 1120.52 1517.99 1119.98 1522.96H1082.14Z" fill="white"/>
<path d="M982.746 1623.39C965.706 1623.39 950.947 1620.1 938.468 1613.52C925.99 1606.95 916.33 1597.83 909.487 1586.15C902.644 1574.34 899.223 1560.53 899.223 1544.69C899.223 1528.99 902.644 1515.24 909.487 1503.43C916.33 1491.63 925.99 1482.44 938.468 1475.86C950.947 1469.29 965.706 1466 982.746 1466C999.652 1466 1014.34 1469.29 1026.82 1475.86C1039.3 1482.44 1048.96 1491.63 1055.8 1503.43C1062.65 1515.11 1066.07 1528.86 1066.07 1544.69C1066.07 1560.39 1062.65 1574.14 1055.8 1585.95C1048.96 1597.76 1039.3 1606.95 1026.82 1613.52C1014.34 1620.1 999.652 1623.39 982.746 1623.39ZM982.746 1592.39C997.102 1592.39 1008.24 1588.23 1016.15 1579.91C1024.21 1571.59 1028.23 1559.85 1028.23 1544.69C1028.23 1529.53 1024.21 1517.79 1016.15 1509.47C1008.24 1501.15 997.102 1496.99 982.746 1496.99C968.389 1496.99 957.186 1501.15 949.135 1509.47C941.085 1517.79 937.06 1529.53 937.06 1544.69C937.06 1559.85 941.085 1571.59 949.135 1579.91C957.186 1588.23 968.389 1592.39 982.746 1592.39Z" fill="white"/>
<path d="M732 1522.96C732.805 1511.28 736.629 1501.22 743.472 1492.77C750.315 1484.18 759.371 1477.61 770.642 1473.04C782.047 1468.35 794.927 1466 809.284 1466C822.97 1466 834.911 1468.08 845.108 1472.24C855.305 1476.4 863.289 1482.23 869.058 1489.75C874.828 1497.26 877.712 1505.92 877.712 1515.71C877.712 1523.36 875.7 1530.47 871.675 1537.04C867.649 1543.49 861.276 1549.93 852.555 1556.37C843.834 1562.81 832.362 1569.65 818.139 1576.89L774.466 1599.84L772.453 1589.98H881.939V1620.17H734.616V1593.6L799.422 1556.37C809.754 1550.46 817.804 1545.43 823.573 1541.27C829.477 1536.98 833.636 1533.02 836.052 1529.4C838.467 1525.77 839.674 1521.88 839.674 1517.72C839.674 1513.43 838.467 1509.61 836.052 1506.25C833.771 1502.9 830.282 1500.28 825.586 1498.4C820.89 1496.52 814.986 1495.59 807.875 1495.59C799.422 1495.59 792.445 1496.86 786.944 1499.41C781.443 1501.82 777.351 1505.11 774.667 1509.27C771.984 1513.43 770.374 1517.99 769.837 1522.96H732Z" fill="white"/>
</g>
<defs>
<clipPath id="clip0_795_1816">
<rect width="2113" height="1623" fill="white"/>
</clipPath>
</defs>
</svg>
