<svg width="2705" height="1406" viewBox="0 0 2705 1406" fill="none" xmlns="http://www.w3.org/2000/svg">
<path fill-rule="evenodd" clip-rule="evenodd" d="M598.272 2.11408C589.389 4.42808 570.169 13.3421 566.8 16.7111C566.525 16.9861 564.5 18.1551 562.3 19.3091C555.22 23.0221 548.37 26.9481 545.646 28.8541C544.186 29.8751 542.498 30.7111 541.896 30.7111C541.293 30.7111 540.8 31.0511 540.8 31.4671C540.8 31.8831 539.338 32.8581 537.55 33.6331C535.762 34.4091 530.295 37.4441 525.4 40.3771C520.505 43.3111 516.117 45.7111 515.65 45.7111C515.182 45.7111 514.8 46.0511 514.8 46.4671C514.8 46.8831 513.338 47.8671 511.55 48.6541C507.941 50.2431 496.583 56.7161 495.8 57.6301C495.525 57.9511 493.95 58.8881 492.3 59.7111C490.65 60.5341 489.075 61.4341 488.8 61.7111C488.525 61.9881 486.95 62.8851 485.3 63.7041C480.934 65.8731 470.384 71.9481 469.8 72.6301C469.525 72.9511 467.95 73.8881 466.3 74.7111C464.65 75.5341 463.075 76.4341 462.8 76.7091C462.525 76.9851 459.375 78.7301 455.8 80.5861C452.225 82.4431 448.59 84.5801 447.721 85.3361C446.853 86.0921 445.653 86.7111 445.055 86.7111C444.456 86.7111 443.817 87.0491 443.633 87.4611C443.45 87.8731 441.5 89.1551 439.3 90.3091C432.22 94.0221 425.37 97.9481 422.646 99.8541C421.186 100.875 419.536 101.711 418.979 101.711C418.422 101.711 417.817 102.049 417.633 102.461C417.45 102.873 415.5 104.155 413.3 105.309C406.22 109.022 399.37 112.948 396.646 114.854C395.186 115.875 393.498 116.711 392.896 116.711C392.293 116.711 391.8 117.051 391.8 117.467C391.8 117.883 390.338 118.867 388.55 119.654C384.941 121.243 373.583 127.716 372.8 128.63C372.525 128.951 370.95 129.888 369.3 130.711C367.65 131.534 366.075 132.434 365.8 132.711C365.525 132.988 363.95 133.885 362.3 134.704C357.934 136.873 347.384 142.948 346.8 143.63C346.525 143.951 344.95 144.888 343.3 145.711C341.65 146.534 340.075 147.434 339.8 147.711C339.525 147.988 337.95 148.885 336.3 149.704C331.934 151.873 321.384 157.948 320.8 158.63C320.525 158.951 318.95 159.888 317.3 160.711C315.65 161.534 314.075 162.434 313.8 162.711C313.525 162.988 311.95 163.875 310.3 164.683C308.65 165.49 304.929 167.627 302.031 169.431C299.132 171.235 296.357 172.711 295.864 172.711C295.37 172.711 294.817 173.048 294.633 173.461C294.45 173.873 292.5 175.155 290.3 176.309C283.22 180.022 276.37 183.948 273.646 185.854C272.186 186.875 270.536 187.711 269.979 187.711C269.422 187.711 268.817 188.048 268.633 188.461C268.45 188.873 266.5 190.155 264.3 191.309C257.22 195.022 250.37 198.948 247.646 200.854C246.186 201.875 244.498 202.711 243.896 202.711C243.293 202.711 242.8 203.051 242.8 203.467C242.8 203.883 241.337 204.867 239.55 205.654C235.941 207.243 224.583 213.716 223.8 214.63C223.525 214.951 221.95 215.888 220.3 216.711C218.65 217.534 217.075 218.434 216.8 218.711C216.525 218.988 214.95 219.885 213.3 220.704C208.934 222.873 198.384 228.948 197.8 229.63C197.525 229.951 195.95 230.888 194.3 231.711C192.65 232.534 191.075 233.434 190.8 233.711C190.525 233.988 188.95 234.885 187.3 235.704C182.944 237.868 172.385 243.948 171.8 244.629C171.525 244.949 169.5 246.155 167.3 247.309C160.22 251.022 153.37 254.948 150.646 256.854C149.186 257.875 147.536 258.711 146.979 258.711C146.422 258.711 145.817 259.048 145.633 259.461C145.45 259.874 143.5 261.155 141.3 262.309C134.22 266.022 127.37 269.948 124.646 271.854C123.186 272.875 121.498 273.711 120.896 273.711C120.293 273.711 119.8 274.051 119.8 274.467C119.8 274.883 118.337 275.867 116.55 276.654C112.941 278.243 101.583 284.716 100.8 285.63C100.525 285.951 98.9496 286.888 97.2996 287.711C95.6496 288.534 94.0746 289.434 93.7996 289.711C93.5246 289.988 91.9496 290.885 90.2996 291.704C85.9336 293.873 75.3836 299.948 74.7996 300.63C74.5246 300.951 72.9496 301.888 71.2996 302.711C69.6496 303.534 68.0746 304.434 67.7996 304.711C67.5246 304.988 65.9496 305.885 64.2996 306.704C59.9436 308.868 49.3846 314.948 48.7996 315.629C48.5246 315.949 46.6776 317.111 44.6946 318.211C37.2526 322.341 32.7126 325.871 25.3636 333.244C21.2036 337.418 17.7916 341.143 17.7826 341.522C17.7726 341.901 16.6496 343.269 15.2856 344.562C13.9226 345.856 13.0376 347.287 13.3196 347.743C13.6016 348.2 13.4236 348.825 12.9246 349.134C11.4326 350.056 3.9876 365.96 2.0766 372.308C0.391601 377.905 0.288601 394.892 0.0886014 700.211C-0.121399 1020.62 -0.112399 1022.25 1.9066 1030.71C6.9786 1051.97 19.8596 1070.26 38.5166 1082.69C44.1366 1086.44 70.8106 1102.13 100.581 1119.21C101.539 1119.76 107.423 1123.14 113.656 1126.71C119.888 1130.29 126.408 1134.04 128.144 1135.06C131.952 1137.28 195.07 1173.79 197.566 1175.21C201.733 1177.58 222.263 1189.37 225.144 1191.05C230.721 1194.29 292.741 1230.18 294.564 1231.21C299.085 1233.78 319.333 1245.41 322.144 1247.06C326.321 1249.5 414.941 1300.69 419.081 1303.05C420.851 1304.06 442.661 1316.66 467.546 1331.05C492.431 1345.44 513.587 1357.66 514.558 1358.21C522.082 1362.47 538.586 1371.98 539.8 1372.75C551.481 1380.19 585.078 1398.35 591.381 1400.63C607.693 1406.53 627.166 1407.08 644.321 1402.13C652.403 1399.8 659.37 1396.6 671.3 1389.73C673.5 1388.46 677.325 1386.31 679.8 1384.94C682.275 1383.57 684.75 1382.1 685.3 1381.68C686.364 1380.88 690.853 1378.31 699.8 1373.4C702.825 1371.73 707.017 1369.3 709.115 1367.99C713.004 1365.56 716.787 1363.37 724.8 1358.94C727.275 1357.57 729.75 1356.1 730.3 1355.68C730.85 1355.27 732.988 1353.98 735.05 1352.82C737.112 1351.66 740.487 1349.75 742.55 1348.57C744.613 1347.39 748.325 1345.31 750.8 1343.94C753.275 1342.57 755.75 1341.1 756.3 1340.68C757.364 1339.88 761.853 1337.31 770.8 1332.4C773.825 1330.73 778.017 1328.3 780.115 1326.99C784.004 1324.56 787.787 1322.37 795.8 1317.94C798.275 1316.57 800.75 1315.1 801.3 1314.68C801.85 1314.27 803.988 1312.98 806.05 1311.82C808.113 1310.66 811.488 1308.75 813.55 1307.57C815.613 1306.39 819.325 1304.31 821.8 1302.94C824.275 1301.57 826.75 1300.1 827.3 1299.68C828.364 1298.88 832.853 1296.31 841.8 1291.4C844.825 1289.73 849.017 1287.3 851.115 1285.99C855.004 1283.56 858.787 1281.37 866.8 1276.94C869.275 1275.57 871.75 1274.1 872.3 1273.68C873.364 1272.88 877.853 1270.31 886.8 1265.4C889.825 1263.73 894.017 1261.3 896.115 1259.99C900.338 1257.35 904.552 1254.93 912.8 1250.4C915.825 1248.73 920.017 1246.3 922.115 1244.99C926.004 1242.56 929.787 1240.37 937.8 1235.94C940.275 1234.57 942.75 1233.1 943.3 1232.68C944.364 1231.88 948.853 1229.31 957.8 1224.4C960.825 1222.73 965.017 1220.3 967.115 1218.99C971.338 1216.35 975.552 1213.93 983.8 1209.4C986.825 1207.73 991.017 1205.3 993.115 1203.99C997.004 1201.56 1000.79 1199.37 1008.8 1194.94C1011.27 1193.57 1013.75 1192.1 1014.3 1191.68C1015.36 1190.88 1019.85 1188.31 1028.8 1183.4C1031.82 1181.73 1036.02 1179.3 1038.11 1177.99C1042.34 1175.35 1046.55 1172.93 1054.8 1168.4C1057.82 1166.73 1062.02 1164.3 1064.11 1162.99C1068 1160.56 1071.79 1158.37 1079.8 1153.94C1082.27 1152.57 1084.75 1151.1 1085.3 1150.68C1086.41 1149.84 1091.51 1146.93 1099.8 1142.42C1102.82 1140.78 1106.01 1138.82 1106.88 1138.07C1107.75 1137.32 1108.83 1136.71 1109.29 1136.71C1110.81 1136.71 1121.24 1128.37 1127.35 1122.26C1136.66 1112.94 1142.63 1103.2 1147.88 1088.71C1149.98 1082.9 1150.23 1080.52 1150.22 1066.21C1150.22 1052.64 1149.87 1049.01 1147.96 1042.31C1146.72 1037.97 1145.18 1033.47 1144.54 1032.31C1143.9 1031.16 1143.47 1029.87 1143.59 1029.46C1143.7 1029.05 1143.35 1028.71 1142.8 1028.71C1142.25 1028.71 1141.8 1027.99 1141.8 1027.12C1141.8 1026.24 1140.91 1024.27 1139.83 1022.75C1138.75 1021.23 1138.07 1019.77 1138.34 1019.51C1138.6 1019.25 1137.91 1018.22 1136.81 1017.22C1135.7 1016.22 1134.8 1014.97 1134.8 1014.45C1134.8 1012.83 1125 1001.08 1119.51 996.106C1107.8 985.515 1092.15 977.431 1077.99 974.66C1068.8 972.865 1049.22 973.945 1040.3 976.74C1032.98 979.032 1020.76 984.26 1019.84 985.496C1019.54 985.891 1017.95 986.875 1016.3 987.683C1014.65 988.49 1010.93 990.627 1008.03 992.431C1005.13 994.235 1002.36 995.711 1001.86 995.711C1001.37 995.711 1000.82 996.048 1000.63 996.461C1000.45 996.873 998.5 998.155 996.3 999.309C989.22 1003.02 982.37 1006.95 979.646 1008.85C978.186 1009.88 976.498 1010.71 975.896 1010.71C975.293 1010.71 974.8 1011.05 974.8 1011.47C974.8 1011.88 973.338 1012.87 971.55 1013.65C967.941 1015.24 956.583 1021.72 955.8 1022.63C955.525 1022.95 953.95 1023.89 952.3 1024.71C950.65 1025.53 949.075 1026.43 948.8 1026.71C948.525 1026.99 946.95 1027.89 945.3 1028.7C940.944 1030.87 930.385 1036.95 929.8 1037.63C929.525 1037.95 927.5 1039.16 925.3 1040.31C918.22 1044.02 911.37 1047.95 908.646 1049.85C907.186 1050.88 905.536 1051.71 904.979 1051.71C904.422 1051.71 903.817 1052.05 903.633 1052.46C903.45 1052.87 901.5 1054.16 899.3 1055.31C892.22 1059.02 885.37 1062.95 882.646 1064.85C881.186 1065.88 879.498 1066.71 878.896 1066.71C878.293 1066.71 877.8 1067.05 877.8 1067.47C877.8 1067.88 876.338 1068.87 874.55 1069.65C870.941 1071.24 859.583 1077.72 858.8 1078.63C858.525 1078.95 856.95 1079.89 855.3 1080.71C853.65 1081.53 852.075 1082.43 851.8 1082.71C851.525 1082.99 848.375 1084.73 844.8 1086.59C841.225 1088.44 837.59 1090.58 836.721 1091.34C835.853 1092.09 834.653 1092.71 834.055 1092.71C833.456 1092.71 832.817 1093.05 832.633 1093.46C832.45 1093.87 830.5 1095.16 828.3 1096.31C821.22 1100.02 814.37 1103.95 811.646 1105.85C810.186 1106.88 808.498 1107.71 807.896 1107.71C807.293 1107.71 806.8 1108.05 806.8 1108.47C806.8 1108.88 805.337 1109.87 803.55 1110.65C799.941 1112.24 788.583 1118.72 787.8 1119.63C787.525 1119.95 785.95 1120.89 784.3 1121.71C782.65 1122.53 781.075 1123.43 780.8 1123.71C780.525 1123.99 778.95 1124.89 777.3 1125.7C772.934 1127.87 762.384 1133.95 761.8 1134.63C761.525 1134.95 759.95 1135.89 758.3 1136.71C756.65 1137.53 755.075 1138.43 754.8 1138.71C754.525 1138.99 752.95 1139.88 751.3 1140.68C749.65 1141.49 745.929 1143.63 743.031 1145.43C740.132 1147.23 737.357 1148.71 736.864 1148.71C736.37 1148.71 735.817 1149.05 735.633 1149.46C735.45 1149.87 733.5 1151.16 731.3 1152.31C724.22 1156.02 717.37 1159.95 714.646 1161.85C713.186 1162.88 711.498 1163.71 710.896 1163.71C710.293 1163.71 709.8 1164.05 709.8 1164.47C709.8 1164.88 708.338 1165.87 706.55 1166.65C702.941 1168.24 691.583 1174.72 690.8 1175.63C690.525 1175.95 688.95 1176.89 687.3 1177.71C685.65 1178.53 684.075 1179.43 683.8 1179.71C683.525 1179.99 680.375 1181.73 676.8 1183.59C673.225 1185.44 669.59 1187.58 668.721 1188.34C667.853 1189.09 666.653 1189.71 666.055 1189.71C665.456 1189.71 664.817 1190.08 664.633 1190.54C664.177 1191.66 648.061 1198.47 641.577 1200.28C633.973 1202.4 614.27 1203.25 606.599 1201.8C591.136 1198.87 583.277 1195.32 552.467 1177.37C547.937 1174.73 485.141 1138.41 483.034 1137.21C478.81 1134.81 458.324 1123.04 455.456 1121.37C449.933 1118.16 361.883 1067.25 360.042 1066.21C356.781 1064.36 335.646 1052.23 332.456 1050.37C322.138 1044.37 238.021 995.802 234.523 993.832C223.528 987.638 212.022 980.64 209.373 978.536C205.306 975.305 195.708 965.591 193.3 962.267C192.2 960.749 190.426 958.359 189.359 956.958C187.68 954.754 182.141 944.14 181.141 941.211C180.953 940.661 179.562 935.936 178.05 930.711L175.3 921.211V702.711V484.211L177.543 475.41C181.775 458.808 189.871 444.654 201.442 433.629C206.676 428.642 217.002 420.711 218.261 420.711C218.526 420.711 222.243 418.628 226.521 416.082C235.53 410.722 239.555 408.395 245.8 404.936C248.275 403.565 250.75 402.102 251.3 401.684C251.85 401.266 253.988 399.976 256.05 398.818C258.112 397.659 261.487 395.747 263.55 394.57C265.613 393.392 269.325 391.307 271.8 389.936C274.275 388.565 276.75 387.102 277.3 386.684C278.364 385.876 282.853 383.309 291.8 378.396C294.825 376.734 299.017 374.301 301.115 372.989C305.338 370.349 309.552 367.926 317.8 363.396C320.825 361.734 325.017 359.301 327.115 357.989C331.004 355.557 334.787 353.374 342.8 348.936C345.275 347.565 347.75 346.102 348.3 345.684C349.364 344.876 353.853 342.309 362.8 337.396C365.825 335.734 370.017 333.301 372.115 331.989C376.338 329.349 380.552 326.926 388.8 322.396C391.825 320.734 396.017 318.301 398.115 316.989C402.004 314.557 405.787 312.374 413.8 307.936C416.275 306.565 418.75 305.102 419.3 304.684C419.85 304.266 421.988 302.976 424.05 301.818C426.113 300.659 429.488 298.747 431.55 297.57C433.613 296.392 437.325 294.307 439.8 292.936C442.275 291.565 444.75 290.102 445.3 289.684C446.364 288.876 450.853 286.309 459.8 281.396C462.825 279.734 467.017 277.301 469.115 275.989C473.496 273.25 477.992 270.673 485.8 266.424C488.825 264.777 491.975 262.931 492.8 262.321C493.625 261.71 495.374 260.606 496.687 259.867C498 259.128 500.7 257.602 502.687 256.476C504.674 255.35 508.325 253.307 510.8 251.936C513.275 250.565 515.75 249.102 516.3 248.684C517.364 247.876 521.853 245.309 530.8 240.396C533.825 238.734 538.017 236.301 540.115 234.989C544.382 232.321 548.684 229.85 556.8 225.403C559.825 223.746 564.671 220.887 567.569 219.05C570.468 217.214 573.098 215.711 573.415 215.711C573.732 215.711 575.186 214.86 576.646 213.82C583.362 209.038 601.603 203.421 614.323 202.218C626.795 201.038 645.784 204.666 657.275 210.423C661.34 212.46 673.49 219.281 683.616 225.211C684.555 225.761 690.423 229.136 696.656 232.711C702.888 236.286 709.408 240.042 711.144 241.057C714.096 242.785 749.027 262.988 756.095 267.056C757.858 268.071 773.828 277.296 791.585 287.556C809.342 297.816 825.317 307.041 827.085 308.056C828.853 309.071 844.828 318.296 862.585 328.556C880.342 338.816 896.317 348.041 898.085 349.056C907.827 354.647 965.533 388.005 966.8 388.778C977.413 395.254 1027.6 423.614 1031.5 425.341C1058.54 437.307 1094.88 432.19 1118.89 413.039C1135.1 400.105 1149.28 378.909 1154.35 360.025C1156.6 351.66 1157.05 334.756 1155.25 326.211C1153.44 317.629 1150.7 309.711 1149.54 309.711C1149.07 309.711 1148.96 309.261 1149.3 308.711C1149.64 308.161 1149.44 307.711 1148.86 307.711C1148.28 307.711 1147.91 307.366 1148.05 306.944C1148.33 306.092 1142.43 296.555 1139.3 292.808C1131.08 282.947 1120.06 274.509 1101.05 263.515C1093.15 258.948 1085.25 254.381 1083.49 253.366C1081.74 252.351 1065.79 243.126 1048.05 232.866C1030.31 222.606 1015 213.761 1014.03 213.211C1009.1 210.407 989.203 198.972 986.456 197.366C983.12 195.416 921.005 159.516 915.515 156.366C913.747 155.351 897.786 146.126 880.046 135.866C862.306 125.606 847.001 116.761 846.034 116.211C840.997 113.345 821.188 101.963 818.456 100.365C815.079 98.3891 777.944 76.8821 775.023 75.2111C764.863 69.3961 749.974 60.8381 747.456 59.3661C745.72 58.3511 729.9 49.2041 712.3 39.0401C694.7 28.8761 679.625 20.1471 678.8 19.6431C672.148 15.5801 658.915 8.43308 654.132 6.32008C643.721 1.72108 637.188 0.464078 621.8 0.103078C609.11 -0.193922 606.173 0.0570781 598.272 2.11408ZM558.8 328.198C552.06 329.77 546.8 331.684 546.8 332.565C546.8 332.927 545.338 333.858 543.55 334.633C541.762 335.409 536.295 338.444 531.4 341.377C526.505 344.311 522.117 346.711 521.65 346.711C521.182 346.711 520.8 347.051 520.8 347.467C520.8 347.883 519.338 348.867 517.55 349.654C513.941 351.243 502.583 357.716 501.8 358.63C501.525 358.951 499.95 359.888 498.3 360.711C496.65 361.534 495.075 362.434 494.8 362.709C494.525 362.985 491.375 364.73 487.8 366.586C484.225 368.443 480.59 370.58 479.721 371.336C478.853 372.092 477.653 372.711 477.055 372.711C476.456 372.711 475.817 373.048 475.633 373.461C475.45 373.874 473.5 375.155 471.3 376.309C464.22 380.022 457.37 383.948 454.646 385.854C453.186 386.875 451.498 387.711 450.896 387.711C450.293 387.711 449.8 388.051 449.8 388.467C449.8 388.883 448.338 389.867 446.55 390.654C442.941 392.243 431.583 398.716 430.8 399.63C430.525 399.951 428.95 400.888 427.3 401.711C425.65 402.534 424.075 403.434 423.8 403.711C423.525 403.988 421.95 404.885 420.3 405.704C415.934 407.873 405.384 413.948 404.8 414.63C404.525 414.951 402.95 415.888 401.3 416.711C399.65 417.534 398.075 418.434 397.8 418.711C397.525 418.988 395.95 419.875 394.3 420.683C392.65 421.49 388.929 423.627 386.031 425.431C383.132 427.235 380.357 428.711 379.864 428.711C379.37 428.711 378.817 429.048 378.633 429.461C378.45 429.874 376.5 431.155 374.3 432.309C367.22 436.022 360.37 439.948 357.646 441.854C356.186 442.875 354.536 443.711 353.979 443.711C353.422 443.711 352.817 444.048 352.633 444.461C352.45 444.874 349.825 446.49 346.8 448.053C340.548 451.282 333.462 455.846 332.967 456.961C332.783 457.374 332.22 457.711 331.714 457.711C330.46 457.711 324.001 464.957 320.098 470.743C315.138 478.096 312.814 486.224 312.755 496.421C312.635 517.132 322.563 532.968 341.601 542.435C348.337 545.785 349.74 546.1 359.722 546.511C368.819 546.886 371.648 546.615 377.485 544.808C381.304 543.627 385.3 542.051 386.364 541.306C388.422 539.868 392.861 537.305 401.8 532.396C404.825 530.734 409.017 528.301 411.115 526.989C415.004 524.557 418.787 522.374 426.8 517.936C429.275 516.565 431.75 515.102 432.3 514.684C432.85 514.266 434.988 512.976 437.05 511.818C439.113 510.659 442.488 508.747 444.55 507.57C446.613 506.392 450.325 504.307 452.8 502.936C455.275 501.565 457.75 500.102 458.3 499.684C459.364 498.876 463.853 496.309 472.8 491.396C475.825 489.734 480.017 487.301 482.115 485.989C486.338 483.349 490.552 480.926 498.8 476.396C501.825 474.734 506.017 472.301 508.115 470.989C512.004 468.557 515.787 466.374 523.8 461.936C526.275 460.565 528.75 459.102 529.3 458.684C529.85 458.266 531.988 456.976 534.05 455.818C536.113 454.659 539.488 452.747 541.55 451.57C543.613 450.392 547.325 448.307 549.8 446.936C552.275 445.565 554.75 444.102 555.3 443.684C556.364 442.876 560.853 440.309 569.8 435.396C572.825 433.734 577.017 431.301 579.115 429.989C582.756 427.713 587.983 424.665 592.3 422.303C597.519 419.447 603.967 414.329 607.726 410.058C612.77 404.328 618.481 392.984 619.731 386.211C620.85 380.149 620.326 368.206 618.763 364.161C618.136 362.539 617.46 360.405 617.261 359.419C616.369 355.006 611.85 348.002 606.233 342.329C593.339 329.308 576.085 324.168 558.8 328.198ZM349.065 861.192C340.74 863.53 334.501 867.179 328.526 873.202C316.963 884.857 312.611 894.764 312.565 909.532C312.52 924.063 316.953 935.015 326.732 944.538C332.055 949.721 339.749 954.513 377.58 976.211C386.129 981.114 402.275 990.411 403.63 991.211C404.561 991.761 410.423 995.136 416.656 998.711C422.888 1002.29 429.408 1006.04 431.144 1007.06C432.88 1008.07 454.676 1020.67 479.581 1035.06C504.485 1049.44 526.31 1062.05 528.081 1063.07C542.901 1071.65 553.215 1076.85 558.202 1078.26C565.941 1080.46 579.026 1079.84 587.227 1076.88C609.121 1068.97 623.031 1045.99 619.833 1023C619.26 1018.88 618.469 1014.99 618.075 1014.36C617.68 1013.73 617.219 1012.31 617.05 1011.21C616.881 1010.11 616.302 1009.06 615.765 1008.88C615.227 1008.69 615.042 1008.13 615.353 1007.63C615.664 1007.12 615.441 1006.71 614.859 1006.71C614.277 1006.71 613.907 1006.37 614.037 1005.96C614.433 1004.71 608.276 996.441 604.035 992.533C601.84 990.511 594.333 985.561 587.354 981.533C569.697 971.344 573.062 973.288 523.023 944.374C498.12 929.984 476.295 917.381 474.523 916.366C466.516 911.782 407.14 877.462 405.8 876.643C399.384 872.724 383.864 864.227 380.017 862.528C373.783 859.774 356.73 859.038 349.065 861.192Z" fill="white"/>
<path fill-rule="evenodd" clip-rule="evenodd" d="M1994.66 194.416C1993.21 194.64 1989.61 196.262 1986.66 198.023C1972.66 206.382 1969.73 223.742 1980.33 235.537C1986.5 242.394 1992.93 245.035 2002.22 244.52C2010.29 244.073 2015.06 242.103 2020.23 237.084C2024.96 232.489 2026.85 228.606 2027.52 222.124C2028.38 213.813 2026.32 208.12 2020.25 202.044C2013.25 195.027 2005.57 192.738 1994.66 194.416ZM1422.8 327.211V446.711H1447.8H1472.8V371.711C1472.8 330.461 1473.14 296.719 1473.55 296.728C1473.96 296.737 1497.43 330.487 1525.71 371.728L1577.11 446.711H1598.96H1620.8V327.211V207.711H1595.8H1570.8V282.711C1570.8 323.961 1570.46 357.704 1570.05 357.696C1569.64 357.688 1546.35 323.948 1518.3 282.718L1467.3 207.754L1445.05 207.733L1422.8 207.711V327.211ZM2654.8 327.211V446.711H2679.8H2704.8V327.211V207.711H2679.8H2654.8V327.211ZM1860.8 245.711V266.711H1848.8H1836.8V286.211V305.711H1848.73H1860.67L1861.02 357.961C1861.36 408.557 1861.44 410.417 1863.56 416.711C1871.44 440.145 1893.56 451.448 1925.98 448.61C1933.81 447.925 1946.43 445.412 1947.52 444.322C1947.69 444.154 1946.09 435.735 1943.98 425.614C1940.22 407.669 1940.07 407.217 1937.71 407.472C1929 408.413 1921.06 407.975 1918.07 406.388C1911.26 402.787 1911.33 403.344 1910.99 351.961L1910.69 305.711H1927.74H1944.8V286.211V266.711H1927.8H1910.8V245.711V224.711H1885.8H1860.8V245.711ZM1718.8 265.819C1710.25 267.124 1695.71 272.045 1688.92 275.928C1681.22 280.33 1670.94 290.398 1666.53 297.847C1662.79 304.171 1657.94 317.183 1658.95 318.194C1659.24 318.485 1667.76 319.385 1677.89 320.195C1688.01 321.004 1698.15 321.884 1700.41 322.151C1704.4 322.621 1704.58 322.514 1706.32 318.668C1711.91 306.278 1728.16 299.361 1743.98 302.645C1754.78 304.888 1760.76 311.709 1761.59 322.759C1761.96 327.651 1761.69 328.684 1759.32 331.506C1755.73 335.77 1750.3 337.228 1728.8 339.705C1693.46 343.774 1679.15 348.262 1667.26 359.006C1656.98 368.293 1652.79 379.222 1652.81 396.671C1652.83 414.037 1656.36 423.424 1666.73 433.729C1677.89 444.808 1691.6 449.711 1711.41 449.711C1717.62 449.711 1725.08 449.21 1728 448.598C1741.11 445.845 1755.59 436.031 1761.58 425.828L1764.3 421.211L1764.58 433.961L1764.86 446.711H1788.33H1811.8V381.76C1811.8 338.754 1811.43 315.019 1810.71 311.51C1808.92 302.849 1803.14 292.206 1796.77 285.884C1787.35 276.517 1775.59 270.603 1759.35 267.062C1750.71 265.178 1727.63 264.471 1718.8 265.819ZM2129.61 265.722C2110.74 268.712 2097.34 274.936 2084.54 286.654C2077.78 292.844 2068.79 305.924 2065.17 314.844C2054.06 342.172 2054.76 378.308 2066.87 403.711C2078.4 427.871 2098.13 443.093 2124.64 448.276C2134.59 450.222 2156.78 450.143 2166.59 448.127C2208.81 439.451 2234.59 402.107 2232.46 352.711C2232.16 345.836 2231.24 337.061 2230.41 333.211C2223.02 299.014 2201.18 275.486 2169.52 267.627C2160.14 265.297 2138.74 264.276 2129.61 265.722ZM2351.8 266.202C2336.21 269.729 2322.38 279.897 2315.66 292.77L2312.3 299.211L2312.02 282.961L2311.75 266.711H2287.77H2263.8V356.711V446.711H2288.8H2313.8V393.395C2313.8 359.205 2314.19 337.964 2314.89 334.185C2317 322.747 2323.57 313.956 2333.3 309.54C2339.71 306.631 2354.11 306.384 2360.12 309.081C2365.86 311.658 2372.28 318.121 2374.94 323.984L2377.3 329.211L2377.58 387.961L2377.86 446.711H2403.41H2428.96L2428.52 382.961C2428.03 311.586 2428.12 312.556 2420.71 297.016C2413.88 282.716 2401.97 272.384 2386.8 267.614C2378.12 264.885 2360.72 264.183 2351.8 266.202ZM2525.61 265.72C2498.14 270.083 2478.45 283.256 2469.04 303.55C2466.07 309.97 2463.65 318.711 2464.84 318.711C2466.46 318.711 2501.3 321.676 2505.84 322.201C2510.34 322.72 2510.41 322.682 2511.72 319.042C2513.66 313.679 2521.4 306.379 2527.33 304.325C2545.3 298.099 2562.46 303.87 2566.42 317.467C2567.31 320.552 2567.77 324.496 2567.46 326.432C2566.09 334.872 2560.96 336.69 2527.3 340.673C2496.23 344.349 2483.3 348.99 2471.73 360.615C2464.31 368.077 2461.4 373.393 2459.29 383.326C2453.76 409.417 2463.95 432.973 2485.16 443.177C2494.96 447.89 2503.79 449.676 2517.3 449.679C2530.14 449.682 2538.51 447.963 2547.73 443.427C2555.08 439.807 2564.43 431.239 2567.6 425.211L2569.71 421.211L2569.75 433.961L2569.8 446.711H2593.84H2617.89L2617.58 379.961C2617.27 314.086 2617.23 313.125 2615.05 306.639C2608.38 286.891 2592.43 273.784 2567.61 267.66C2558.11 265.316 2534.91 264.244 2525.61 265.72ZM1975.8 356.711V446.711H2000.8H2025.8V356.711V266.711H2000.8H1975.8V356.711ZM2156.16 305.317C2166.36 308.793 2175.2 320.342 2179.43 335.711C2182.24 345.918 2182 369.641 2178.97 380.181C2175.91 390.852 2172.44 396.922 2166.1 402.716C2159.15 409.067 2153.09 411.101 2142.89 410.51C2126.62 409.568 2116.09 399.243 2110.61 378.865C2107.69 367.995 2107.69 346.42 2110.61 335.542C2115.05 319.024 2122.68 309.381 2134.68 305.092C2139.72 303.289 2150.54 303.403 2156.16 305.317ZM1759.43 395.21C1756.39 401.848 1750.31 407.827 1742.96 411.408C1737.84 413.902 1736.25 414.168 1726.3 414.189C1717.45 414.207 1714.62 413.847 1711.8 412.344C1703.78 408.068 1700.48 402.918 1700.48 394.711C1700.48 388.118 1702.42 383.995 1707.49 379.811C1712.45 375.725 1720.19 373.34 1738.3 370.323C1746.55 368.948 1755.1 367.189 1757.3 366.415L1761.3 365.007L1761.58 377.452C1761.84 388.845 1761.65 390.347 1759.43 395.21ZM2567.62 377.961C2567.27 389.93 2566.98 391.701 2564.59 396.274C2561.31 402.577 2555.24 408.141 2547.92 411.576C2542.96 413.899 2541.05 414.211 2531.8 414.211C2522.77 414.211 2520.62 413.878 2516.48 411.84C2504.94 406.157 2502.19 390.864 2511.07 381.721C2516.24 376.397 2522.92 373.994 2541.36 370.827C2550.68 369.227 2560.1 367.248 2562.3 366.431C2564.5 365.613 2566.68 364.892 2567.15 364.828C2567.61 364.763 2567.82 370.673 2567.62 377.961ZM2038.12 576.289C2032.48 578.37 2025.44 584.763 2022.81 590.192C2020.11 595.757 2019.85 605.498 2022.24 611.228C2024.5 616.671 2030.29 622.474 2036.3 625.321C2043.29 628.634 2054.24 628.651 2061.3 625.358C2066.93 622.73 2073.24 616.296 2075.52 610.851C2077.48 606.176 2077.48 596.246 2075.52 591.571C2073.32 586.335 2067.7 580.517 2062.16 577.75C2056.07 574.706 2044.35 573.994 2038.12 576.289ZM1121.53 587.223C1091.2 592.322 1064.88 609.107 1048.63 633.711C1038.96 648.359 1033.67 661.23 1029.61 680.023C1027.7 688.848 1027.39 693.355 1027.35 713.711C1027.29 739.256 1028.31 747.719 1033.39 763.847C1040.56 786.592 1054.83 807.279 1072.8 820.953C1081.72 827.739 1099.28 836.106 1111.3 839.297C1124.85 842.893 1150.47 843.823 1165.73 841.271C1209.52 833.949 1243.39 802.247 1251.11 761.359L1252.56 753.711H1225.3H1198.04L1196.85 758.401C1192.52 775.608 1178.35 789.154 1159.8 793.819C1156.63 794.616 1149.63 795.167 1143.3 795.119C1134.12 795.05 1131 794.592 1124.47 792.355C1114.46 788.927 1107.71 784.564 1100.77 777.054C1086.78 761.919 1079.55 736.001 1081.18 706.88C1083.39 667.59 1100.02 642.561 1128.88 635.097C1137.33 632.911 1152.33 632.947 1160.8 635.172C1179.02 639.957 1193.41 654.512 1196.97 671.755L1198.2 677.711H1224.83C1239.48 677.711 1251.7 677.479 1251.98 677.194C1252.98 676.196 1249.71 660.61 1246.68 651.958C1234.52 617.161 1205.09 593.632 1165.77 587.255C1154.37 585.406 1132.43 585.39 1121.53 587.223ZM1288.8 714.211V839.711H1315.27H1341.74L1342.02 779.461L1342.3 719.211L1345.1 713.211C1350.32 702.037 1358.82 695.705 1371.27 693.716C1378.91 692.494 1387.87 693.687 1393.81 696.718C1398.5 699.112 1404.46 705.745 1407.16 711.589C1409.26 716.13 1409.3 717.296 1409.58 777.961L1409.86 839.711H1436.33H1462.8V773.669C1462.8 698.585 1462.81 698.699 1455.16 682.85C1449.07 670.216 1440.56 661.559 1428.67 655.901C1417.26 650.468 1411.42 649.242 1397.3 649.313C1383.78 649.381 1376.09 651.022 1366.38 655.916C1358.33 659.97 1348.2 670.3 1344.29 678.448C1342.65 681.878 1340.96 684.691 1340.55 684.698C1340.14 684.705 1339.8 663.111 1339.8 636.711V588.711H1314.3H1288.8V714.211ZM2516.8 714.211V839.711H2543.3H2569.8V714.211V588.711H2543.3H2516.8V714.211ZM1573.86 649.77C1535.15 654.581 1506.86 680.781 1498.33 719.711C1496.02 730.283 1495.23 752.613 1496.77 763.973C1502.39 805.379 1527.15 833.279 1565.3 841.195C1576.22 843.461 1592.5 844.178 1603.13 842.859C1631.76 839.308 1651.93 828.316 1664.49 809.419C1669.1 802.491 1675.37 786.805 1674.01 785.617C1673.62 785.273 1663.4 784.443 1651.3 783.773C1639.2 783.102 1628.56 782.35 1627.66 782.101C1626.51 781.782 1625.12 783.243 1622.97 787.057C1617.23 797.234 1607.68 802.505 1593.3 803.439C1568.16 805.073 1551.05 790.747 1548.22 765.693L1547.54 759.711H1611.82H1676.1L1675.48 742.961C1674.79 724.431 1672.7 712.306 1668.26 701.198C1657.65 674.613 1636.72 657.084 1608.74 651.343C1598.93 649.332 1583.12 648.619 1573.86 649.77ZM1800.8 649.757C1785.92 652.324 1770.2 664.129 1763.69 677.63C1761.82 681.497 1759.96 684.672 1759.55 684.686C1759.14 684.7 1758.8 677.286 1758.8 668.211V651.711H1733.8H1708.8V745.711V839.711H1735.27H1761.74L1762.02 777.961L1762.3 716.211L1764.92 710.625C1769.75 700.314 1778.43 693.918 1788.86 692.972C1801.3 691.844 1811.41 697.143 1816.47 707.444L1819.3 713.211L1819.58 776.461L1819.86 839.711H1845.28H1870.71L1871.01 777.961C1871.3 716.313 1871.3 716.202 1873.58 710.568C1882.97 687.348 1917.79 686.647 1926.98 709.493L1929.28 715.211L1929.6 777.461L1929.91 839.711H1955.85H1981.8V771.299C1981.8 695.211 1981.66 693.272 1975.35 679.974C1966.69 661.744 1948.81 650.433 1926.54 649.105C1900.97 647.58 1878.92 658.662 1868.62 678.213L1864.94 685.202L1863.82 682.206C1857.94 666.506 1846.74 656.004 1830.8 651.267C1824.07 649.268 1808.25 648.471 1800.8 649.757ZM2185.3 649.76C2154.76 653.846 2130.72 671.346 2117.86 698.867C2105 726.358 2104.97 765.992 2117.78 793.384C2122.48 803.437 2126.53 809.458 2133.75 817.078C2148.17 832.315 2165.81 840.355 2190.25 842.833C2213.48 845.188 2235.65 840.52 2252.01 829.833C2269.95 818.106 2282.27 798.087 2284.41 777.188L2285.07 770.711H2260.05H2235.02L2234.32 774.461C2232.31 785.158 2223.24 796.025 2213.52 799.364C2206.69 801.712 2195.88 801.701 2189 799.339C2181.69 796.828 2173.03 788.646 2168.99 780.444C2164.78 771.888 2162.84 763.352 2162.15 750.211C2160.72 723.32 2169.72 701.81 2185.66 693.981C2190.73 691.488 2192.35 691.211 2201.8 691.211C2211.59 691.211 2212.66 691.412 2217.72 694.211C2220.73 695.873 2224.82 699.328 2226.9 701.959C2230.65 706.703 2234.8 716.044 2234.8 719.749C2234.8 721.646 2235.62 721.711 2259.8 721.711H2284.8L2284.78 717.961C2284.76 712.466 2282.36 702.042 2279.49 695C2270.49 672.849 2249.9 656.75 2223.33 651.095C2214.54 649.224 2194.55 648.522 2185.3 649.76ZM2382.8 649.727C2349.64 653.663 2325.73 671.612 2317.23 698.949C2316.24 702.105 2315.64 704.884 2315.88 705.126C2316.12 705.367 2325.31 706.275 2336.31 707.144C2347.3 708.012 2358.12 708.959 2360.34 709.246C2364.25 709.754 2364.42 709.659 2365.73 706.037C2367.71 700.55 2376.3 692.416 2382.31 690.334C2398.26 684.808 2415.23 688.58 2421.73 699.097C2424.07 702.879 2425.49 711.824 2424.43 716.056C2423 721.739 2415.26 724.529 2393.73 727.124C2386.34 728.015 2376.7 729.207 2372.3 729.773C2334.2 734.673 2313.62 750.309 2309.79 777.253C2306.97 797.163 2311.91 814.005 2324.17 826.269C2331.1 833.196 2340.88 838.404 2352.3 841.253C2361.63 843.58 2380.76 843.624 2390.2 841.341C2404.69 837.831 2416.79 829.632 2423.95 818.467L2427.3 813.248L2427.58 826.479L2427.86 839.711H2452.87H2477.89L2477.58 769.461C2477.27 699.938 2477.25 699.143 2475.05 692.639C2466.17 666.356 2439.72 650.64 2402.05 649.266C2395.59 649.03 2386.92 649.237 2382.8 649.727ZM2021.8 745.711V839.711H2048.3H2074.8V745.711V651.711H2048.3H2021.8V745.711ZM1604.04 691.963C1610.74 695.032 1616.83 700.378 1620.23 706.185C1622.84 710.636 1625.8 720.33 1625.8 724.421V726.711H1586.71H1547.62L1548.33 722.461C1550.18 711.36 1557.45 700.178 1566.44 694.621C1576.91 688.154 1593.2 687.002 1604.04 691.963ZM2423.82 781.646C2422.36 787.043 2417.09 794.543 2412.08 798.344C2396.04 810.51 2368.88 808.596 2361.85 794.802C2359.11 789.446 2359.14 781.696 2361.92 775.961C2365.89 767.769 2374.44 763.956 2397.4 760.147C2406.02 758.717 2415.6 756.777 2418.68 755.836L2424.3 754.126L2424.58 765.946C2424.73 772.448 2424.39 779.513 2423.82 781.646ZM1421.8 1127.16V1252.71L1476.55 1252.71C1549.08 1252.71 1559.02 1251.66 1578.8 1241.95C1596.3 1233.36 1608.65 1218.31 1613.46 1199.71C1615.51 1191.8 1615.73 1174.53 1613.88 1166.71C1611.35 1156 1606.11 1146.82 1597.9 1138.67C1588.99 1129.84 1580.77 1125.38 1568.76 1122.9C1564.38 1122 1560.8 1120.94 1560.8 1120.56C1560.8 1120.18 1562.26 1119.57 1564.05 1119.2C1565.84 1118.83 1571.12 1116.71 1575.78 1114.48C1598.9 1103.44 1610 1079.21 1604.29 1052.24C1599.3 1028.68 1581.4 1011.78 1553.8 1004.56C1545.54 1002.4 1543.54 1002.32 1483.55 1001.97L1421.8 1001.6V1127.16ZM2118.8 1127.21V1252.71H2145.3H2171.8V1127.21V1001.71H2145.3H2118.8V1127.21ZM1859.8 1041.21V1063.71H1847.3H1834.8V1083.71V1103.71H1847.3H1859.8V1155.75C1859.8 1213.36 1860.19 1217.99 1866 1228.92C1872.31 1240.8 1885.51 1250.06 1900.72 1253.28C1910.4 1255.33 1929.39 1255.08 1940.7 1252.74C1945.87 1251.68 1950.42 1250.45 1950.81 1250.01C1951.2 1249.57 1949.69 1240.65 1947.46 1230.19L1943.4 1211.16L1932.17 1211.19C1921.09 1211.21 1920.9 1211.17 1917.86 1208.27C1916.17 1206.65 1914.34 1203.72 1913.8 1201.77C1913.21 1199.66 1912.81 1179 1912.8 1150.96L1912.8 1103.71H1930.3H1947.8V1083.71V1063.71H1930.3H1912.8V1041.21V1018.71H1886.3H1859.8V1041.21ZM1993.8 1041.21V1063.71H1980.8H1967.8V1083.71V1103.71H1980.8H1993.8L1993.81 1157.46C1993.83 1215.73 1994.03 1218.32 1999.39 1228.9C2003.19 1236.4 2011.4 1244.12 2019.9 1248.19C2031.14 1253.58 2039.41 1255.01 2056.09 1254.47C2070.5 1254 2084.8 1251.41 2084.8 1249.27C2084.8 1248.39 2078.96 1220.13 2077.33 1213.12C2076.87 1211.14 2076.33 1211.06 2066.57 1211.44C2057.47 1211.8 2055.92 1211.61 2052.99 1209.76C2046.8 1205.85 2046.8 1205.83 2046.8 1152.24V1103.71H2064.3H2081.8V1083.71V1063.71H2064.3H2046.8V1041.21V1018.71H2020.3H1993.8V1041.21ZM1523.79 1045.78C1527.36 1046.36 1532.14 1047.66 1534.41 1048.66C1555.15 1057.83 1557.47 1086.22 1538.52 1099.04C1529.74 1104.99 1525.45 1105.71 1499.12 1105.71H1475.8V1075.21V1044.71L1496.55 1044.72C1507.96 1044.72 1520.22 1045.2 1523.79 1045.78ZM1709.61 1062.72C1698.93 1064.42 1691.3 1066.81 1681.8 1071.47C1665.44 1079.48 1652.36 1094.75 1647.39 1111.66C1646.51 1114.65 1646.13 1117.39 1646.54 1117.74C1647.19 1118.29 1688.07 1121.8 1693.04 1121.73C1694.06 1121.72 1695.36 1120.3 1696.21 1118.27C1698.42 1112.97 1705.29 1106.19 1711.07 1103.58C1715.54 1101.58 1717.91 1101.23 1727.32 1101.22C1737.19 1101.21 1738.86 1101.48 1743.31 1103.77C1750.72 1107.58 1754.14 1113.01 1754.63 1121.76C1754.92 1126.94 1754.62 1129.33 1753.44 1131.13C1750.94 1134.96 1742.55 1137.4 1724.2 1139.64C1714.9 1140.77 1703.92 1142.19 1699.8 1142.78C1666.43 1147.61 1647.13 1160.97 1641.33 1183.25C1639.34 1190.88 1639.32 1208.46 1641.29 1216.02C1645.88 1233.63 1659.02 1246.67 1678.3 1252.74C1687.91 1255.77 1708.21 1256.56 1718.76 1254.31C1733.65 1251.15 1746.82 1242.63 1754.02 1231.51L1757.3 1226.45L1757.58 1239.58L1757.86 1252.71H1782.87H1807.87L1807.57 1181.46C1807.28 1110.42 1807.27 1110.19 1805.03 1104.29C1797.29 1083.86 1782.34 1071.68 1756.8 1065.01C1749.07 1062.99 1744.31 1062.46 1731.3 1062.18C1722.5 1061.98 1712.74 1062.23 1709.61 1062.72ZM2277.14 1063.19C2252.79 1067.61 2233.4 1080.36 2220.35 1100.53C2209.7 1117 2204.81 1135.46 2204.81 1159.21C2204.81 1208.15 2227.92 1241.45 2269.8 1252.86C2277.36 1254.91 2280.5 1255.17 2298.3 1255.17C2320.14 1255.16 2325.4 1254.34 2339.35 1248.76C2360.61 1240.24 2377.03 1222.7 2382.23 1202.96C2383.59 1197.82 2383.57 1197.71 2381.46 1197.69C2380.27 1197.68 2369.85 1197.01 2358.3 1196.21C2346.75 1195.4 2336.75 1194.74 2336.07 1194.73C2335.39 1194.72 2333.97 1196.4 2332.9 1198.46C2330.22 1203.65 2323.19 1210.22 2317.75 1212.62C2315.25 1213.72 2309.96 1215.16 2306 1215.82C2287.66 1218.84 2269.87 1210.65 2262.28 1195.68C2259.64 1190.47 2256.85 1179.63 2256.82 1174.46L2256.8 1171.71H2320.8H2384.8V1161.82C2384.8 1112.36 2366.2 1080.32 2329.96 1067.32C2314.97 1061.95 2293.32 1060.25 2277.14 1063.19ZM2473.3 1063.16C2443.11 1067.88 2422.64 1082.89 2416.31 1104.94C2413.93 1113.23 2414.13 1128.41 2416.72 1136.75C2420.58 1149.2 2430.02 1159.65 2443.17 1166.04C2452.84 1170.74 2457.49 1172.03 2485.22 1177.69C2511.54 1183.06 2518.5 1185.66 2522.52 1191.63C2525.38 1195.87 2525.51 1202.03 2522.83 1206.42C2514.81 1219.58 2485.21 1221.65 2470.09 1210.12C2466.74 1207.57 2461.8 1199.21 2461.8 1196.1C2461.8 1194.61 2460.75 1194.49 2452.05 1195.04C2446.69 1195.38 2436.22 1195.92 2428.8 1196.23C2421.37 1196.55 2413.88 1197.02 2412.14 1197.29L2408.99 1197.77L2410.42 1203.99C2413.11 1215.66 2418.05 1224.28 2427.22 1233.33C2433.99 1240.02 2437.28 1242.39 2444.92 1246.09C2456.35 1251.64 2468.26 1254.58 2483.45 1255.6C2518.67 1257.96 2546.2 1249.65 2563.39 1231.45C2576.07 1218.04 2581.11 1201.27 2577.78 1183.6C2574.62 1166.79 2561.19 1153.82 2539.69 1146.8C2536.05 1145.61 2521.55 1142.22 2507.47 1139.26C2473.09 1132.03 2467.3 1128.88 2467.3 1117.39C2467.3 1109.52 2471.89 1104.68 2482.72 1101.14C2490.52 1098.59 2504.65 1099.5 2511.44 1102.99C2517.5 1106.11 2523.38 1112.6 2524.98 1117.93C2526.04 1121.45 2526.36 1121.7 2529.21 1121.26C2530.91 1120.99 2541.75 1120.26 2553.3 1119.63C2564.85 1119 2574.43 1118.36 2574.6 1118.22C2575.45 1117.45 2571.42 1103.87 2568.59 1097.98C2564.67 1089.79 2553.09 1077.65 2544.61 1072.85C2527.6 1063.23 2498.32 1059.25 2473.3 1063.16ZM2311.46 1103.89C2322.81 1108.07 2331 1117.87 2333.68 1130.51C2334.29 1133.43 2334.8 1136.46 2334.8 1137.26C2334.8 1138.5 2329.21 1138.71 2295.8 1138.71C2274.35 1138.71 2256.8 1138.51 2256.8 1138.26C2256.8 1138.01 2257.3 1135.43 2257.92 1132.51C2261.34 1116.39 2274.39 1104.09 2290.44 1101.85C2297.92 1100.81 2304.93 1101.49 2311.46 1103.89ZM1529.91 1143.72C1542.99 1146.16 1553.7 1154.52 1557.86 1165.56C1560.91 1173.64 1560.29 1185.49 1556.49 1191.98C1548.62 1205.41 1536.99 1208.71 1497.57 1208.71H1475.8V1175.71V1142.71H1500.16C1513.56 1142.71 1526.95 1143.16 1529.91 1143.72ZM1754.34 1192.86C1751.7 1203.15 1744.67 1211.17 1734.18 1215.84C1727.33 1218.9 1712.04 1219.62 1704.83 1217.22C1694.61 1213.83 1688.81 1204.96 1690.19 1194.84C1691.83 1182.87 1701.74 1176.67 1724.75 1173.22C1737.43 1171.31 1747.91 1169.08 1751.99 1167.41L1755.3 1166.06L1755.58 1176.48C1755.77 1183.42 1755.36 1188.88 1754.34 1192.86Z" fill="white"/>
</svg>
