<svg width="1307" height="353" viewBox="0 0 1307 353" fill="none" xmlns="http://www.w3.org/2000/svg">
<g clip-path="url(#clip0_795_1809)">
<path fill-rule="evenodd" clip-rule="evenodd" d="M150.269 0.530971C148.038 1.11215 143.21 3.35098 142.364 4.19713C142.295 4.2662 141.787 4.5598 141.234 4.84966C139.456 5.78221 137.735 6.76822 137.051 7.24693C136.684 7.50336 136.26 7.71337 136.109 7.71337C135.957 7.71337 135.834 7.79873 135.834 7.90325C135.834 8.00772 135.466 8.25257 135.017 8.44723C134.568 8.64216 133.195 9.40442 131.966 10.1411C130.736 10.878 129.634 11.4807 129.517 11.4807C129.399 11.4807 129.303 11.5661 129.303 11.6706C129.303 11.7751 128.936 12.0222 128.487 12.2199C127.58 12.619 124.728 14.2447 124.531 14.4743C124.462 14.5549 124.066 14.7902 123.652 14.9969C123.237 15.2036 122.842 15.4297 122.773 15.4993C122.704 15.5689 122.308 15.7941 121.893 15.9998C120.797 16.5446 118.147 18.0704 118 18.2417C117.931 18.3223 117.536 18.5576 117.121 18.7643C116.707 18.971 116.311 19.1971 116.242 19.2661C116.173 19.3355 115.382 19.7737 114.484 20.2399C113.586 20.7063 112.673 21.243 112.455 21.4329C112.237 21.6228 111.936 21.7782 111.785 21.7782C111.635 21.7782 111.474 21.8631 111.428 21.9666C111.382 22.0701 110.892 22.3921 110.339 22.6819C108.561 23.6145 106.841 24.6005 106.157 25.0792C105.79 25.3357 105.375 25.5456 105.236 25.5456C105.096 25.5456 104.944 25.6305 104.897 25.734C104.851 25.8374 104.362 26.1595 103.809 26.4493C102.031 27.3818 100.31 28.3679 99.6261 28.8466C99.2594 29.103 98.8357 29.313 98.6845 29.313C98.5328 29.313 98.4092 29.3984 98.4092 29.5028C98.4092 29.6074 98.0415 29.8545 97.5925 30.0522C96.6863 30.4513 93.8333 32.077 93.6366 32.3065C93.5677 32.3872 93.172 32.6225 92.7575 32.8292C92.3434 33.0359 91.9477 33.262 91.8783 33.3315C91.8094 33.4011 91.4137 33.6264 90.9996 33.8321C89.9027 34.3769 87.2528 35.9026 87.1062 36.0739C87.0373 36.1546 86.6416 36.3899 86.2271 36.5966C85.8125 36.8033 85.4173 37.0293 85.3479 37.0989C85.279 37.1685 84.8833 37.3938 84.4688 37.5995C83.3723 38.1442 80.7224 39.67 80.5758 39.8413C80.5069 39.922 80.1112 40.1573 79.6967 40.364C79.2821 40.5707 78.8865 40.7967 78.8175 40.8663C78.7486 40.9359 78.3529 41.1586 77.9384 41.3616C77.5238 41.5643 76.5896 42.101 75.8616 42.5541C75.1332 43.0072 74.4365 43.3779 74.3124 43.3779C74.1883 43.3779 74.0495 43.4625 74.0036 43.5663C73.9576 43.6697 73.4677 43.9917 72.9149 44.2816C71.1368 45.2141 69.4162 46.2003 68.7319 46.6787C68.3652 46.9352 67.9507 47.1453 67.811 47.1453C67.6712 47.1453 67.5191 47.2298 67.4727 47.3337C67.4268 47.4371 66.9373 47.7589 66.3845 48.0489C64.6064 48.9815 62.8858 49.9674 62.2015 50.4464C61.8348 50.7028 61.4111 50.9124 61.2599 50.9124C61.1082 50.9124 60.9846 50.9979 60.9846 51.1027C60.9846 51.2071 60.6169 51.4543 60.1679 51.652C59.2617 52.051 56.4087 53.6767 56.212 53.906C56.1431 53.9869 55.7474 54.2223 55.3329 54.4286C54.9188 54.6355 54.5231 54.8616 54.4537 54.931C54.3848 55.0009 53.9891 55.2261 53.5751 55.4316C52.4781 55.9767 49.8282 57.5022 49.6816 57.6737C49.6127 57.7541 49.217 57.9894 48.8025 58.1963C48.388 58.4031 47.9927 58.6288 47.9233 58.6987C47.8544 58.7681 47.4587 58.9933 47.0442 59.1992C45.9502 59.7425 43.2981 61.2699 43.1512 61.4408C43.0821 61.5213 42.5735 61.8242 42.0209 62.1137C40.2426 63.0463 38.5221 64.0323 37.8379 64.5112C37.4712 64.7677 37.0568 64.9777 36.9169 64.9777C36.777 64.9777 36.625 65.0623 36.5788 65.1657C36.5328 65.2696 36.0431 65.5914 35.4905 65.8814C33.7122 66.8135 31.9916 67.7999 31.3074 68.2784C30.9407 68.5349 30.5167 68.7449 30.3656 68.7449C30.2141 68.7449 30.0903 68.8304 30.0903 68.9347C30.0903 69.0391 29.7228 69.2864 29.274 69.484C28.3675 69.883 25.5147 71.5087 25.318 71.7385C25.249 71.8189 24.8534 72.0543 24.4389 72.2611C24.0245 72.468 23.6289 72.6941 23.5598 72.7635C23.4907 72.8329 23.0952 73.0581 22.6807 73.264C21.5841 73.8087 18.9342 75.3347 18.7875 75.5057C18.7185 75.5866 18.3229 75.8219 17.9084 76.0283C17.494 76.2351 17.0984 76.4613 17.0293 76.5307C16.9603 76.6005 16.5647 76.8258 16.1502 77.0312C15.0561 77.575 12.404 79.1019 12.2571 79.2729C12.188 79.3533 11.7241 79.6452 11.226 79.9214C9.35681 80.9588 8.2165 81.8454 6.37061 83.6973C5.32575 84.7453 4.46875 85.6811 4.46649 85.7762C4.46397 85.8714 4.18191 86.2152 3.83931 86.5397C3.49696 86.8647 3.27468 87.2241 3.34551 87.3385C3.41634 87.4534 3.37163 87.6106 3.2463 87.6879C2.87154 87.9195 1.00157 91.9142 0.521582 93.5082C0.0983591 94.9143 0.0724884 99.1806 0.0222542 175.864C-0.0304919 256.338 -0.0282313 256.748 0.478884 258.872C1.75283 264.211 4.98815 268.804 9.67428 271.927C11.0859 272.868 17.7856 276.81 25.263 281.1C25.5036 281.238 26.9815 282.085 28.5471 282.983C30.1124 283.881 31.75 284.824 32.1861 285.079C33.1425 285.638 48.996 294.808 49.6228 295.165C50.6697 295.76 55.826 298.721 56.5498 299.142C57.9506 299.957 73.5279 308.969 73.9861 309.229C75.1217 309.875 80.2072 312.796 80.9131 313.209C81.9623 313.822 104.221 326.679 105.261 327.272C105.706 327.526 111.184 330.69 117.434 334.304C123.685 337.918 128.998 340.988 129.242 341.126C131.132 342.197 135.277 344.585 135.582 344.778C138.516 346.646 146.955 351.206 148.538 351.78C152.635 353.262 157.526 353.401 161.835 352.158C163.865 351.572 165.615 350.768 168.611 349.043C169.164 348.725 170.125 348.183 170.746 347.839C171.368 347.494 171.99 347.127 172.128 347.022C172.395 346.819 173.523 346.174 175.77 344.94C176.53 344.523 177.582 343.912 178.11 343.582C179.087 342.971 180.036 342.423 182.049 341.309C182.671 340.964 183.292 340.597 183.431 340.492C183.569 340.387 184.106 340.063 184.624 339.772C185.142 339.481 185.989 339 186.508 338.705C187.026 338.409 187.958 337.885 188.58 337.541C189.201 337.197 189.823 336.83 189.961 336.724C190.228 336.522 191.356 335.877 193.603 334.643C194.363 334.225 195.416 333.614 195.943 333.285C196.919 332.674 197.87 332.126 199.882 331.011C200.504 330.667 201.126 330.299 201.264 330.194C201.402 330.089 201.939 329.765 202.457 329.474C202.975 329.184 203.823 328.703 204.341 328.408C204.859 328.112 205.791 327.588 206.413 327.243C207.034 326.899 207.656 326.532 207.794 326.427C208.062 326.224 209.189 325.579 211.436 324.345C212.196 323.928 213.249 323.317 213.776 322.987C214.753 322.376 215.703 321.828 217.716 320.713C218.337 320.369 218.959 320.002 219.097 319.897C219.364 319.694 220.492 319.049 222.739 317.815C223.499 317.398 224.552 316.787 225.079 316.457C226.139 315.794 227.198 315.185 229.27 314.048C230.029 313.63 231.082 313.019 231.609 312.69C232.586 312.079 233.536 311.531 235.549 310.416C236.17 310.072 236.792 309.704 236.93 309.599C237.198 309.396 238.325 308.752 240.572 307.518C241.332 307.1 242.385 306.489 242.912 306.159C243.972 305.497 245.031 304.888 247.103 303.75C247.863 303.333 248.915 302.722 249.442 302.392C250.419 301.781 251.369 301.233 253.382 300.118C254.004 299.774 254.625 299.406 254.763 299.302C255.03 299.099 256.158 298.454 258.405 297.22C259.165 296.803 260.218 296.192 260.745 295.862C261.806 295.199 262.864 294.59 264.936 293.453C265.696 293.036 266.748 292.424 267.276 292.095C268.252 291.484 269.202 290.935 271.215 289.821C271.837 289.477 272.458 289.109 272.596 289.004C272.876 288.792 274.157 288.062 276.238 286.93C276.999 286.516 277.798 286.024 278.016 285.836C278.235 285.649 278.507 285.495 278.621 285.495C279.005 285.495 281.623 283.4 283.158 281.865C285.498 279.525 286.995 277.078 288.314 273.439C288.843 271.979 288.906 271.383 288.904 267.788C288.902 264.379 288.815 263.469 288.336 261.785C288.024 260.694 287.638 259.564 287.477 259.274C287.315 258.984 287.207 258.662 287.237 258.558C287.266 258.454 287.177 258.37 287.039 258.37C286.901 258.37 286.788 258.189 286.788 257.969C286.788 257.748 286.565 257.255 286.293 256.873C286.021 256.491 285.852 256.124 285.918 256.058C285.983 255.993 285.811 255.733 285.534 255.483C285.256 255.232 285.029 254.919 285.029 254.787C285.029 254.382 282.568 251.429 281.188 250.18C278.249 247.521 274.318 245.49 270.759 244.794C268.453 244.344 263.534 244.615 261.294 245.317C259.456 245.893 256.387 247.205 256.155 247.516C256.08 247.615 255.68 247.862 255.266 248.065C254.851 248.268 253.917 248.804 253.189 249.258C252.461 249.711 251.764 250.082 251.64 250.082C251.516 250.082 251.377 250.166 251.33 250.27C251.285 250.373 250.795 250.695 250.242 250.985C248.464 251.917 246.744 252.904 246.059 253.382C245.693 253.639 245.268 253.849 245.117 253.849C244.966 253.849 244.842 253.934 244.842 254.039C244.842 254.143 244.475 254.39 244.026 254.588C243.119 254.987 240.266 256.613 240.07 256.842C240.001 256.923 239.605 257.158 239.191 257.365C238.776 257.572 238.381 257.798 238.311 257.867C238.243 257.937 237.847 258.162 237.432 258.368C236.339 258.911 233.686 260.439 233.539 260.61C233.47 260.69 232.962 260.993 232.409 261.283C230.631 262.215 228.91 263.201 228.226 263.68C227.859 263.936 227.445 264.146 227.305 264.146C227.165 264.146 227.013 264.231 226.967 264.334C226.921 264.438 226.431 264.76 225.878 265.05C224.1 265.983 222.38 266.969 221.695 267.447C221.329 267.704 220.905 267.914 220.754 267.914C220.602 267.914 220.479 267.999 220.479 268.104C220.479 268.208 220.111 268.455 219.662 268.653C218.756 269.052 215.903 270.677 215.706 270.907C215.637 270.988 215.241 271.223 214.827 271.43C214.413 271.637 214.017 271.863 213.948 271.932C213.879 272.001 213.088 272.439 212.19 272.905C211.292 273.372 210.379 273.909 210.16 274.099C209.943 274.288 209.641 274.444 209.491 274.444C209.341 274.444 209.18 274.529 209.134 274.632C209.088 274.736 208.598 275.058 208.046 275.347C206.267 276.28 204.546 277.266 203.863 277.745C203.496 278.001 203.072 278.211 202.92 278.211C202.769 278.211 202.645 278.296 202.645 278.401C202.645 278.506 202.278 278.753 201.829 278.95C200.922 279.349 198.07 280.975 197.873 281.205C197.804 281.285 197.408 281.521 196.994 281.728C196.579 281.934 196.184 282.16 196.115 282.23C196.046 282.299 195.65 282.525 195.236 282.73C194.139 283.275 191.489 284.801 191.343 284.972C191.273 285.053 190.878 285.288 190.464 285.495C190.049 285.702 189.653 285.928 189.584 285.997C189.515 286.066 189.12 286.289 188.705 286.493C188.291 286.695 187.356 287.232 186.628 287.685C185.9 288.138 185.203 288.509 185.079 288.509C184.955 288.509 184.816 288.594 184.77 288.697C184.724 288.8 184.234 289.123 183.682 289.412C181.904 290.345 180.183 291.331 179.499 291.81C179.132 292.066 178.708 292.276 178.557 292.276C178.405 292.276 178.281 292.362 178.281 292.466C178.281 292.57 177.914 292.818 177.465 293.015C176.559 293.414 173.706 295.04 173.509 295.27C173.44 295.35 173.045 295.586 172.63 295.792C172.216 295.999 171.82 296.225 171.751 296.294C171.682 296.363 170.891 296.802 169.993 297.268C169.095 297.734 168.182 298.271 167.964 298.461C167.746 298.651 167.444 298.806 167.294 298.806C167.143 298.806 166.983 298.9 166.937 299.013C166.822 299.297 162.774 301.007 161.146 301.461C159.236 301.992 154.287 302.207 152.361 301.842C148.476 301.105 146.503 300.215 138.764 295.706C137.626 295.043 121.853 285.922 121.324 285.62C120.263 285.017 115.118 282.062 114.397 281.643C113.01 280.835 90.8949 268.05 90.4321 267.788C89.6131 267.324 84.3047 264.277 83.5032 263.81C80.9118 262.302 59.7842 250.104 58.9055 249.61C56.144 248.054 53.2538 246.296 52.5884 245.768C51.5668 244.956 49.1563 242.517 48.5516 241.682C48.2749 241.3 47.8296 240.7 47.5617 240.348C47.1398 239.795 45.7486 237.129 45.4974 236.393C45.4502 236.255 45.1008 235.069 44.721 233.756L44.0303 231.37V176.492V121.614L44.5937 119.403C45.6566 115.234 47.6903 111.679 50.5966 108.91C51.911 107.657 54.5047 105.665 54.8209 105.665C54.8876 105.665 55.8209 105.142 56.8954 104.503C59.1583 103.156 60.1693 102.572 61.7378 101.703C62.3596 101.359 62.9814 100.992 63.1193 100.886C63.2576 100.782 63.7944 100.457 64.3123 100.167C64.8302 99.8756 65.6781 99.3952 66.1961 99.0997C66.7144 98.8037 67.6469 98.2802 68.2682 97.9359C68.89 97.5916 69.5118 97.2239 69.6497 97.1191C69.9171 96.916 71.0445 96.2716 73.2917 95.0374C74.0514 94.6201 75.1047 94.0088 75.6314 93.6792C76.692 93.0164 77.7504 92.4079 79.8221 91.2703C80.5822 90.8525 81.6351 90.2416 82.1618 89.912C83.1388 89.3012 84.0887 88.7528 86.1016 87.6382C86.7234 87.294 87.3447 86.9267 87.4831 86.8214C87.7501 86.6188 88.8778 85.9739 91.1251 84.7398C91.8848 84.3224 92.9376 83.7116 93.4647 83.382C94.5254 82.7187 95.5838 82.1102 97.6555 80.9726C98.4152 80.5552 99.468 79.9439 99.9951 79.6144C100.972 79.0035 101.922 78.4556 103.935 77.341C104.556 76.9963 105.178 76.629 105.316 76.5242C105.454 76.419 105.992 76.0949 106.509 75.804C107.027 75.513 107.875 75.0327 108.393 74.7372C108.911 74.4416 109.844 73.9176 110.465 73.5734C111.087 73.2291 111.709 72.8619 111.847 72.7566C112.114 72.5539 113.242 71.909 115.488 70.6749C116.249 70.2576 117.301 69.6467 117.829 69.3172C118.929 68.6291 120.058 67.9819 122.019 66.9146C122.779 66.501 123.57 66.0372 123.777 65.8841C123.984 65.7306 124.424 65.4535 124.754 65.2678C125.083 65.0821 125.762 64.6992 126.261 64.4161C126.76 64.1334 127.677 63.6204 128.298 63.2757C128.92 62.9314 129.542 62.5642 129.68 62.4589C129.947 62.2562 131.075 61.6114 133.322 60.3777C134.081 59.9599 135.135 59.349 135.661 59.0195C136.733 58.3493 137.814 57.7288 139.852 56.6119C140.612 56.1959 141.829 55.4775 142.557 55.0165C143.285 54.555 143.946 54.1777 144.026 54.1777C144.105 54.1777 144.47 53.964 144.837 53.7029C146.524 52.5019 151.106 51.0908 154.3 50.7888C157.433 50.4923 162.203 51.4038 165.089 52.8498C166.11 53.3614 169.161 55.0744 171.705 56.5637C171.941 56.702 173.415 57.5496 174.98 58.4472C176.546 59.3454 178.183 60.2885 178.619 60.5436C179.36 60.9775 188.134 66.0519 189.91 67.0732C190.352 67.3283 194.363 69.6453 198.823 72.2221C203.284 74.7992 207.296 77.1158 207.74 77.3709C208.184 77.626 212.197 79.943 216.657 82.5197C221.117 85.0964 225.129 87.4135 225.573 87.6686C228.02 89.0727 242.515 97.451 242.833 97.6449C245.499 99.2716 258.104 106.394 259.085 106.828C265.874 109.834 275.002 108.548 281.033 103.738C285.105 100.49 288.667 95.1661 289.941 90.4236C290.505 88.3226 290.617 84.077 290.165 81.9309C289.711 79.7752 289.024 77.7864 288.733 77.7864C288.614 77.7864 288.586 77.6738 288.671 77.5354C288.757 77.3971 288.707 77.2845 288.561 77.2845C288.415 77.2845 288.323 77.1976 288.358 77.0914C288.427 76.8777 286.945 74.4825 286.16 73.5412C284.096 71.0647 281.328 68.9453 276.551 66.1843C274.567 65.037 272.583 63.8898 272.142 63.6351C271.702 63.38 267.695 61.063 263.24 58.4863C258.784 55.9096 254.939 53.6877 254.697 53.5498C253.459 52.8457 248.46 49.9734 247.77 49.5703C246.932 49.0803 231.33 40.0638 229.952 39.2727C229.507 39.0178 225.498 36.7008 221.042 34.1239C216.587 31.547 212.743 29.3256 212.5 29.1874C211.234 28.4676 206.259 25.6089 205.573 25.2076C204.725 24.7113 195.397 19.3096 194.664 18.8899C192.112 17.4294 188.372 15.28 187.74 14.9103C187.304 14.6554 183.33 12.358 178.91 9.80526C174.489 7.2525 170.702 5.06013 170.495 4.93354C168.824 3.91307 165.501 2.11804 164.299 1.58734C161.684 0.432264 160.044 0.116557 156.179 0.0258889C152.991 -0.0487052 152.254 0.0143357 150.269 0.530971ZM140.355 82.4296C138.662 82.8245 137.341 83.3052 137.341 83.5268C137.341 83.6173 136.974 83.8513 136.525 84.0462C136.075 84.2411 134.702 85.0031 133.473 85.7399C132.243 86.4767 131.141 87.0793 131.024 87.0793C130.906 87.0793 130.81 87.1648 130.81 87.2691C130.81 87.3739 130.443 87.6208 129.994 87.8189C129.087 88.2178 126.234 89.8436 126.038 90.0729C125.969 90.1538 125.573 90.3891 125.159 90.5955C124.745 90.8024 124.349 91.0285 124.28 91.0974C124.21 91.1668 123.42 91.6053 122.522 92.0714C121.624 92.5375 120.71 93.0743 120.492 93.2642C120.274 93.454 119.973 93.6098 119.823 93.6098C119.672 93.6098 119.511 93.6944 119.465 93.7978C119.42 93.9017 118.93 94.2234 118.377 94.5135C116.599 95.4461 114.878 96.432 114.194 96.9104C113.828 97.1669 113.403 97.377 113.252 97.377C113.101 97.377 112.977 97.4625 112.977 97.5668C112.977 97.6712 112.61 97.9184 112.161 98.1161C111.254 98.515 108.401 100.141 108.205 100.371C108.135 100.451 107.74 100.686 107.326 100.893C106.911 101.1 106.515 101.326 106.447 101.396C106.378 101.465 105.982 101.69 105.567 101.896C104.471 102.441 101.821 103.967 101.674 104.138C101.605 104.219 101.209 104.454 100.795 104.66C100.381 104.867 99.985 105.093 99.9161 105.163C99.8467 105.233 99.4515 105.455 99.037 105.658C98.6224 105.861 97.6877 106.398 96.9602 106.851C96.2318 107.304 95.5346 107.675 95.411 107.675C95.2869 107.675 95.1481 107.759 95.1017 107.863C95.0557 107.967 94.5659 108.288 94.0135 108.578C92.2349 109.511 90.5148 110.497 89.8305 110.975C89.4638 111.232 89.0492 111.442 88.9095 111.442C88.7694 111.442 88.6177 111.526 88.5713 111.63C88.5254 111.734 87.8659 112.14 87.1062 112.533C85.5359 113.343 83.756 114.49 83.6319 114.77C83.5855 114.873 83.444 114.958 83.3171 114.958C83.0023 114.958 81.3796 116.778 80.3993 118.231C79.1535 120.078 78.5698 122.119 78.5551 124.68C78.5248 129.882 81.0184 133.86 85.8006 136.237C87.4922 137.078 87.8447 137.158 90.3521 137.261C92.6366 137.355 93.3475 137.287 94.8136 136.833C95.7727 136.537 96.7764 136.141 97.0438 135.954C97.5604 135.592 98.6753 134.949 100.921 133.716C101.68 133.298 102.733 132.688 103.26 132.358C104.237 131.747 105.187 131.199 107.2 130.084C107.822 129.74 108.443 129.372 108.582 129.267C108.72 129.162 109.257 128.839 109.775 128.548C110.293 128.257 111.14 127.776 111.658 127.481C112.176 127.185 113.109 126.661 113.731 126.317C114.352 125.972 114.974 125.605 115.112 125.5C115.379 125.297 116.507 124.652 118.754 123.419C119.514 123.001 120.567 122.39 121.094 122.06C122.154 121.398 123.213 120.788 125.284 119.651C126.044 119.234 127.097 118.623 127.624 118.293C128.601 117.682 129.551 117.134 131.564 116.019C132.185 115.675 132.807 115.307 132.945 115.203C133.083 115.097 133.62 114.773 134.138 114.483C134.656 114.191 135.504 113.712 136.022 113.415C136.54 113.12 137.473 112.596 138.094 112.252C138.716 111.907 139.337 111.54 139.475 111.435C139.743 111.232 140.87 110.587 143.117 109.354C143.878 108.936 144.93 108.325 145.457 107.995C146.372 107.424 147.685 106.658 148.769 106.065C150.08 105.348 151.699 104.062 152.644 102.99C153.91 101.55 155.345 98.7012 155.659 97.0001C155.94 95.4778 155.808 92.4782 155.416 91.4624C155.258 91.0547 155.089 90.5188 155.038 90.271C154.814 89.1628 153.679 87.4038 152.269 85.9789C149.03 82.7086 144.696 81.4175 140.355 82.4296ZM87.6752 216.296C85.5841 216.883 84.017 217.8 82.5165 219.312C79.6121 222.24 78.5188 224.728 78.5073 228.437C78.4963 232.086 79.6093 234.837 82.0657 237.229C83.4026 238.531 85.3351 239.734 94.8375 245.184C96.9845 246.415 101.04 248.75 101.38 248.951C101.614 249.089 103.087 249.937 104.652 250.835C106.217 251.733 107.855 252.676 108.291 252.931C108.727 253.186 114.202 256.35 120.457 259.963C126.712 263.576 132.194 266.743 132.639 267C136.361 269.153 138.952 270.46 140.204 270.815C142.148 271.368 145.435 271.211 147.495 270.467C152.994 268.482 156.488 262.708 155.685 256.934C155.54 255.9 155.342 254.923 155.243 254.765C155.144 254.607 155.028 254.251 154.985 253.974C154.943 253.698 154.798 253.434 154.663 253.388C154.527 253.341 154.481 253.2 154.559 253.074C154.637 252.947 154.581 252.844 154.435 252.844C154.289 252.844 154.196 252.759 154.229 252.656C154.328 252.341 152.782 250.265 151.716 249.283C151.165 248.775 149.28 247.532 147.526 246.52C143.092 243.962 143.937 244.45 131.369 237.188C125.114 233.573 119.632 230.408 119.187 230.153C117.175 229.002 102.262 220.382 101.925 220.176C100.314 219.192 96.4156 217.058 95.4496 216.631C93.8834 215.939 89.6003 215.755 87.6752 216.296Z" fill="#24AFE5"/>
<path d="M547.709 205.733L530.888 208.766V34.4727H581.349V241.309H515.723L389.71 67.0148L406.53 63.9812V241.309H356.07V34.4727H423.626L547.709 205.733ZM848.507 155.816C846.485 173.65 840.327 189.37 830.032 202.975C819.738 216.396 806.135 226.876 789.223 234.414C772.311 241.952 753.01 245.721 731.318 245.721C707.605 245.721 686.74 241.217 668.725 232.208C650.894 223.199 637.016 210.605 627.089 194.426C617.162 178.247 612.199 159.402 612.199 137.891C612.199 116.38 617.162 97.5346 627.089 81.3555C637.016 65.1763 650.894 52.5823 668.725 43.5734C686.74 34.5646 707.605 30.0602 731.318 30.0602C753.01 30.0602 772.311 33.8292 789.223 41.3672C806.135 48.9052 819.738 59.3849 830.032 72.8062C840.327 86.2276 846.485 101.947 848.507 119.965H796.117C794.278 110.588 790.51 102.591 784.811 95.9719C779.297 89.3531 771.944 84.2971 762.752 80.8039C753.745 77.1268 743.267 75.2883 731.318 75.2883C717.531 75.2883 705.674 77.8622 695.748 83.0102C685.821 87.9742 678.193 95.1445 672.862 104.521C667.531 113.898 664.865 125.021 664.865 137.891C664.865 150.76 667.531 161.884 672.862 171.26C678.193 180.637 685.821 187.899 695.748 193.047C705.674 198.011 717.531 200.493 731.318 200.493C743.267 200.493 753.745 198.746 762.752 195.253C771.944 191.76 779.297 186.704 784.811 180.085C790.51 173.466 794.278 165.377 796.117 155.816H848.507ZM873.535 28.957H924.546V241.309H873.535V28.957ZM983.554 79.7008C998.444 79.7008 1011.13 82.7344 1021.61 88.8016C1032.27 94.8687 1040.36 103.418 1045.87 114.449C1051.57 125.297 1054.42 138.35 1054.42 153.61V241.309H1003.13V161.332C1003.13 148.278 999.915 138.442 993.481 131.823C987.231 125.021 978.04 121.62 965.907 121.62C957.451 121.62 950.098 123.458 943.848 127.135C937.782 130.628 933.002 135.684 929.51 142.303C926.201 148.738 924.546 156.46 924.546 165.469L908.278 156.92C910.484 140.189 915.079 126.124 922.065 114.725C929.05 103.326 937.782 94.6849 948.26 88.8016C958.922 82.7344 970.687 79.7008 983.554 79.7008ZM1222.57 139.821L1226.98 129.617C1243.16 129.985 1256.39 132.467 1266.69 137.063C1277.17 141.66 1284.89 148.003 1289.85 156.092C1295 163.998 1297.57 173.191 1297.57 183.67C1297.57 194.702 1295 204.63 1289.85 213.455C1284.7 222.096 1276.98 228.898 1266.69 233.862C1256.58 238.827 1243.89 241.309 1228.64 241.309H1079.74L1095.73 135.133L1079.74 34.4727H1223.4C1242.51 34.4727 1257.31 38.9771 1267.79 47.9859C1278.45 56.8109 1283.78 69.0372 1283.78 84.6648C1283.78 93.306 1281.76 101.579 1277.72 109.485C1273.67 117.391 1267.24 124.102 1258.42 129.617C1249.59 134.949 1237.64 138.35 1222.57 139.821ZM1131.02 228.623L1111.17 204.078H1216.23C1225.23 204.078 1232.22 201.964 1237.18 197.735C1242.33 193.323 1244.9 187.164 1244.9 179.258C1244.9 171.352 1242.05 165.101 1236.36 160.505C1230.84 155.724 1222.57 153.334 1211.54 153.334H1125.51V116.931H1204.92C1212.46 116.931 1218.71 114.817 1223.67 110.588C1228.64 106.176 1231.12 100.201 1231.12 92.6625C1231.12 86.5953 1229 81.6312 1224.78 77.7703C1220.55 73.7255 1214.39 71.7031 1206.3 71.7031H1111.45L1131.02 47.1586L1145.64 135.133L1131.02 228.623Z" fill="black"/>
<path d="M617.253 284C622.879 284 627.83 284.85 632.108 286.549C636.444 288.248 639.96 290.563 642.656 293.493C645.351 296.364 646.992 299.646 647.578 303.338H632.108C631.229 301.345 629.676 299.705 627.449 298.415C625.223 297.068 621.97 296.394 617.693 296.394C613.122 296.394 609.342 297.243 606.354 298.943C603.424 300.642 601.256 303.074 599.849 306.238C598.443 309.344 597.74 313.182 597.74 317.753C597.74 322.617 598.501 326.748 600.025 330.147C601.607 333.487 603.922 336.007 606.969 337.706C610.016 339.405 613.737 340.255 618.132 340.255C621.238 340.255 623.846 339.845 625.955 339.025C628.123 338.146 629.735 336.944 630.79 335.421C631.903 333.897 632.46 332.198 632.46 330.323C632.46 328.447 631.932 326.807 630.878 325.4C629.881 323.994 628.387 322.91 626.395 322.148C624.402 321.328 621.853 320.917 618.747 320.917C614.646 320.917 610.778 321.855 607.145 323.73C603.512 325.547 600.289 328.125 597.476 331.465L591.587 327.422C593.462 323.789 595.865 320.566 598.794 317.753C601.724 314.882 605.182 312.626 609.167 310.985C613.151 309.286 617.663 308.436 622.703 308.436C628.094 308.436 632.753 309.344 636.679 311.161C640.664 312.919 643.711 315.409 645.82 318.632C647.988 321.855 649.073 325.576 649.073 329.795C649.073 334.249 647.842 338.204 645.381 341.662C642.92 345.119 639.374 347.844 634.745 349.836C630.116 351.77 624.519 352.737 617.956 352.737C609.987 352.737 603.336 351.272 598.003 348.342C592.729 345.412 588.745 341.369 586.049 336.212C583.412 330.996 582.094 325.049 582.094 318.368C582.094 311.688 583.412 305.77 586.049 300.613C588.686 295.456 592.612 291.413 597.828 288.483C603.102 285.494 609.577 284 617.253 284Z" fill="black"/>
<path d="M508.922 308.875C509.273 303.777 510.944 299.382 513.932 295.691C516.921 291.94 520.876 289.069 525.798 287.076C530.779 285.025 536.405 284 542.675 284C548.652 284 553.867 284.908 558.321 286.725C562.774 288.541 566.261 291.09 568.781 294.372C571.301 297.654 572.561 301.433 572.561 305.711C572.561 309.051 571.682 312.157 569.924 315.028C568.166 317.841 565.382 320.654 561.573 323.467C557.764 326.279 552.754 329.268 546.543 332.432L527.468 342.453L526.59 338.146H574.406V351.33H510.065V339.728L538.368 323.467C542.88 320.888 546.396 318.691 548.916 316.874C551.494 314.999 553.311 313.27 554.365 311.688C555.42 310.106 555.948 308.407 555.948 306.59C555.948 304.715 555.42 303.045 554.365 301.58C553.369 300.115 551.846 298.972 549.795 298.152C547.744 297.331 545.165 296.921 542.06 296.921C538.368 296.921 535.321 297.478 532.918 298.591C530.516 299.646 528.728 301.082 527.556 302.898C526.384 304.715 525.681 306.707 525.447 308.875H508.922Z" fill="black"/>
<path d="M465.509 352.737C458.067 352.737 451.621 351.301 446.171 348.43C440.722 345.558 436.503 341.574 433.514 336.475C430.526 331.319 429.031 325.283 429.031 318.368C429.031 311.512 430.526 305.506 433.514 300.349C436.503 295.192 440.722 291.178 446.171 288.307C451.621 285.436 458.067 284 465.509 284C472.893 284 479.309 285.436 484.759 288.307C490.209 291.178 494.428 295.192 497.416 300.349C500.405 305.447 501.899 311.454 501.899 318.368C501.899 325.224 500.405 331.231 497.416 336.388C494.428 341.544 490.209 345.558 484.759 348.43C479.309 351.301 472.893 352.737 465.509 352.737ZM465.509 339.2C471.779 339.2 476.643 337.384 480.1 333.751C483.616 330.117 485.374 324.99 485.374 318.368C485.374 311.747 483.616 306.619 480.1 302.986C476.643 299.353 471.779 297.536 465.509 297.536C459.239 297.536 454.346 299.353 450.83 302.986C447.314 306.619 445.556 311.747 445.556 318.368C445.556 324.99 447.314 330.117 450.83 333.751C454.346 337.384 459.239 339.2 465.509 339.2Z" fill="black"/>
<path d="M356 308.875C356.352 303.777 358.022 299.382 361.01 295.691C363.999 291.94 367.954 289.069 372.877 287.076C377.857 285.025 383.483 284 389.753 284C395.73 284 400.946 284.908 405.399 286.725C409.853 288.541 413.339 291.09 415.859 294.372C418.379 297.654 419.639 301.433 419.639 305.711C419.639 309.051 418.76 312.157 417.002 315.028C415.244 317.841 412.46 320.654 408.651 323.467C404.842 326.279 399.832 329.268 393.621 332.432L374.547 342.453L373.668 338.146H421.485V351.33H357.143V339.728L385.446 323.467C389.958 320.888 393.474 318.691 395.994 316.874C398.572 314.999 400.389 313.27 401.444 311.688C402.498 310.106 403.026 308.407 403.026 306.59C403.026 304.715 402.498 303.045 401.444 301.58C400.447 300.115 398.924 298.972 396.873 298.152C394.822 297.331 392.244 296.921 389.138 296.921C385.446 296.921 382.399 297.478 379.996 298.591C377.594 299.646 375.806 301.082 374.635 302.898C373.463 304.715 372.759 306.707 372.525 308.875H356Z" fill="black"/>
</g>
<defs>
<clipPath id="clip0_795_1809">
<rect width="1307" height="353" fill="white"/>
</clipPath>
</defs>
</svg>
